<svg width="361" height="222" viewBox="0 0 361 222" fill="none" xmlns="http://www.w3.org/2000/svg">
<mask id="mask0_221_26" style="mask-type:alpha" maskUnits="userSpaceOnUse" x="0" y="0" width="361" height="222">
<rect width="361" height="222" fill="#D9D9D9"/>
</mask>
<g mask="url(#mask0_221_26)">
<g filter="url(#filter0_f_221_26)">
<ellipse cx="189.5" cy="186" rx="201.5" ry="65" fill="#FFF3DB"/>
</g>
<path d="M20.2443 202.536C21.2245 195.143 -1.9797 181.363 25.4204 181.363C54.4912 181.363 76.4817 169.902 107.128 184.131C124.033 191.979 151.311 193.879 159.644 206.788C172.493 226.691 90.3015 217.731 69.4729 211.426C48.6444 205.12 19.2052 210.372 20.2443 202.536Z" fill="#154068"/>
<path d="M222.011 202.735C222.876 196.237 242.328 182.125 261.828 182.125C287.488 182.125 279.512 180.215 303.863 174.599C333.988 167.651 368.447 184.918 375.803 196.266C387.145 213.761 314.596 205.885 296.211 200.342C277.826 194.799 221.094 209.623 222.011 202.735Z" fill="#154068"/>
<path d="M1 209.196C184.741 192.561 273.865 193.312 361 209.196V1049C219.635 1044.73 140.891 1044.54 1 1049L1 209.196Z" fill="url(#paint0_linear_221_26)"/>
<path d="M326.109 155.153C326.214 155.289 326.313 155.43 326.425 155.56C326.6 155.762 326.785 155.956 326.965 156.153C327.14 156.343 327.348 156.47 327.592 156.567C327.835 156.664 328.064 156.811 328.275 156.969C328.423 157.08 328.39 157.158 328.243 157.277C328.164 157.342 328.092 157.434 328.059 157.529C328.007 157.675 327.905 157.736 327.771 157.757C327.636 157.777 327.499 157.781 327.363 157.791C327.221 157.801 327.169 157.859 327.213 158.009C327.296 158.295 327.354 158.588 327.442 158.872C327.465 158.947 327.543 159.026 327.617 159.06C328.443 159.452 329.293 159.777 330.204 159.913C330.21 159.914 330.217 159.913 330.224 159.915C330.344 159.954 330.532 159.893 330.551 160.086C330.569 160.265 330.45 160.384 330.301 160.474C330.207 160.531 330.081 160.583 330.04 160.67C329.963 160.838 329.977 161.023 330.081 161.193C330.199 161.386 330.269 161.592 330.227 161.85C330.123 161.85 330.021 161.853 329.919 161.848C329.781 161.842 329.698 161.899 329.671 162.038C329.647 162.161 329.608 162.26 329.442 162.238C329.408 162.233 329.339 162.327 329.323 162.386C329.293 162.49 329.292 162.601 329.274 162.739C329.136 162.69 329.018 162.648 328.869 162.595C328.847 162.731 328.827 162.854 328.805 162.991C328.74 162.996 328.671 163.002 328.622 163.007C328.492 163.222 328.37 163.424 328.23 163.656C328.44 163.733 328.626 163.801 328.838 163.879C328.857 163.761 328.872 163.673 328.885 163.586C328.9 163.493 328.929 163.441 329.04 163.492C329.672 163.784 330.346 163.923 331.03 164.029C331.239 164.061 331.409 164.01 331.585 163.913C331.961 163.707 332.343 163.509 332.723 163.308C332.841 163.245 332.927 163.168 332.872 163.014C332.818 162.863 332.713 162.844 332.574 162.881C332.52 162.895 332.461 162.889 332.388 162.893C332.422 162.774 332.45 162.672 332.488 162.535C332.248 162.567 332.039 162.594 331.829 162.621C331.826 162.613 331.824 162.605 331.821 162.598C331.956 162.526 332.091 162.455 332.271 162.359C332.101 162.284 331.985 162.234 331.816 162.16C331.942 162.119 332.02 162.1 332.094 162.071C332.566 161.885 333.039 161.701 333.507 161.507C333.613 161.463 333.715 161.393 333.799 161.314C333.906 161.214 334.096 161.04 334.07 160.988C333.964 160.777 333.846 160.537 333.554 160.508C333.505 160.504 333.456 160.49 333.381 160.432C333.632 160.249 333.884 160.067 334.163 159.864C333.924 159.827 333.717 159.795 333.461 159.755C333.54 159.703 333.576 159.672 333.618 159.652C334.37 159.299 334.771 158.649 335.094 157.928C335.177 157.741 335.263 157.54 335.401 157.395C335.637 157.145 335.789 156.865 335.887 156.541C335.978 156.243 336.09 155.951 336.198 155.658C336.227 155.581 336.275 155.512 336.315 155.44C336.337 155.451 336.346 155.453 336.346 155.457C336.507 156.109 337.001 156.618 337.11 157.301C337.176 157.713 337.309 158.13 337.495 158.504C337.67 158.858 337.937 159.173 338.194 159.48C338.341 159.657 338.51 159.605 338.687 159.358C338.419 159.35 338.221 159.255 338.177 158.919C338.418 158.903 338.668 158.86 338.913 158.878C339.23 158.9 339.545 158.963 339.857 159.027C340.051 159.066 340.146 159.004 340.203 158.819C340.374 158.258 340.398 158.287 339.827 158.283C339.763 158.283 339.7 158.273 339.624 158.266C339.619 157.791 340.005 157.592 340.242 157.292C340.189 157.263 340.117 157.223 340.032 157.177C340.192 157.065 340.331 157.088 340.482 157.174C340.799 157.354 341.122 157.524 341.445 157.694C341.51 157.728 341.583 157.746 341.653 157.771C341.669 157.756 341.685 157.741 341.701 157.726C341.563 157.497 341.426 157.269 341.28 157.028C341.347 156.995 341.412 156.963 341.522 156.907C341.358 156.796 341.227 156.695 341.084 156.613C340.977 156.552 340.927 156.482 340.918 156.355C340.898 156.09 340.856 155.826 340.821 155.545C341.163 155.726 341.5 155.903 341.836 156.081C341.849 156.061 341.863 156.042 341.877 156.024C341.8 155.839 341.64 155.728 341.494 155.596C341.336 155.453 341.168 155.302 341.205 155.046C341.211 155.002 341.168 154.935 341.128 154.903C340.881 154.703 340.716 154.455 340.637 154.115C340.739 154.187 340.815 154.24 340.891 154.294C341.333 154.605 341.768 154.926 342.219 155.223C342.455 155.377 342.592 155.353 342.783 155.17C342.494 155.004 342.217 154.844 341.93 154.678C341.995 154.583 342.071 154.469 342.167 154.328C342.07 154.302 342.004 154.285 341.926 154.264C341.936 154.236 341.939 154.204 341.956 154.182C342.417 153.56 342.534 152.83 342.628 152.089C342.687 151.618 342.769 151.151 342.847 150.682C342.861 150.596 342.904 150.514 342.926 150.45C343.298 150.889 343.658 151.33 344.034 151.756C344.31 152.068 344.613 152.355 344.89 152.667C344.951 152.736 344.947 152.861 344.976 152.959C344.997 153.031 345.012 153.108 345.049 153.17C345.092 153.24 345.158 153.296 345.22 153.366C345.175 153.415 345.137 153.456 345.098 153.5C345.112 153.519 345.12 153.544 345.134 153.548C345.284 153.59 345.433 153.637 345.585 153.667C345.736 153.698 345.859 153.725 345.908 153.915C345.938 154.032 346.064 154.124 346.149 154.228C345.999 154.322 345.968 154.445 346.056 154.598C345.99 154.589 345.937 154.578 345.883 154.575C345.834 154.573 345.785 154.579 345.671 154.585C345.825 154.769 345.947 154.913 346.08 155.071C345.99 155.076 345.92 155.08 345.785 155.087C345.942 155.196 346.055 155.274 346.124 155.322C346.363 154.964 346.577 154.641 346.814 154.285C347.035 154.739 347.257 155.172 347.453 155.615C347.528 155.785 347.279 156.113 347.09 156.114C346.895 156.114 346.832 156.192 346.874 156.376C346.935 156.646 346.99 156.918 347.061 157.246C347.179 157.1 347.253 157.008 347.357 156.88C347.405 157.051 347.453 157.184 347.477 157.321C347.501 157.459 347.574 157.507 347.705 157.496C347.828 157.487 347.951 157.483 348.15 157.473C348 157.694 347.88 157.872 347.747 158.07C347.844 158.129 347.968 158.203 348.113 158.29C347.96 158.479 347.815 158.659 347.67 158.838C347.683 158.852 347.697 158.866 347.71 158.88C347.742 158.866 347.781 158.86 347.804 158.837C347.946 158.689 348.085 158.745 348.156 158.887C348.305 159.188 348.424 159.503 348.546 159.816C348.57 159.877 348.549 159.956 348.549 160.05C348.38 160.005 348.332 160.111 348.329 160.239C348.322 160.601 348.325 160.963 348.323 161.324C348.834 161.357 349.313 161.388 349.822 161.421C349.862 161.271 349.908 161.1 349.963 160.897C349.77 160.88 349.601 160.864 349.363 160.843C349.476 160.67 349.557 160.537 349.647 160.411C349.729 160.298 349.874 160.217 349.798 159.983C350.187 160.17 350.533 160.337 350.88 160.504C350.896 160.491 350.911 160.478 350.928 160.466C350.841 160.308 350.756 160.149 350.662 159.977C350.711 159.951 350.758 159.926 350.856 159.874C350.435 159.692 350.313 159.369 350.345 158.94C350.578 159.06 350.803 159.175 351.026 159.29L351.055 159.254C350.766 158.831 350.477 158.408 350.189 157.985C350.208 157.968 350.228 157.95 350.248 157.933C350.335 157.995 350.42 158.059 350.508 158.118C350.79 158.305 351.07 158.495 351.357 158.673C351.454 158.733 351.572 158.772 351.705 158.625C351.51 158.486 351.326 158.354 351.131 158.215C351.225 158.103 351.315 157.996 351.102 157.932C351.481 157.483 351.527 156.937 351.613 156.406C351.663 156.098 351.697 155.787 351.742 155.478C351.754 155.398 351.781 155.319 351.8 155.24C351.826 155.225 351.851 155.21 351.877 155.194C351.903 155.247 351.92 155.307 351.958 155.35C352.303 155.749 352.634 156.161 353.007 156.533C353.241 156.768 353.311 157.067 353.453 157.339C353.482 157.396 353.542 157.475 353.592 157.477C353.883 157.491 354.004 157.71 354.153 157.915C354.069 158.02 353.985 158.127 353.88 158.258C353.896 158.279 353.939 158.325 353.971 158.377C353.992 158.412 354.016 158.457 354.011 158.494C353.989 158.668 353.985 158.668 354.159 158.724C354.313 158.504 354.463 158.289 354.658 158.011C354.818 158.361 354.973 158.657 355.087 158.969C355.139 159.112 355.03 159.238 354.872 159.261C354.712 159.285 354.678 159.378 354.704 159.508C354.741 159.691 354.79 159.872 354.834 160.054C354.865 160.062 354.895 160.07 354.927 160.077C354.958 160.021 354.989 159.966 355.038 159.88C355.13 160.133 355.14 160.444 355.552 160.296L355.557 160.368C355.482 160.476 355.406 160.585 355.322 160.707C355.391 160.759 355.466 160.816 355.55 160.88C355.468 161.004 355.389 161.125 355.266 161.312C355.622 161.177 355.667 161.408 355.75 161.587C355.801 161.699 355.855 161.812 355.887 161.931C355.904 161.991 355.899 162.081 355.864 162.129C355.598 162.494 355.713 162.885 355.788 163.267C355.803 163.344 355.932 163.403 356.016 163.461C356.167 163.565 356.164 163.619 356.012 163.711C355.971 163.736 355.929 163.832 355.946 163.859C355.989 163.929 356.067 164.03 356.128 164.027C356.538 164.014 356.962 164.031 357.352 163.929C357.614 163.86 357.833 163.616 358.059 163.436C358.088 163.412 358.074 163.271 358.033 163.232C357.883 163.092 357.714 162.972 357.529 162.825C357.688 162.693 357.883 162.531 358.113 162.34C357.916 162.317 357.751 162.297 357.585 162.279C357.581 162.265 357.576 162.252 357.572 162.238C357.691 162.17 357.808 162.099 357.928 162.035C358.14 161.921 358.356 161.813 358.569 161.699C358.855 161.546 359.021 161.306 359.113 160.995C359.181 160.768 359.283 160.548 359.389 160.334C359.49 160.131 359.478 159.933 359.424 159.727C359.398 159.631 359.377 159.534 359.373 159.429C359.592 159.622 359.779 159.831 359.863 160.116C359.914 160.289 359.976 160.461 360.053 160.625C360.129 160.788 360.253 160.893 360.456 160.872C360.513 160.866 360.59 160.893 360.634 160.932C361.04 161.295 361.442 161.664 361.845 162.031C361.84 162.055 361.834 162.079 361.829 162.103C361.692 162.148 361.558 162.202 361.418 162.233C361.311 162.256 361.198 162.255 361.087 162.257C360.932 162.26 360.859 162.303 360.914 162.48C361.03 162.853 361.13 163.23 361.236 163.605C361.251 163.66 361.261 163.717 361.284 163.814C360.97 163.673 360.699 163.499 360.327 163.535C360.384 163.619 360.423 163.672 360.457 163.729C360.545 163.872 360.648 164.008 360.712 164.16C360.779 164.321 360.907 164.351 361.048 164.388C361.3 164.453 361.55 164.522 361.798 164.599C361.875 164.623 361.943 164.678 362.044 164.736C361.978 164.769 361.943 164.796 361.905 164.802C361.79 164.818 361.682 164.815 361.631 164.966C361.614 165.016 361.473 165.027 361.387 165.051C361.097 165.131 360.805 165.201 360.519 165.293C360.428 165.323 360.279 165.356 360.328 165.514C360.374 165.662 360.47 165.773 360.644 165.745C360.946 165.695 361.248 165.641 361.545 165.573C361.818 165.511 362.086 165.427 362.357 165.356C362.428 165.338 362.504 165.334 362.579 165.323L362.606 165.371C362.543 165.427 362.475 165.479 362.417 165.541C362.354 165.609 362.307 165.694 362.24 165.757C362.178 165.815 362.097 165.853 362.026 165.901C361.93 165.966 361.787 166.012 361.749 166.102C361.681 166.264 361.764 166.412 361.908 166.525C362.083 166.66 362.254 166.803 362.416 166.953C362.577 167.102 362.551 167.15 362.358 167.228C362.158 167.31 361.974 167.428 361.783 167.53L361.789 167.613C361.98 167.704 362.169 167.801 362.363 167.886C362.552 167.968 362.746 168.04 362.975 168.131C362.747 168.293 362.519 168.29 362.303 168.331C362.219 168.346 362.074 168.387 362.071 168.425C362.061 168.571 362.072 168.729 362.269 168.776C362.337 168.792 362.395 168.844 362.461 168.869C362.628 168.931 362.792 169.009 362.965 169.042C363.358 169.117 363.666 169.339 363.979 169.565C363.898 169.65 363.932 169.784 364.081 169.965C363.989 170.025 363.896 170.087 363.804 170.148C363.878 170.242 363.952 170.336 364.051 170.461L363.159 170.458C363.105 170.547 363.039 170.655 362.973 170.763C362.926 170.98 363.02 171.11 363.219 171.214C363.625 171.427 363.973 171.313 364.299 171.045C364.43 170.938 364.554 170.823 364.688 170.719C364.751 170.671 364.828 170.641 364.933 170.584C364.904 170.949 364.544 170.989 364.415 171.23C364.456 171.258 364.491 171.281 364.537 171.311C364.509 171.342 364.488 171.375 364.457 171.396C364.298 171.504 364.298 171.621 364.411 171.77C364.601 172.017 364.778 172.274 364.973 172.545C364.928 172.561 364.896 172.574 364.862 172.583C364.563 172.661 364.507 172.745 364.598 173.039C364.763 173.575 365.051 174.004 365.583 174.259C366.298 174.602 366.998 174.979 367.704 175.342C367.8 175.392 367.892 175.45 367.975 175.532C367.738 175.459 367.501 175.385 367.263 175.312C367.255 175.327 367.246 175.342 367.238 175.357C367.299 175.425 367.361 175.494 367.422 175.563C367.416 175.576 367.409 175.589 367.402 175.601C367.247 175.537 367.092 175.473 366.937 175.409C366.924 175.42 366.91 175.432 366.896 175.444C367.046 175.654 367.197 175.864 367.348 176.074C367.328 176.097 367.308 176.12 367.288 176.143C367.103 176.032 366.919 175.921 366.734 175.811C366.718 175.829 366.703 175.847 366.688 175.866C366.931 176.096 367.174 176.326 367.413 176.553C367.278 176.844 366.815 176.981 367.037 177.439C367.13 177.36 367.2 177.299 367.28 177.232C367.474 177.404 367.325 177.834 367.796 177.756C367.713 177.891 367.666 177.964 367.621 178.039C367.518 178.21 367.553 178.286 367.754 178.312C367.824 178.321 367.897 178.314 367.969 178.32C368.038 178.325 368.106 178.336 368.138 178.34C368.1 178.509 368.024 178.667 368.045 178.81C368.066 178.96 368.181 179.097 368.268 179.266C368.161 179.296 368.038 179.344 367.91 179.364C367.755 179.389 367.739 179.456 367.814 179.575C367.877 179.677 367.94 179.78 368.017 179.904C367.623 179.992 367.418 179.635 367.058 179.595C367.096 179.777 367.129 179.931 367.165 180.105C367.009 180.19 366.832 180.265 366.68 180.374C366.582 180.444 366.532 180.412 366.461 180.357C366.353 180.273 366.247 180.184 366.128 180.12C366.077 180.093 365.995 180.123 365.927 180.128C365.948 180.182 365.973 180.235 365.988 180.291C366.004 180.349 366.01 180.41 366.019 180.469C365.965 180.476 365.911 180.493 365.859 180.486C365.795 180.477 365.733 180.428 365.673 180.433C365.608 180.439 365.511 180.473 365.491 180.52C365.436 180.652 365.36 180.661 365.244 180.617C365.094 180.559 364.94 180.508 364.772 180.449C364.755 180.538 364.74 180.611 364.719 180.723C364.393 180.457 364.059 180.613 363.706 180.655C363.816 180.532 363.937 180.418 364.031 180.284C364.089 180.202 364.16 180.036 364.127 180.002C364.035 179.906 363.896 179.847 363.765 179.8C363.734 179.789 363.652 179.872 363.618 179.928C363.572 180.003 363.549 180.092 363.515 180.182C363.334 180.035 363.162 179.896 362.991 179.756C362.97 179.77 362.949 179.785 362.929 179.799C362.951 179.942 362.97 180.086 362.997 180.229C363.025 180.382 363.005 180.491 362.83 180.548C362.778 180.564 362.73 180.671 362.726 180.74C362.715 180.906 362.656 181.027 362.491 181.093C362.305 180.952 362.118 180.811 361.915 180.659C361.802 180.748 361.666 180.854 361.505 180.979C361.401 180.789 361.307 180.617 361.189 180.399C361.125 180.577 361.089 180.714 361.026 180.836C360.994 180.898 360.91 180.932 360.85 180.978C360.816 180.907 360.753 180.836 360.754 180.765C360.755 180.452 360.708 180.418 360.42 180.553C360.145 180.683 360.148 180.683 360.258 180.97C360.275 181.014 360.255 181.106 360.221 181.128C360.149 181.174 360.055 181.214 359.972 181.209C359.897 181.206 359.826 181.141 359.726 181.089C359.686 181.317 359.651 181.517 359.613 181.74C359.522 181.699 359.458 181.673 359.397 181.642C359.166 181.528 359.124 181.553 359.101 181.819C359.099 181.85 359.092 181.88 359.083 181.935C359.029 181.894 358.987 181.868 358.952 181.835C358.679 181.577 358.642 181.58 358.48 181.832C358.307 181.842 358.166 181.851 357.996 181.862C357.961 181.814 357.901 181.733 357.826 181.631C357.692 181.794 357.571 181.941 357.423 182.121C357.379 182.021 357.355 181.957 357.325 181.898C357.245 181.741 357.175 181.594 356.948 181.582C356.849 181.577 356.757 181.445 356.646 181.358C356.587 181.407 356.514 181.467 356.438 181.53C356.19 181.31 355.936 181.418 355.698 181.527C355.503 181.616 355.327 181.743 355.145 181.858C355.024 181.934 354.925 181.921 354.807 181.835C354.7 181.757 354.57 181.705 354.443 181.659C354.343 181.623 354.233 181.61 354.197 181.76C354.191 181.785 354.159 181.82 354.135 181.823C353.774 181.875 353.414 181.924 353.052 181.969C353.011 181.974 352.965 181.95 352.89 181.932C352.941 181.807 352.986 181.694 353.035 181.57C352.992 181.556 352.96 181.535 352.934 181.54C352.571 181.607 352.209 181.679 351.846 181.746C351.79 181.756 351.707 181.77 351.678 181.741C351.571 181.637 351.47 181.67 351.354 181.711C351.216 181.759 351.073 181.79 350.932 181.828C350.922 181.811 350.911 181.794 350.9 181.777C350.941 181.725 350.973 181.661 351.023 181.622C351.305 181.403 351.588 181.186 351.876 180.976C351.97 180.907 352.079 180.858 352.184 180.807C352.475 180.663 352.591 180.438 352.508 180.096C352.406 180.109 352.299 180.131 352.192 180.131C352.132 180.131 352.073 180.087 352.011 180.069C351.94 180.049 351.847 180.002 351.8 180.029C351.749 180.058 351.707 180.17 351.723 180.228C351.758 180.357 351.832 180.475 351.903 180.624C351.503 180.904 351.098 181.188 350.693 181.47C350.426 181.656 350.144 181.824 349.894 182.032C349.698 182.195 349.528 182.397 349.371 182.601C349.213 182.806 349.209 182.817 348.982 182.713C348.883 182.668 348.717 182.592 348.675 182.631C348.551 182.745 348.461 182.903 348.389 183.059C348.372 183.094 348.466 183.219 348.533 183.248C348.729 183.334 348.937 183.392 349.14 183.463C349.217 183.489 349.293 183.52 349.368 183.548C349.366 183.572 349.364 183.595 349.362 183.619C349.163 183.618 348.963 183.61 348.764 183.618C348.332 183.635 348.282 183.687 348.236 184.113C348.221 184.248 348.252 184.411 348.038 184.43C348.025 184.431 348 184.546 348.017 184.595C348.053 184.697 348.114 184.791 348.19 184.937C348.046 184.882 347.941 184.845 347.839 184.801C347.649 184.721 347.631 184.731 347.611 184.929C347.604 184.997 347.586 185.063 347.561 185.188C347.419 185.008 347.31 184.871 347.202 184.734C347.183 184.736 347.165 184.738 347.146 184.74C347.114 184.931 347.082 185.123 347.047 185.333C346.916 185.16 346.801 184.989 346.666 184.835C346.603 184.762 346.503 184.72 346.42 184.664C346.396 184.741 346.374 184.819 346.348 184.895C346.34 184.917 346.322 184.936 346.292 184.983C346.207 184.757 346.131 184.554 346.044 184.324C345.95 184.433 345.875 184.52 345.822 184.582C345.532 184.389 345.254 184.19 344.962 184.015C344.762 183.896 344.728 183.923 344.679 184.146C344.586 184.569 344.181 184.8 343.683 184.667C343.425 184.599 343.19 184.447 342.921 184.322C342.633 184.76 342.325 185.228 342.016 185.695C341.989 185.689 341.962 185.684 341.935 185.679C341.869 185.354 341.803 185.03 341.737 184.705C341.713 184.708 341.69 184.71 341.666 184.712C341.507 184.913 341.575 185.158 341.535 185.409C341.399 185.198 341.264 184.987 341.105 184.74C340.956 184.947 340.833 185.118 340.696 185.308C340.536 184.862 340.381 184.43 340.21 183.952C339.944 184.228 339.805 184.615 339.322 184.501C339.402 184.335 339.471 184.18 339.551 184.029C339.735 183.682 339.721 183.649 339.33 183.664C339.018 183.676 338.707 183.707 338.353 183.732C338.448 183.587 338.523 183.463 338.606 183.344C338.681 183.236 338.663 183.171 338.539 183.123C338.308 183.035 338.079 182.942 337.849 182.849C337.702 182.79 337.614 182.687 337.56 182.531C337.518 182.407 337.429 182.293 337.338 182.195C337.147 181.99 336.94 181.8 336.743 181.601C336.681 181.538 336.628 181.467 336.552 181.379C337.042 181.264 337.491 181.44 337.956 181.438C337.927 181.217 337.769 181.221 337.643 181.21C337.482 181.197 337.358 181.168 337.378 180.928C337.231 181.01 337.113 181.076 336.972 181.155C336.866 180.935 336.767 180.729 336.646 180.476C336.57 180.671 336.526 180.82 336.453 180.954C336.415 181.023 336.326 181.065 336.261 181.12C336.223 181.046 336.16 180.975 336.153 180.899C336.114 180.502 336.113 180.498 335.737 180.647C335.466 180.754 335.453 180.777 335.561 181.04C335.6 181.134 335.61 181.209 335.515 181.278C335.418 181.348 335.332 181.433 335.203 181.34C335.148 181.301 335.087 181.27 335.028 181.235C335.014 181.25 335 181.264 334.986 181.278C335.074 181.39 335.17 181.497 335.248 181.616C335.317 181.721 335.366 181.839 335.424 181.951C335.303 181.991 335.185 182.056 335.063 182.065C334.876 182.079 334.687 182.049 334.499 182.048C334.391 182.047 334.284 182.067 334.131 182.082C334.052 182.026 333.933 181.926 333.799 181.851C333.587 181.731 333.541 181.916 333.492 182.067C333.254 181.866 333.233 181.865 332.998 182.062C332.939 181.946 332.883 181.835 332.805 181.684C332.624 181.88 332.462 182.054 332.306 182.222C332.261 182.192 332.242 182.186 332.241 182.179C332.22 181.835 331.983 181.706 331.693 181.637C331.529 181.598 331.363 181.563 331.195 181.55C331.034 181.537 330.897 181.566 330.831 181.762C330.765 181.96 330.582 181.97 330.404 181.931C330.126 181.869 329.857 181.775 329.559 181.856C329.421 181.893 329.359 181.951 329.334 182.079C329.315 182.174 329.292 182.269 329.264 182.363C329.197 182.593 329.11 182.627 328.92 182.477C328.767 182.357 328.63 182.216 328.491 182.079C328.398 181.988 328.312 181.89 328.207 181.778C328.111 181.938 328.025 182.087 327.933 182.233C327.587 182.783 327.372 182.806 326.925 182.343C326.862 182.277 326.802 182.208 326.736 182.145C326.596 182.009 326.549 182.022 326.491 182.213C326.457 182.324 326.437 182.441 326.401 182.552C326.369 182.65 326.335 182.75 326.284 182.839C326.154 183.066 326.036 183.084 325.83 182.919C325.751 182.856 325.671 182.794 325.566 182.71C325.451 182.955 325.351 183.168 325.231 183.423C325.123 183.294 325.042 183.198 324.961 183.101C324.822 182.934 324.767 182.93 324.614 183.075C324.455 183.225 324.401 183.217 324.326 182.998C324.244 182.761 324.18 182.517 324.089 182.21C323.908 182.428 323.758 182.609 323.607 182.791C323.582 182.777 323.556 182.764 323.53 182.75C323.457 182.405 323.384 182.061 323.304 181.682C323.206 181.746 323.133 181.784 323.071 181.835C322.89 181.984 322.717 182.143 322.534 182.288C322.471 182.338 322.386 182.356 322.311 182.389C322.289 182.312 322.255 182.235 322.247 182.156C322.236 182.047 322.253 181.934 322.242 181.825C322.234 181.745 322.2 181.667 322.177 181.588C322.1 181.615 322.014 181.629 321.949 181.672C321.755 181.803 321.57 181.949 321.378 182.082C321.318 182.124 321.244 182.146 321.12 182.203C321.182 181.947 321.231 181.747 321.287 181.516C320.992 181.653 320.843 181.978 320.508 181.963C320.497 181.935 320.489 181.923 320.488 181.911C320.481 181.81 320.476 181.709 320.47 181.607C320.373 181.632 320.278 181.672 320.18 181.677C320.129 181.68 320.044 181.633 320.026 181.587C319.981 181.475 319.965 181.351 319.924 181.175C319.782 181.492 319.59 181.376 319.402 181.297C319.273 181.243 319.143 181.187 318.986 181.12C318.972 181.242 318.961 181.334 318.945 181.466C318.811 181.41 318.699 181.35 318.579 181.317C318.473 181.289 318.356 181.268 318.249 181.281C317.94 181.319 317.633 181.379 317.324 181.422C317.25 181.432 317.171 181.409 317.062 181.397C317.27 181.047 317.621 180.896 317.901 180.668C317.89 180.646 317.88 180.624 317.869 180.602C317.749 180.642 317.624 180.672 317.511 180.725C317.417 180.77 317.362 180.759 317.296 180.679C317.201 180.564 317.095 180.457 316.986 180.354C316.939 180.308 316.874 180.281 316.817 180.246C316.8 180.254 316.783 180.263 316.766 180.271C316.787 180.434 316.808 180.597 316.827 180.76C316.836 180.837 316.853 180.915 316.847 180.992C316.832 181.158 316.715 181.223 316.522 181.182C316.499 181.321 316.494 181.466 316.449 181.597C316.356 181.872 316.22 181.899 316.025 181.697C316.003 181.674 315.97 181.643 315.946 181.645C315.777 181.662 315.702 181.552 315.63 181.43C315.576 181.338 315.506 181.326 315.419 181.391C315.285 181.492 315.148 181.59 314.983 181.711C314.872 181.477 314.769 181.26 314.64 180.987C314.58 181.135 314.548 181.229 314.506 181.319C314.46 181.418 314.419 181.525 314.35 181.606C314.309 181.654 314.212 181.685 314.151 181.672C314.113 181.664 314.078 181.56 314.073 181.497C314.062 181.352 314.07 181.206 314.071 181.012C313.809 181.121 313.585 181.215 313.343 181.316C313.427 181.475 313.493 181.6 313.568 181.74C313.454 181.828 313.338 181.919 313.228 182.005C313.098 181.927 312.979 181.856 312.854 181.78C312.79 182.046 312.734 182.282 312.671 182.544C312.56 182.498 312.462 182.456 312.364 182.415C312.117 182.314 312.08 182.337 312.069 182.597C312.066 182.659 312.059 182.721 312.054 182.783L311.993 182.829C311.927 182.745 311.87 182.652 311.794 182.578C311.547 182.334 311.408 182.372 311.306 182.703C311.295 182.738 311.282 182.772 311.269 182.811C311.038 182.525 310.922 182.519 310.744 182.79C310.715 182.718 310.689 182.652 310.662 182.587C310.585 182.396 310.512 182.382 310.373 182.539C310.3 182.622 310.234 182.712 310.17 182.802C310.126 182.866 310.089 182.934 310.049 183.001C310.026 182.985 310.002 182.968 309.978 182.953C309.913 182.802 309.848 182.65 309.784 182.498C309.73 182.373 309.655 182.302 309.5 182.316C309.434 182.321 309.331 182.269 309.299 182.212C309.2 182.042 309.091 182.039 308.947 182.143C308.892 182.183 308.83 182.215 308.754 182.262C308.694 182.005 308.518 182.015 308.349 182.06C308.168 182.108 307.991 182.175 307.82 182.251C307.683 182.311 307.552 182.389 307.43 182.474C307.183 182.647 306.963 182.721 306.718 182.449C306.636 182.357 306.461 182.343 306.324 182.309C306.275 182.298 306.184 182.319 306.164 182.354C306.061 182.542 305.878 182.543 305.707 182.564C305.403 182.601 305.098 182.639 304.793 182.652C304.485 182.665 304.447 182.59 304.598 182.33C304.628 182.277 304.653 182.22 304.696 182.133C304.601 182.125 304.538 182.107 304.48 182.117C304.139 182.172 303.8 182.232 303.46 182.295C303.384 182.309 303.315 182.356 303.239 182.367C303.176 182.376 303.077 182.379 303.047 182.342C302.955 182.226 302.858 182.239 302.735 182.273C302.498 182.338 302.258 182.388 302.01 182.421C302.382 182.043 302.729 181.649 303.22 181.428C303.445 181.327 303.662 181.205 303.874 181.077C304.113 180.933 304.198 180.697 304.106 180.438C304.089 180.391 303.993 180.343 303.937 180.346C303.819 180.353 303.704 180.393 303.576 180.398C303.741 180.107 304.112 180.011 304.232 179.695C303.946 179.516 303.677 179.526 303.395 179.662C303.227 179.743 303.043 179.799 302.861 179.845C302.76 179.87 302.648 179.849 302.493 179.848C302.648 179.721 302.761 179.628 302.888 179.524C302.83 179.489 302.796 179.468 302.699 179.408C302.824 179.33 302.922 179.268 303.022 179.206C303.012 179.186 303.002 179.165 302.993 179.145C302.866 179.125 302.738 179.104 302.578 179.079C302.64 179.021 302.675 178.973 302.722 178.947C303.009 178.786 303.298 178.628 303.587 178.472C303.719 178.401 303.86 178.345 303.981 178.26C304.031 178.225 304.037 178.13 304.063 178.062C304.044 178.05 304.025 178.038 304.006 178.027C304.053 178.007 304.099 177.988 304.146 177.967C304.491 177.82 304.851 177.7 305.177 177.517C305.573 177.296 305.967 177.076 306.417 177.009C306.878 176.94 307.033 176.61 307.151 176.215C307.033 176.293 306.915 176.371 306.745 176.484C306.778 176.364 306.795 176.295 306.816 176.226C306.84 176.145 306.877 176.066 306.888 175.984C306.896 175.912 306.876 175.837 306.868 175.764C306.793 175.786 306.704 175.792 306.644 175.836C306.534 175.914 306.441 176.014 306.341 176.105C306.072 175.821 305.944 175.829 305.707 176.136C305.569 176.315 305.433 176.495 305.27 176.707C305.163 176.576 305.08 176.475 304.968 176.338C304.818 176.666 304.68 176.97 304.541 177.274L304.488 177.262C304.449 177.135 304.41 177.008 304.365 176.863C303.964 177.012 303.718 177.339 303.408 177.588C303.265 177.462 303.307 177.349 303.386 177.233C303.486 177.086 303.584 176.937 303.683 176.789C303.671 176.77 303.658 176.751 303.646 176.731C303.53 176.751 303.415 176.77 303.287 176.791C303.161 176.557 303.378 176.484 303.546 176.325C303.339 176.302 303.18 176.284 302.953 176.259C303.15 176.092 303.311 175.955 303.49 175.803C303.374 175.786 303.273 175.771 303.13 175.75C303.201 175.714 303.239 175.687 303.282 175.674C303.707 175.545 304.075 175.32 304.419 175.043C304.761 174.766 305.124 174.538 305.591 174.515C305.72 174.509 305.843 174.382 305.983 174.302C305.923 174.223 305.889 174.179 305.841 174.115C306.461 173.908 307.122 173.86 307.687 173.534C307.69 173.511 307.694 173.489 307.697 173.466C307.449 173.349 307.2 173.232 306.935 173.107C307.079 173.035 307.21 172.968 307.341 172.902C307.598 172.771 307.653 172.611 307.533 172.344C307.43 172.118 307.435 172.128 307.658 172.025C308.119 171.812 308.575 171.588 309.032 171.367C309.093 171.337 309.148 171.292 309.206 171.254C309.205 171.236 309.203 171.217 309.202 171.199C308.672 171.12 308.141 171.041 307.611 170.962C307.611 170.939 307.611 170.917 307.611 170.894C308.052 170.749 308.553 170.751 308.92 170.388C308.865 170.325 308.824 170.278 308.76 170.204C308.908 170.16 309.039 170.131 309.162 170.081C309.237 170.05 309.363 169.972 309.355 169.941C309.333 169.845 309.277 169.728 309.198 169.683C309.055 169.602 308.886 169.568 308.682 169.498C309.304 169.11 309.871 168.724 310.27 168.154C310.257 168.135 310.244 168.115 310.232 168.095C310.118 168.14 310.004 168.185 309.834 168.252C309.942 168.085 310.018 167.966 310.121 167.807C309.944 167.789 309.808 167.775 309.659 167.76C309.892 167.637 310.114 167.519 310.337 167.402C310.248 167.196 310.12 167.147 309.954 167.158C309.67 167.174 309.385 167.187 309.105 167.201C309.105 166.741 309.454 166.561 309.762 166.35C309.753 166.328 309.744 166.305 309.736 166.283C309.434 166.247 309.132 166.212 308.797 166.172C309.096 165.556 309.662 165.22 310.076 164.724C309.847 164.559 309.585 164.571 309.347 164.509C309.058 164.432 308.882 164.657 308.613 164.801C308.646 164.622 308.67 164.495 308.705 164.309C308.348 164.484 308.02 164.645 307.692 164.806C307.675 164.783 307.658 164.761 307.642 164.739C307.841 164.518 308.041 164.298 308.244 164.073C308.215 164.051 308.201 164.03 308.187 164.03C307.986 164.035 307.813 164.034 307.859 163.738C307.871 163.655 307.76 163.553 307.695 163.441C307.872 163.455 308.042 163.478 308.212 163.479C308.34 163.479 308.486 163.485 308.592 163.429C309.076 163.176 309.55 162.904 310.025 162.634C310.111 162.585 310.218 162.542 310.158 162.396C310.103 162.266 310.038 162.186 309.881 162.222C309.808 162.239 309.728 162.231 309.62 162.236C309.654 162.1 309.682 161.988 309.719 161.838C309.438 161.889 309.187 161.934 308.936 161.98C308.931 161.968 308.927 161.957 308.922 161.946C309.076 161.865 309.229 161.784 309.383 161.703L309.374 161.642C309.254 161.59 309.135 161.538 308.98 161.471C309.097 161.428 309.179 161.394 309.263 161.368C309.914 161.164 310.529 160.884 311.092 160.499C311.447 160.256 311.46 160.166 311.15 159.875C311.017 159.749 310.833 159.677 310.643 159.564C310.876 159.379 311.126 159.182 311.375 158.986C311.37 158.965 311.366 158.945 311.361 158.924C311.156 158.904 310.951 158.885 310.746 158.865C310.741 158.852 310.736 158.84 310.731 158.827C310.798 158.786 310.863 158.74 310.934 158.705C311.283 158.528 311.633 158.355 311.983 158.182C312.324 158.013 312.531 157.745 312.65 157.383C312.749 157.084 312.89 156.797 313.028 156.511C313.133 156.293 313.14 156.075 313.081 155.847C313.049 155.723 313.021 155.598 313.012 155.463C313.274 155.671 313.501 155.9 313.595 156.231C313.65 156.424 313.696 156.621 313.764 156.811C313.859 157.078 314.032 157.245 314.342 157.251C314.435 157.253 314.545 157.311 314.614 157.378C315.08 157.824 315.536 158.279 315.996 158.731C315.99 158.756 315.985 158.782 315.979 158.807C315.74 158.848 315.502 158.893 315.263 158.93C315.186 158.941 315.106 158.932 315.028 158.934C314.806 158.94 314.781 158.981 314.838 159.194C314.965 159.671 315.086 160.15 315.208 160.628C315.223 160.689 315.227 160.754 315.243 160.86C314.841 160.661 314.471 160.463 314.017 160.491C314.11 160.586 314.215 160.672 314.293 160.778C314.379 160.895 314.483 161.024 314.504 161.159C314.538 161.386 314.672 161.451 314.861 161.508C315.276 161.633 315.686 161.777 316.098 161.916C316.138 161.929 316.172 161.96 316.243 162.003C316.094 162.024 315.981 162.037 315.869 162.058C315.754 162.08 315.611 162.063 315.622 162.259C315.624 162.291 315.507 162.35 315.439 162.36C315.311 162.379 315.173 162.348 315.05 162.38C314.733 162.462 314.42 162.561 314.11 162.667C314.065 162.682 314.014 162.777 314.021 162.827C314.041 162.959 314.061 163.123 314.242 163.125C314.462 163.128 314.687 163.126 314.902 163.084C315.419 162.982 315.932 162.855 316.447 162.743C316.557 162.719 316.672 162.714 316.784 162.7C316.795 162.723 316.807 162.746 316.818 162.769C316.652 162.892 316.487 163.015 316.31 163.147C316.342 163.197 316.374 163.248 316.424 163.327C316.248 163.371 316.087 163.406 315.929 163.455C315.79 163.499 315.605 163.529 315.745 163.751C315.749 163.756 315.753 163.765 315.751 163.769C315.597 164.026 315.847 164.081 315.97 164.193C316.147 164.356 316.339 164.503 316.514 164.67C316.573 164.726 316.642 164.836 316.623 164.891C316.6 164.954 316.488 165.007 316.407 165.023C316.144 165.073 315.941 165.208 315.743 165.424C316.148 165.813 316.723 165.836 317.17 166.159C316.896 166.29 316.617 166.336 316.328 166.349C316.222 166.355 316.043 166.269 316.037 166.426C316.032 166.565 316.123 166.736 316.225 166.843C316.336 166.96 316.506 167.024 316.655 167.103C316.746 167.15 316.844 167.208 316.941 167.212C317.295 167.227 317.596 167.373 317.884 167.557C318.058 167.668 318.231 167.781 318.435 167.912C318.365 167.935 318.306 167.945 318.258 167.974C318.225 167.993 318.209 168.04 318.185 168.074C318.221 168.094 318.256 168.129 318.293 168.131C318.536 168.141 319.287 167.785 319.464 167.559C319.246 167.522 319.048 167.488 318.806 167.446C318.892 167.374 318.947 167.317 319.012 167.276C319.199 167.157 319.392 167.049 319.578 166.927C319.814 166.774 320.02 166.597 320.152 166.332C320.25 166.137 320.411 165.975 320.543 165.798C320.727 165.551 320.712 165.512 320.414 165.464C320.279 165.443 320.14 165.434 320.01 165.396C319.928 165.373 319.857 165.308 319.782 165.262L319.793 165.199C319.693 165.241 319.596 165.291 319.493 165.323C319.29 165.386 319.086 165.461 318.877 165.491C318.688 165.518 318.623 165.426 318.616 165.239C318.608 165.01 318.671 164.851 318.91 164.758C319.133 164.671 319.343 164.545 319.542 164.411C319.627 164.354 319.697 164.238 319.715 164.139C319.723 164.094 319.593 164.017 319.519 163.965C319.462 163.925 319.396 163.902 319.325 163.867C319.348 163.822 319.36 163.793 319.376 163.766C319.694 163.237 319.697 163.236 319.605 162.644C319.597 162.59 319.531 162.536 319.479 162.5C319.439 162.472 319.38 162.474 319.33 162.46C319.281 162.446 319.234 162.428 319.173 162.408C319.34 161.936 319.832 161.675 319.949 161.158C319.475 161.156 319.036 161.386 318.565 161.229C318.624 161.145 318.674 161.074 318.748 160.969C318.591 160.941 318.463 160.918 318.276 160.885C318.39 160.82 318.457 160.778 318.528 160.741C318.765 160.619 319.009 160.509 319.239 160.374C319.34 160.315 319.407 160.203 319.498 160.124C319.559 160.071 319.628 160.01 319.703 159.992C320.159 159.885 320.618 159.79 321.075 159.688C321.184 159.664 321.29 159.624 321.397 159.591C321.396 159.567 321.394 159.543 321.393 159.519C321.245 159.485 321.098 159.45 320.95 159.419C320.867 159.402 320.782 159.394 320.699 159.378C320.422 159.326 320.426 159.301 320.397 159.027C320.376 158.829 320.348 158.649 320.472 158.474C320.489 158.45 320.438 158.355 320.396 158.317C320.222 158.162 320.04 158.017 319.853 157.861C319.907 157.794 319.958 157.729 320.002 157.675C319.837 157.529 319.676 157.387 319.496 157.228C319.602 157.129 319.667 157.069 319.733 157.008C320.033 156.729 320.338 156.455 320.631 156.167C320.731 156.069 320.812 155.945 320.88 155.82C321.039 155.522 321 155.306 320.768 155.056C320.711 154.995 320.649 154.932 320.612 154.859C320.53 154.7 320.651 154.319 320.819 154.227C320.971 154.144 321.139 154.091 321.295 154.014C321.539 153.895 321.785 153.777 322.019 153.639C322.109 153.585 322.181 153.487 322.24 153.396C322.376 153.188 322.361 153.093 322.187 152.91C322.28 152.771 322.434 152.655 322.356 152.441C322.34 152.396 322.464 152.306 322.512 152.23C322.576 152.13 322.718 152.044 322.592 151.895C322.582 151.883 322.599 151.847 322.607 151.823C322.684 151.575 322.762 151.328 322.842 151.081C322.905 150.884 322.99 150.693 322.905 150.476C322.885 150.425 322.91 150.344 322.938 150.289C323.301 149.573 323.347 148.792 323.423 148.014C323.453 147.697 323.547 147.385 323.612 147.07L323.691 147.066C323.732 147.156 323.774 147.245 323.812 147.335C324.088 147.98 324.359 148.627 324.641 149.269C324.711 149.429 324.819 149.572 324.91 149.722C325.032 149.923 325.181 150.054 325.448 150.026C325.544 150.015 325.677 150.094 325.749 150.172C325.939 150.377 326.104 150.604 326.279 150.822C326.61 151.232 326.928 151.653 327.275 152.049C327.53 152.341 327.693 152.624 327.656 153.045C327.632 153.308 327.757 153.603 327.874 153.856C328.056 154.247 328.021 154.42 327.631 154.602C327.501 154.663 327.399 154.728 327.378 154.891C327.356 155.06 327.217 155.126 327.065 155.132C326.877 155.139 326.688 155.123 326.499 155.115C326.383 155.11 326.267 155.101 326.151 155.093C326.138 155.112 326.126 155.13 326.113 155.149L326.109 155.153ZM320.408 168.332C320.394 168.309 320.38 168.286 320.366 168.263C320.251 168.31 320.13 168.348 320.021 168.406C319.76 168.545 319.762 168.549 319.576 168.341C319.237 168.518 318.897 168.695 318.559 168.873C318.542 168.882 318.523 168.896 318.516 168.913C318.454 169.056 318.326 169.063 318.202 169.054C317.889 169.031 317.576 168.997 317.254 168.967L317.253 169.232C316.981 169.295 316.958 169.344 317.086 169.589C317.122 169.656 317.17 169.724 317.227 169.772C317.568 170.058 318.002 170.102 318.389 169.88C318.546 169.791 318.687 169.672 318.834 169.565C318.981 169.457 319.124 169.343 319.274 169.24C319.327 169.203 319.396 169.187 319.484 169.151C319.494 169.65 318.958 169.62 318.803 169.933C318.864 169.972 318.919 170.008 318.997 170.059C318.923 170.111 318.872 170.149 318.819 170.184C318.648 170.298 318.632 170.367 318.8 170.466C318.938 170.549 319.106 170.622 319.263 170.628C319.646 170.64 320.032 170.624 320.415 170.597C321.044 170.552 321.492 170.181 321.894 169.738C321.899 169.732 321.893 169.714 321.889 169.669C321.727 169.64 321.557 169.606 321.387 169.581C321.248 169.56 321.182 169.49 321.184 169.346C321.186 169.231 321.168 169.116 321.158 168.981C321.001 169.042 320.871 169.093 320.728 169.15C320.766 169.028 320.793 168.941 320.829 168.827L320.089 168.824C320.205 168.646 320.306 168.489 320.407 168.333L320.408 168.332ZM337.281 159.969C337.37 160.278 337.452 160.575 337.547 160.868C337.56 160.908 337.637 160.947 337.687 160.951C338.179 160.989 338.672 161.036 339.165 161.047C339.43 161.053 339.783 160.77 339.843 160.533C339.409 160.598 338.99 160.661 338.538 160.729C338.643 160.329 338.35 160.315 338.082 160.27C338.176 160.167 338.241 160.095 338.306 160.023L338.284 159.972L337.28 159.969L337.281 159.969ZM338.033 162.49C337.927 162.373 337.843 162.301 337.787 162.212C337.728 162.12 337.699 162.01 337.654 161.909C337.511 161.587 336.937 161.279 336.549 161.332C336.604 161.407 336.651 161.475 336.701 161.539C336.785 161.645 336.912 161.738 336.948 161.858C337.013 162.072 337.157 162.186 337.339 162.26C337.551 162.346 337.773 162.406 338.033 162.49ZM336.836 163.42C336.836 163.42 336.836 163.42 336.836 163.421C336.784 163.416 336.732 163.412 336.681 163.408C336.474 163.389 336.424 163.461 336.499 163.652C336.575 163.847 336.739 163.839 336.903 163.844C337.076 163.849 337.185 163.752 337.246 163.609C337.26 163.576 337.191 163.473 337.142 163.457C337.047 163.424 336.939 163.43 336.836 163.42L336.836 163.42Z" fill="#154068"/>
<path d="M274.627 170.751C274.565 170.83 274.508 170.913 274.442 170.989C274.341 171.106 274.233 171.219 274.128 171.334C274.026 171.445 273.905 171.519 273.762 171.575C273.621 171.632 273.487 171.718 273.365 171.81C273.278 171.874 273.298 171.92 273.383 171.989C273.429 172.027 273.471 172.081 273.491 172.136C273.521 172.221 273.58 172.257 273.658 172.269C273.737 172.281 273.817 172.283 273.896 172.289C273.979 172.295 274.009 172.328 273.984 172.416C273.935 172.582 273.901 172.753 273.85 172.919C273.837 172.962 273.791 173.008 273.748 173.028C273.267 173.257 272.771 173.446 272.24 173.525C272.237 173.526 272.233 173.525 272.229 173.527C272.159 173.549 272.049 173.513 272.038 173.626C272.028 173.731 272.097 173.8 272.184 173.853C272.239 173.886 272.312 173.916 272.336 173.966C272.381 174.064 272.372 174.172 272.312 174.271C272.243 174.384 272.203 174.504 272.227 174.654C272.287 174.654 272.347 174.656 272.406 174.653C272.487 174.65 272.535 174.682 272.551 174.764C272.565 174.835 272.588 174.893 272.685 174.88C272.704 174.877 272.744 174.932 272.754 174.967C272.771 175.027 272.772 175.092 272.782 175.172C272.863 175.144 272.932 175.119 273.018 175.089C273.031 175.168 273.043 175.239 273.055 175.319C273.094 175.322 273.134 175.326 273.162 175.328C273.238 175.454 273.309 175.571 273.391 175.707C273.268 175.752 273.16 175.791 273.036 175.837C273.025 175.768 273.017 175.717 273.009 175.666C273 175.611 272.983 175.581 272.919 175.611C272.55 175.781 272.158 175.862 271.759 175.924C271.637 175.943 271.538 175.913 271.436 175.857C271.216 175.736 270.994 175.621 270.773 175.504C270.704 175.467 270.654 175.422 270.686 175.333C270.717 175.245 270.778 175.233 270.859 175.255C270.891 175.263 270.925 175.26 270.967 175.262C270.948 175.193 270.932 175.133 270.909 175.054C271.049 175.072 271.171 175.088 271.293 175.103C271.295 175.099 271.297 175.094 271.298 175.09C271.22 175.048 271.141 175.007 271.036 174.951C271.135 174.907 271.202 174.878 271.301 174.835C271.228 174.811 271.182 174.8 271.139 174.783C270.864 174.675 270.588 174.567 270.316 174.454C270.254 174.429 270.194 174.388 270.145 174.342C270.083 174.283 269.972 174.182 269.987 174.152C270.049 174.029 270.118 173.889 270.288 173.872C270.317 173.869 270.345 173.862 270.389 173.828C270.243 173.721 270.096 173.615 269.933 173.497C270.073 173.475 270.193 173.457 270.342 173.433C270.297 173.403 270.275 173.385 270.251 173.373C269.813 173.167 269.579 172.789 269.391 172.369C269.342 172.26 269.292 172.142 269.212 172.058C269.074 171.912 268.986 171.749 268.928 171.56C268.875 171.386 268.81 171.216 268.747 171.046C268.731 171.001 268.702 170.961 268.679 170.919C268.666 170.925 268.661 170.926 268.661 170.928C268.567 171.308 268.279 171.605 268.216 172.003C268.178 172.244 268.1 172.486 267.992 172.704C267.889 172.911 267.734 173.094 267.584 173.273C267.498 173.376 267.4 173.346 267.297 173.202C267.453 173.197 267.568 173.142 267.594 172.946C267.454 172.937 267.308 172.912 267.165 172.922C266.98 172.935 266.797 172.972 266.615 173.009C266.502 173.032 266.446 172.996 266.413 172.888C266.314 172.561 266.299 172.578 266.632 172.576C266.669 172.576 266.706 172.569 266.75 172.566C266.754 172.288 266.529 172.173 266.391 171.998C266.421 171.981 266.464 171.958 266.513 171.931C266.42 171.866 266.339 171.879 266.251 171.929C266.066 172.034 265.878 172.133 265.69 172.232C265.652 172.252 265.609 172.262 265.568 172.277C265.559 172.268 265.55 172.26 265.54 172.251C265.621 172.118 265.701 171.985 265.785 171.844C265.747 171.825 265.709 171.806 265.645 171.774C265.74 171.709 265.817 171.65 265.9 171.602C265.962 171.567 265.991 171.526 265.997 171.452C266.008 171.297 266.033 171.144 266.053 170.98C265.854 171.085 265.658 171.188 265.462 171.292C265.454 171.281 265.446 171.27 265.438 171.259C265.483 171.151 265.576 171.086 265.661 171.009C265.753 170.926 265.851 170.838 265.83 170.689C265.826 170.663 265.851 170.624 265.874 170.606C266.018 170.489 266.114 170.344 266.16 170.147C266.101 170.188 266.056 170.219 266.012 170.251C265.755 170.432 265.501 170.619 265.238 170.792C265.101 170.882 265.021 170.868 264.91 170.761C265.078 170.664 265.24 170.571 265.407 170.475C265.369 170.419 265.324 170.353 265.268 170.27C265.326 170.255 265.364 170.245 265.409 170.233C265.403 170.217 265.402 170.198 265.392 170.185C265.123 169.823 265.055 169.398 265 168.966C264.965 168.692 264.918 168.419 264.872 168.146C264.864 168.096 264.839 168.048 264.826 168.01C264.61 168.267 264.4 168.523 264.181 168.771C264.02 168.953 263.843 169.121 263.682 169.303C263.646 169.343 263.648 169.416 263.632 169.473C263.62 169.515 263.611 169.559 263.589 169.596C263.564 169.636 263.525 169.669 263.489 169.71C263.516 169.739 263.538 169.763 263.561 169.788C263.552 169.799 263.548 169.814 263.54 169.816C263.453 169.841 263.366 169.868 263.277 169.886C263.189 169.903 263.117 169.919 263.089 170.03C263.071 170.098 262.998 170.151 262.948 170.212C263.035 170.267 263.054 170.339 263.002 170.428C263.041 170.423 263.072 170.416 263.103 170.415C263.132 170.413 263.16 170.417 263.227 170.421C263.137 170.527 263.066 170.611 262.988 170.704C263.041 170.707 263.082 170.709 263.16 170.713C263.069 170.776 263.003 170.822 262.962 170.85C262.823 170.641 262.699 170.453 262.561 170.245C262.432 170.51 262.303 170.762 262.188 171.021C262.145 171.12 262.289 171.311 262.4 171.311C262.513 171.311 262.55 171.357 262.526 171.464C262.49 171.622 262.458 171.78 262.417 171.971C262.348 171.886 262.304 171.832 262.244 171.757C262.216 171.858 262.188 171.935 262.174 172.015C262.16 172.095 262.118 172.123 262.041 172.117C261.97 172.111 261.898 172.109 261.782 172.103C261.869 172.232 261.939 172.336 262.017 172.451C261.96 172.486 261.888 172.529 261.803 172.58C261.893 172.69 261.977 172.794 262.062 172.899C262.054 172.907 262.046 172.915 262.038 172.923C262.02 172.915 261.997 172.912 261.984 172.898C261.901 172.812 261.82 172.845 261.779 172.928C261.692 173.103 261.622 173.286 261.551 173.469C261.537 173.504 261.549 173.55 261.549 173.605C261.648 173.579 261.676 173.641 261.678 173.715C261.682 173.926 261.68 174.137 261.681 174.347C261.383 174.367 261.104 174.385 260.808 174.404C260.784 174.317 260.757 174.217 260.726 174.099C260.838 174.089 260.936 174.08 261.075 174.067C261.009 173.966 260.962 173.889 260.909 173.816C260.862 173.749 260.777 173.703 260.822 173.566C260.595 173.675 260.393 173.773 260.191 173.87C260.182 173.862 260.173 173.855 260.163 173.848C260.214 173.755 260.263 173.663 260.318 173.563C260.29 173.547 260.262 173.533 260.205 173.503C260.451 173.396 260.521 173.208 260.503 172.958C260.367 173.028 260.236 173.095 260.106 173.162L260.089 173.141C260.257 172.895 260.426 172.648 260.594 172.402C260.582 172.392 260.571 172.382 260.559 172.372C260.509 172.408 260.459 172.445 260.408 172.479C260.244 172.588 260.081 172.699 259.913 172.803C259.857 172.838 259.788 172.86 259.71 172.775C259.824 172.694 259.931 172.617 260.045 172.536C259.99 172.471 259.938 172.408 260.062 172.371C259.841 172.109 259.814 171.791 259.764 171.482C259.735 171.302 259.715 171.121 259.689 170.941C259.682 170.894 259.666 170.848 259.655 170.802C259.64 170.793 259.625 170.784 259.61 170.776C259.595 170.806 259.585 170.841 259.563 170.866C259.362 171.098 259.169 171.339 258.952 171.556C258.815 171.693 258.774 171.867 258.692 172.025C258.674 172.058 258.639 172.104 258.61 172.106C258.441 172.114 258.37 172.242 258.284 172.361C258.332 172.422 258.382 172.485 258.442 172.561C258.433 172.573 258.409 172.6 258.39 172.63C258.377 172.651 258.364 172.677 258.366 172.698C258.379 172.8 258.381 172.8 258.28 172.833C258.191 172.704 258.103 172.579 257.989 172.417C257.896 172.621 257.805 172.793 257.739 172.975C257.709 173.058 257.773 173.132 257.865 173.145C257.958 173.159 257.978 173.213 257.962 173.289C257.941 173.396 257.912 173.502 257.887 173.608C257.869 173.612 257.851 173.617 257.833 173.621C257.814 173.589 257.796 173.556 257.768 173.506C257.714 173.653 257.708 173.835 257.468 173.748L257.466 173.79C257.509 173.853 257.553 173.917 257.602 173.988C257.562 174.018 257.518 174.052 257.47 174.089C257.517 174.161 257.564 174.232 257.635 174.341C257.428 174.262 257.401 174.397 257.353 174.501C257.323 174.566 257.292 174.632 257.273 174.701C257.263 174.736 257.266 174.789 257.287 174.817C257.442 175.03 257.374 175.258 257.331 175.48C257.322 175.525 257.247 175.559 257.198 175.593C257.11 175.654 257.112 175.685 257.2 175.739C257.224 175.753 257.249 175.809 257.239 175.825C257.214 175.866 257.168 175.924 257.132 175.923C256.894 175.915 256.647 175.925 256.419 175.866C256.267 175.826 256.139 175.684 256.007 175.578C255.99 175.564 255.999 175.482 256.023 175.46C256.11 175.378 256.208 175.308 256.316 175.222C256.223 175.145 256.11 175.051 255.976 174.939C256.091 174.926 256.187 174.915 256.284 174.904C256.286 174.896 256.289 174.888 256.291 174.88C256.222 174.84 256.154 174.799 256.084 174.762C255.96 174.696 255.834 174.633 255.71 174.566C255.543 174.477 255.447 174.337 255.393 174.156C255.353 174.023 255.294 173.895 255.232 173.771C255.173 173.653 255.18 173.537 255.212 173.417C255.227 173.361 255.239 173.304 255.241 173.243C255.114 173.356 255.005 173.477 254.956 173.644C254.926 173.745 254.89 173.845 254.845 173.94C254.801 174.035 254.729 174.097 254.611 174.084C254.577 174.081 254.532 174.097 254.507 174.119C254.27 174.331 254.036 174.546 253.801 174.759C253.804 174.774 253.807 174.788 253.81 174.802C253.89 174.828 253.968 174.859 254.05 174.877C254.112 174.891 254.178 174.89 254.243 174.891C254.333 174.893 254.376 174.918 254.344 175.022C254.276 175.239 254.218 175.458 254.156 175.677C254.147 175.709 254.141 175.742 254.128 175.799C254.311 175.717 254.469 175.615 254.686 175.636C254.653 175.685 254.63 175.716 254.61 175.749C254.559 175.832 254.499 175.912 254.461 176.001C254.422 176.094 254.347 176.111 254.265 176.133C254.119 176.171 253.973 176.211 253.828 176.256C253.783 176.27 253.744 176.302 253.685 176.336C253.724 176.355 253.744 176.371 253.766 176.374C253.833 176.384 253.896 176.382 253.926 176.47C253.935 176.499 254.018 176.506 254.068 176.52C254.237 176.566 254.407 176.607 254.574 176.661C254.627 176.678 254.714 176.698 254.685 176.79C254.658 176.875 254.602 176.941 254.501 176.924C254.325 176.895 254.149 176.863 253.976 176.824C253.817 176.788 253.661 176.738 253.503 176.697C253.461 176.687 253.417 176.684 253.373 176.678L253.357 176.706C253.394 176.739 253.434 176.769 253.467 176.805C253.504 176.845 253.532 176.894 253.571 176.931C253.607 176.965 253.654 176.987 253.696 177.015C253.752 177.053 253.835 177.08 253.857 177.132C253.896 177.226 253.848 177.313 253.764 177.378C253.662 177.458 253.563 177.541 253.468 177.628C253.375 177.715 253.39 177.743 253.502 177.789C253.619 177.836 253.726 177.905 253.837 177.964L253.834 178.013C253.722 178.066 253.612 178.122 253.499 178.172C253.389 178.22 253.276 178.261 253.142 178.314C253.275 178.409 253.408 178.407 253.534 178.431C253.583 178.44 253.668 178.464 253.669 178.486C253.675 178.571 253.668 178.663 253.554 178.69C253.514 178.7 253.48 178.73 253.442 178.745C253.345 178.781 253.249 178.826 253.148 178.845C252.919 178.889 252.74 179.018 252.557 179.15C252.605 179.2 252.585 179.278 252.498 179.383C252.552 179.419 252.606 179.454 252.659 179.49C252.616 179.545 252.573 179.6 252.516 179.672L253.035 179.671C253.067 179.722 253.105 179.785 253.144 179.848C253.171 179.975 253.116 180.051 253 180.111C252.763 180.235 252.561 180.169 252.371 180.013C252.295 179.951 252.222 179.883 252.144 179.823C252.108 179.794 252.063 179.777 252.001 179.744C252.018 179.957 252.228 179.98 252.303 180.121C252.279 180.137 252.259 180.15 252.232 180.168C252.249 180.186 252.261 180.205 252.279 180.217C252.372 180.28 252.372 180.348 252.305 180.435C252.195 180.579 252.092 180.729 251.978 180.887C252.004 180.896 252.023 180.904 252.043 180.909C252.217 180.954 252.25 181.003 252.197 181.175C252.101 181.487 251.933 181.737 251.623 181.886C251.206 182.086 250.798 182.305 250.387 182.517C250.33 182.546 250.277 182.58 250.228 182.628C250.367 182.585 250.505 182.542 250.643 182.5C250.648 182.508 250.653 182.517 250.658 182.526C250.622 182.566 250.587 182.606 250.551 182.646C250.555 182.653 250.559 182.661 250.563 182.668C250.653 182.631 250.743 182.593 250.833 182.556C250.841 182.563 250.85 182.569 250.858 182.576C250.77 182.699 250.682 182.821 250.594 182.944C250.606 182.957 250.617 182.97 250.629 182.984C250.737 182.919 250.844 182.855 250.952 182.79C250.961 182.801 250.97 182.811 250.979 182.822C250.837 182.956 250.695 183.091 250.556 183.223C250.635 183.392 250.905 183.472 250.775 183.739C250.721 183.693 250.68 183.658 250.634 183.618C250.521 183.719 250.607 183.969 250.333 183.924C250.381 184.002 250.408 184.045 250.435 184.089C250.495 184.188 250.474 184.232 250.358 184.248C250.316 184.253 250.274 184.249 250.232 184.252C250.192 184.255 250.152 184.262 250.134 184.264C250.156 184.363 250.2 184.454 250.188 184.538C250.175 184.625 250.109 184.705 250.058 184.804C250.12 184.821 250.192 184.849 250.267 184.861C250.357 184.875 250.366 184.915 250.322 184.984C250.285 185.043 250.249 185.103 250.204 185.176C250.434 185.227 250.553 185.019 250.763 184.995C250.741 185.101 250.722 185.191 250.7 185.293C250.792 185.342 250.895 185.386 250.984 185.449C251.04 185.49 251.07 185.471 251.111 185.439C251.174 185.391 251.235 185.339 251.305 185.301C251.335 185.285 251.383 185.303 251.422 185.306C251.41 185.338 251.395 185.369 251.386 185.401C251.377 185.435 251.374 185.47 251.368 185.505C251.4 185.509 251.432 185.519 251.462 185.515C251.499 185.509 251.535 185.481 251.57 185.484C251.608 185.487 251.664 185.507 251.676 185.534C251.708 185.612 251.753 185.617 251.82 185.591C251.908 185.557 251.997 185.527 252.095 185.493C252.105 185.545 252.114 185.588 252.126 185.653C252.316 185.498 252.511 185.589 252.716 185.613C252.652 185.542 252.582 185.475 252.527 185.397C252.494 185.349 252.452 185.252 252.471 185.233C252.525 185.177 252.606 185.142 252.682 185.115C252.7 185.109 252.748 185.157 252.768 185.189C252.795 185.233 252.808 185.285 252.828 185.337C252.933 185.252 253.033 185.171 253.133 185.089C253.145 185.098 253.157 185.106 253.17 185.114C253.156 185.198 253.145 185.282 253.13 185.365C253.113 185.454 253.125 185.518 253.227 185.551C253.257 185.56 253.285 185.623 253.288 185.663C253.294 185.76 253.328 185.83 253.424 185.868C253.533 185.786 253.642 185.704 253.76 185.615C253.826 185.667 253.905 185.729 253.999 185.802C254.06 185.691 254.114 185.591 254.183 185.464C254.22 185.568 254.241 185.648 254.278 185.719C254.297 185.755 254.346 185.774 254.381 185.801C254.401 185.76 254.437 185.719 254.437 185.677C254.436 185.495 254.464 185.475 254.631 185.554C254.792 185.629 254.79 185.63 254.726 185.797C254.716 185.822 254.728 185.876 254.747 185.889C254.79 185.916 254.844 185.939 254.893 185.936C254.936 185.934 254.978 185.896 255.036 185.866C255.059 185.999 255.079 186.116 255.102 186.246C255.155 186.222 255.192 186.206 255.228 186.188C255.362 186.122 255.387 186.136 255.4 186.291C255.401 186.309 255.405 186.327 255.41 186.359C255.442 186.335 255.466 186.32 255.487 186.301C255.646 186.151 255.668 186.152 255.762 186.299C255.863 186.305 255.945 186.31 256.044 186.316C256.064 186.289 256.099 186.241 256.143 186.182C256.221 186.277 256.292 186.363 256.378 186.467C256.404 186.409 256.417 186.372 256.435 186.337C256.482 186.246 256.523 186.16 256.655 186.153C256.712 186.151 256.766 186.073 256.831 186.023C256.865 186.051 256.908 186.086 256.952 186.123C257.096 185.995 257.244 186.058 257.383 186.121C257.497 186.173 257.6 186.247 257.706 186.314C257.776 186.359 257.834 186.351 257.902 186.301C257.965 186.255 258.041 186.225 258.115 186.198C258.173 186.177 258.237 186.17 258.258 186.257C258.262 186.272 258.28 186.292 258.294 186.294C258.504 186.324 258.715 186.353 258.925 186.379C258.949 186.382 258.976 186.368 259.019 186.357C258.99 186.284 258.964 186.218 258.935 186.146C258.96 186.138 258.979 186.126 258.994 186.129C259.206 186.168 259.417 186.21 259.628 186.249C259.66 186.255 259.709 186.263 259.726 186.246C259.788 186.186 259.847 186.205 259.915 186.228C259.995 186.256 260.079 186.274 260.161 186.297C260.167 186.287 260.173 186.277 260.179 186.267C260.156 186.237 260.137 186.2 260.107 186.177C259.944 186.049 259.779 185.922 259.611 185.8C259.556 185.76 259.492 185.732 259.431 185.702C259.262 185.618 259.194 185.487 259.242 185.287C259.302 185.295 259.364 185.308 259.426 185.308C259.461 185.308 259.496 185.282 259.532 185.272C259.573 185.26 259.627 185.233 259.655 185.248C259.684 185.265 259.709 185.33 259.7 185.364C259.679 185.439 259.636 185.508 259.595 185.595C259.828 185.758 260.064 185.923 260.3 186.088C260.456 186.197 260.62 186.294 260.766 186.415C260.88 186.511 260.979 186.628 261.07 186.747C261.163 186.867 261.165 186.873 261.297 186.813C261.355 186.786 261.451 186.742 261.476 186.765C261.548 186.831 261.601 186.923 261.643 187.014C261.653 187.035 261.598 187.107 261.559 187.124C261.445 187.174 261.323 187.208 261.205 187.249C261.16 187.265 261.116 187.283 261.072 187.299C261.073 187.313 261.075 187.327 261.076 187.34C261.192 187.34 261.308 187.335 261.424 187.34C261.676 187.35 261.705 187.38 261.732 187.628C261.741 187.707 261.723 187.802 261.847 187.813C261.855 187.814 261.87 187.881 261.859 187.909C261.838 187.969 261.803 188.023 261.759 188.109C261.843 188.076 261.904 188.055 261.963 188.03C262.074 187.982 262.085 187.988 262.096 188.104C262.1 188.143 262.111 188.182 262.125 188.255C262.208 188.15 262.271 188.07 262.335 187.99C262.345 187.991 262.356 187.992 262.367 187.993C262.386 188.105 262.404 188.217 262.425 188.339C262.501 188.239 262.568 188.139 262.647 188.049C262.684 188.006 262.742 187.982 262.79 187.95C262.804 187.994 262.817 188.04 262.832 188.084C262.837 188.097 262.847 188.108 262.865 188.135C262.914 188.004 262.959 187.885 263.009 187.751C263.064 187.815 263.108 187.865 263.139 187.901C263.308 187.789 263.47 187.673 263.64 187.571C263.756 187.502 263.776 187.517 263.805 187.647C263.859 187.894 264.095 188.029 264.385 187.951C264.535 187.911 264.672 187.823 264.829 187.75C264.997 188.005 265.177 188.278 265.356 188.55C265.372 188.547 265.388 188.544 265.404 188.541C265.442 188.352 265.481 188.163 265.519 187.973C265.533 187.975 265.547 187.976 265.561 187.977C265.653 188.095 265.614 188.237 265.637 188.383C265.716 188.261 265.795 188.138 265.888 187.994C265.974 188.114 266.046 188.214 266.126 188.325C266.219 188.065 266.309 187.813 266.409 187.535C266.564 187.695 266.645 187.921 266.927 187.854C266.88 187.758 266.84 187.667 266.793 187.58C266.686 187.377 266.694 187.358 266.922 187.367C267.104 187.374 267.285 187.392 267.491 187.406C267.436 187.322 267.393 187.249 267.344 187.18C267.3 187.117 267.31 187.079 267.383 187.052C267.518 187 267.651 186.946 267.785 186.892C267.871 186.857 267.922 186.797 267.953 186.706C267.978 186.634 268.03 186.568 268.083 186.511C268.194 186.391 268.315 186.28 268.43 186.164C268.466 186.128 268.497 186.086 268.541 186.035C268.255 185.968 267.994 186.07 267.723 186.069C267.74 185.941 267.832 185.943 267.905 185.937C267.999 185.929 268.072 185.912 268.06 185.772C268.145 185.82 268.214 185.859 268.296 185.905C268.358 185.776 268.415 185.656 268.486 185.509C268.531 185.622 268.556 185.709 268.599 185.787C268.621 185.828 268.672 185.852 268.711 185.884C268.733 185.841 268.77 185.8 268.774 185.755C268.796 185.524 268.797 185.522 269.016 185.608C269.174 185.671 269.181 185.684 269.118 185.837C269.096 185.892 269.09 185.936 269.145 185.976C269.202 186.017 269.252 186.066 269.327 186.013C269.359 185.99 269.395 185.972 269.429 185.951C269.437 185.96 269.445 185.968 269.454 185.976C269.402 186.042 269.346 186.104 269.301 186.173C269.26 186.234 269.232 186.303 269.199 186.368C269.269 186.392 269.338 186.43 269.409 186.435C269.518 186.443 269.628 186.425 269.738 186.425C269.8 186.424 269.863 186.436 269.952 186.445C269.998 186.412 270.067 186.354 270.145 186.31C270.269 186.24 270.296 186.348 270.324 186.436C270.463 186.319 270.475 186.318 270.612 186.433C270.647 186.366 270.679 186.301 270.724 186.213C270.83 186.327 270.924 186.429 271.015 186.526C271.042 186.509 271.053 186.505 271.053 186.501C271.065 186.301 271.204 186.226 271.372 186.185C271.468 186.163 271.565 186.142 271.663 186.134C271.757 186.127 271.837 186.144 271.875 186.258C271.913 186.373 272.02 186.38 272.124 186.357C272.286 186.321 272.443 186.266 272.616 186.313C272.696 186.335 272.733 186.368 272.747 186.443C272.758 186.499 272.772 186.554 272.788 186.608C272.827 186.743 272.878 186.763 272.989 186.675C273.078 186.605 273.158 186.523 273.239 186.443C273.293 186.39 273.343 186.333 273.404 186.267C273.46 186.361 273.51 186.448 273.564 186.533C273.765 186.853 273.891 186.867 274.151 186.597C274.188 186.558 274.223 186.518 274.261 186.481C274.343 186.402 274.37 186.41 274.404 186.521C274.424 186.586 274.436 186.654 274.457 186.719C274.475 186.776 274.495 186.834 274.525 186.886C274.601 187.018 274.67 187.028 274.789 186.933C274.835 186.896 274.882 186.86 274.943 186.811C275.01 186.953 275.068 187.077 275.138 187.226C275.201 187.151 275.249 187.095 275.296 187.039C275.377 186.941 275.409 186.939 275.498 187.023C275.591 187.111 275.622 187.106 275.666 186.979C275.714 186.84 275.751 186.698 275.804 186.519C275.909 186.646 275.997 186.752 276.085 186.858C276.1 186.85 276.115 186.842 276.13 186.834C276.172 186.633 276.215 186.432 276.261 186.211C276.318 186.249 276.361 186.271 276.397 186.301C276.503 186.388 276.603 186.481 276.711 186.565C276.747 186.594 276.797 186.605 276.84 186.624C276.853 186.579 276.873 186.534 276.877 186.488C276.884 186.424 276.874 186.359 276.88 186.295C276.885 186.248 276.905 186.203 276.918 186.157C276.963 186.173 277.013 186.181 277.051 186.206C277.164 186.282 277.272 186.367 277.384 186.445C277.419 186.469 277.462 186.482 277.534 186.516C277.498 186.366 277.47 186.249 277.437 186.115C277.609 186.195 277.696 186.384 277.891 186.375C277.897 186.359 277.902 186.352 277.902 186.345C277.907 186.286 277.91 186.227 277.913 186.168C277.969 186.183 278.025 186.206 278.082 186.209C278.112 186.21 278.161 186.183 278.172 186.156C278.198 186.091 278.207 186.019 278.231 185.916C278.314 186.101 278.426 186.033 278.535 185.987C278.611 185.956 278.686 185.923 278.778 185.884C278.786 185.955 278.792 186.009 278.802 186.086C278.88 186.053 278.945 186.018 279.015 185.999C279.077 185.982 279.145 185.97 279.207 185.978C279.388 186 279.566 186.035 279.746 186.06C279.79 186.066 279.836 186.052 279.899 186.046C279.778 185.842 279.574 185.753 279.41 185.621C279.417 185.608 279.422 185.595 279.429 185.582C279.499 185.606 279.571 185.623 279.638 185.654C279.692 185.68 279.725 185.674 279.763 185.627C279.818 185.56 279.88 185.498 279.943 185.438C279.971 185.411 280.009 185.395 280.042 185.375C280.052 185.38 280.062 185.385 280.072 185.39C280.06 185.484 280.047 185.579 280.036 185.674C280.031 185.719 280.021 185.765 280.025 185.81C280.033 185.906 280.101 185.944 280.214 185.92C280.227 186.001 280.23 186.086 280.256 186.162C280.31 186.323 280.39 186.338 280.504 186.22C280.516 186.207 280.535 186.189 280.55 186.19C280.648 186.2 280.692 186.136 280.734 186.065C280.765 186.011 280.806 186.004 280.857 186.042C280.935 186.101 281.015 186.158 281.111 186.229C281.175 186.092 281.235 185.966 281.311 185.807C281.345 185.893 281.364 185.948 281.389 186C281.416 186.058 281.439 186.12 281.48 186.168C281.503 186.195 281.56 186.214 281.596 186.206C281.618 186.201 281.638 186.141 281.641 186.104C281.647 186.019 281.643 185.934 281.642 185.821C281.795 185.885 281.925 185.939 282.067 185.998C282.017 186.091 281.979 186.164 281.936 186.245C282.002 186.297 282.069 186.35 282.134 186.4C282.209 186.355 282.279 186.313 282.352 186.269C282.389 186.424 282.422 186.561 282.458 186.714C282.523 186.687 282.58 186.663 282.637 186.639C282.781 186.58 282.803 186.593 282.809 186.745C282.81 186.781 282.815 186.817 282.818 186.853L282.853 186.88C282.891 186.831 282.925 186.777 282.969 186.734C283.113 186.591 283.194 186.613 283.254 186.806C283.26 186.827 283.268 186.847 283.275 186.869C283.41 186.703 283.478 186.699 283.581 186.858C283.598 186.815 283.613 186.777 283.629 186.739C283.674 186.628 283.716 186.619 283.798 186.711C283.84 186.759 283.878 186.812 283.915 186.865C283.941 186.901 283.963 186.941 283.986 186.98C284 186.971 284.013 186.961 284.027 186.952C284.065 186.864 284.103 186.776 284.141 186.687C284.172 186.615 284.216 186.573 284.306 186.581C284.344 186.584 284.404 186.554 284.423 186.521C284.481 186.422 284.545 186.42 284.628 186.48C284.661 186.503 284.696 186.522 284.741 186.55C284.776 186.4 284.878 186.406 284.977 186.432C285.082 186.46 285.185 186.499 285.285 186.543C285.365 186.578 285.441 186.623 285.512 186.673C285.656 186.774 285.785 186.817 285.927 186.658C285.975 186.605 286.077 186.597 286.157 186.577C286.186 186.571 286.239 186.583 286.25 186.603C286.31 186.713 286.417 186.713 286.517 186.725C286.694 186.747 286.871 186.769 287.049 186.777C287.229 186.784 287.251 186.741 287.163 186.589C287.145 186.558 287.131 186.525 287.106 186.474C287.161 186.47 287.198 186.46 287.232 186.465C287.43 186.497 287.628 186.532 287.826 186.569C287.87 186.577 287.911 186.604 287.955 186.611C287.992 186.616 288.049 186.618 288.066 186.596C288.121 186.529 288.177 186.536 288.249 186.556C288.387 186.594 288.527 186.623 288.671 186.642C288.454 186.422 288.252 186.193 287.966 186.064C287.834 186.005 287.708 185.934 287.585 185.859C287.446 185.775 287.396 185.638 287.45 185.486C287.46 185.459 287.515 185.431 287.548 185.433C287.617 185.437 287.684 185.46 287.758 185.463C287.662 185.294 287.446 185.238 287.376 185.054C287.543 184.949 287.699 184.955 287.864 185.034C287.962 185.082 288.069 185.114 288.175 185.141C288.234 185.156 288.299 185.143 288.39 185.143C288.299 185.069 288.233 185.015 288.159 184.954C288.193 184.933 288.213 184.921 288.269 184.886C288.197 184.841 288.139 184.805 288.081 184.769C288.087 184.757 288.093 184.745 288.098 184.733C288.172 184.721 288.247 184.709 288.34 184.695C288.304 184.661 288.283 184.633 288.256 184.618C288.089 184.524 287.921 184.432 287.752 184.341C287.675 184.299 287.593 184.267 287.522 184.217C287.494 184.197 287.49 184.142 287.475 184.102C287.486 184.095 287.497 184.088 287.508 184.082C287.481 184.07 287.454 184.059 287.426 184.047C287.225 183.961 287.015 183.891 286.825 183.785C286.595 183.656 286.365 183.527 286.103 183.488C285.834 183.448 285.744 183.256 285.675 183.025C285.744 183.071 285.813 183.117 285.912 183.182C285.892 183.112 285.882 183.072 285.87 183.032C285.856 182.985 285.835 182.939 285.829 182.891C285.823 182.849 285.835 182.805 285.84 182.763C285.884 182.776 285.935 182.779 285.971 182.805C286.035 182.85 286.089 182.908 286.147 182.961C286.304 182.796 286.378 182.801 286.516 182.98C286.597 183.084 286.676 183.189 286.771 183.313C286.833 183.236 286.882 183.177 286.947 183.097C287.034 183.288 287.115 183.465 287.196 183.643L287.227 183.636C287.25 183.562 287.273 183.488 287.299 183.403C287.532 183.49 287.676 183.68 287.857 183.826C287.939 183.752 287.915 183.687 287.869 183.619C287.811 183.533 287.754 183.446 287.696 183.36C287.703 183.349 287.711 183.338 287.718 183.327C287.785 183.338 287.852 183.349 287.927 183.361C288 183.225 287.874 183.183 287.776 183.09C287.896 183.076 287.989 183.066 288.121 183.051C288.007 182.954 287.913 182.874 287.808 182.786C287.876 182.776 287.935 182.767 288.019 182.755C287.977 182.734 287.955 182.718 287.93 182.71C287.682 182.635 287.468 182.504 287.267 182.342C287.068 182.181 286.856 182.048 286.584 182.035C286.509 182.031 286.437 181.957 286.355 181.911C286.391 181.865 286.41 181.839 286.438 181.802C286.077 181.681 285.692 181.653 285.363 181.463C285.361 181.45 285.359 181.437 285.357 181.424C285.502 181.355 285.646 181.287 285.801 181.215C285.717 181.172 285.641 181.134 285.565 181.095C285.415 181.019 285.382 180.925 285.453 180.77C285.512 180.638 285.509 180.644 285.379 180.584C285.111 180.46 284.845 180.329 284.579 180.2C284.543 180.183 284.511 180.157 284.478 180.135C284.478 180.124 284.479 180.113 284.48 180.102C284.789 180.056 285.098 180.01 285.407 179.964C285.407 179.951 285.407 179.938 285.407 179.925C285.15 179.84 284.858 179.841 284.644 179.63C284.676 179.593 284.7 179.566 284.738 179.522C284.651 179.497 284.575 179.48 284.503 179.451C284.459 179.433 284.386 179.387 284.39 179.369C284.404 179.314 284.436 179.245 284.482 179.219C284.565 179.172 284.664 179.152 284.783 179.111C284.42 178.885 284.09 178.66 283.857 178.328C283.865 178.317 283.872 178.305 283.88 178.294C283.946 178.32 284.012 178.346 284.111 178.385C284.049 178.288 284.004 178.218 283.944 178.125C284.047 178.115 284.127 178.107 284.214 178.098C284.078 178.027 283.948 177.958 283.818 177.889C283.87 177.77 283.945 177.741 284.041 177.747C284.207 177.757 284.373 177.764 284.536 177.772C284.536 177.504 284.333 177.399 284.153 177.277C284.159 177.264 284.164 177.251 284.169 177.238C284.345 177.217 284.521 177.196 284.716 177.173C284.541 176.814 284.211 176.618 283.97 176.329C284.104 176.233 284.256 176.24 284.395 176.204C284.564 176.159 284.666 176.29 284.823 176.374C284.804 176.27 284.79 176.195 284.77 176.087C284.977 176.189 285.169 176.283 285.36 176.377C285.369 176.364 285.379 176.351 285.389 176.338C285.273 176.209 285.157 176.081 285.038 175.95C285.055 175.937 285.063 175.925 285.071 175.925C285.188 175.928 285.289 175.927 285.263 175.755C285.255 175.706 285.32 175.647 285.358 175.582C285.255 175.59 285.156 175.603 285.057 175.603C284.982 175.603 284.897 175.607 284.835 175.574C284.553 175.427 284.277 175.268 284 175.111C283.95 175.083 283.887 175.058 283.923 174.972C283.955 174.897 283.992 174.85 284.084 174.871C284.127 174.881 284.173 174.876 284.236 174.879C284.216 174.8 284.2 174.734 284.178 174.647C284.342 174.677 284.488 174.703 284.635 174.73C284.638 174.723 284.64 174.717 284.643 174.71C284.553 174.663 284.464 174.616 284.374 174.568L284.38 174.533C284.449 174.503 284.519 174.472 284.609 174.433C284.541 174.408 284.493 174.389 284.444 174.373C284.065 174.254 283.707 174.091 283.379 173.867C283.172 173.725 283.164 173.673 283.344 173.503C283.422 173.43 283.529 173.388 283.64 173.322C283.504 173.214 283.359 173.1 283.213 172.985C283.216 172.973 283.219 172.961 283.222 172.949C283.341 172.937 283.461 172.926 283.58 172.914C283.583 172.907 283.586 172.9 283.589 172.893C283.549 172.868 283.512 172.842 283.47 172.821C283.267 172.718 283.063 172.617 282.859 172.516C282.661 172.418 282.54 172.262 282.47 172.051C282.413 171.876 282.33 171.709 282.25 171.543C282.189 171.415 282.185 171.289 282.219 171.156C282.238 171.084 282.254 171.011 282.259 170.932C282.107 171.053 281.975 171.187 281.92 171.379C281.888 171.492 281.861 171.607 281.821 171.718C281.766 171.873 281.665 171.971 281.484 171.974C281.43 171.975 281.366 172.009 281.326 172.048C281.054 172.308 280.788 172.573 280.521 172.836C280.524 172.851 280.527 172.866 280.53 172.881C280.669 172.905 280.808 172.931 280.948 172.952C280.992 172.959 281.039 172.953 281.085 172.955C281.214 172.958 281.229 172.982 281.196 173.106C281.121 173.384 281.051 173.663 280.98 173.942C280.971 173.978 280.968 174.016 280.959 174.077C281.194 173.961 281.409 173.846 281.673 173.862C281.619 173.917 281.558 173.968 281.513 174.029C281.462 174.098 281.402 174.172 281.39 174.251C281.37 174.383 281.292 174.422 281.182 174.455C280.94 174.528 280.701 174.611 280.461 174.692C280.438 174.7 280.418 174.718 280.376 174.743C280.463 174.756 280.529 174.763 280.594 174.775C280.661 174.788 280.745 174.778 280.738 174.892C280.737 174.911 280.805 174.945 280.845 174.951C280.919 174.962 281 174.945 281.072 174.963C281.257 175.011 281.439 175.068 281.62 175.13C281.646 175.139 281.675 175.194 281.671 175.224C281.66 175.3 281.648 175.396 281.543 175.397C281.414 175.399 281.283 175.398 281.158 175.373C280.856 175.314 280.558 175.24 280.258 175.175C280.193 175.161 280.126 175.158 280.061 175.15C280.055 175.163 280.048 175.176 280.042 175.19C280.138 175.261 280.234 175.333 280.337 175.41C280.319 175.439 280.3 175.469 280.271 175.515C280.373 175.541 280.468 175.561 280.559 175.59C280.64 175.615 280.748 175.632 280.666 175.762C280.665 175.765 280.662 175.77 280.663 175.772C280.753 175.922 280.607 175.954 280.536 176.02C280.432 176.115 280.32 176.2 280.219 176.297C280.184 176.33 280.144 176.394 280.155 176.426C280.168 176.463 280.234 176.494 280.281 176.503C280.434 176.532 280.552 176.611 280.668 176.737C280.432 176.963 280.097 176.977 279.836 177.165C279.996 177.242 280.159 177.268 280.327 177.276C280.389 177.279 280.493 177.229 280.497 177.321C280.5 177.402 280.446 177.502 280.387 177.564C280.322 177.632 280.223 177.67 280.136 177.715C280.083 177.743 280.026 177.777 279.969 177.779C279.763 177.788 279.588 177.873 279.42 177.98C279.319 178.045 279.218 178.11 279.099 178.187C279.14 178.2 279.174 178.206 279.202 178.223C279.221 178.234 279.231 178.261 279.244 178.281C279.224 178.293 279.203 178.314 279.182 178.315C279.04 178.32 278.603 178.113 278.499 177.981C278.626 177.959 278.742 177.94 278.883 177.915C278.833 177.874 278.801 177.84 278.763 177.816C278.654 177.747 278.541 177.684 278.433 177.613C278.296 177.523 278.176 177.421 278.098 177.266C278.041 177.153 277.947 177.058 277.87 176.955C277.763 176.811 277.772 176.788 277.946 176.76C278.024 176.748 278.105 176.743 278.181 176.721C278.229 176.707 278.27 176.669 278.314 176.643L278.307 176.606C278.366 176.631 278.422 176.66 278.482 176.678C278.601 176.715 278.72 176.758 278.842 176.776C278.951 176.792 278.989 176.738 278.993 176.629C278.998 176.496 278.961 176.403 278.822 176.349C278.692 176.298 278.57 176.225 278.454 176.147C278.404 176.114 278.364 176.046 278.353 175.988C278.348 175.962 278.424 175.917 278.467 175.887C278.5 175.864 278.539 175.85 278.58 175.829C278.567 175.803 278.56 175.786 278.551 175.771C278.365 175.462 278.364 175.462 278.417 175.117C278.422 175.085 278.46 175.054 278.49 175.033C278.514 175.017 278.548 175.018 278.578 175.009C278.606 175.001 278.633 174.991 278.669 174.979C278.571 174.704 278.285 174.552 278.217 174.251C278.493 174.25 278.749 174.384 279.024 174.292C278.989 174.243 278.96 174.202 278.916 174.14C279.008 174.124 279.083 174.111 279.191 174.092C279.126 174.054 279.086 174.029 279.045 174.008C278.906 173.937 278.764 173.872 278.63 173.794C278.572 173.759 278.532 173.694 278.48 173.648C278.444 173.617 278.404 173.582 278.36 173.571C278.095 173.509 277.827 173.454 277.56 173.394C277.497 173.38 277.435 173.357 277.373 173.338C277.374 173.324 277.374 173.309 277.375 173.296C277.461 173.276 277.547 173.255 277.633 173.237C277.682 173.227 277.731 173.223 277.78 173.214C277.941 173.183 277.939 173.169 277.956 173.009C277.968 172.893 277.984 172.789 277.912 172.687C277.902 172.673 277.932 172.617 277.956 172.595C278.057 172.505 278.164 172.42 278.273 172.33C278.241 172.29 278.211 172.253 278.186 172.221C278.282 172.136 278.376 172.053 278.481 171.961C278.419 171.903 278.381 171.868 278.343 171.832C278.168 171.67 277.99 171.51 277.819 171.343C277.761 171.285 277.714 171.213 277.674 171.14C277.581 170.967 277.604 170.84 277.739 170.695C277.773 170.659 277.809 170.623 277.831 170.58C277.878 170.487 277.807 170.265 277.71 170.212C277.621 170.163 277.523 170.132 277.432 170.088C277.29 170.018 277.147 169.949 277.011 169.869C276.958 169.838 276.916 169.781 276.882 169.728C276.802 169.606 276.811 169.551 276.912 169.444C276.858 169.363 276.768 169.296 276.814 169.171C276.824 169.144 276.751 169.092 276.723 169.048C276.686 168.989 276.603 168.94 276.676 168.853C276.682 168.846 276.673 168.825 276.668 168.811C276.623 168.666 276.578 168.522 276.531 168.378C276.494 168.263 276.444 168.152 276.494 168.026C276.505 167.996 276.491 167.949 276.475 167.917C276.263 167.499 276.236 167.044 276.192 166.591C276.175 166.406 276.12 166.224 276.082 166.041L276.036 166.039C276.012 166.091 275.988 166.143 275.965 166.195C275.805 166.571 275.647 166.948 275.482 167.323C275.441 167.415 275.379 167.499 275.326 167.586C275.254 167.703 275.168 167.78 275.012 167.763C274.956 167.757 274.879 167.803 274.837 167.849C274.726 167.968 274.63 168.1 274.528 168.227C274.335 168.466 274.15 168.712 273.947 168.943C273.799 169.113 273.704 169.278 273.726 169.523C273.739 169.676 273.666 169.848 273.598 169.995C273.492 170.223 273.513 170.324 273.74 170.43C273.816 170.465 273.875 170.503 273.887 170.599C273.9 170.697 273.981 170.736 274.07 170.739C274.179 170.743 274.29 170.734 274.4 170.729C274.467 170.726 274.535 170.721 274.603 170.717C274.61 170.727 274.617 170.738 274.624 170.749L274.627 170.751ZM277.949 178.432C277.957 178.418 277.966 178.405 277.974 178.392C278.041 178.419 278.111 178.441 278.175 178.475C278.327 178.556 278.326 178.558 278.434 178.437C278.632 178.54 278.83 178.643 279.027 178.747C279.037 178.752 279.048 178.76 279.052 178.77C279.088 178.853 279.163 178.857 279.235 178.852C279.417 178.839 279.6 178.819 279.787 178.801L279.788 178.956C279.946 178.993 279.96 179.022 279.885 179.164C279.864 179.203 279.837 179.243 279.803 179.271C279.604 179.437 279.351 179.463 279.126 179.334C279.034 179.282 278.952 179.213 278.866 179.15C278.781 179.087 278.697 179.021 278.61 178.961C278.579 178.939 278.539 178.93 278.488 178.909C278.482 179.2 278.794 179.183 278.885 179.365C278.849 179.388 278.817 179.409 278.772 179.438C278.815 179.469 278.844 179.491 278.875 179.511C278.975 179.577 278.984 179.617 278.886 179.676C278.806 179.724 278.708 179.766 278.617 179.769C278.393 179.777 278.168 179.767 277.945 179.751C277.578 179.725 277.317 179.509 277.083 179.251C277.08 179.247 277.084 179.237 277.086 179.211C277.18 179.194 277.279 179.174 277.379 179.159C277.46 179.147 277.498 179.107 277.497 179.022C277.496 178.956 277.506 178.889 277.512 178.81C277.603 178.846 277.679 178.875 277.763 178.908C277.741 178.837 277.725 178.786 277.704 178.72L278.135 178.719C278.068 178.614 278.009 178.523 277.95 178.432L277.949 178.432ZM268.116 173.558C268.064 173.738 268.016 173.911 267.961 174.082C267.953 174.105 267.909 174.128 267.88 174.13C267.593 174.153 267.305 174.18 267.018 174.186C266.863 174.189 266.658 174.025 266.623 173.887C266.876 173.924 267.12 173.961 267.383 174.001C267.322 173.768 267.493 173.76 267.649 173.733C267.595 173.673 267.557 173.631 267.519 173.59L267.531 173.56L268.117 173.558L268.116 173.558ZM267.678 175.027C267.74 174.959 267.789 174.917 267.822 174.865C267.855 174.811 267.872 174.748 267.899 174.689C267.982 174.501 268.316 174.321 268.543 174.353C268.511 174.396 268.483 174.435 268.454 174.473C268.405 174.535 268.331 174.589 268.31 174.659C268.272 174.784 268.188 174.85 268.082 174.893C267.959 174.943 267.829 174.978 267.678 175.027ZM268.376 175.569C268.376 175.569 268.376 175.569 268.376 175.569C268.406 175.567 268.436 175.565 268.466 175.562C268.587 175.551 268.616 175.593 268.572 175.704C268.528 175.818 268.432 175.813 268.337 175.816C268.236 175.819 268.172 175.762 268.137 175.679C268.129 175.66 268.169 175.6 268.197 175.591C268.253 175.572 268.316 175.575 268.376 175.569L268.376 175.569Z" fill="#154068"/>
<path d="M275.027 206.823C276.008 199.304 290.121 189.719 308.4 186.657C329.992 183.039 352.997 161.804 378.009 173.46C393.009 180.45 403.127 177.613 417.022 204.947C427.9 226.345 344.853 222.28 324.016 215.866C303.18 209.452 273.988 214.793 275.027 206.823Z" fill="#285B8A"/>
<path d="M-54.8145 210.222C-53.8435 202.84 -57.9087 207.949 -49.8355 191.412C-40.1392 171.551 4.53973 168.377 29.6992 178.916C84.3384 201.803 96 201.277 96 206.276C96 218.772 26.8166 213.905 -8.56121 213.905C-30.1246 213.905 -55.8437 218.046 -54.8145 210.222Z" fill="#285B8A"/>
</g>
<defs>
<filter id="filter0_f_221_26" x="-112" y="21" width="603" height="330" filterUnits="userSpaceOnUse" color-interpolation-filters="sRGB">
<feFlood flood-opacity="0" result="BackgroundImageFix"/>
<feBlend mode="normal" in="SourceGraphic" in2="BackgroundImageFix" result="shape"/>
<feGaussianBlur stdDeviation="50" result="effect1_foregroundBlur_221_26"/>
</filter>
<linearGradient id="paint0_linear_221_26" x1="181" y1="197" x2="181" y2="1061.97" gradientUnits="userSpaceOnUse">
<stop stop-color="#BBEBFF"/>
<stop offset="0.619792" stop-color="#BBEBFF"/>
<stop offset="1" stop-color="#BBEBFF" stop-opacity="0"/>
</linearGradient>
</defs>
</svg>
