<svg width="485" height="80" viewBox="0 0 485 80" fill="none" xmlns="http://www.w3.org/2000/svg">
<mask id="mask0_198_14" style="mask-type:alpha" maskUnits="userSpaceOnUse" x="0" y="0" width="485" height="80">
<rect width="485" height="80" fill="#D9D9D9"/>
</mask>
<g mask="url(#mask0_198_14)">
<path d="M774.571 79.4859V74.8267H-253.277C-253.796 76.0357 -254.149 76.932 -254.263 77.6076C-254.322 77.9551 -254.313 78.2219 -254.245 78.4317C-254.179 78.6347 -254.051 78.8039 -253.833 78.9492C-253.374 79.2548 -252.541 79.4404 -251.156 79.5406C-249.785 79.6397 -247.927 79.6532 -245.464 79.6532C-218.301 79.6532 -191.14 79.6518 -163.979 79.6503C-109.659 79.6475 -55.341 79.6446 -1.01715 79.6532C31.4769 79.6591 63.9706 79.6784 96.4642 79.6976C135.455 79.7207 174.447 79.7438 213.438 79.7438C255.154 79.7438 296.873 79.7228 338.592 79.7018C380.312 79.6807 422.031 79.6597 463.747 79.6597C500.602 79.6597 537.461 79.6828 574.32 79.7059C605.036 79.7252 635.752 79.7444 666.464 79.7503C694.371 79.7503 722.278 79.7113 750.185 79.6723C756.395 79.6637 762.605 79.655 768.815 79.6467H768.815C770.101 79.6467 771.384 79.5995 772.761 79.5489C773.345 79.5274 773.946 79.5053 774.571 79.4859Z" stroke="#255786" stroke-width="0.5"/>
<path d="M768.748 5.06287H768.749C770.098 5.06287 771.452 5.01726 772.928 4.9675C773.458 4.94965 774.004 4.93126 774.571 4.91426V0.25H-253.714C-253.881 1.02317 -253.857 1.68634 -253.661 2.2491C-253.451 2.85311 -253.034 3.36513 -252.391 3.78313C-251.09 4.62832 -248.885 5.0737 -245.726 5.07586C-218.776 5.07586 -191.825 5.07441 -164.875 5.07297C-110.976 5.07008 -57.0795 5.0672 -3.18842 5.07586C26.9632 5.08397 57.1168 5.10337 87.2708 5.12277C129.485 5.14993 171.699 5.17708 213.91 5.1733C257.072 5.1733 300.229 5.14884 343.387 5.12439C383.462 5.10169 423.538 5.07898 463.617 5.07586C500.224 5.07586 536.835 5.10063 573.445 5.12541C604.423 5.14638 635.402 5.16734 666.377 5.1733C692.624 5.1733 718.871 5.13486 745.118 5.09643C752.995 5.0849 760.872 5.07337 768.748 5.06287Z" stroke="#255786" stroke-width="0.5"/>
<path d="M201.446 24.7258L199.823 23.1744C196.806 26.1613 193.873 29.0629 191.036 31.8705C188.236 34.6405 185.528 37.3191 182.924 39.8978C184.228 41.1904 185.564 42.5145 186.924 43.8632C190.929 47.8339 195.15 52.0179 199.413 56.2392C200.286 55.383 201.145 54.539 202.047 53.652C202.888 52.8263 203.766 51.9633 204.729 51.0185C200.833 47.669 196.785 44.1868 192.589 40.5782L192.377 40.3956L192.582 40.2053C193.269 39.5694 193.906 38.9798 194.51 38.4209C196.3 36.7642 197.8 35.3764 199.442 33.8494L199.614 33.6894L199.785 33.8513C206.556 40.2897 213.263 46.6717 220.149 53.2237C221.341 54.3573 222.537 55.4959 223.74 56.6408C226.247 54.1515 228.665 51.7507 231.043 49.3904C232.412 48.031 233.768 46.6851 235.119 45.3434L235.292 45.1719L235.468 45.34C241.055 50.6742 246.496 55.8663 251.794 60.9225C254.233 63.2498 256.641 65.5482 259.02 67.8185C262.356 64.6558 265.635 61.5472 268.871 58.4795C275.681 52.0239 282.3 45.7492 288.853 39.5315C283.81 34.7637 278.64 29.8733 273.379 24.8972C268.904 20.6645 264.364 16.3697 259.78 12.0357C252.124 19.335 244.278 26.8151 236.214 34.5015L236.035 34.6721L235.862 34.495C233.821 32.401 231.857 30.3879 229.879 28.3612C228.033 26.4699 226.175 24.5666 224.233 22.5747L223.996 22.8535C222.008 25.1857 220.496 26.9599 218.715 29.0545C219.951 30.0974 221.261 31.2025 222.627 32.3544C225.132 34.4673 227.824 36.7379 230.586 39.0718L230.809 39.2605L230.588 39.4518C230.177 39.8079 229.783 40.1494 229.403 40.4788C227.183 42.4015 225.437 43.9134 223.555 45.5398L223.383 45.6883L223.219 45.5314C216.08 38.7127 208.788 31.743 201.446 24.7258ZM259.541 45.6311L259.712 45.4625L259.887 45.6257C261.166 46.8145 262.342 47.9107 263.48 48.9709C264.321 49.7554 265.142 50.5201 265.967 51.2881L266.162 51.4695L265.969 51.6526C265.046 52.5264 264.112 53.4133 263.193 54.2856L263.151 54.3257C262.247 55.1841 261.358 56.0279 260.511 56.8305L260.349 56.9838L260.178 56.8407C258.705 55.606 257.267 54.3989 255.847 53.207C255.196 52.6611 254.55 52.1184 253.905 51.5776L253.695 51.4011L253.89 51.2082C254.788 50.3214 255.628 49.4931 256.429 48.7039C257.525 47.6227 258.547 46.615 259.541 45.6311ZM272.826 34.3127L272.561 34.558C274.504 36.2096 276.447 37.8554 278.39 39.5013L278.394 39.5041L278.603 39.681L278.408 39.873C277.742 40.5286 277.099 41.1611 276.474 41.7751C275.104 43.1231 273.825 44.3818 272.591 45.6005L272.423 45.766L272.248 45.6086C270.969 44.4594 269.747 43.3642 268.553 42.2932C267.746 41.5706 266.952 40.8589 266.162 40.1493L265.957 39.966L266.159 39.7796C267.213 38.8051 268.261 37.8403 269.3 36.8838C270.142 36.1084 270.978 35.3386 271.807 34.5735L271.5 34.3127H272.18H272.187H272.826ZM248.057 33.6729V34.1415C249 34.9649 249.905 35.7573 250.802 36.5428C251.971 37.5662 253.126 38.5778 254.334 39.6308L254.544 39.8139L254.339 40.0029C253.274 40.9865 252.262 41.9213 251.284 42.825C250.27 43.7614 249.292 44.6645 248.329 45.5539L248.16 45.7099L247.99 45.5546C247.582 45.1806 247.177 44.8093 246.773 44.4395C245.12 42.9259 243.493 41.4362 241.8 39.8789L241.601 39.696L241.799 39.5119C243.802 37.6464 245.667 35.9053 247.636 34.0659L248.057 33.6729ZM260.242 34.2171H260.145L260.073 34.1513C258.589 32.7899 257.216 31.5245 255.954 30.362C255.384 29.8363 254.836 29.3317 254.311 28.8487L254.127 28.6797L254.296 28.4958C256.224 26.3944 258.041 24.4174 259.423 22.9181L259.591 22.7358L259.775 22.9024L259.869 22.9879C262.088 25.0002 263.997 26.7318 266.027 28.578L266.228 28.761L266.029 28.9461C264.921 29.9751 263.769 31.0433 262.57 32.1555C261.869 32.8051 261.153 33.4698 260.419 34.1503L260.347 34.2171H260.249H260.242Z" stroke="#255786" stroke-width="0.5"/>
<path d="M66.0135 68.5982C68.1926 66.3728 70.2171 64.3036 72.2117 62.2651C74.1321 60.3022 76.0248 58.3678 78.001 56.3496L78.1798 56.167L78.3585 56.3499C80.8432 58.8943 83.1896 61.2938 85.5156 63.6725C87.0562 65.248 88.5879 66.8144 90.145 68.4077C90.9657 67.5654 91.7237 66.7869 92.4389 66.0523C93.54 64.9214 94.5397 63.8947 95.5102 62.9C91.3133 58.8882 87.0692 54.8315 82.825 50.7749C79.2405 47.3487 75.656 43.9226 72.1 40.5235L71.9121 40.3439L72.0989 40.1631C77.3939 35.0406 82.5482 30.0567 87.6931 25.0818C90.4675 22.3992 93.2392 19.7192 96.0288 17.0214C95.1661 16.1768 94.3411 15.3701 93.5064 14.5538C92.4693 13.5395 91.417 12.5105 90.2585 11.3757C87.8763 13.7825 85.5392 16.1395 83.1508 18.5483C81.6326 20.0795 80.0936 21.6316 78.5092 23.2307L78.3302 23.4113L78.1527 23.2293C75.2999 20.3063 72.6163 17.5597 69.7892 14.6662C68.6334 13.4832 67.4536 12.2757 66.2284 11.0215C65.2069 12.0748 64.2108 13.1022 63.2306 14.1132C60.2226 17.2156 57.3639 20.164 54.3792 23.2355L54.2035 23.4162L54.0242 23.2391C50.0849 19.3477 46.5066 15.8098 42.8177 12.1625L42.1957 11.5475C40.5316 13.1191 38.9996 14.5656 37.4651 16.0144L36.5647 16.8646C44.5001 24.5589 52.2934 32.1186 60.039 39.6331L60.2237 39.8123L60.0393 39.9918C53.0494 46.7907 46.0317 53.6106 38.8427 60.5971L36.5158 62.8584C38.0664 64.1298 39.6044 65.3889 41.2166 66.7087C41.5531 66.9842 41.8928 67.2623 42.2365 67.5437C44.4055 65.3318 46.7136 62.9804 49.1537 60.4943C50.5362 59.0858 51.9612 57.634 53.4273 56.14L53.6057 55.9582L53.7841 56.1399C58.1762 60.6111 61.9307 64.4338 66.0135 68.5982ZM65.7761 45.5585L65.9492 45.3881L66.1245 45.5563C68.3006 47.6444 70.2003 49.4641 71.9549 51.1397L72.1386 51.3151L71.9603 51.496C71.247 52.2198 70.519 52.9574 69.7911 53.695C68.7279 54.7724 67.6648 55.8496 66.6478 56.8832L66.4845 57.0491L66.3074 56.8981C65.2955 56.0358 64.2954 55.1848 63.3025 54.3399C62.2087 53.4091 61.1237 52.4858 60.0413 51.5631L59.833 51.3855L60.0286 51.1941C62.1564 49.1126 63.9732 47.3322 65.7761 45.5585ZM71.9761 27.8297L72.1623 28.0084L71.9777 28.1889C69.995 30.1264 68.0675 32.0116 66.4095 33.635L66.2488 33.7923L66.0754 33.6491C64.134 32.0452 62.1027 30.3627 60.3893 28.9422L60.1886 28.7758L60.3633 28.5823C62.3599 26.3696 64.1286 24.4123 65.9386 22.4092L66.1111 22.2184L66.2969 22.3962C67.0096 23.0779 67.6951 23.7333 68.352 24.3612C69.6816 25.6323 70.8939 26.7912 71.9761 27.8297Z" stroke="#255786" stroke-width="0.5"/>
<path d="M180.511 18.4096C178.927 19.9859 177.278 21.6275 175.543 23.3556V23.8781L175.114 23.4397C171.988 20.2431 169.151 17.3376 166.275 14.3921C165.281 13.3738 164.282 12.3508 163.265 11.3093C159.184 15.4719 155.495 19.2382 151.478 23.3416L151.298 23.5251L151.12 23.3406C148.311 20.4392 145.697 17.7361 143.093 15.0445C141.854 13.7632 140.617 12.4846 139.363 11.1884C138.552 11.9806 137.803 12.7122 137.095 13.4048C135.793 14.6767 134.626 15.8172 133.454 16.9603C139.306 22.616 145.131 28.2429 150.907 33.8226C152.891 35.7392 154.869 37.6502 156.841 39.5549L157.027 39.7348L156.841 39.9146C149.09 47.3946 141.286 54.9197 133.427 62.4962C134.401 63.3799 135.348 64.2354 136.295 65.091L136.299 65.0951C137.255 65.9587 138.21 66.8224 139.195 67.7151C142.718 64.2288 146.459 60.5292 150.274 56.7598L150.451 56.5846L150.627 56.7614C152.639 58.7859 154.576 60.7346 156.511 62.6812L156.675 62.846C158.608 64.7898 160.54 66.7337 162.545 68.751C165.876 65.3576 168.797 62.3847 171.683 59.4471C172.626 58.4875 173.565 57.5316 174.513 56.5661L174.692 56.3843L174.87 56.5663C177.675 59.4283 180.289 62.099 182.904 64.7693C184.161 66.0529 185.417 67.3365 186.695 68.6411C187.138 68.2033 187.56 67.7861 187.964 67.3862C189.732 65.6387 191.163 64.224 192.525 62.8825C189.478 59.9173 186.433 56.9541 183.396 53.9987C178.67 49.3998 173.963 44.8198 169.301 40.2804L169.116 40.1004L169.302 39.9213C177.161 32.3448 184.966 24.8199 193.047 17.0208C192.055 16.1966 191.108 15.408 190.169 14.6263C189.112 13.7461 188.064 12.8745 186.977 11.9704C184.916 14.0245 182.781 16.15 180.511 18.4096ZM162.593 45.7361V45.2888L163.007 45.6465C164.553 46.9841 166.064 48.2874 167.457 49.4902C167.994 49.9533 168.513 50.4014 169.01 50.8308L169.207 51.0008L169.03 51.1908C167.847 52.4549 166.748 53.6293 165.708 54.7406C164.949 55.5514 164.222 56.3285 163.517 57.0823L163.343 57.2681L163.16 57.091C161.025 55.0225 159.132 53.1897 157.198 51.3175L157.013 51.138L157.198 50.9584C158.982 49.2293 160.853 47.4175 162.593 45.7361ZM157.267 28.7071L157.064 28.5247L157.263 28.3387C159.253 26.4796 161.229 24.6335 162.929 23.0493L163.101 22.8885L163.272 23.0513C164.163 23.9017 165.071 24.766 165.955 25.6068C166.892 26.4982 167.802 27.3631 168.633 28.1573L168.808 28.3246L168.646 28.5049C167.818 29.4303 166.961 30.3895 166.114 31.3382C165.267 32.2869 164.429 33.225 163.638 34.1083L163.47 34.295L163.284 34.1273C161.073 32.1372 159.104 30.3632 157.267 28.7071Z" stroke="#255786" stroke-width="0.5"/>
<path d="M11.4258 28.0411C9.67209 26.2284 7.94759 24.4459 6.1805 22.6181C4.54138 24.3331 3.22866 25.7052 1.87383 27.1214C1.39381 27.6231 0.908493 28.1304 0.401501 28.6604C1.46477 29.5657 2.54197 30.4833 3.63326 31.4129C6.53566 33.8853 9.53764 36.4425 12.642 39.0799L12.8581 39.2636L12.6488 39.455C9.60285 42.2395 6.87735 44.7286 4.33987 47.046C3.0229 48.2487 1.75658 49.4052 0.522392 50.5328C3.96277 53.7853 7.28692 56.9258 10.5259 59.9859C13.0646 62.3843 15.5509 64.7333 18 67.0481C23.3264 62.0076 29.0321 56.6077 35.2599 50.7131C31.4608 47.371 27.4999 43.8883 23.279 40.1783L23.0664 39.9915L23.278 39.8036C27.5892 35.976 31.5266 32.4772 35.3659 29.0648C34.1398 27.8891 33.0394 26.8384 31.9642 25.8116C31.2067 25.0883 30.4617 24.3769 29.694 23.6421C26.2146 27.1518 22.5318 30.867 18.4747 34.9624L18.2949 35.1439L18.1174 34.9602C15.7559 32.5169 13.569 30.2565 11.4258 28.0411ZM17.7762 57.0622L17.6035 57.2109L17.4395 57.0526C17.0825 56.7078 16.7201 56.358 16.3548 56.0054C14.8684 54.5705 13.3349 53.0901 11.9261 51.7237L11.7486 51.5516L11.9187 51.3722C12.5987 50.6552 13.2543 49.9633 13.8846 49.2982C15.1241 47.9903 16.2656 46.7859 17.3007 45.6966L17.4681 45.5205L17.6489 45.6828C19.8737 47.6795 21.8289 49.4405 23.9637 51.3651L24.1747 51.5553L23.9592 51.7404C22.8206 52.7184 21.704 53.6801 20.4824 54.7323C19.6436 55.4548 18.7552 56.2199 17.7762 57.0622Z" stroke="#255786" stroke-width="0.5"/>
<path d="M102.834 55.7128C104.337 54.2601 105.867 52.782 107.517 51.1845C104.369 48.4136 101.023 45.4731 97.5263 42.4C96.8743 41.8269 96.217 41.2493 95.5548 40.6673L95.3434 40.4816L95.5527 40.2935C100.263 36.0624 104.191 32.5345 108.336 28.8123C107.076 27.6919 105.985 26.723 104.961 25.8133C104.122 25.0685 103.328 24.3633 102.522 23.647C99.1155 27.0868 95.6611 30.5719 92.2316 34.0321C90.1688 36.1133 88.115 38.1854 86.0861 40.2331C87.1514 41.2588 88.2458 42.3122 89.3626 43.3873C93.5404 47.409 98.0329 51.7335 102.497 56.0389L102.834 55.7128Z" stroke="#255786" stroke-width="0.5"/>
<path d="M126.866 23.5301C125.189 25.1812 123.506 26.8378 121.487 28.8293C125.32 32.1073 129.32 35.5235 133.446 39.0408L133.663 39.2263L133.45 39.4172C133.088 39.7416 132.73 40.0626 132.376 40.3805C128.311 44.0226 124.686 47.2718 120.703 50.8339C121.833 51.6873 122.843 52.45 123.769 53.1494C124.899 54.0028 125.903 54.7619 126.851 55.4763C132.044 50.3764 137.701 44.8241 143.192 39.4346C141.11 37.4057 138.928 35.2801 136.681 33.0921C133.504 29.9971 130.199 26.7773 126.866 23.5301Z" stroke="#255786" stroke-width="0.5"/>
<path d="M234.325 59.4336C233.104 60.5876 231.887 61.7383 230.665 62.8887C231.5 63.686 232.345 64.4899 233.185 65.2885C234.046 66.1072 234.901 66.9203 235.733 67.7148C237.6 66.1051 239.478 64.4861 241.497 62.7443C239.552 60.962 237.789 59.347 236.079 57.7762C235.493 58.3296 234.909 58.882 234.325 59.4336Z" stroke="#255786" stroke-width="0.5"/>
<path d="M230.717 17.318C232.22 18.6739 234.021 20.2954 235.825 21.9198C237.457 20.2439 239.12 18.5337 240.976 16.6223C239.391 15.3303 237.518 13.8027 235.705 12.3224C234.947 13.0797 234.111 13.9176 233.22 14.8107C232.424 15.6085 231.584 16.4504 230.717 17.318Z" stroke="#255786" stroke-width="0.5"/>
<path d="M46.5894 39.4771C45.4115 38.3984 43.6579 36.7848 41.8871 35.1552C41.213 35.7782 40.5121 36.4245 39.7825 37.0973C38.7895 38.0129 37.7433 38.9776 36.6388 39.9993C37.1903 40.4578 37.7451 40.9195 38.3029 41.3836C39.5498 42.4211 40.8118 43.471 42.0854 44.5269C42.7518 43.7811 43.4821 42.9617 44.2406 42.1106C45.0071 41.2505 45.8024 40.3582 46.5894 39.4771Z" stroke="#255786" stroke-width="0.5"/>
<path d="M211.738 21.7501C213.332 20.2093 215.02 18.5791 216.741 16.9183C215.79 16.0338 214.849 15.162 213.919 14.3007C213.122 13.5625 212.333 12.832 211.554 12.1078C209.875 13.7352 208.182 15.3761 206.406 17.0892C206.635 17.2891 206.865 17.4904 207.097 17.6932C208.575 18.9859 210.121 20.3381 211.738 21.7501Z" stroke="#255786" stroke-width="0.5"/>
<path d="M13.103 16.8708C13.6271 17.3416 14.1771 17.835 14.7528 18.3515C15.8449 19.3312 17.0298 20.3942 18.307 21.5445C19.0349 20.8705 19.8184 20.1468 20.6619 19.3675C21.488 18.6044 22.3716 17.788 23.3172 16.9132C21.9263 15.8512 20.5981 14.8356 19.2734 13.8228C18.6754 13.3655 18.078 12.9088 17.476 12.4486C16.9582 12.973 16.3731 13.564 15.7543 14.1891C14.9054 15.0466 13.9929 15.9684 13.103 16.8708Z" stroke="#255786" stroke-width="0.5"/>
<path d="M111.334 18.3212C112.474 19.4039 113.651 20.5218 114.896 21.71C115.365 21.2798 115.844 20.8406 116.332 20.3926C117.537 19.2859 118.802 18.1251 120.127 16.9122C119.656 16.5033 119.192 16.1001 118.731 15.6996C117.31 14.4659 115.917 13.2567 114.442 11.979C113.449 12.9714 112.401 14.0161 111.353 15.0607C110.789 15.623 110.225 16.1853 109.669 16.7393C110.218 17.2609 110.771 17.7868 111.334 18.3212Z" stroke="#255786" stroke-width="0.5"/>
<path d="M117.134 59.9877C116.335 59.2057 115.513 58.4003 114.665 57.5684C113.244 58.9519 111.888 60.2673 110.492 61.6224C110.086 62.016 109.677 62.413 109.262 62.8159C110.694 64.1139 112.106 65.389 113.471 66.6225C113.813 66.9317 114.153 67.2383 114.489 67.542C116.168 65.9567 117.889 64.3331 119.769 62.5693C118.92 61.736 118.043 60.877 117.134 59.9877Z" stroke="#255786" stroke-width="0.5"/>
<path d="M213.301 65.9597C214.293 64.8621 215.351 63.6914 216.447 62.4776C214.972 61.0067 213.373 59.4133 211.839 57.8919C210.983 58.6835 210.15 59.453 209.317 60.2224C208.351 61.1148 207.385 62.0072 206.382 62.9338C206.887 63.3712 207.403 63.8185 207.932 64.2769C209.146 65.3302 210.428 66.4418 211.796 67.6246C212.277 67.0927 212.78 66.5363 213.301 65.9597Z" stroke="#255786" stroke-width="0.5"/>
<path d="M114.378 34.9517C112.806 36.4469 111.096 38.0731 109.386 39.6934C110.355 40.5666 111.301 41.4211 112.231 42.2615C113.073 43.0222 113.902 43.7714 114.724 44.5126C115.613 43.5981 116.563 42.6189 117.537 41.614C118.16 40.9711 118.794 40.3177 119.428 39.6641C118.009 38.3383 116.248 36.6937 114.378 34.9517Z" stroke="#255786" stroke-width="0.5"/>
<path d="M429.582 67.7855C431.428 65.7996 433.091 64.009 434.566 62.408C429.379 57.3859 424.073 52.2545 418.708 47.0659C416.277 44.7144 413.833 42.3511 411.383 39.9808L411.196 39.7996L411.385 39.62C415.304 35.8942 419.156 32.2333 422.981 28.598C427.161 24.6255 431.309 20.6836 435.476 16.7214C434.273 15.6726 433.173 14.716 432.077 13.7617C431.198 12.9972 430.321 12.2342 429.394 11.4267C428.894 11.9344 428.39 12.4464 427.881 12.9628C424.792 16.0977 421.544 19.3949 418.098 22.8979L417.92 23.0788L417.742 22.8981C415.687 20.8143 413.743 18.8465 411.804 16.8835C409.805 14.8608 407.812 12.8432 405.708 10.7092C403.386 13.1303 401.202 15.407 399.046 17.6547C397.374 19.3968 395.72 21.1215 394.031 22.8825L393.856 23.0651L393.675 22.8879C391.476 20.7293 389.428 18.7185 387.451 16.7779C385.521 14.8829 383.659 13.0547 381.791 11.221C379.828 13.2164 378.088 14.9882 376.285 16.8261C383.799 24.0625 391.676 31.6372 399.555 39.2122L399.564 39.2217L399.752 39.4019L399.564 39.5821C391.663 47.1788 383.83 54.7046 375.998 62.2299C376.997 63.1431 377.994 64.0577 378.969 64.9531C379.772 65.6895 380.561 66.413 381.324 67.1121C389.215 59.8376 397.212 52.4682 405.032 45.2665L405.204 45.1083L405.373 45.2689L405.378 45.2738C405.379 45.2741 405.379 45.2744 405.379 45.2747C411.731 51.1794 418.048 57.0558 424.499 63.057C426.184 64.6238 427.877 66.199 429.582 67.7855ZM399.127 28.105L398.907 27.9207L399.12 27.7283C399.977 26.9517 400.787 26.2192 401.547 25.5319C402.864 24.3416 404.03 23.2869 405.033 22.374L405.196 22.2251L405.364 22.3694C407.693 24.3726 409.613 26.0288 411.306 27.4886L411.502 27.6575L411.326 27.8475C410.644 28.5865 409.969 29.3178 409.31 30.0323C408.153 31.2858 407.044 32.4876 406.027 33.5884L405.866 33.7635L405.683 33.6103C404.134 32.3105 402.739 31.139 401.286 29.9185C400.588 29.3319 399.876 28.734 399.127 28.105Z" stroke="#255786" stroke-width="0.5"/>
<path d="M290.365 27.0037C294.528 30.9296 298.712 34.8746 302.889 38.816H303.411L302.971 39.245C297.379 44.6998 291.958 49.9872 286.531 55.2794C284.066 57.6829 281.601 60.0874 279.118 62.5089C279.655 62.9407 280.197 63.377 280.741 63.8143C282.008 64.8339 283.282 65.859 284.511 66.8444L286.137 65.3309C293.278 58.6799 300.71 51.7579 308.043 44.9251L308.213 44.7669L308.383 44.9245C313.3 49.472 318.091 53.903 322.841 58.2961C326.149 61.3551 329.437 64.3957 332.733 67.4445C333.118 67.0656 333.5 66.6897 333.879 66.3169C335.298 64.9196 336.673 63.565 338.011 62.2535C330.373 54.8871 322.559 47.3533 314.582 39.665L314.393 39.4828L314.584 39.3029L316.804 37.2145C324.105 30.3431 331.33 23.5436 338.555 16.7396C336.514 14.8605 334.747 13.2362 333.108 11.7372C329.194 15.4322 325.252 19.1558 321.302 22.8874C317.412 26.5614 313.515 30.2432 309.628 33.9128L309.457 34.0742L309.286 33.9135C307.138 31.9016 305.018 29.9158 302.918 27.9481C296.795 22.2125 290.836 16.6306 284.827 11.0042C283.929 11.9031 283.096 12.7382 282.288 13.5477C281.272 14.5656 280.297 15.5429 279.286 16.5554C282.951 20.0123 286.65 23.5004 290.365 27.0037Z" stroke="#255786" stroke-width="0.5"/>
<path d="M345.947 55.7738C347.392 54.2879 348.894 52.7442 350.434 51.1619C352.471 49.0687 354.574 46.908 356.696 44.7244L356.87 44.5455L357.049 44.719C359.315 46.9119 361.215 48.7514 363.315 50.7873L363.509 50.9747L363.308 51.1536C361.378 52.8695 359.457 54.5759 357.546 56.2727C355.524 58.0685 353.515 59.8534 351.52 61.6272C352.263 62.3125 352.954 62.9512 353.611 63.5573C354.904 64.7518 356.06 65.82 357.202 66.8701C359.7 64.4432 362.219 61.9961 364.756 59.5308C371.775 52.7113 378.938 45.7524 386.199 38.6968C385.659 38.1936 385.024 37.6022 384.318 36.9447C383.38 36.0705 382.316 35.0796 381.184 34.0243C377.293 37.8275 373.518 41.5203 369.575 45.3784L369.388 45.5622L369.213 45.3655C368.746 44.838 368.289 44.3211 367.837 43.8109C366.445 42.2383 365.11 40.73 363.728 39.1732L363.563 38.9871L363.748 38.821C367.117 35.8023 370.998 32.3171 374.517 29.1571C368.137 23.1119 362.356 17.6402 356.646 12.2364C356.3 12.5585 355.904 12.9259 355.471 13.328C354.467 14.2613 353.261 15.3817 352.001 16.558C355.766 19.9639 359.654 23.481 363.903 27.3203L364.118 27.5146L363.894 27.6988C361.249 29.8786 359.134 31.6199 356.668 33.6492L356.494 33.7923L356.334 33.6343C352.88 30.2325 349.144 26.5517 345.503 22.9601C343.082 25.335 340.706 27.6658 338.349 29.9787C334.913 33.35 331.516 36.6832 328.073 40.059L328.305 40.2658C329.541 41.3684 331.212 42.8598 333.139 44.5732C334.93 42.7464 336.744 40.8973 338.558 39.0482L338.567 39.0394C340.435 37.1358 342.302 35.2322 344.144 33.3532L344.314 33.1794L344.493 33.345C345.698 34.465 346.779 35.4681 347.818 36.4328C348.893 37.4298 349.923 38.3857 351 39.387L351.203 39.5749L350.996 39.7576C347.234 43.0776 343.305 46.5493 338.98 50.3718C341.017 51.9535 342.676 53.2388 344.583 54.7172C345.022 55.0572 345.474 55.4074 345.947 55.7738Z" stroke="#255786" stroke-width="0.5"/>
<path d="M496.023 27.589C494.27 25.7763 492.545 23.9937 490.778 22.1659C489.139 23.881 487.826 25.2531 486.471 26.6692C485.991 27.1709 485.506 27.6782 484.999 28.2082C486.062 29.1136 487.14 30.0312 488.231 30.9608C491.133 33.4331 494.135 35.9903 497.24 38.6278L497.456 38.8114L497.246 39.0028C494.201 41.7873 491.475 44.2764 488.938 46.5938C487.621 47.7966 486.354 48.9531 485.12 50.0806C488.56 53.3332 491.885 56.4737 495.124 59.5337C497.662 61.9322 500.149 64.2812 502.598 66.5959C507.924 61.5554 513.63 56.1555 519.858 50.261C516.058 46.9188 512.098 43.4362 507.877 39.7261L507.664 39.5393L507.876 39.3514C512.187 35.5239 516.124 32.025 519.964 28.6126C518.737 27.437 517.637 26.3863 516.562 25.3594C515.804 24.6362 515.059 23.9247 514.292 23.1899C510.812 26.6996 507.129 30.4149 503.072 34.5102L502.893 34.6917L502.715 34.508C500.354 32.0648 498.167 29.8043 496.023 27.589ZM502.374 56.6101L502.201 56.7587L502.037 56.6004C501.68 56.2557 501.318 55.9058 500.952 55.5532C499.466 54.1184 497.933 52.638 496.524 51.2716L496.346 51.0995L496.516 50.9201C497.196 50.203 497.852 49.5112 498.482 48.8461C499.722 47.5382 500.863 46.3338 501.898 45.2445L502.066 45.0684L502.247 45.2306C504.471 47.2274 506.427 48.9884 508.561 50.913L508.772 51.1032L508.557 51.2883C507.418 52.2663 506.302 53.228 505.08 54.2801C504.241 55.0026 503.353 55.7678 502.374 56.6101Z" stroke="#255786" stroke-width="0.5"/>
<path d="M453.968 44.161C458.083 48.6404 461.703 52.5805 465.5 56.7185C467.852 54.3191 469.496 52.6414 471.441 50.652C469.214 48.7829 466.949 46.8786 464.59 44.8949C462.73 43.3302 460.81 41.7162 458.804 40.0309L458.579 39.8419L458.802 39.6501C460.361 38.3066 461.831 37.0397 463.238 35.8263C466.236 33.2423 468.953 30.9006 471.651 28.5767C469.418 26.5772 467.632 24.9721 465.613 23.1575C463.772 24.9931 461.839 26.9212 459.836 28.9199C458.144 30.6068 456.403 32.3441 454.623 34.1186L454.445 34.2962L454.269 34.117C450.176 29.9624 446.505 26.2324 442.486 22.1475C441.912 22.8575 441.38 23.5161 440.871 24.1457C439.57 25.7562 438.422 27.1769 437.123 28.7827C438.936 30.3103 440.976 32.032 443.174 33.8879C445.015 35.4421 446.967 37.0904 448.991 38.7974L449.514 39.2385H448.911C447.774 40.2354 446.68 41.1939 445.619 42.1237C442.301 45.0329 439.301 47.6619 436.287 50.3092C438.459 52.2692 440.236 53.8725 442.12 55.5661C443.039 54.6531 443.973 53.7245 444.929 52.7745C447.61 50.1101 450.46 47.2778 453.608 44.1527L453.792 43.9696L453.968 44.161Z" stroke="#255786" stroke-width="0.5"/>
<path d="M481.159 64.3113C481.909 63.5687 482.691 62.7949 483.521 61.9732C482.857 61.3544 482.172 60.7172 481.479 60.0711C480.491 59.1509 479.483 58.213 478.489 57.2853C477.848 57.9321 477.213 58.5716 476.576 59.2134C475.43 60.3678 474.276 61.5297 473.065 62.7557C473.386 63.0348 473.721 63.3262 474.067 63.6269C475.356 64.748 476.795 65.9997 478.209 67.233C479.16 66.2895 480.13 65.3298 481.159 64.3113Z" stroke="#255786" stroke-width="0.5"/>
<path d="M480.569 41.7589C481.42 40.8703 482.271 39.9819 483.122 39.0895C481.586 37.6769 479.855 36.0847 478.158 34.5199C477.766 34.8599 477.369 35.2042 476.966 35.5531C475.554 36.7776 474.076 38.0591 472.521 39.413C473.174 40.012 473.807 40.5928 474.427 41.1616C475.653 42.2856 476.827 43.3625 478.006 44.4396C478.861 43.5435 479.715 42.6515 480.569 41.7597L480.569 41.7589Z" stroke="#255786" stroke-width="0.5"/>
<path d="M478.371 21.6756C479.841 20.277 481.276 18.9081 482.832 17.4238C483.165 17.1068 483.503 16.7846 483.847 16.4557C483.24 15.9778 482.641 15.506 482.049 15.04C480.663 13.9487 479.318 12.8895 478.011 11.8587C477.332 12.4444 476.594 13.082 475.807 13.7607C474.801 14.6289 473.716 15.5644 472.58 16.5449C474.499 18.2463 476.309 19.8499 478.371 21.6756Z" stroke="#255786" stroke-width="0.5"/>
<path d="M429.726 34.6613C428.367 36.2048 426.754 38.0402 424.904 40.1463C425.683 40.8732 426.67 41.7967 427.781 42.8357C428.398 43.4135 429.054 44.0271 429.734 44.6625C430.365 43.9763 430.991 43.2962 431.623 42.6099C432.703 41.4368 433.799 40.2455 434.966 38.9744C434.524 38.6101 434.058 38.2269 433.574 37.8287C432.375 36.8432 431.066 35.7665 429.726 34.6613Z" stroke="#255786" stroke-width="0.5"/>
<path d="M454.46 21.0888C455.634 19.7269 457.153 17.9662 458.901 15.9479C458.275 15.3817 457.598 14.7683 456.897 14.1318C456.036 13.3513 455.138 12.5364 454.247 11.7318C453.462 12.5487 452.667 13.375 451.873 14.2012L451.872 14.2017C451.081 15.024 450.291 15.8462 449.509 16.6593C450.791 17.8051 452.505 19.3383 454.46 21.0888Z" stroke="#255786" stroke-width="0.5"/>
<path d="M459.303 62.2278C457.548 60.6138 455.812 59.0181 454.124 57.4672C452.153 59.1391 450.396 60.6305 448.454 62.2819C449.655 63.3344 450.782 64.3218 451.886 65.2887C452.601 65.9146 453.306 66.5318 454.014 67.1526C455.2 66.0469 456.405 64.9255 457.662 63.7552C458.198 63.2558 458.745 62.7475 459.303 62.2278Z" stroke="#255786" stroke-width="0.5"/>
<path d="M305.676 18.233C306.69 19.2844 307.739 20.3713 308.799 21.4743C309.846 20.4306 310.877 19.4015 311.933 18.3474C312.615 17.6668 313.307 16.9757 314.021 16.2635C312.311 14.729 310.538 13.1415 308.664 11.4634C307.601 12.5351 306.528 13.6219 305.476 14.6864C304.925 15.2437 304.38 15.7949 303.846 16.3348C304.44 16.951 305.052 17.5853 305.676 18.233Z" stroke="#255786" stroke-width="0.5"/>
<path d="M308.713 67.5077C309.468 66.7748 310.204 66.0607 310.933 65.3536C311.965 64.3525 312.982 63.3655 314.018 62.3587C312.867 61.3274 311.722 60.3014 310.547 59.249C309.901 58.6704 309.246 58.0839 308.576 57.484C307.42 58.6304 306.173 59.8689 304.888 61.1448C304.445 61.5843 303.998 62.0282 303.549 62.4742C304.757 63.6541 306.001 64.866 307.298 66.1293C307.763 66.5819 308.234 67.0411 308.713 67.5077Z" stroke="#255786" stroke-width="0.5"/>
<path d="M400.637 62.4264C402.192 63.8075 403.953 65.3724 405.836 67.0472C406.235 66.6563 406.641 66.2592 407.05 65.8587C408.198 64.7348 409.373 63.5847 410.506 62.4707C409.082 61.1801 407.597 59.8391 406.16 58.5421C405.929 58.3333 405.699 58.1256 405.47 57.9195C404.076 59.2226 402.382 60.8031 400.637 62.4264Z" stroke="#255786" stroke-width="0.5"/>
</g>
</svg>
