<svg width="1890" height="206" viewBox="0 0 1890 206" fill="none" xmlns="http://www.w3.org/2000/svg">
<path d="M256.348 172.734C244.748 179.134 217.514 185.068 205.348 187.234C201.348 185.735 232.866 176.607 247.848 159.234C269.17 134.509 271.348 146.106 278.848 151.234C288.831 158.06 295.348 164.234 318.348 169.734C341.348 175.235 356.348 169.734 348.848 174.734C341.348 179.734 315.848 189.234 301.848 190.234C287.848 191.234 282.848 192.234 289.348 187.234C295.848 182.235 300.348 172.734 295.348 174.734C290.348 176.734 264.848 185.234 258.348 187.234C251.848 189.235 265.848 174.734 271.348 169.734C276.848 164.734 270.848 164.734 256.348 172.734Z" fill="#BCEBFF"/>
<path d="M51.3478 70.7345C39.7478 77.1345 12.5144 83.0678 0.347774 85.2345C-3.65223 83.7346 27.8662 74.6067 42.8478 57.2344C64.1705 32.5091 66.3478 44.1064 73.8478 49.2344C83.8308 56.0601 90.3478 62.2344 113.348 67.7345C136.348 73.2345 151.348 67.7345 143.848 72.7344C136.348 77.7344 110.848 87.2344 96.8478 88.2344C82.8478 89.2344 77.8478 90.2344 84.3478 85.2345C90.8478 80.2346 95.3478 70.7345 90.3478 72.7344C85.3478 74.7344 59.8478 83.2344 53.3478 85.2345C46.8478 87.2346 60.8478 72.7345 66.3478 67.7345C71.8478 62.7345 65.8478 62.7345 51.3478 70.7345Z" fill="#BCEBFF"/>
<path d="M307.348 28.7345C295.748 35.1345 268.514 41.0678 256.348 43.2345C252.348 41.7346 283.866 32.6067 298.848 15.2344C320.17 -9.4909 322.348 2.10645 329.848 7.23443C339.831 14.0601 346.348 20.2344 369.348 25.7345C392.348 31.2345 407.348 25.7345 399.848 30.7344C392.348 35.7344 366.848 45.2344 352.848 46.2344C338.848 47.2344 333.848 48.2344 340.348 43.2345C346.848 38.2346 351.348 28.7345 346.348 30.7344C341.348 32.7344 315.848 41.2344 309.348 43.2345C302.848 45.2346 316.848 30.7345 322.348 25.7345C327.848 20.7345 321.848 20.7345 307.348 28.7345Z" fill="#BCEBFF"/>
<path d="M197.429 97.2554C183.381 102.799 172.44 102.132 167.712 102.26C162.309 102.731 156.231 102.26 162.985 101.105C169.739 99.9504 183.246 96.1004 195.403 88.0153C207.56 79.9303 218.366 81.4703 223.094 84.1653C227.822 86.8603 244.031 94.9453 258.89 97.2554C273.748 99.5655 280.502 102.26 269.696 103.8C258.89 105.341 249.434 107.65 239.979 109.575C230.523 111.501 237.277 106.495 244.031 102.26C250.785 98.0253 243.356 98.4104 228.497 102.26C213.639 106.11 177.843 112.656 191.351 107.65C204.859 102.645 205.711 101.537 211.612 97.2554C219.042 91.8653 209.586 92.4578 197.429 97.2554Z" fill="#BCEBFF"/>
<path d="M61.4292 159.255C47.3812 164.799 36.4401 164.132 31.7124 164.26C26.3094 164.731 20.2309 164.26 26.9847 163.105C33.7386 161.95 47.2463 158.1 59.4033 150.015C71.5602 141.93 82.3664 143.47 87.0941 146.165C91.8218 148.86 108.031 156.945 122.89 159.255C137.748 161.565 144.502 164.26 133.696 165.8C122.89 167.341 113.434 169.65 103.979 171.575C94.5234 173.501 101.277 168.495 108.031 164.26C114.785 160.025 107.356 160.41 92.4972 164.26C77.6387 168.11 41.8432 174.656 55.351 169.65C68.8587 164.645 69.7113 163.537 75.6123 159.255C83.0416 153.865 73.5859 154.458 61.4292 159.255Z" fill="#BCEBFF"/>
<path d="M354.429 114.255C340.381 119.799 329.44 119.132 324.712 119.26C319.309 119.731 313.231 119.26 319.985 118.105C326.739 116.95 340.246 113.1 352.403 105.015C364.56 96.9303 375.366 98.4703 380.094 101.165C384.822 103.86 401.031 111.945 415.89 114.255C430.748 116.565 437.502 119.26 426.696 120.8C415.89 122.341 406.434 124.65 396.979 126.575C387.523 128.501 394.277 123.495 401.031 119.26C407.785 115.025 400.356 115.41 385.497 119.26C370.639 123.11 334.843 129.656 348.351 124.65C361.859 119.645 362.711 118.537 368.612 114.255C376.042 108.865 366.586 109.458 354.429 114.255Z" fill="#BCEBFF"/>
<path d="M1795.35 175.734C1783.75 182.134 1756.51 188.068 1744.35 190.234C1740.35 188.735 1771.87 179.607 1786.85 162.234C1808.17 137.509 1810.35 149.106 1817.85 154.234C1827.83 161.06 1834.35 167.234 1857.35 172.734C1880.35 178.235 1895.35 172.734 1887.85 177.734C1880.35 182.734 1854.85 192.234 1840.85 193.234C1826.85 194.234 1821.85 195.234 1828.35 190.234C1834.85 185.235 1839.35 175.734 1834.35 177.734C1829.35 179.734 1803.85 188.234 1797.35 190.234C1790.85 192.235 1804.85 177.734 1810.35 172.734C1815.85 167.734 1809.85 167.734 1795.35 175.734Z" fill="#BCEBFF"/>
<path d="M1593.35 59.7345C1581.75 66.1345 1554.51 72.0678 1542.35 74.2345C1538.35 72.7346 1569.87 63.6067 1584.85 46.2344C1606.17 21.5091 1608.35 33.1064 1615.85 38.2344C1625.83 45.0601 1632.35 51.2344 1655.35 56.7345C1678.35 62.2345 1693.35 56.7345 1685.85 61.7344C1678.35 66.7344 1652.85 76.2344 1638.85 77.2344C1624.85 78.2344 1619.85 79.2344 1626.35 74.2345C1632.85 69.2346 1637.35 59.7345 1632.35 61.7344C1627.35 63.7344 1601.85 72.2344 1595.35 74.2345C1588.85 76.2346 1602.85 61.7345 1608.35 56.7345C1613.85 51.7345 1607.85 51.7345 1593.35 59.7345Z" fill="#BCEBFF"/>
<path d="M1573.35 186.734C1561.75 193.134 1534.51 199.068 1522.35 201.234C1518.35 199.735 1549.87 190.607 1564.85 173.234C1586.17 148.509 1588.35 160.106 1595.85 165.234C1605.83 172.06 1612.35 178.234 1635.35 183.734C1658.35 189.235 1673.35 183.734 1665.85 188.734C1658.35 193.734 1632.85 203.234 1618.85 204.234C1604.85 205.234 1599.85 206.234 1606.35 201.234C1612.85 196.235 1617.35 186.734 1612.35 188.734C1607.35 190.734 1581.85 199.234 1575.35 201.234C1568.85 203.235 1582.85 188.734 1588.35 183.734C1593.85 178.734 1587.85 178.734 1573.35 186.734Z" fill="#BCEBFF"/>
<path d="M1798.43 65.2554C1784.38 70.7994 1773.44 70.1321 1768.71 70.2604C1763.31 70.7312 1757.23 70.2604 1763.98 69.1054C1770.74 67.9504 1784.25 64.1004 1796.4 56.0153C1808.56 47.9303 1819.37 49.4703 1824.09 52.1653C1828.82 54.8603 1845.03 62.9453 1859.89 65.2554C1874.75 67.5655 1881.5 70.2604 1870.7 71.8004C1859.89 73.3405 1850.43 75.6505 1840.98 77.5755C1831.52 79.5005 1838.28 74.4955 1845.03 70.2604C1851.78 66.0253 1844.36 66.4104 1829.5 70.2604C1814.64 74.1104 1778.84 80.6555 1792.35 75.6505C1805.86 70.6454 1806.71 69.5367 1812.61 65.2554C1820.04 59.8653 1810.59 60.4578 1798.43 65.2554Z" fill="#BCEBFF"/>
<path d="M1692.43 118.255C1678.38 123.799 1667.44 123.132 1662.71 123.26C1657.31 123.731 1651.23 123.26 1657.98 122.105C1664.74 120.95 1678.25 117.1 1690.4 109.015C1702.56 100.93 1713.37 102.47 1718.09 105.165C1722.82 107.86 1739.03 115.945 1753.89 118.255C1768.75 120.565 1775.5 123.26 1764.7 124.8C1753.89 126.341 1744.43 128.65 1734.98 130.575C1725.52 132.501 1732.28 127.495 1739.03 123.26C1745.78 119.025 1738.36 119.41 1723.5 123.26C1708.64 127.11 1672.84 133.656 1686.35 128.65C1699.86 123.645 1700.71 122.537 1706.61 118.255C1714.04 112.865 1704.59 113.458 1692.43 118.255Z" fill="#BCEBFF"/>
<path d="M1501.43 121.255C1487.38 126.799 1476.44 126.132 1471.71 126.26C1466.31 126.731 1460.23 126.26 1466.98 125.105C1473.74 123.95 1487.25 120.1 1499.4 112.015C1511.56 103.93 1522.37 105.47 1527.09 108.165C1531.82 110.86 1548.03 118.945 1562.89 121.255C1577.75 123.565 1584.5 126.26 1573.7 127.8C1562.89 129.341 1553.43 131.65 1543.98 133.575C1534.52 135.501 1541.28 130.495 1548.03 126.26C1554.78 122.025 1547.36 122.41 1532.5 126.26C1517.64 130.11 1481.84 136.656 1495.35 131.65C1508.86 126.645 1509.71 125.537 1515.61 121.255C1523.04 115.865 1513.59 116.458 1501.43 121.255Z" fill="#BCEBFF"/>
</svg>
