<svg width="360" height="55" viewBox="0 0 360 55" fill="none" xmlns="http://www.w3.org/2000/svg">
<path d="M0.79195 7.93923C-2.54971 9.70753 -10.3949 11.3469 -13.8998 11.9455C-15.0521 11.5311 -5.97247 9.00912 -1.65668 4.20922C4.48584 -2.6223 5.11306 0.582003 7.27361 1.99885C10.1495 3.88476 12.0268 5.5907 18.6525 7.11035C25.2782 8.62999 29.5993 7.11035 27.4388 8.49181C25.2782 9.87327 17.9323 12.4981 13.8993 12.7744C9.86628 13.0507 8.42591 13.327 10.2984 11.9455C12.1709 10.5641 13.4672 7.93923 12.0268 8.49181C10.5865 9.04439 3.24058 11.3929 1.3681 11.9455C-0.504382 12.4981 3.52866 8.49183 5.11306 7.11035C6.69747 5.72886 4.96902 5.72886 0.79195 7.93923Z" fill="#BCEBFF"/>
<path d="M358.208 7.93923C361.55 9.70753 369.395 11.3469 372.9 11.9455C374.052 11.5311 364.972 9.00912 360.657 4.20922C354.514 -2.6223 353.887 0.582003 351.726 1.99885C348.851 3.88476 346.973 5.5907 340.347 7.11035C333.722 8.62999 329.401 7.11035 331.561 8.49181C333.722 9.87327 341.068 12.4981 345.101 12.7744C349.134 13.0507 350.574 13.327 348.702 11.9455C346.829 10.5641 345.533 7.93923 346.973 8.49181C348.414 9.04439 355.759 11.3929 357.632 11.9455C359.504 12.4981 355.471 8.49183 353.887 7.11035C352.303 5.72886 354.031 5.72886 358.208 7.93923Z" fill="#BCEBFF"/>
<path d="M24.3207 27.9932C18.9458 30.1712 14.7597 29.909 12.9508 29.9594C10.8836 30.1444 8.5579 29.9594 11.142 29.5057C13.7261 29.0519 18.8942 27.5394 23.5456 24.3632C28.197 21.1869 32.3315 21.7919 34.1404 22.8507C35.9492 23.9094 42.151 27.0857 47.836 27.9932C53.521 28.9007 56.1051 29.9594 51.9706 30.5645C47.836 31.1695 44.2183 32.077 40.6006 32.8332C36.9829 33.5895 39.5669 31.6232 42.151 29.9594C44.7351 28.2957 41.8926 28.4469 36.2076 29.9594C30.5226 31.4719 16.827 34.0432 21.9952 32.077C27.1633 30.1107 27.4895 29.6751 29.7473 27.9932C32.5898 25.8757 28.972 26.1084 24.3207 27.9932Z" fill="#BCEBFF"/>
<path d="M334.679 27.9932C340.054 30.1712 344.24 29.909 346.049 29.9594C348.116 30.1444 350.442 29.9594 347.858 29.5057C345.274 29.0519 340.106 27.5394 335.454 24.3632C330.803 21.1869 326.668 21.7919 324.86 22.8507C323.051 23.9094 316.849 27.0857 311.164 27.9932C305.479 28.9007 302.895 29.9594 307.029 30.5645C311.164 31.1695 314.782 32.077 318.399 32.8332C322.017 33.5895 319.433 31.6232 316.849 29.9594C314.265 28.2957 317.107 28.4469 322.792 29.9594C328.477 31.4719 342.173 34.0432 337.005 32.077C331.837 30.1107 331.51 29.6751 329.253 27.9932C326.41 25.8757 330.028 26.1084 334.679 27.9932Z" fill="#BCEBFF"/>
<path d="M-3.12266 48.6277C-10.2078 51.3997 -15.7258 51.066 -18.1102 51.1302C-20.8353 51.3656 -23.901 51.1302 -20.4947 50.5527C-17.0884 49.9752 -10.2758 48.0502 -4.14443 44.0077C1.98691 39.9651 7.43698 40.7351 9.82139 42.0827C12.2058 43.4302 20.3809 47.4727 27.8748 48.6277C35.3686 49.7827 38.7749 51.1302 33.3248 51.9002C27.8748 52.6703 23.1059 53.8252 18.3371 54.7877C13.5683 55.7503 16.9746 53.2477 20.3809 51.1302C23.7872 49.0127 20.0403 49.2052 12.5464 51.1302C5.05257 53.0552 -13.0008 56.3278 -6.18821 53.8252C0.624388 51.3227 1.05439 50.7684 4.03056 48.6277C7.77749 45.9327 3.00855 46.2289 -3.12266 48.6277Z" fill="#BCEBFF"/>
<path d="M362.123 48.6277C369.208 51.3997 374.726 51.066 377.11 51.1302C379.835 51.3656 382.901 51.1302 379.495 50.5527C376.088 49.9752 369.276 48.0502 363.144 44.0077C357.013 39.9651 351.563 40.7351 349.179 42.0827C346.794 43.4302 338.619 47.4727 331.125 48.6277C323.631 49.7827 320.225 51.1302 325.675 51.9002C331.125 52.6703 335.894 53.8252 340.663 54.7877C345.432 55.7503 342.025 53.2477 338.619 51.1302C335.213 49.0127 338.96 49.2052 346.454 51.1302C353.947 53.0552 372.001 56.3278 365.188 53.8252C358.376 51.3227 357.946 50.7684 354.969 48.6277C351.223 45.9327 355.991 46.2289 362.123 48.6277Z" fill="#BCEBFF"/>
</svg>
