<svg width="1907" height="331" viewBox="0 0 1907 331" fill="none" xmlns="http://www.w3.org/2000/svg">
<mask id="mask0_354_40" style="mask-type:alpha" maskUnits="userSpaceOnUse" x="0" y="0" width="1907" height="331">
<rect width="1907" height="331" fill="#D9D9D9"/>
</mask>
<g mask="url(#mask0_354_40)">
<path d="M462.611 330.024C466.991 304.696 452.217 321.754 482.44 265.827C518.74 198.656 673.803 193.898 759.42 233.74C945.355 320.264 985.786 320.064 985.095 337.307C983.37 380.414 744.612 354.039 622.176 349.138C547.549 346.15 457.969 356.873 462.611 330.024Z" fill="#285B8A"/>
<path d="M700.102 150.412C703.807 122.353 757.133 86.5868 826.196 75.1572C907.776 61.6561 994.696 -17.5856 1089.2 25.9104C1145.87 51.9961 1184.1 41.4097 1236.6 143.41C1277.7 223.261 963.924 208.092 885.197 184.157C806.47 160.223 696.175 180.154 700.102 150.412Z" fill="#285B8A"/>
<path d="M1145.35 277.734C1133.75 284.134 1106.51 290.068 1094.35 292.234C1090.35 290.735 1121.87 281.607 1136.85 264.234C1158.17 239.509 1160.35 251.106 1167.85 256.234C1177.83 263.06 1184.35 269.234 1207.35 274.734C1230.35 280.235 1245.35 274.734 1237.85 279.734C1230.35 284.734 1204.85 294.234 1190.85 295.234C1176.85 296.234 1171.85 297.234 1178.35 292.234C1184.85 287.235 1189.35 277.734 1184.35 279.734C1179.35 281.734 1153.85 290.234 1147.35 292.234C1140.85 294.235 1154.85 279.734 1160.35 274.734C1165.85 269.734 1159.85 269.734 1145.35 277.734Z" fill="#285B8A"/>
<path d="M457.348 149.734C445.748 156.134 418.514 162.068 406.348 164.234C402.348 162.735 433.866 153.607 448.848 136.234C470.17 111.509 472.348 123.106 479.848 128.234C489.831 135.06 496.348 141.234 519.348 146.734C542.348 152.235 557.348 146.734 549.848 151.734C542.348 156.734 516.848 166.234 502.848 167.234C488.848 168.234 483.848 169.234 490.348 164.234C496.848 159.235 501.348 149.734 496.348 151.734C491.348 153.734 465.848 162.234 459.348 164.234C452.848 166.235 466.848 151.734 472.348 146.734C477.848 141.734 471.848 141.734 457.348 149.734Z" fill="#285B8A"/>
<path d="M628.741 43.932C619.989 48.1487 599.442 52.058 590.262 53.4855C587.244 52.4973 611.024 46.4833 622.328 35.0374C638.415 18.7468 640.058 26.3879 645.717 29.7665C653.249 34.2637 658.166 38.3317 675.519 41.9554C692.872 45.5792 704.189 41.9554 698.53 45.2497C692.872 48.544 673.632 54.8032 663.07 55.462C652.507 56.1209 648.735 56.7798 653.639 53.4855C658.543 50.1912 661.938 43.932 658.166 45.2497C654.393 46.5674 635.154 52.1677 630.25 53.4855C625.346 54.8033 635.908 45.2497 640.058 41.9554C644.208 38.6611 639.681 38.6611 628.741 43.932Z" fill="#285B8A"/>
<path d="M1396.74 219.932C1387.99 224.149 1367.44 228.058 1358.26 229.485C1355.24 228.497 1379.02 222.483 1390.33 211.037C1406.42 194.747 1408.06 202.388 1413.72 205.766C1421.25 210.264 1426.17 214.332 1443.52 217.955C1460.87 221.579 1472.19 217.955 1466.53 221.25C1460.87 224.544 1441.63 230.803 1431.07 231.462C1420.51 232.121 1416.73 232.78 1421.64 229.485C1426.54 226.191 1429.94 219.932 1426.17 221.25C1422.39 222.567 1403.15 228.168 1398.25 229.485C1393.35 230.803 1403.91 221.25 1408.06 217.955C1412.21 214.661 1407.68 214.661 1396.74 219.932Z" fill="#285B8A"/>
</g>
</svg>
