<svg width="360" height="310" viewBox="0 0 360 310" fill="none" xmlns="http://www.w3.org/2000/svg">
<path d="M103.949 39.4356C98.5386 42.4281 85.8368 45.2024 80.1622 46.2155C78.2966 45.5142 92.9969 41.2462 99.9844 33.1233C109.929 21.5623 110.945 26.9849 114.443 29.3827C119.099 32.5742 122.139 35.4612 132.866 38.0329C143.593 40.6046 150.589 38.0329 147.091 40.3708C143.593 42.7086 131.7 47.1506 125.17 47.6182C118.641 48.0858 116.309 48.5534 119.34 46.2155C122.372 43.8777 124.471 39.4356 122.139 40.3708C119.807 41.3059 107.913 45.2803 104.882 46.2155C101.85 47.1507 108.38 40.3708 110.945 38.0329C113.51 35.695 110.712 35.695 103.949 39.4356Z" fill="#285B8A"/>
<path d="M302.949 191.436C297.539 194.428 284.837 197.202 279.162 198.216C277.297 197.514 291.997 193.246 298.984 185.123C308.929 173.562 309.945 178.985 313.443 181.383C318.099 184.574 321.139 187.461 331.866 190.033C342.593 192.605 349.589 190.033 346.091 192.371C342.593 194.709 330.7 199.151 324.17 199.618C317.641 200.086 315.309 200.553 318.34 198.216C321.372 195.878 323.471 191.436 321.139 192.371C318.807 193.306 306.913 197.28 303.882 198.216C300.85 199.151 307.38 192.371 309.945 190.033C312.51 187.695 309.712 187.695 302.949 191.436Z" fill="#285B8A"/>
<path d="M28.9489 85.4356C23.5386 88.4281 10.8368 91.2024 5.1622 92.2155C3.29658 91.5142 17.9969 87.2462 24.9844 79.1233C34.9295 67.5623 35.945 72.9849 39.443 75.3827C44.0991 78.5742 47.1387 81.4612 57.866 84.0329C68.5933 86.6046 75.5894 84.0329 72.0913 86.3708C68.5933 88.7086 56.7 93.1506 50.1703 93.6182C43.6406 94.0858 41.3086 94.5534 44.3402 92.2155C47.3719 89.8777 49.4707 85.4356 47.1387 86.3708C44.8067 87.3059 32.9133 91.2803 29.8817 92.2155C26.85 93.1507 33.3797 86.3708 35.945 84.0329C38.5102 81.695 35.7117 81.695 28.9489 85.4356Z" fill="#285B8A"/>
<path d="M19.9489 202.436C14.5386 205.428 1.8368 208.202 -3.8378 209.216C-5.70342 208.514 8.99695 204.246 15.9844 196.123C25.9295 184.562 26.945 189.985 30.443 192.383C35.0991 195.574 38.1387 198.461 48.866 201.033C59.5933 203.605 66.5894 201.033 63.0913 203.371C59.5933 205.709 47.7 210.151 41.1703 210.618C34.6406 211.086 32.3086 211.553 35.3402 209.216C38.3719 206.878 40.4707 202.436 38.1387 203.371C35.8067 204.306 23.9133 208.28 20.8817 209.216C17.85 210.151 24.3797 203.371 26.945 201.033C29.5102 198.695 26.7117 198.695 19.9489 202.436Z" fill="#285B8A"/>
<path d="M261.949 277.436C256.539 280.428 243.837 283.202 238.162 284.216C236.297 283.514 250.997 279.246 257.984 271.123C267.929 259.562 268.945 264.985 272.443 267.383C277.099 270.574 280.139 273.461 290.866 276.033C301.593 278.605 308.589 276.033 305.091 278.371C301.593 280.709 289.7 285.151 283.17 285.618C276.641 286.086 274.309 286.553 277.34 284.216C280.372 281.878 282.471 277.436 280.139 278.371C277.807 279.306 265.913 283.28 262.882 284.216C259.85 285.151 266.38 278.371 268.945 276.033C271.51 273.695 268.712 273.695 261.949 277.436Z" fill="#285B8A"/>
<path d="M-72.4975 295.529C-70.8085 285.761 -76.5063 292.34 -64.8502 270.771C-50.8508 244.866 8.9512 243.031 41.9703 258.396C113.678 291.765 129.271 291.688 129.005 298.338C128.339 314.963 36.2593 304.791 -10.9594 302.901C-39.7401 301.748 -74.2879 305.884 -72.4975 295.529Z" fill="#285B8A"/>
<path d="M224.037 49.8192C225.381 39.6465 244.726 26.6792 269.78 22.5354C299.374 17.6405 330.905 -11.089 365.187 4.68071C385.746 14.1382 399.615 10.3001 418.66 47.2806C433.57 76.2312 319.742 70.7314 291.183 62.0538C262.624 53.3762 222.612 60.6025 224.037 49.8192Z" fill="#285B8A"/>
</svg>
