<svg width="360" height="300" viewBox="0 0 360 300" fill="none" xmlns="http://www.w3.org/2000/svg">
<mask id="mask0_172_4" style="mask-type:alpha" maskUnits="userSpaceOnUse" x="0" y="0" width="360" height="300">
<rect width="360" height="300" fill="#D9D9D9"/>
</mask>
<g mask="url(#mask0_172_4)">
<g filter="url(#filter0_f_172_4)">
<ellipse cx="177.5" cy="234" rx="228.5" ry="148" fill="#FFF3DB"/>
</g>
<path d="M-37.96 183.495L-39.2488 182.533C-36.7122 179.463 -34.1233 176.328 -31.4393 173.078C-27.2244 167.974 -22.7748 162.586 -17.9242 156.717L-17.5636 156.281L-18.041 155.977C-24.5762 151.815 -30.4949 148.042 -36.2534 144.371C-40.2249 141.839 -44.1202 139.356 -48.089 136.827C-43.5366 131.33 -40.4403 127.588 -36.5579 122.894C-29.8136 128.677 -22.7015 134.778 -15.0682 141.325C-13.807 142.407 -12.5315 143.501 -11.2412 144.608L-10.8282 144.962L-10.51 144.521C-6.06474 138.355 -2.07397 132.826 1.72225 127.566C4.51331 123.699 7.1992 119.977 9.88327 116.255C12.0411 117.794 14.0074 119.198 15.9445 120.581C18.376 122.316 20.7613 124.019 23.4213 125.914C22.0325 127.598 20.6494 129.275 19.2693 130.949C13.6573 137.753 8.09511 144.497 2.40703 151.399L2.06756 151.811L2.50073 152.123C11.4937 158.597 19.6018 164.452 27.1651 169.913C27.8574 170.413 28.545 170.909 29.2284 171.403C18.7053 185.456 8.90244 198.567 -0.646943 211.34C-12.3957 202.58 -24.9186 193.231 -37.96 183.495ZM-6.30017 166.451L-6.69902 166.18L-6.98449 166.568C-8.7428 168.964 -10.5607 171.449 -12.3411 173.883C-13.714 175.759 -15.0645 177.606 -16.3483 179.357L-16.6242 179.733L-16.2677 180.034C-13.3766 182.476 -10.452 184.956 -7.70702 187.283C-6.59292 188.228 -5.50841 189.147 -4.46776 190.029L-4.08387 190.354L-3.76104 189.968C-2.06909 187.945 -0.464881 186.025 1.11343 184.135C3.23682 181.593 5.31333 179.106 7.49355 176.504L7.84894 176.079L7.39089 175.769C4.40318 173.743 1.5712 171.813 -1.29582 169.859C-2.9404 168.739 -4.59652 167.61 -6.30017 166.451Z" stroke="#DADADA"/>
<path d="M38.4622 102.852C36.8641 104.959 35.1778 107.182 33.4867 109.402C32.2455 108.436 30.892 107.382 29.4721 106.277C27.2799 104.571 24.9293 102.742 22.5891 100.92C25.3805 97.0376 28.2109 93.1022 31.3535 88.7411C34.8895 91.919 38.4741 95.1438 41.9421 98.2696C40.8588 99.6936 39.6863 101.239 38.4622 102.852Z" stroke="#DADADA"/>
<path d="M42.6406 201.953C40.4774 200.23 38.1083 198.343 35.6694 196.398C36.5403 195.262 37.4207 194.112 38.3104 192.951C40.4274 190.187 42.5975 187.354 44.8189 184.464C47.1584 186.435 49.5517 188.452 51.9243 190.453C53.1721 191.504 54.4141 192.551 55.6396 193.584L55.1034 194.28C52.5114 197.643 49.6554 201.349 46.6965 205.184C45.466 204.204 44.1002 203.116 42.6406 201.953Z" stroke="#DADADA"/>
<path d="M33.2216 142.47C34.663 140.38 36.1435 138.233 37.6869 136C40.3807 138.188 42.9091 140.237 45.3325 142.2C46.712 143.318 48.0575 144.408 49.3801 145.481C46.5231 149.375 43.6064 153.364 40.531 157.57L40.277 157.917C39.6019 157.384 38.9085 156.836 38.1998 156.276C35.2583 153.952 32.0544 151.421 28.8143 148.855C30.2586 146.767 31.7188 144.65 33.2216 142.47Z" stroke="#DADADA"/>
<path d="M-13.9961 258.383C-20.4828 253.072 -26.963 247.765 -33.4855 242.423C-31.8907 240.315 -30.367 238.303 -28.825 236.266C-26.9259 233.759 -24.9991 231.214 -22.878 228.408C-17.2958 233.187 -11.8206 237.867 -6.22527 242.649C-2.66951 245.688 0.934796 248.768 4.64595 251.942L5.05872 252.295L5.37644 251.854C10.5613 244.666 15.4393 237.911 20.5781 230.795C22.6816 227.882 24.8288 224.908 27.0587 221.82C29.4587 223.917 31.799 225.963 34.1021 227.976C41.165 234.15 47.8772 240.018 54.8835 246.128L55.2893 246.482L55.6122 246.051C62.8069 236.45 69.3417 227.722 76.078 218.724L77.2276 217.189C81.0877 220.274 84.642 223.115 88.2009 225.959L90.3868 227.706C75.8341 246.754 61.5433 265.467 47.3401 284.069L47.0477 284.452L47.4196 284.758C63.7321 298.197 80.1078 311.676 96.8839 325.484L102.353 329.985C99.4337 333.208 96.5391 336.398 93.5038 339.744C92.8741 340.438 92.2384 341.138 91.5951 341.848C86.5038 337.447 81.0863 332.77 75.3585 327.825C72.1208 325.029 68.7838 322.148 65.3506 319.183L64.9388 318.827L64.6192 319.268C56.6265 330.274 49.7944 339.683 42.3664 349.933C37.2517 345.506 32.4997 341.39 27.8181 337.335C23.3154 333.434 18.8777 329.591 14.2449 325.581L13.8319 325.224L13.5123 325.666C8.99403 331.927 4.72663 337.831 0.496165 343.684C-2.30535 347.56 -5.09067 351.414 -7.92191 355.334C-9.85066 353.656 -11.632 352.106 -13.3127 350.643C-15.9178 348.375 -18.2808 346.318 -20.5752 344.326C-12.8599 334.375 -5.05717 324.312 2.74552 314.249C9.32705 305.761 15.9086 297.274 22.4377 288.853L22.7359 288.468L22.3594 288.16C10.0146 278.045 -2.0016 268.206 -13.9961 258.383ZM36.9139 298.632L36.5152 298.3L36.198 298.71C32.206 303.88 28.7202 308.385 25.4994 312.535L25.2078 312.911L25.5684 313.221C27.2401 314.658 28.9459 316.123 30.6515 317.587C33.1428 319.727 35.6338 321.866 38.0177 323.919L38.3943 324.243L38.7209 323.869C40.6043 321.708 42.4658 319.575 44.3138 317.458C46.3521 315.122 48.3739 312.806 50.3906 310.491L50.7273 310.105L50.3327 309.778C45.3662 305.662 41.1247 302.141 36.9139 298.632ZM19.4448 260.701L19.1494 261.083L19.5217 261.391C24.1491 265.222 28.648 268.949 32.5184 272.159L32.8881 272.466L33.2094 272.108C36.8377 268.073 40.6326 263.841 43.8334 260.268L44.1594 259.904L43.8033 259.57C39.076 255.131 34.8891 251.205 30.6043 247.188L30.2035 246.812L29.867 247.246C28.5589 248.935 27.3005 250.558 26.0946 252.113C23.6545 255.261 21.4297 258.13 19.4448 260.701Z" stroke="#DADADA"/>
<path d="M75.2368 280.422C77.412 277.738 80.6706 273.696 83.9608 269.615C85.5264 270.839 87.1538 272.108 88.848 273.43C91.1709 275.242 93.6194 277.151 96.2064 279.176C95.1587 280.349 94.1045 281.529 93.0446 282.717C90.7153 285.326 88.3578 287.967 85.9774 290.623C84.396 289.124 82.6615 287.475 80.8601 285.763C79.0248 284.018 77.1201 282.208 75.2368 280.422Z" stroke="#DADADA"/>
<path d="M235.673 298.055C230.172 293.038 259.451 268.595 285.079 268.595C312.271 268.595 323.597 264.685 356.444 276.908C439.663 307.876 349.231 308.264 327.353 303.743C305.475 299.222 302.662 310.597 283.18 303.743C263.698 296.888 242.549 304.326 235.673 298.055Z" fill="#154068"/>
<path d="M176.027 292.854C177.003 285.736 205.749 275.285 233.032 275.285C261.979 275.285 275.379 272.061 308.559 287.299C352.547 307.502 296.914 301.897 273.624 297.892C250.334 293.887 245.784 307.485 225.045 301.414C204.305 295.342 174.992 300.399 176.027 292.854Z" fill="#285B8A"/>
<path d="M242.329 245.487C242.456 245.651 242.575 245.822 242.711 245.979C242.923 246.223 243.145 246.457 243.363 246.695C243.574 246.925 243.826 247.079 244.121 247.196C244.415 247.313 244.692 247.491 244.946 247.682C245.125 247.816 245.085 247.91 244.908 248.054C244.812 248.132 244.725 248.244 244.685 248.358C244.623 248.535 244.499 248.608 244.337 248.633C244.174 248.658 244.008 248.663 243.844 248.675C243.672 248.688 243.61 248.757 243.663 248.938C243.763 249.284 243.834 249.638 243.939 249.982C243.967 250.072 244.062 250.167 244.151 250.209C245.149 250.683 246.176 251.075 247.277 251.239C247.285 251.24 247.293 251.239 247.301 251.242C247.446 251.288 247.673 251.215 247.696 251.449C247.717 251.665 247.575 251.808 247.394 251.918C247.28 251.986 247.128 252.049 247.079 252.153C246.986 252.356 247.003 252.58 247.129 252.786C247.271 253.019 247.355 253.268 247.304 253.58C247.179 253.579 247.056 253.583 246.933 253.578C246.766 253.571 246.665 253.638 246.633 253.807C246.605 253.955 246.556 254.075 246.356 254.048C246.315 254.043 246.232 254.156 246.212 254.228C246.176 254.352 246.174 254.487 246.154 254.653C245.986 254.594 245.844 254.544 245.664 254.48C245.637 254.644 245.613 254.793 245.587 254.958C245.508 254.965 245.425 254.972 245.366 254.978C245.209 255.237 245.061 255.481 244.891 255.762C245.146 255.855 245.37 255.937 245.627 256.032C245.65 255.888 245.667 255.783 245.684 255.677C245.701 255.564 245.737 255.502 245.871 255.563C246.634 255.917 247.448 256.085 248.275 256.212C248.528 256.251 248.733 256.19 248.945 256.073C249.4 255.823 249.862 255.584 250.32 255.341C250.463 255.265 250.567 255.172 250.5 254.986C250.435 254.804 250.309 254.781 250.141 254.826C250.076 254.843 250.004 254.835 249.917 254.84C249.957 254.696 249.991 254.573 250.037 254.408C249.746 254.446 249.494 254.478 249.241 254.511C249.237 254.502 249.234 254.492 249.23 254.483C249.393 254.397 249.557 254.31 249.775 254.194C249.569 254.104 249.43 254.044 249.224 253.954C249.377 253.905 249.471 253.881 249.56 253.846C250.131 253.622 250.702 253.4 251.268 253.166C251.397 253.113 251.519 253.028 251.621 252.932C251.75 252.811 251.98 252.601 251.949 252.538C251.821 252.283 251.678 251.993 251.325 251.958C251.265 251.953 251.206 251.936 251.115 251.866C251.419 251.645 251.723 251.425 252.061 251.18C251.772 251.135 251.522 251.096 251.213 251.048C251.307 250.985 251.352 250.947 251.402 250.924C252.311 250.497 252.796 249.712 253.185 248.841C253.287 248.615 253.39 248.371 253.556 248.197C253.842 247.895 254.025 247.556 254.145 247.165C254.254 246.804 254.39 246.451 254.52 246.097C254.554 246.005 254.613 245.921 254.661 245.834C254.687 245.848 254.698 245.85 254.699 245.855C254.894 246.642 255.49 247.257 255.622 248.083C255.701 248.581 255.863 249.085 256.087 249.537C256.298 249.965 256.622 250.344 256.931 250.716C257.11 250.929 257.313 250.868 257.528 250.568C257.204 250.559 256.964 250.444 256.911 250.038C257.202 250.019 257.504 249.967 257.801 249.988C258.184 250.016 258.564 250.091 258.941 250.168C259.175 250.216 259.291 250.141 259.359 249.918C259.566 249.24 259.595 249.274 258.905 249.27C258.828 249.27 258.751 249.257 258.66 249.249C258.653 248.675 259.119 248.435 259.406 248.072C259.343 248.037 259.255 247.989 259.152 247.933C259.346 247.798 259.514 247.825 259.697 247.929C260.079 248.147 260.47 248.352 260.86 248.557C260.938 248.599 261.027 248.62 261.111 248.651C261.131 248.633 261.15 248.615 261.169 248.596C261.003 248.32 260.837 248.045 260.661 247.753C260.742 247.713 260.82 247.674 260.953 247.607C260.755 247.472 260.596 247.351 260.423 247.252C260.295 247.178 260.235 247.093 260.223 246.939C260.2 246.619 260.149 246.301 260.106 245.961C260.52 246.179 260.926 246.394 261.332 246.608C261.349 246.585 261.365 246.562 261.381 246.539C261.288 246.317 261.095 246.182 260.919 246.023C260.728 245.85 260.525 245.668 260.569 245.358C260.577 245.305 260.525 245.224 260.477 245.185C260.179 244.944 259.979 244.644 259.884 244.234C260.007 244.32 260.099 244.385 260.191 244.449C260.724 244.825 261.25 245.213 261.795 245.572C262.08 245.758 262.247 245.728 262.477 245.508C262.128 245.307 261.793 245.113 261.446 244.913C261.524 244.798 261.617 244.661 261.733 244.49C261.615 244.459 261.536 244.438 261.441 244.413C261.453 244.379 261.457 244.341 261.477 244.314C262.034 243.562 262.176 242.68 262.289 241.785C262.361 241.216 262.46 240.651 262.554 240.085C262.571 239.981 262.622 239.882 262.65 239.804C263.099 240.335 263.534 240.867 263.988 241.382C264.321 241.759 264.689 242.107 265.023 242.483C265.096 242.567 265.092 242.718 265.127 242.837C265.152 242.923 265.17 243.016 265.215 243.091C265.267 243.176 265.347 243.244 265.422 243.327C265.367 243.388 265.322 243.437 265.274 243.49C265.291 243.513 265.301 243.543 265.317 243.548C265.498 243.599 265.678 243.655 265.863 243.692C266.046 243.729 266.194 243.762 266.253 243.992C266.289 244.132 266.442 244.243 266.544 244.37C266.363 244.483 266.325 244.632 266.432 244.816C266.352 244.806 266.288 244.792 266.222 244.789C266.163 244.786 266.104 244.794 265.966 244.802C266.153 245.023 266.3 245.197 266.461 245.389C266.351 245.395 266.267 245.399 266.104 245.407C266.294 245.539 266.431 245.634 266.514 245.691C266.803 245.258 267.061 244.869 267.348 244.438C267.614 244.988 267.883 245.51 268.12 246.046C268.21 246.251 267.91 246.647 267.681 246.648C267.445 246.649 267.37 246.743 267.42 246.965C267.494 247.292 267.561 247.62 267.646 248.017C267.789 247.84 267.879 247.729 268.004 247.574C268.061 247.781 268.119 247.942 268.148 248.107C268.178 248.274 268.265 248.332 268.425 248.319C268.573 248.307 268.722 248.303 268.962 248.29C268.781 248.558 268.636 248.772 268.474 249.013C268.593 249.083 268.742 249.173 268.918 249.278C268.733 249.506 268.557 249.724 268.382 249.941C268.398 249.957 268.414 249.974 268.43 249.991C268.469 249.974 268.517 249.967 268.544 249.939C268.716 249.761 268.884 249.828 268.969 250C269.149 250.363 269.293 250.743 269.441 251.121C269.469 251.195 269.445 251.291 269.444 251.405C269.239 251.35 269.182 251.478 269.178 251.632C269.169 252.07 269.173 252.508 269.172 252.944C269.788 252.984 270.367 253.022 270.982 253.062C271.031 252.88 271.087 252.673 271.152 252.428C270.92 252.407 270.715 252.389 270.428 252.363C270.564 252.154 270.662 251.993 270.771 251.841C270.87 251.704 271.045 251.607 270.953 251.324C271.423 251.55 271.842 251.752 272.26 251.953C272.28 251.938 272.299 251.922 272.318 251.907C272.214 251.716 272.111 251.525 271.997 251.316C272.056 251.285 272.113 251.255 272.231 251.192C271.723 250.972 271.576 250.582 271.614 250.063C271.896 250.208 272.167 250.347 272.438 250.486L272.473 250.442C272.123 249.931 271.774 249.42 271.426 248.909C271.449 248.888 271.473 248.868 271.497 248.847C271.602 248.921 271.705 248.999 271.811 249.07C272.152 249.296 272.49 249.525 272.837 249.741C272.954 249.813 273.097 249.861 273.258 249.683C273.022 249.515 272.799 249.356 272.564 249.188C272.678 249.052 272.786 248.923 272.529 248.845C272.987 248.302 273.043 247.643 273.147 247.001C273.207 246.629 273.248 246.253 273.302 245.88C273.316 245.783 273.349 245.688 273.373 245.593C273.404 245.574 273.435 245.556 273.465 245.537C273.497 245.6 273.518 245.673 273.563 245.725C273.98 246.207 274.38 246.706 274.83 247.155C275.114 247.439 275.199 247.8 275.369 248.129C275.405 248.197 275.478 248.293 275.538 248.296C275.89 248.313 276.036 248.577 276.215 248.825C276.114 248.952 276.012 249.081 275.886 249.24C275.906 249.265 275.957 249.321 275.996 249.384C276.022 249.425 276.05 249.48 276.044 249.525C276.017 249.735 276.013 249.734 276.223 249.803C276.409 249.537 276.591 249.277 276.826 248.941C277.019 249.364 277.207 249.721 277.344 250.098C277.407 250.271 277.275 250.423 277.085 250.451C276.891 250.48 276.85 250.592 276.882 250.75C276.926 250.971 276.985 251.19 277.038 251.41C277.075 251.419 277.113 251.429 277.151 251.438C277.189 251.37 277.226 251.303 277.284 251.199C277.396 251.505 277.409 251.881 277.906 251.702L277.912 251.788C277.821 251.92 277.73 252.051 277.628 252.198C277.711 252.261 277.803 252.331 277.904 252.407C277.805 252.558 277.709 252.704 277.561 252.93C277.99 252.766 278.045 253.046 278.145 253.262C278.207 253.397 278.272 253.534 278.311 253.677C278.331 253.75 278.325 253.859 278.283 253.917C277.962 254.358 278.101 254.831 278.191 255.292C278.209 255.385 278.365 255.456 278.466 255.526C278.649 255.653 278.645 255.717 278.462 255.829C278.413 255.858 278.361 255.975 278.382 256.008C278.434 256.092 278.529 256.213 278.603 256.211C279.098 256.195 279.609 256.216 280.081 256.092C280.397 256.009 280.662 255.714 280.935 255.496C280.971 255.467 280.953 255.296 280.904 255.25C280.723 255.08 280.519 254.935 280.295 254.758C280.487 254.598 280.723 254.402 281.001 254.171C280.762 254.144 280.563 254.12 280.363 254.097C280.357 254.081 280.352 254.065 280.347 254.048C280.49 253.966 280.632 253.88 280.777 253.803C281.034 253.666 281.294 253.535 281.551 253.398C281.898 253.213 282.097 252.922 282.209 252.547C282.292 252.272 282.414 252.006 282.543 251.748C282.665 251.503 282.65 251.264 282.584 251.014C282.553 250.898 282.528 250.781 282.523 250.654C282.788 250.888 283.013 251.139 283.115 251.484C283.177 251.694 283.252 251.902 283.345 252.1C283.437 252.296 283.586 252.424 283.831 252.398C283.901 252.391 283.994 252.423 284.046 252.47C284.538 252.909 285.023 253.355 285.51 253.798C285.504 253.827 285.497 253.857 285.491 253.886C285.326 253.939 285.163 254.004 284.994 254.042C284.865 254.071 284.728 254.069 284.594 254.072C284.406 254.075 284.319 254.128 284.385 254.341C284.525 254.791 284.646 255.247 284.774 255.701C284.793 255.767 284.805 255.835 284.832 255.953C284.453 255.782 284.125 255.573 283.676 255.616C283.744 255.717 283.791 255.782 283.833 255.85C283.939 256.022 284.063 256.187 284.141 256.371C284.223 256.565 284.377 256.601 284.548 256.646C284.851 256.725 285.154 256.808 285.453 256.902C285.547 256.931 285.628 256.997 285.751 257.067C285.671 257.106 285.628 257.14 285.582 257.146C285.444 257.166 285.313 257.163 285.252 257.344C285.231 257.405 285.061 257.419 284.957 257.447C284.607 257.545 284.253 257.629 283.908 257.741C283.798 257.776 283.618 257.817 283.677 258.007C283.733 258.185 283.849 258.32 284.059 258.286C284.424 258.225 284.788 258.161 285.148 258.079C285.478 258.003 285.801 257.901 286.129 257.816C286.215 257.794 286.307 257.789 286.397 257.776L286.43 257.834C286.354 257.902 286.272 257.965 286.202 258.039C286.125 258.122 286.069 258.224 285.987 258.3C285.912 258.371 285.815 258.417 285.729 258.475C285.613 258.553 285.44 258.609 285.394 258.717C285.312 258.913 285.413 259.092 285.587 259.228C285.798 259.392 286.004 259.565 286.2 259.746C286.394 259.926 286.363 259.983 286.13 260.079C285.888 260.177 285.666 260.32 285.435 260.443L285.443 260.543C285.673 260.654 285.902 260.77 286.136 260.873C286.365 260.973 286.599 261.059 286.876 261.169C286.601 261.365 286.325 261.361 286.063 261.411C285.962 261.43 285.787 261.479 285.784 261.525C285.771 261.7 285.785 261.892 286.023 261.948C286.104 261.968 286.175 262.031 286.255 262.061C286.456 262.136 286.655 262.23 286.863 262.27C287.338 262.361 287.711 262.629 288.089 262.902C287.991 263.005 288.032 263.166 288.212 263.385C288.1 263.458 287.989 263.532 287.877 263.606C287.967 263.72 288.056 263.834 288.176 263.985L287.098 263.981C287.032 264.088 286.953 264.219 286.873 264.349C286.816 264.612 286.93 264.769 287.17 264.894C287.662 265.152 288.081 265.014 288.475 264.691C288.633 264.561 288.784 264.422 288.946 264.297C289.021 264.238 289.115 264.202 289.242 264.134C289.206 264.575 288.771 264.623 288.615 264.914C288.665 264.947 288.708 264.975 288.764 265.012C288.729 265.05 288.703 265.089 288.667 265.114C288.474 265.245 288.474 265.386 288.611 265.566C288.841 265.865 289.054 266.176 289.29 266.503C289.236 266.522 289.197 266.538 289.156 266.548C288.794 266.643 288.727 266.745 288.836 267.1C289.036 267.747 289.384 268.266 290.027 268.574C290.891 268.989 291.737 269.443 292.589 269.883C292.706 269.943 292.818 270.014 292.918 270.112C292.631 270.024 292.344 269.935 292.057 269.847C292.047 269.865 292.037 269.883 292.027 269.901C292.101 269.983 292.175 270.066 292.25 270.149C292.241 270.165 292.233 270.181 292.225 270.196C292.038 270.118 291.851 270.041 291.664 269.963C291.647 269.977 291.63 269.991 291.613 270.006C291.795 270.26 291.978 270.513 292.16 270.767C292.135 270.795 292.112 270.823 292.087 270.851C291.864 270.717 291.641 270.583 291.417 270.449C291.399 270.471 291.38 270.493 291.362 270.515C291.656 270.794 291.95 271.072 292.239 271.346C292.075 271.698 291.515 271.863 291.784 272.416C291.896 272.321 291.981 272.248 292.077 272.166C292.311 272.375 292.132 272.894 292.702 272.799C292.601 272.963 292.545 273.051 292.49 273.141C292.365 273.348 292.408 273.44 292.65 273.471C292.735 273.482 292.823 273.474 292.91 273.481C292.993 273.487 293.076 273.501 293.114 273.505C293.069 273.71 292.977 273.9 293.002 274.074C293.028 274.255 293.166 274.42 293.272 274.624C293.142 274.661 292.993 274.718 292.839 274.743C292.651 274.773 292.633 274.854 292.723 274.998C292.8 275.121 292.875 275.245 292.968 275.396C292.492 275.501 292.245 275.07 291.809 275.022C291.856 275.241 291.895 275.427 291.939 275.638C291.75 275.74 291.536 275.831 291.352 275.963C291.234 276.047 291.173 276.008 291.088 275.942C290.957 275.841 290.83 275.733 290.686 275.656C290.624 275.623 290.525 275.66 290.443 275.665C290.468 275.731 290.499 275.796 290.517 275.863C290.536 275.933 290.542 276.006 290.554 276.078C290.489 276.086 290.423 276.107 290.36 276.098C290.283 276.087 290.208 276.028 290.136 276.035C290.058 276.041 289.941 276.082 289.916 276.139C289.849 276.299 289.757 276.31 289.618 276.256C289.436 276.186 289.251 276.125 289.047 276.053C289.026 276.161 289.009 276.249 288.983 276.385C288.589 276.063 288.186 276.252 287.759 276.303C287.892 276.154 288.039 276.016 288.152 275.854C288.221 275.755 288.307 275.555 288.267 275.514C288.156 275.397 287.988 275.326 287.831 275.27C287.793 275.256 287.694 275.357 287.652 275.424C287.597 275.514 287.57 275.622 287.528 275.731C287.31 275.554 287.102 275.385 286.894 275.217C286.869 275.234 286.845 275.251 286.82 275.268C286.847 275.442 286.87 275.616 286.902 275.788C286.937 275.972 286.912 276.105 286.7 276.173C286.638 276.193 286.58 276.322 286.575 276.405C286.562 276.606 286.491 276.752 286.291 276.831C286.066 276.662 285.84 276.492 285.595 276.307C285.458 276.414 285.294 276.543 285.099 276.695C284.974 276.464 284.86 276.256 284.718 275.994C284.64 276.208 284.597 276.374 284.52 276.522C284.482 276.596 284.381 276.637 284.308 276.693C284.267 276.607 284.191 276.522 284.191 276.436C284.193 276.058 284.136 276.016 283.789 276.179C283.456 276.336 283.459 276.337 283.593 276.683C283.613 276.736 283.589 276.848 283.548 276.874C283.46 276.93 283.347 276.977 283.247 276.972C283.157 276.968 283.07 276.89 282.95 276.826C282.902 277.103 282.86 277.345 282.813 277.614C282.703 277.564 282.626 277.532 282.552 277.495C282.273 277.358 282.222 277.388 282.195 277.709C282.192 277.746 282.184 277.783 282.173 277.849C282.108 277.799 282.057 277.768 282.014 277.728C281.684 277.417 281.64 277.42 281.444 277.725C281.235 277.737 281.065 277.748 280.859 277.761C280.817 277.703 280.745 277.605 280.654 277.482C280.492 277.679 280.345 277.857 280.167 278.074C280.114 277.954 280.085 277.876 280.048 277.804C279.951 277.615 279.867 277.437 279.593 277.423C279.474 277.417 279.362 277.257 279.228 277.151C279.156 277.211 279.068 277.284 278.977 277.36C278.677 277.094 278.37 277.224 278.082 277.356C277.847 277.463 277.634 277.617 277.414 277.756C277.268 277.848 277.148 277.833 277.006 277.729C276.876 277.634 276.719 277.571 276.566 277.516C276.445 277.472 276.312 277.457 276.269 277.638C276.261 277.668 276.222 277.71 276.194 277.714C275.758 277.777 275.322 277.836 274.885 277.89C274.835 277.897 274.78 277.867 274.69 277.845C274.751 277.694 274.805 277.558 274.865 277.408C274.813 277.392 274.774 277.366 274.742 277.372C274.304 277.453 273.866 277.54 273.428 277.621C273.361 277.633 273.26 277.65 273.225 277.615C273.096 277.49 272.974 277.529 272.833 277.579C272.667 277.636 272.494 277.674 272.324 277.72C272.311 277.7 272.298 277.679 272.285 277.659C272.334 277.595 272.373 277.518 272.434 277.471C272.774 277.206 273.116 276.944 273.464 276.69C273.578 276.607 273.709 276.548 273.836 276.486C274.188 276.313 274.328 276.04 274.228 275.627C274.105 275.642 273.975 275.67 273.847 275.669C273.774 275.669 273.702 275.616 273.628 275.595C273.541 275.57 273.429 275.514 273.372 275.546C273.311 275.581 273.26 275.716 273.279 275.787C273.322 275.942 273.411 276.085 273.497 276.266C273.013 276.603 272.525 276.946 272.035 277.287C271.712 277.512 271.371 277.715 271.07 277.966C270.832 278.164 270.627 278.407 270.437 278.654C270.246 278.902 270.241 278.915 269.967 278.79C269.847 278.735 269.647 278.644 269.596 278.69C269.447 278.828 269.338 279.019 269.25 279.207C269.23 279.25 269.344 279.401 269.425 279.436C269.662 279.54 269.913 279.61 270.159 279.696C270.251 279.727 270.343 279.764 270.434 279.798C270.432 279.827 270.429 279.855 270.426 279.884C270.185 279.883 269.944 279.874 269.704 279.883C269.182 279.904 269.121 279.966 269.065 280.481C269.048 280.644 269.085 280.841 268.826 280.864C268.811 280.866 268.78 281.004 268.801 281.063C268.845 281.187 268.918 281.3 269.01 281.477C268.836 281.41 268.709 281.365 268.586 281.313C268.356 281.215 268.335 281.228 268.311 281.468C268.302 281.549 268.28 281.629 268.25 281.779C268.078 281.562 267.947 281.397 267.816 281.231C267.794 281.233 267.772 281.236 267.749 281.238C267.71 281.47 267.671 281.701 267.629 281.955C267.471 281.746 267.331 281.54 267.169 281.353C267.092 281.265 266.972 281.214 266.872 281.147C266.843 281.24 266.816 281.334 266.784 281.426C266.775 281.453 266.753 281.476 266.717 281.532C266.614 281.259 266.522 281.014 266.417 280.736C266.304 280.867 266.213 280.972 266.148 281.047C265.798 280.814 265.463 280.573 265.11 280.363C264.869 280.219 264.827 280.251 264.768 280.52C264.655 281.032 264.166 281.312 263.564 281.151C263.253 281.068 262.969 280.885 262.644 280.734C262.295 281.263 261.923 281.828 261.55 282.393C261.518 282.386 261.485 282.38 261.452 282.373C261.372 281.981 261.293 281.589 261.213 281.197C261.184 281.199 261.156 281.202 261.127 281.205C260.935 281.448 261.017 281.743 260.968 282.047C260.804 281.792 260.641 281.538 260.449 281.239C260.269 281.488 260.12 281.695 259.955 281.925C259.762 281.386 259.575 280.865 259.368 280.287C259.046 280.62 258.878 281.087 258.295 280.949C258.391 280.75 258.475 280.561 258.571 280.38C258.794 279.96 258.776 279.92 258.304 279.938C257.927 279.953 257.551 279.99 257.124 280.021C257.238 279.845 257.329 279.695 257.43 279.551C257.52 279.422 257.499 279.342 257.349 279.285C257.069 279.179 256.793 279.066 256.515 278.954C256.337 278.882 256.231 278.758 256.166 278.569C256.114 278.42 256.007 278.282 255.897 278.164C255.667 277.916 255.417 277.686 255.178 277.445C255.103 277.37 255.039 277.284 254.948 277.178C255.54 277.038 256.082 277.251 256.644 277.248C256.609 276.982 256.418 276.986 256.266 276.974C256.071 276.957 255.921 276.922 255.945 276.633C255.768 276.732 255.626 276.812 255.455 276.907C255.327 276.641 255.208 276.392 255.061 276.087C254.969 276.322 254.916 276.502 254.828 276.664C254.782 276.748 254.675 276.798 254.596 276.864C254.55 276.775 254.474 276.689 254.465 276.597C254.419 276.118 254.418 276.113 253.963 276.292C253.635 276.422 253.62 276.45 253.75 276.768C253.797 276.882 253.809 276.972 253.694 277.055C253.577 277.14 253.473 277.242 253.318 277.131C253.251 277.083 253.177 277.046 253.106 277.003C253.089 277.021 253.072 277.038 253.055 277.055C253.162 277.191 253.278 277.32 253.372 277.464C253.456 277.59 253.515 277.733 253.584 277.869C253.439 277.917 253.295 277.996 253.148 278.007C252.922 278.023 252.694 277.987 252.467 277.985C252.337 277.985 252.207 278.009 252.022 278.027C251.927 277.959 251.783 277.838 251.621 277.747C251.364 277.603 251.309 277.827 251.25 278.009C250.962 277.765 250.937 277.765 250.653 278.002C250.582 277.863 250.514 277.728 250.42 277.546C250.201 277.783 250.006 277.993 249.817 278.196C249.762 278.16 249.739 278.153 249.739 278.144C249.713 277.728 249.426 277.573 249.077 277.489C248.878 277.442 248.677 277.4 248.474 277.383C248.28 277.368 248.114 277.404 248.035 277.641C247.955 277.879 247.733 277.892 247.519 277.844C247.182 277.77 246.858 277.656 246.498 277.754C246.331 277.799 246.256 277.868 246.226 278.023C246.203 278.138 246.175 278.253 246.142 278.366C246.06 278.644 245.956 278.686 245.725 278.505C245.54 278.36 245.375 278.188 245.207 278.023C245.094 277.914 244.991 277.795 244.864 277.659C244.748 277.853 244.644 278.033 244.533 278.21C244.115 278.874 243.855 278.902 243.315 278.342C243.239 278.263 243.166 278.179 243.087 278.103C242.918 277.939 242.86 277.954 242.79 278.185C242.749 278.32 242.725 278.461 242.681 278.595C242.643 278.714 242.602 278.834 242.54 278.942C242.383 279.216 242.24 279.237 241.992 279.039C241.896 278.962 241.8 278.887 241.672 278.786C241.534 279.081 241.413 279.339 241.268 279.647C241.138 279.492 241.039 279.376 240.941 279.258C240.774 279.057 240.708 279.052 240.523 279.227C240.33 279.408 240.265 279.398 240.174 279.134C240.075 278.847 239.998 278.552 239.888 278.182C239.67 278.445 239.488 278.664 239.306 278.883C239.275 278.867 239.244 278.851 239.212 278.834C239.124 278.418 239.037 278.001 238.94 277.543C238.821 277.62 238.733 277.666 238.658 277.729C238.439 277.909 238.23 278.101 238.008 278.276C237.933 278.336 237.83 278.358 237.739 278.398C237.712 278.304 237.672 278.212 237.662 278.117C237.649 277.984 237.669 277.848 237.656 277.716C237.646 277.619 237.605 277.525 237.577 277.43C237.485 277.463 237.381 277.479 237.302 277.532C237.067 277.69 236.844 277.866 236.612 278.027C236.539 278.078 236.45 278.105 236.301 278.174C236.375 277.864 236.434 277.622 236.502 277.342C236.146 277.509 235.966 277.901 235.561 277.883C235.548 277.849 235.538 277.835 235.537 277.82C235.529 277.698 235.522 277.576 235.515 277.453C235.398 277.484 235.282 277.532 235.165 277.538C235.103 277.541 235 277.484 234.978 277.429C234.924 277.294 234.905 277.144 234.855 276.931C234.684 277.315 234.451 277.174 234.225 277.079C234.068 277.013 233.912 276.946 233.722 276.865C233.705 277.012 233.692 277.123 233.673 277.283C233.51 277.215 233.374 277.143 233.23 277.103C233.102 277.068 232.961 277.043 232.831 277.059C232.458 277.104 232.087 277.178 231.714 277.229C231.624 277.241 231.529 277.213 231.397 277.199C231.649 276.777 232.072 276.593 232.41 276.319C232.398 276.292 232.385 276.265 232.373 276.238C232.228 276.287 232.076 276.323 231.939 276.388C231.826 276.441 231.759 276.428 231.679 276.332C231.565 276.192 231.437 276.063 231.306 275.939C231.248 275.884 231.169 275.851 231.1 275.808C231.08 275.818 231.06 275.829 231.039 275.839C231.064 276.036 231.09 276.232 231.113 276.429C231.124 276.522 231.145 276.617 231.137 276.71C231.119 276.91 230.978 276.989 230.744 276.939C230.716 277.107 230.71 277.282 230.657 277.441C230.544 277.774 230.38 277.805 230.144 277.561C230.117 277.534 230.078 277.496 230.048 277.499C229.844 277.519 229.754 277.386 229.667 277.239C229.602 277.128 229.516 277.113 229.412 277.192C229.249 277.314 229.084 277.433 228.885 277.579C228.751 277.296 228.626 277.034 228.47 276.704C228.398 276.883 228.359 276.996 228.308 277.105C228.252 277.225 228.204 277.354 228.12 277.452C228.071 277.51 227.953 277.548 227.879 277.532C227.833 277.522 227.791 277.396 227.785 277.32C227.772 277.145 227.782 276.969 227.783 276.734C227.466 276.866 227.196 276.979 226.903 277.102C227.005 277.293 227.085 277.444 227.175 277.613C227.038 277.72 226.898 277.83 226.764 277.934C226.607 277.84 226.463 277.753 226.312 277.662C226.235 277.984 226.167 278.268 226.091 278.585C225.958 278.529 225.839 278.479 225.72 278.429C225.421 278.308 225.377 278.335 225.364 278.649C225.36 278.724 225.352 278.799 225.346 278.874L225.272 278.93C225.193 278.828 225.123 278.715 225.032 278.626C224.733 278.331 224.565 278.377 224.441 278.777C224.429 278.819 224.413 278.861 224.397 278.908C224.118 278.562 223.977 278.555 223.762 278.883C223.727 278.795 223.696 278.716 223.664 278.637C223.57 278.406 223.482 278.389 223.314 278.579C223.226 278.679 223.147 278.788 223.07 278.897C223.015 278.974 222.972 279.057 222.923 279.137C222.895 279.118 222.866 279.098 222.838 279.079C222.759 278.896 222.68 278.713 222.602 278.53C222.538 278.379 222.447 278.293 222.26 278.309C222.18 278.316 222.056 278.253 222.016 278.185C221.897 277.979 221.765 277.975 221.591 278.1C221.524 278.149 221.45 278.188 221.358 278.244C221.285 277.934 221.073 277.946 220.869 278C220.65 278.058 220.436 278.139 220.229 278.231C220.064 278.303 219.906 278.397 219.758 278.501C219.46 278.71 219.194 278.799 218.898 278.47C218.799 278.359 218.587 278.342 218.421 278.302C218.363 278.288 218.252 278.313 218.229 278.356C218.104 278.583 217.883 278.584 217.676 278.609C217.309 278.654 216.941 278.7 216.572 278.715C216.199 278.731 216.154 278.641 216.336 278.327C216.373 278.263 216.402 278.194 216.455 278.088C216.34 278.079 216.264 278.058 216.194 278.069C215.782 278.136 215.371 278.208 214.961 278.284C214.87 278.302 214.785 278.358 214.694 278.371C214.618 278.382 214.498 278.386 214.462 278.341C214.35 278.201 214.233 278.217 214.084 278.258C213.799 278.336 213.508 278.397 213.209 278.436C213.658 277.979 214.077 277.504 214.671 277.237C214.943 277.114 215.206 276.967 215.461 276.813C215.75 276.638 215.852 276.353 215.741 276.04C215.721 275.984 215.605 275.926 215.537 275.93C215.395 275.937 215.256 275.986 215.102 275.992C215.3 275.64 215.748 275.524 215.894 275.142C215.549 274.926 215.224 274.938 214.883 275.102C214.679 275.201 214.457 275.268 214.237 275.323C214.116 275.354 213.98 275.328 213.792 275.328C213.98 275.174 214.117 275.062 214.27 274.936C214.2 274.893 214.159 274.868 214.042 274.795C214.192 274.701 214.312 274.626 214.432 274.552C214.42 274.527 214.408 274.502 214.397 274.478C214.243 274.453 214.089 274.429 213.895 274.398C213.97 274.328 214.012 274.271 214.069 274.239C214.416 274.044 214.765 273.854 215.115 273.665C215.273 273.579 215.445 273.512 215.591 273.409C215.65 273.366 215.658 273.251 215.689 273.169C215.667 273.155 215.644 273.141 215.621 273.127C215.677 273.103 215.733 273.079 215.79 273.055C216.207 272.877 216.642 272.732 217.036 272.511C217.514 272.244 217.99 271.978 218.534 271.896C219.091 271.813 219.278 271.415 219.421 270.937C219.278 271.032 219.135 271.126 218.93 271.262C218.97 271.117 218.991 271.034 219.016 270.951C219.045 270.853 219.09 270.758 219.103 270.658C219.113 270.572 219.089 270.481 219.079 270.392C218.988 270.42 218.881 270.427 218.808 270.479C218.676 270.573 218.563 270.694 218.442 270.804C218.118 270.461 217.962 270.471 217.676 270.842C217.509 271.059 217.345 271.276 217.149 271.532C217.019 271.374 216.919 271.251 216.784 271.086C216.603 271.482 216.435 271.849 216.267 272.217L216.204 272.203C216.156 272.049 216.108 271.896 216.054 271.721C215.57 271.901 215.273 272.295 214.898 272.596C214.726 272.444 214.776 272.308 214.871 272.168C214.992 271.99 215.111 271.81 215.231 271.631C215.216 271.608 215.2 271.585 215.185 271.561C215.046 271.585 214.907 271.608 214.752 271.633C214.6 271.351 214.863 271.263 215.065 271.07C214.815 271.043 214.623 271.021 214.349 270.991C214.587 270.789 214.781 270.624 214.998 270.44C214.857 270.419 214.735 270.401 214.562 270.376C214.648 270.332 214.694 270.299 214.746 270.283C215.259 270.127 215.704 269.856 216.12 269.521C216.533 269.187 216.972 268.911 217.537 268.884C217.692 268.876 217.841 268.722 218.01 268.626C217.937 268.53 217.897 268.477 217.838 268.4C218.587 268.15 219.386 268.092 220.069 267.698C220.072 267.67 220.077 267.643 220.081 267.616C219.781 267.474 219.481 267.333 219.16 267.182C219.334 267.094 219.492 267.015 219.65 266.934C219.961 266.776 220.028 266.582 219.882 266.26C219.759 265.987 219.764 265.999 220.034 265.874C220.591 265.617 221.141 265.347 221.693 265.079C221.768 265.043 221.834 264.989 221.904 264.943C221.903 264.921 221.901 264.899 221.899 264.876C221.259 264.781 220.618 264.685 219.977 264.59C219.977 264.562 219.977 264.535 219.977 264.508C220.509 264.333 221.116 264.335 221.558 263.896C221.493 263.821 221.443 263.764 221.365 263.674C221.544 263.621 221.703 263.586 221.851 263.525C221.942 263.488 222.093 263.393 222.084 263.356C222.057 263.241 221.99 263.099 221.894 263.045C221.722 262.947 221.517 262.905 221.27 262.821C222.023 262.352 222.708 261.886 223.19 261.197C223.174 261.174 223.159 261.15 223.144 261.126C223.006 261.18 222.869 261.234 222.663 261.316C222.793 261.114 222.886 260.97 223.009 260.777C222.796 260.756 222.632 260.739 222.451 260.721C222.733 260.572 223.002 260.43 223.271 260.288C223.163 260.04 223.008 259.981 222.808 259.993C222.465 260.013 222.12 260.028 221.782 260.045C221.782 259.49 222.204 259.272 222.576 259.017C222.565 258.99 222.555 258.963 222.544 258.936C222.179 258.893 221.815 258.85 221.41 258.803C221.771 258.058 222.456 257.652 222.956 257.052C222.679 256.853 222.362 256.868 222.075 256.793C221.725 256.7 221.512 256.972 221.188 257.145C221.228 256.929 221.256 256.775 221.298 256.551C220.867 256.762 220.471 256.957 220.075 257.151C220.055 257.124 220.034 257.097 220.014 257.07C220.255 256.804 220.496 256.538 220.742 256.266C220.707 256.239 220.69 256.214 220.673 256.214C220.431 256.22 220.221 256.218 220.276 255.861C220.291 255.761 220.157 255.638 220.079 255.503C220.292 255.519 220.498 255.547 220.703 255.547C220.858 255.548 221.034 255.555 221.163 255.487C221.747 255.182 222.32 254.853 222.894 254.527C222.998 254.468 223.127 254.416 223.054 254.24C222.988 254.083 222.91 253.986 222.72 254.03C222.631 254.05 222.535 254.04 222.405 254.046C222.446 253.882 222.48 253.746 222.525 253.565C222.185 253.626 221.881 253.681 221.578 253.736C221.572 253.723 221.567 253.709 221.561 253.695C221.747 253.598 221.933 253.5 222.118 253.402L222.107 253.328C221.963 253.265 221.818 253.203 221.631 253.122C221.773 253.07 221.872 253.029 221.973 252.997C222.76 252.751 223.502 252.413 224.183 251.947C224.612 251.654 224.628 251.544 224.254 251.193C224.093 251.041 223.87 250.954 223.64 250.817C223.923 250.594 224.224 250.356 224.525 250.119C224.519 250.093 224.514 250.069 224.508 250.044C224.26 250.02 224.013 249.996 223.765 249.972C223.759 249.957 223.753 249.942 223.747 249.927C223.828 249.877 223.907 249.822 223.992 249.779C224.413 249.566 224.836 249.356 225.259 249.147C225.671 248.944 225.922 248.62 226.066 248.182C226.185 247.82 226.356 247.473 226.522 247.129C226.649 246.864 226.658 246.602 226.586 246.326C226.548 246.176 226.514 246.025 226.503 245.862C226.82 246.113 227.094 246.39 227.208 246.79C227.274 247.024 227.33 247.262 227.411 247.491C227.526 247.813 227.736 248.015 228.11 248.022C228.222 248.025 228.355 248.095 228.439 248.176C229.001 248.715 229.553 249.264 230.108 249.81C230.102 249.841 230.095 249.872 230.089 249.903C229.8 249.953 229.512 250.006 229.223 250.051C229.13 250.065 229.034 250.053 228.939 250.056C228.671 250.063 228.64 250.113 228.709 250.37C228.863 250.947 229.009 251.525 229.156 252.103C229.175 252.177 229.18 252.256 229.199 252.383C228.713 252.143 228.266 251.904 227.718 251.937C227.83 252.052 227.957 252.156 228.051 252.284C228.155 252.426 228.28 252.581 228.305 252.744C228.347 253.018 228.509 253.097 228.737 253.166C229.239 253.318 229.735 253.491 230.232 253.659C230.281 253.675 230.322 253.712 230.408 253.764C230.227 253.79 230.09 253.806 229.956 253.831C229.817 253.857 229.643 253.837 229.657 254.074C229.659 254.112 229.518 254.183 229.436 254.195C229.281 254.219 229.115 254.182 228.966 254.22C228.582 254.319 228.204 254.438 227.829 254.566C227.775 254.585 227.714 254.7 227.723 254.76C227.746 254.919 227.771 255.118 227.989 255.121C228.255 255.124 228.527 255.121 228.787 255.07C229.412 254.948 230.031 254.794 230.654 254.659C230.787 254.63 230.926 254.624 231.062 254.607C231.075 254.634 231.088 254.662 231.102 254.69C230.902 254.839 230.702 254.988 230.489 255.146C230.527 255.208 230.565 255.269 230.626 255.364C230.414 255.418 230.218 255.46 230.028 255.519C229.86 255.572 229.637 255.608 229.806 255.877C229.81 255.883 229.815 255.894 229.813 255.898C229.627 256.209 229.929 256.275 230.077 256.411C230.292 256.608 230.524 256.786 230.734 256.987C230.806 257.055 230.89 257.188 230.866 257.254C230.839 257.33 230.703 257.395 230.605 257.413C230.288 257.474 230.043 257.637 229.804 257.898C230.293 258.368 230.987 258.396 231.527 258.786C231.197 258.945 230.859 259 230.51 259.016C230.381 259.023 230.165 258.919 230.158 259.109C230.152 259.277 230.262 259.484 230.385 259.613C230.52 259.754 230.725 259.832 230.905 259.927C231.015 259.984 231.134 260.055 231.251 260.059C231.679 260.077 232.042 260.253 232.39 260.475C232.601 260.61 232.809 260.746 233.056 260.905C232.971 260.933 232.9 260.944 232.842 260.979C232.803 261.003 232.783 261.059 232.754 261.1C232.797 261.124 232.84 261.167 232.884 261.169C233.178 261.181 234.085 260.751 234.3 260.478C234.036 260.433 233.797 260.392 233.504 260.341C233.608 260.255 233.675 260.186 233.753 260.136C233.979 259.992 234.213 259.861 234.437 259.715C234.722 259.529 234.971 259.316 235.131 258.996C235.249 258.76 235.444 258.564 235.604 258.35C235.826 258.052 235.807 258.004 235.447 257.947C235.284 257.921 235.117 257.91 234.959 257.865C234.86 257.837 234.774 257.758 234.683 257.702L234.698 257.627C234.577 257.678 234.459 257.738 234.335 257.777C234.089 257.853 233.843 257.942 233.59 257.979C233.362 258.012 233.284 257.9 233.275 257.675C233.265 257.398 233.342 257.205 233.63 257.093C233.899 256.989 234.154 256.836 234.394 256.674C234.496 256.606 234.581 256.466 234.603 256.346C234.613 256.291 234.455 256.199 234.366 256.135C234.298 256.088 234.217 256.059 234.132 256.017C234.159 255.963 234.174 255.927 234.193 255.895C234.577 255.255 234.581 255.255 234.47 254.54C234.46 254.474 234.38 254.409 234.318 254.365C234.27 254.331 234.198 254.334 234.137 254.316C234.079 254.3 234.021 254.278 233.948 254.253C234.15 253.683 234.744 253.368 234.885 252.743C234.313 252.741 233.782 253.019 233.213 252.829C233.284 252.728 233.345 252.641 233.435 252.515C233.244 252.481 233.09 252.454 232.864 252.413C233.001 252.335 233.083 252.284 233.168 252.24C233.455 252.093 233.75 251.959 234.028 251.796C234.149 251.725 234.231 251.59 234.34 251.494C234.414 251.43 234.497 251.356 234.588 251.335C235.139 251.205 235.694 251.091 236.246 250.967C236.378 250.938 236.505 250.889 236.635 250.85C236.633 250.821 236.632 250.792 236.63 250.763C236.452 250.722 236.274 250.679 236.095 250.642C235.995 250.621 235.892 250.612 235.792 250.593C235.457 250.529 235.462 250.5 235.427 250.168C235.402 249.929 235.367 249.712 235.518 249.5C235.538 249.471 235.476 249.356 235.426 249.311C235.216 249.123 234.995 248.948 234.769 248.76C234.834 248.678 234.897 248.6 234.949 248.534C234.75 248.358 234.555 248.187 234.338 247.995C234.466 247.875 234.545 247.802 234.624 247.729C234.987 247.392 235.356 247.06 235.709 246.713C235.831 246.594 235.929 246.444 236.01 246.293C236.203 245.934 236.156 245.672 235.875 245.371C235.806 245.297 235.731 245.221 235.686 245.132C235.588 244.94 235.734 244.48 235.937 244.369C236.12 244.268 236.323 244.204 236.512 244.112C236.807 243.967 237.104 243.824 237.386 243.658C237.496 243.593 237.582 243.475 237.654 243.365C237.818 243.113 237.8 242.999 237.59 242.778C237.702 242.61 237.889 242.469 237.794 242.21C237.774 242.156 237.924 242.047 237.983 241.955C238.059 241.834 238.231 241.731 238.079 241.551C238.067 241.536 238.087 241.492 238.097 241.463C238.191 241.164 238.284 240.865 238.381 240.566C238.458 240.328 238.56 240.098 238.458 239.836C238.434 239.774 238.463 239.676 238.497 239.61C238.936 238.744 238.992 237.801 239.083 236.861C239.12 236.478 239.233 236.101 239.312 235.721L239.408 235.716C239.457 235.824 239.507 235.931 239.553 236.04C239.887 236.82 240.214 237.602 240.556 238.378C240.64 238.571 240.77 238.744 240.88 238.925C241.027 239.168 241.208 239.326 241.53 239.292C241.646 239.279 241.806 239.374 241.894 239.469C242.123 239.716 242.323 239.99 242.535 240.254C242.934 240.75 243.318 241.259 243.738 241.737C244.046 242.089 244.243 242.432 244.198 242.94C244.169 243.258 244.32 243.614 244.462 243.92C244.681 244.393 244.639 244.602 244.168 244.821C244.011 244.895 243.887 244.973 243.862 245.171C243.836 245.375 243.668 245.455 243.484 245.462C243.257 245.47 243.028 245.451 242.8 245.441C242.66 245.435 242.52 245.424 242.379 245.415C242.364 245.438 242.349 245.46 242.334 245.482L242.329 245.487ZM235.44 261.413C235.423 261.385 235.406 261.357 235.389 261.329C235.25 261.386 235.104 261.431 234.972 261.501C234.657 261.67 234.66 261.674 234.435 261.423C234.025 261.637 233.615 261.851 233.205 262.066C233.186 262.077 233.163 262.094 233.154 262.114C233.079 262.286 232.924 262.295 232.775 262.284C232.396 262.256 232.018 262.216 231.629 262.179L231.628 262.499C231.299 262.576 231.271 262.635 231.426 262.931C231.469 263.012 231.527 263.094 231.597 263.153C232.008 263.498 232.533 263.551 233 263.283C233.191 263.175 233.361 263.031 233.538 262.901C233.716 262.772 233.889 262.634 234.069 262.509C234.134 262.464 234.218 262.445 234.323 262.402C234.336 263.005 233.688 262.969 233.5 263.347C233.574 263.394 233.641 263.438 233.735 263.499C233.646 263.562 233.585 263.608 233.521 263.651C233.313 263.788 233.295 263.871 233.497 263.991C233.664 264.091 233.866 264.18 234.056 264.186C234.52 264.202 234.986 264.182 235.449 264.149C236.209 264.094 236.75 263.646 237.235 263.111C237.242 263.103 237.234 263.082 237.23 263.028C237.034 262.993 236.829 262.952 236.623 262.921C236.455 262.896 236.375 262.812 236.377 262.637C236.38 262.498 236.359 262.359 236.346 262.196C236.157 262.27 236 262.332 235.827 262.4C235.872 262.253 235.905 262.148 235.948 262.01L235.055 262.007C235.195 261.791 235.317 261.602 235.439 261.414L235.44 261.413ZM255.828 251.307C255.936 251.68 256.035 252.039 256.15 252.393C256.166 252.441 256.259 252.488 256.319 252.493C256.914 252.54 257.509 252.596 258.105 252.609C258.426 252.616 258.852 252.275 258.925 251.988C258.4 252.067 257.893 252.143 257.348 252.225C257.475 251.742 257.121 251.725 256.797 251.67C256.909 251.546 256.988 251.459 257.067 251.373L257.041 251.311L255.827 251.307L255.828 251.307ZM256.737 254.353C256.609 254.212 256.507 254.125 256.439 254.017C256.369 253.906 256.334 253.773 256.279 253.651C256.106 253.261 255.413 252.89 254.944 252.954C255.011 253.045 255.067 253.126 255.128 253.203C255.229 253.332 255.382 253.444 255.426 253.589C255.504 253.848 255.679 253.986 255.899 254.075C256.155 254.179 256.423 254.251 256.737 254.353ZM255.29 255.477C255.29 255.477 255.29 255.477 255.29 255.478C255.228 255.472 255.166 255.467 255.103 255.462C254.853 255.439 254.792 255.526 254.883 255.757C254.975 255.992 255.174 255.983 255.371 255.989C255.58 255.996 255.713 255.877 255.786 255.705C255.803 255.665 255.72 255.541 255.661 255.521C255.545 255.482 255.415 255.489 255.29 255.477L255.29 255.477Z" fill="#154068"/>
<path d="M308.511 265C308.424 264.992 308.337 264.977 308.249 264.977C305.523 264.973 302.797 264.971 300.07 264.967C298.402 264.965 296.733 264.959 295.065 264.957C293.617 264.955 292.169 264.956 290.722 264.956C290.647 264.956 290.573 264.956 290.453 264.956C290.453 264.738 290.454 264.539 290.453 264.34C290.443 262.538 290.432 260.735 290.421 258.932C290.421 258.864 290.409 258.793 290.42 258.726C290.471 258.396 290.284 258.151 290.14 257.886C290.067 257.751 290.045 257.589 290 257.438C290.994 257.003 291.945 256.593 292.891 256.17C293.888 255.725 294.88 255.265 295.877 254.819C296.035 254.748 296.108 254.654 296.108 254.482C296.108 253.775 296.118 253.068 296.111 252.361C296.11 252.278 296.043 252.174 295.975 252.119C295.803 251.983 295.772 251.878 295.948 251.753C296.113 251.635 296.133 251.499 296.131 251.321C296.122 250.614 296.116 249.906 296.123 249.199C296.127 248.828 296.059 248.51 295.638 248.358C295.689 248.277 295.722 248.214 295.765 248.158C296.688 246.97 297.61 245.781 298.54 244.597C298.655 244.45 298.718 244.305 298.7 244.118C298.686 243.975 298.697 243.83 298.69 243.687C298.687 243.633 298.679 243.55 298.646 243.532C298.455 243.431 298.409 243.239 298.315 243.074C298.277 243.007 298.201 242.961 298.146 242.902C298.11 242.863 298.052 242.814 298.055 242.774C298.074 242.569 297.952 242.482 297.788 242.418C297.759 242.407 297.736 242.384 297.687 242.352C297.735 242.297 297.774 242.245 297.822 242.201C298.686 241.406 299.549 240.61 300.418 239.82C300.475 239.768 300.569 239.736 300.649 239.731C300.881 239.716 301.114 239.727 301.347 239.712C301.403 239.709 301.47 239.656 301.502 239.607C301.516 239.586 301.45 239.518 301.428 239.467C301.405 239.414 301.366 239.352 301.377 239.302C301.457 238.898 301.506 238.482 301.645 238.098C301.828 237.595 302.027 237.506 302.474 237.522C302.606 237.527 302.74 237.5 302.87 237.514C303.081 237.538 303.175 237.433 303.238 237.252C303.307 237.052 303.385 236.853 303.478 236.662C303.884 235.835 304.55 235.377 305.473 235.29C305.686 235.27 305.899 235.243 306.113 235.235C306.653 235.214 307.114 235.409 307.487 235.788C307.673 235.977 307.879 236.05 308.131 235.998C308.187 235.987 308.259 235.943 308.281 235.895C308.472 235.487 308.655 235.075 308.833 234.662C308.862 234.596 308.864 234.516 308.867 234.442C308.883 234.042 308.894 233.642 308.91 233.241C308.921 232.966 309.046 232.743 309.275 232.596C309.64 232.362 309.786 232.035 309.779 231.612C309.772 231.2 309.795 230.786 309.796 230.373C309.797 230.116 309.879 229.928 310.147 229.842C310.347 229.778 310.389 229.602 310.396 229.419C310.41 229.069 310.428 228.718 310.429 228.368C310.435 226.446 310.435 224.524 310.441 222.602C310.442 222.484 310.398 222.426 310.302 222.369C310.235 222.329 310.161 222.255 310.144 222.183C310.05 221.766 309.982 221.344 309.885 220.928C309.833 220.704 309.759 220.482 309.665 220.272C309.07 218.948 309.271 217.742 310.227 216.668C310.761 216.069 311.314 215.483 311.902 214.937C312.954 213.96 313.527 212.779 313.599 211.351C313.649 210.37 313.712 209.39 313.772 208.409C313.783 208.223 313.736 208.091 313.57 207.967C313.222 207.706 313.303 207.145 313.703 206.977C313.841 206.92 313.87 206.849 313.87 206.713C313.865 205.649 313.865 204.585 313.87 203.521C313.87 203.339 313.866 203.173 313.693 203.061C313.662 203.04 313.647 202.995 313.596 202.917C313.688 202.968 313.734 202.994 313.833 203.048C313.849 202.772 313.863 202.531 313.878 202.28C313.72 202.256 313.588 202.235 313.441 202.213C313.463 202.185 313.468 202.172 313.475 202.171C313.864 202.134 313.915 202.064 313.852 201.651C313.824 201.469 313.846 201.192 313.921 201C313.917 201.194 314.069 201.362 313.992 201.569C313.969 201.632 313.967 201.704 313.963 201.773C313.948 202.11 313.986 202.15 314.323 202.16C314.352 202.161 314.38 202.166 314.414 202.209C314.346 202.225 314.279 202.246 314.21 202.257C314.136 202.268 314.061 202.27 313.959 202.278C314.004 202.694 313.839 203.132 314.19 203.517C314.137 203.51 314.11 203.508 314.084 203.501C314.061 203.496 314.039 203.485 314.012 203.475C314.003 203.497 313.99 203.513 313.99 203.529C313.98 204.618 313.97 205.707 313.967 206.796C313.967 206.85 314.03 206.933 314.083 206.952C314.57 207.133 314.619 207.768 314.207 208.018C314.128 208.067 314.069 208.218 314.075 208.319C314.091 208.643 314.141 208.965 314.179 209.288C314.271 210.071 314.334 210.858 314.462 211.635C314.652 212.79 315.21 213.779 315.994 214.639C316.662 215.371 317.361 216.076 318.04 216.798C318.429 217.212 318.751 217.671 318.958 218.206C319.199 218.829 319.238 219.46 318.971 220.071C318.729 220.623 318.575 221.183 318.52 221.781C318.494 222.054 318.373 222.318 318.304 222.588C318.277 222.696 318.264 222.811 318.264 222.922C318.259 224.982 318.242 227.041 318.269 229.1C318.274 229.479 318.429 229.863 318.791 230.114C319.08 230.315 319.252 230.66 319.178 230.962C319.07 231.405 319.177 231.83 319.113 232.279C319.403 232.295 319.67 232.309 319.96 232.325V232.53C319.96 233.238 319.915 233.949 319.977 234.651C320.013 235.075 320.205 235.488 320.352 235.898C320.373 235.957 320.533 235.992 320.63 235.995C321.096 236.007 321.562 236.007 322.028 236.006C322.481 236.006 322.935 235.989 323.388 236.002C323.581 236.008 323.696 235.934 323.741 235.769C323.837 235.414 323.928 235.057 323.993 234.696C324.036 234.457 324.038 234.21 324.04 233.966C324.04 233.895 323.997 233.797 323.94 233.756C323.578 233.489 323.542 233.153 323.89 232.871C324.054 232.738 324.092 232.601 324.09 232.408C324.077 231.275 324.076 230.142 324.071 229.009C324.071 228.941 324.071 228.872 324.071 228.812C323.912 228.72 323.696 228.815 323.566 228.587C323.743 228.562 323.893 228.541 324.057 228.518C324.081 228.265 324.106 228.008 324.131 227.751C324.153 227.75 324.175 227.749 324.197 227.749C324.223 228.001 324.25 228.253 324.279 228.521C324.37 228.533 324.469 228.538 324.564 228.561C324.609 228.573 324.646 228.619 324.686 228.649C324.65 228.683 324.619 228.736 324.576 228.748C324.486 228.774 324.39 228.777 324.277 228.792C324.274 228.848 324.268 228.907 324.267 228.966C324.257 230.149 324.251 231.332 324.237 232.515C324.235 232.651 324.276 232.727 324.392 232.799C324.79 233.045 324.815 233.349 324.501 233.693C324.42 233.782 324.353 233.919 324.35 234.036C324.328 234.671 324.431 235.294 324.589 235.909C324.704 236.355 325.052 236.628 325.352 236.936C325.384 236.968 325.457 236.969 325.51 236.969C325.8 236.974 326.089 236.969 326.379 236.978C326.43 236.98 326.512 237.015 326.525 237.053C326.701 237.567 326.87 238.084 327.035 238.601C327.085 238.754 327.056 238.896 326.946 239.022C326.91 239.062 326.882 239.118 326.873 239.17C326.835 239.386 326.706 239.538 326.525 239.637C326.392 239.71 326.353 239.806 326.363 239.941C326.372 240.071 326.38 240.201 326.389 240.336C326.42 240.343 326.444 240.355 326.468 240.353C326.937 240.308 327.329 240.485 327.714 240.735C328.314 241.126 328.934 241.484 329.546 241.857C329.61 241.896 329.674 241.937 329.733 241.983C329.95 242.148 329.954 242.179 329.833 242.429C329.804 242.49 329.793 242.561 329.785 242.628C329.748 242.95 329.635 243.231 329.374 243.442C329.231 243.557 329.244 243.919 329.39 244.066C330.082 244.76 330.777 245.45 331.465 246.147C331.663 246.348 331.852 246.559 332.028 246.779C332.193 246.985 332.263 247.216 332.093 247.46C332.074 247.489 332.048 247.515 332.02 247.535C331.994 247.552 331.961 247.556 331.932 247.567C331.413 247.77 331.394 247.787 331.401 248.328C331.406 248.657 331.349 248.961 331.157 249.235C331.126 249.279 331.101 249.338 331.101 249.39C331.097 249.99 331.098 250.59 331.098 251.214C331.29 251.231 331.456 251.245 331.621 251.259C331.654 251.48 331.494 251.62 331.143 251.679C331.135 251.689 331.123 251.699 331.123 251.709C331.119 252.429 331.111 253.148 331.12 253.868C331.121 253.956 331.193 254.069 331.267 254.126C331.671 254.435 332.086 254.73 332.495 255.032C332.569 255.086 332.633 255.154 332.702 255.217C332.47 255.532 332.567 255.878 332.535 256.201C332.781 256.266 333.009 256.33 333.24 256.384C333.34 256.408 333.367 256.461 333.365 256.557C333.361 256.876 333.359 257.195 333.368 257.514C333.369 257.578 333.405 257.674 333.453 257.696C333.679 257.802 333.736 257.977 333.714 258.204C333.706 258.295 333.713 258.389 333.713 258.485C334.116 258.485 334.503 258.487 334.891 258.483C334.984 258.482 335.029 258.432 335.028 258.325C335.014 257.099 335.007 255.872 334.992 254.645C334.991 254.535 334.966 254.418 334.921 254.318C334.841 254.138 334.889 254.013 335.052 253.926C335.318 253.784 335.587 253.648 335.854 253.509C336.059 253.403 336.34 253.344 336.448 253.175C336.552 253.014 336.481 252.739 336.48 252.514C336.478 251.475 336.478 250.436 336.465 249.397C336.463 249.224 336.393 249.052 336.359 248.879C336.352 248.84 336.356 248.796 336.366 248.758C336.4 248.637 336.479 248.514 336.47 248.399C336.417 247.769 336.592 247.195 336.82 246.618C337.158 245.764 337.465 244.897 337.765 244.028C337.845 243.797 337.862 243.54 337.88 243.292C337.888 243.191 337.823 243.084 337.791 242.98C337.778 242.939 337.748 242.9 337.75 242.861C337.761 242.642 338.094 242.281 338.307 242.214C338.388 242.189 338.486 242.113 338.514 242.038C339.261 240.048 339.997 238.054 340.742 236.063C341.054 235.231 340.976 234.38 340.873 233.533C340.849 233.335 340.654 233.158 340.537 232.97C340.455 232.837 340.368 232.706 340.292 232.57C340.122 232.265 340.148 231.964 340.35 231.688C340.495 231.492 340.655 231.305 340.827 231.132C341.182 230.774 341.513 230.4 341.76 229.957C341.973 229.574 342.035 229.154 342.051 228.728C342.056 228.612 341.99 228.488 341.934 228.378C341.846 228.203 341.833 228.056 341.991 227.904C342.055 227.842 342.097 227.728 342.098 227.637C342.104 226.786 342.098 225.935 342.098 225.084C342.098 224.957 342.133 224.827 342.114 224.704C342.093 224.568 342.029 224.438 341.981 224.299C342.15 224.212 342.179 224.017 342.012 223.81C342.055 223.737 342.1 223.662 342.145 223.586C342.232 223.72 342.24 223.85 342.187 224.004C342.147 224.12 342.154 224.26 342.294 224.295C342.257 224.397 342.207 224.482 342.199 224.571C342.181 224.789 342.178 225.009 342.177 225.228C342.175 226.029 342.178 226.83 342.174 227.631C342.173 227.751 342.2 227.841 342.291 227.929C342.457 228.09 342.446 228.189 342.326 228.393C342.269 228.49 342.229 228.614 342.23 228.726C342.234 229.421 342.446 230.04 342.939 230.551C343.21 230.83 343.481 231.11 343.734 231.405C344.129 231.864 344.117 232.272 343.719 232.732C343.556 232.921 343.383 233.105 343.242 233.31C343.161 233.429 343.092 233.583 343.088 233.723C343.07 234.296 343.041 234.874 343.091 235.443C343.125 235.835 343.275 236.218 343.385 236.602C343.888 238.356 344.396 240.11 344.9 241.864C344.962 242.081 345.044 242.215 345.319 242.26C345.523 242.292 345.696 242.515 345.918 242.68C345.799 242.732 345.744 242.756 345.653 242.795C345.653 243.307 345.614 243.835 345.666 244.355C345.704 244.735 345.857 245.104 345.968 245.475C346.174 246.163 346.395 246.848 346.594 247.538C346.658 247.758 346.667 247.993 346.712 248.219C346.74 248.361 346.798 248.498 346.82 248.64C346.83 248.706 346.808 248.808 346.762 248.844C346.62 248.955 346.602 249.092 346.604 249.256C346.617 250.571 346.626 251.885 346.629 253.199C346.629 253.367 346.681 253.46 346.847 253.516C347.09 253.598 347.326 253.705 347.562 253.807C347.838 253.925 347.893 254.083 347.71 254.315C347.469 254.621 347.603 254.963 347.58 255.29C347.577 255.328 347.631 255.373 347.662 255.411C348.602 256.547 349.541 257.684 350.486 258.815C350.551 258.893 350.661 258.954 350.761 258.979C351.073 259.055 351.39 259.106 351.703 259.175C351.805 259.198 351.901 259.249 352 259.287V259.324C351.876 259.335 351.752 259.355 351.628 259.354C351.37 259.35 351.112 259.336 350.855 259.324C350.713 259.318 350.628 259.364 350.628 259.525C350.628 259.718 350.605 259.912 350.603 260.105C350.591 261.619 350.582 263.132 350.571 264.645C350.571 264.744 350.571 264.842 350.571 264.965C350.298 264.965 350.048 264.965 349.798 264.965C347.691 264.965 345.583 264.964 343.476 264.966C343.307 264.966 343.139 264.986 342.97 264.996H308.511V265Z" fill="#154068"/>
<rect x="280" y="263" width="75" height="16" rx="5" fill="#154068"/>
<path d="M0 299.472C183.741 289.28 272.865 289.741 360 299.472V814C218.635 811.385 139.891 811.27 0 814L0 299.472Z" fill="url(#paint0_linear_172_4)"/>
</g>
<defs>
<filter id="filter0_f_172_4" x="-131" y="6" width="617" height="456" filterUnits="userSpaceOnUse" color-interpolation-filters="sRGB">
<feFlood flood-opacity="0" result="BackgroundImageFix"/>
<feBlend mode="normal" in="SourceGraphic" in2="BackgroundImageFix" result="shape"/>
<feGaussianBlur stdDeviation="40" result="effect1_foregroundBlur_172_4"/>
</filter>
<linearGradient id="paint0_linear_172_4" x1="180" y1="292" x2="180" y2="821.947" gradientUnits="userSpaceOnUse">
<stop stop-color="#BBEBFF"/>
<stop offset="0.619792" stop-color="#BBEBFF"/>
<stop offset="1" stop-color="#BBEBFF" stop-opacity="0"/>
</linearGradient>
</defs>
</svg>
