<svg width="56" height="56" viewBox="0 0 56 56" fill="none" xmlns="http://www.w3.org/2000/svg">
<circle cx="28" cy="28" r="28" fill="#F8F5F0"/>
<g clip-path="url(#clip0_124_1208)">
<path d="M22.5518 36.6433C23.487 37.8472 24.3381 39.1155 25.099 40.4388C25.7487 41.6834 26.0196 42.5273 26.4944 44.0268C26.7856 44.8553 27.0488 45.1026 27.6146 45.1026C28.2312 45.1026 28.5109 44.6819 28.727 44.0314C29.1759 42.6152 29.528 41.5344 30.0836 40.5132C31.1739 38.5417 32.5286 36.7897 33.8598 35.1059C34.2201 34.6293 36.55 31.853 37.599 29.6624C37.599 29.6624 38.8881 27.256 38.8881 23.8952C38.8881 20.7516 37.6168 18.5713 37.6168 18.5713L33.9563 19.5616L31.7334 25.4764L31.1834 26.292L31.0734 26.4398L30.9272 26.6247L30.6704 26.9202L30.3036 27.2907L28.324 28.9199L23.375 31.8067L22.5518 36.6433Z" fill="#34A853"/>
<path d="M17.4443 29.2572C18.6522 32.0444 20.9814 34.4944 22.5573 36.6446L30.9276 26.6279C30.9276 26.6279 29.7484 28.1859 27.6093 28.1859C25.2266 28.1859 23.3017 26.2638 23.3017 23.84C23.3017 22.178 24.2915 21.0361 24.2915 21.0361L18.6096 22.5742L17.4443 29.2572Z" fill="#FBBC04"/>
<path d="M31.0213 12.9591C33.8013 13.8646 36.1807 15.7656 37.62 18.5687L30.9304 26.6222C30.9304 26.6222 31.9202 25.4597 31.9202 23.808C31.9202 21.3278 29.8529 19.475 27.6197 19.475C25.5078 19.475 24.2949 21.0304 24.2949 21.0304V15.9568L31.0213 12.959V12.9591Z" fill="#4285F4"/>
<path d="M18.9775 16.5179C20.6379 14.511 23.5596 12.4443 27.5875 12.4443C29.5417 12.4443 31.014 12.9626 31.014 12.9626L24.2882 21.0352H19.5229L18.9775 16.5179Z" fill="#1A73E8"/>
<path d="M17.4442 29.2573C17.4442 29.2573 16.333 27.0589 16.333 23.8742C16.333 20.8641 17.4913 18.233 18.9776 16.5176L24.292 21.0356L17.4442 29.2573Z" fill="#EA4335"/>
</g>
<defs>
<clipPath id="clip0_124_1208">
<rect width="22.5556" height="32.6667" fill="white" transform="translate(16.333 12.4443)"/>
</clipPath>
</defs>
</svg>
