<svg width="360" height="45" viewBox="0 0 360 45" fill="none" xmlns="http://www.w3.org/2000/svg">
<path d="M48.792 7.93923C45.4503 9.70753 37.6051 11.3469 34.1002 11.9455C32.9479 11.5311 42.0275 9.00912 46.3433 4.20922C52.4858 -2.6223 53.1131 0.582003 55.2736 1.99885C58.1495 3.88476 60.0268 5.5907 66.6525 7.11035C73.2782 8.62999 77.5993 7.11035 75.4388 8.49181C73.2782 9.87327 65.9323 12.4981 61.8993 12.7744C57.8663 13.0507 56.4259 13.327 58.2984 11.9455C60.1709 10.5641 61.4672 7.93923 60.0268 8.49181C58.5865 9.04439 51.2406 11.3929 49.3681 11.9455C47.4956 12.4981 51.5287 8.49183 53.1131 7.11035C54.6975 5.72886 52.969 5.72886 48.792 7.93923Z" fill="#BCEBFF"/>
<path d="M314.208 7.93923C317.55 9.70753 325.395 11.3469 328.9 11.9455C330.052 11.5311 320.972 9.00912 316.657 4.20922C310.514 -2.6223 309.887 0.582003 307.726 1.99885C304.851 3.88476 302.973 5.5907 296.347 7.11035C289.722 8.62999 285.401 7.11035 287.561 8.49181C289.722 9.87327 297.068 12.4981 301.101 12.7744C305.134 13.0507 306.574 13.327 304.702 11.9455C302.829 10.5641 301.533 7.93923 302.973 8.49181C304.414 9.04439 311.759 11.3929 313.632 11.9455C315.504 12.4981 311.471 8.49183 309.887 7.11035C308.303 5.72886 310.031 5.72886 314.208 7.93923Z" fill="#BCEBFF"/>
<path d="M53.3207 39.9932C47.9458 42.1712 43.7597 41.909 41.9508 41.9594C39.8836 42.1444 37.5579 41.9594 40.142 41.5057C42.7261 41.0519 47.8942 39.5394 52.5456 36.3632C57.197 33.1869 61.3315 33.7919 63.1404 34.8507C64.9492 35.9094 71.151 39.0857 76.836 39.9932C82.521 40.9007 85.1051 41.9594 80.9706 42.5645C76.836 43.1695 73.2183 44.077 69.6006 44.8332C65.9829 45.5895 68.5669 43.6232 71.151 41.9594C73.7351 40.2957 70.8926 40.4469 65.2076 41.9594C59.5226 43.4719 45.827 46.0432 50.9952 44.077C56.1633 42.1107 56.4895 41.6751 58.7473 39.9932C61.5898 37.8757 57.972 38.1084 53.3207 39.9932Z" fill="#BCEBFF"/>
<path d="M309.679 39.9932C315.054 42.1712 319.24 41.909 321.049 41.9594C323.116 42.1444 325.442 41.9594 322.858 41.5057C320.274 41.0519 315.106 39.5394 310.454 36.3632C305.803 33.1869 301.668 33.7919 299.86 34.8507C298.051 35.9094 291.849 39.0857 286.164 39.9932C280.479 40.9007 277.895 41.9594 282.029 42.5645C286.164 43.1695 289.782 44.077 293.399 44.8332C297.017 45.5895 294.433 43.6232 291.849 41.9594C289.265 40.2957 292.107 40.4469 297.792 41.9594C303.477 43.4719 317.173 46.0432 312.005 44.077C306.837 42.1107 306.51 41.6751 304.253 39.9932C301.41 37.8757 305.028 38.1084 309.679 39.9932Z" fill="#BCEBFF"/>
<path d="M-8.12266 24.6277C-15.2078 27.3997 -20.7258 27.066 -23.1102 27.1302C-25.8353 27.3656 -28.901 27.1302 -25.4947 26.5527C-22.0884 25.9752 -15.2758 24.0502 -9.14443 20.0077C-3.01309 15.9651 2.43698 16.7351 4.82139 18.0827C7.2058 19.4302 15.3809 23.4727 22.8748 24.6277C30.3686 25.7827 33.7749 27.1302 28.3248 27.9002C22.8748 28.6703 18.1059 29.8252 13.3371 30.7877C8.56832 31.7503 11.9746 29.2477 15.3809 27.1302C18.7872 25.0127 15.0403 25.2052 7.54642 27.1302C0.0525742 29.0552 -18.0008 32.3278 -11.1882 29.8252C-4.37561 27.3227 -3.94561 26.7684 -0.969439 24.6277C2.77749 21.9327 -1.99145 22.2289 -8.12266 24.6277Z" fill="#BCEBFF"/>
<path d="M371.123 24.6277C378.208 27.3997 383.726 27.066 386.11 27.1302C388.835 27.3656 391.901 27.1302 388.495 26.5527C385.088 25.9752 378.276 24.0502 372.144 20.0077C366.013 15.9651 360.563 16.7351 358.179 18.0827C355.794 19.4302 347.619 23.4727 340.125 24.6277C332.631 25.7827 329.225 27.1302 334.675 27.9002C340.125 28.6703 344.894 29.8252 349.663 30.7877C354.432 31.7503 351.025 29.2477 347.619 27.1302C344.213 25.0127 347.96 25.2052 355.454 27.1302C362.947 29.0552 381.001 32.3278 374.188 29.8252C367.376 27.3227 366.946 26.7684 363.969 24.6277C360.223 21.9327 364.991 22.2289 371.123 24.6277Z" fill="#BCEBFF"/>
</svg>
