<svg width="1856" height="122" viewBox="0 0 1856 122" fill="none" xmlns="http://www.w3.org/2000/svg">
<path d="M1400.35 32.7345C1388.75 39.1345 1361.51 45.0678 1349.35 47.2345C1345.35 45.7346 1376.87 36.6067 1391.85 19.2344C1413.17 -5.4909 1415.35 6.10645 1422.85 11.2344C1432.83 18.0601 1439.35 24.2344 1462.35 29.7345C1485.35 35.2345 1500.35 29.7345 1492.85 34.7344C1485.35 39.7344 1459.85 49.2344 1445.85 50.2344C1431.85 51.2344 1426.85 52.2344 1433.35 47.2345C1439.85 42.2346 1444.35 32.7345 1439.35 34.7344C1434.35 36.7344 1408.85 45.2344 1402.35 47.2345C1395.85 49.2346 1409.85 34.7345 1415.35 29.7345C1420.85 24.7345 1414.85 24.7345 1400.35 32.7345Z" fill="#BCEBFF"/>
<path d="M1760.12 88.9248C1748.35 95.5899 1720.7 101.769 1708.35 104.025C1704.29 102.463 1736.29 92.9574 1751.5 74.8655C1773.14 49.1159 1775.35 61.1937 1782.96 66.5341C1793.1 73.6425 1799.71 80.0726 1823.06 85.8005C1846.41 91.5284 1861.64 85.8005 1854.02 91.0076C1846.41 96.2146 1820.52 106.108 1806.31 107.15C1792.1 108.191 1787.02 109.233 1793.62 104.025C1800.22 98.8184 1804.79 88.9248 1799.71 91.0076C1794.64 93.0904 1768.75 101.943 1762.15 104.025C1755.56 106.108 1769.77 91.0077 1775.35 85.8005C1780.93 80.5934 1774.84 80.5934 1760.12 88.9248Z" fill="#BCEBFF"/>
<path d="M52.124 84.9248C40.3487 91.5899 12.7036 97.769 0.353032 100.025C-3.70744 98.4635 28.2875 88.9574 43.4955 70.8655C65.1406 45.1159 67.3508 57.1937 74.9642 62.5341C85.0981 69.6425 91.7136 76.0726 115.061 81.8005C138.409 87.5284 153.636 81.8005 146.022 87.0076C138.409 92.2146 112.523 102.108 98.3119 103.15C84.1002 104.191 79.0246 105.233 85.6229 100.025C92.2212 94.8184 96.7892 84.9248 91.7136 87.0076C86.638 89.0904 60.7525 97.9425 54.1542 100.025C47.556 102.108 61.7676 87.0077 67.3508 81.8005C72.9339 76.5934 66.8432 76.5934 52.124 84.9248Z" fill="#BCEBFF"/>
<path d="M416.124 32.9248C404.349 39.5899 376.704 45.769 364.353 48.0255C360.293 46.4635 392.287 36.9574 407.496 18.8655C429.141 -6.88406 431.351 5.1937 438.964 10.5341C449.098 17.6425 455.714 24.0726 479.061 29.8005C502.409 35.5284 517.636 29.8005 510.022 35.0076C502.409 40.2146 476.523 50.1082 462.312 51.1497C448.1 52.1911 443.025 53.2325 449.623 48.0255C456.221 42.8184 460.789 32.9248 455.714 35.0076C450.638 37.0904 424.753 45.9425 418.154 48.0255C411.556 50.1084 425.768 35.0077 431.351 29.8005C436.934 24.5934 430.843 24.5934 416.124 32.9248Z" fill="#BCEBFF"/>
<path d="M1652.43 19.2554C1638.38 24.7994 1627.44 24.1321 1622.71 24.2604C1617.31 24.7312 1611.23 24.2604 1617.98 23.1054C1624.74 21.9504 1638.25 18.1004 1650.4 10.0153C1662.56 1.93028 1673.37 3.47029 1678.09 6.16531C1682.82 8.86033 1699.03 16.9453 1713.89 19.2554C1728.75 21.5655 1735.5 24.2604 1724.7 25.8004C1713.89 27.3405 1704.43 29.6505 1694.98 31.5755C1685.52 33.5005 1692.28 28.4955 1699.03 24.2604C1705.78 20.0253 1698.36 20.4104 1683.5 24.2604C1668.64 28.1104 1632.84 34.6555 1646.35 29.6505C1659.86 24.6454 1660.71 23.5367 1666.61 19.2554C1674.04 13.8653 1664.59 14.4578 1652.43 19.2554Z" fill="#BCEBFF"/>
<path d="M198.429 15.2554C184.381 20.7994 173.44 20.1321 168.712 20.2604C163.309 20.7312 157.231 20.2604 163.985 19.1054C170.739 17.9504 184.246 14.1004 196.403 6.01534C208.56 -2.06972 219.366 -0.529705 224.094 2.16531C228.822 4.86033 245.031 12.9453 259.89 15.2554C274.748 17.5655 281.502 20.2604 270.696 21.8004C259.89 23.3405 250.434 25.6505 240.979 27.5755C231.523 29.5005 238.277 24.4955 245.031 20.2604C251.785 16.0253 244.356 16.4104 229.497 20.2604C214.639 24.1104 178.843 30.6555 192.351 25.6505C205.859 20.6454 206.711 19.5367 212.612 15.2554C220.042 9.86532 210.586 10.4578 198.429 15.2554Z" fill="#BCEBFF"/>
<path d="M1537.43 95.2554C1523.38 100.799 1512.44 100.132 1507.71 100.26C1502.31 100.731 1496.23 100.26 1502.98 99.1054C1509.74 97.9504 1523.25 94.1004 1535.4 86.0153C1547.56 77.9303 1558.37 79.4703 1563.09 82.1653C1567.82 84.8603 1584.03 92.9453 1598.89 95.2554C1613.75 97.5655 1620.5 100.26 1609.7 101.8C1598.89 103.341 1589.43 105.65 1579.98 107.575C1570.52 109.501 1577.28 104.495 1584.03 100.26C1590.78 96.0253 1583.36 96.4104 1568.5 100.26C1553.64 104.11 1517.84 110.656 1531.35 105.65C1544.86 100.645 1545.71 99.5367 1551.61 95.2554C1559.04 89.8653 1549.59 90.4578 1537.43 95.2554Z" fill="#BCEBFF"/>
<path d="M270.429 109.255C256.381 114.799 245.44 114.132 240.712 114.26C235.309 114.731 229.231 114.26 235.985 113.105C242.739 111.95 256.246 108.1 268.403 100.015C280.56 91.9303 291.366 93.4703 296.094 96.1653C300.822 98.8603 317.031 106.945 331.89 109.255C346.748 111.565 353.502 114.26 342.696 115.8C331.89 117.341 322.434 119.65 312.979 121.575C303.523 123.501 310.277 118.495 317.031 114.26C323.785 110.025 316.356 110.41 301.497 114.26C286.639 118.11 250.843 124.656 264.351 119.65C277.859 114.645 278.711 113.537 284.612 109.255C292.042 103.865 282.586 104.458 270.429 109.255Z" fill="#BCEBFF"/>
</svg>
