<svg width="2141" height="722" viewBox="0 0 2141 722" fill="none" xmlns="http://www.w3.org/2000/svg">
<g filter="url(#filter0_f_359_106)">
<ellipse cx="1086.5" cy="908" rx="912.5" ry="592" fill="#FFF3DB"/>
</g>
<path d="M1545.56 709.311C1524.62 690.564 1636.1 599.225 1733.69 599.225C1837.22 599.225 1880.35 584.611 2005.42 630.289C2322.29 746.011 1977.96 747.46 1894.65 730.565C1811.35 713.671 1800.64 756.179 1726.45 730.565C1652.27 704.951 1571.74 732.745 1545.56 709.311Z" fill="#154068"/>
<path d="M1321.43 691.258C1325.13 663.199 1434.26 622 1537.82 622C1647.7 622 1698.57 609.288 1824.52 669.36C1991.5 749 1780.32 726.905 1691.91 711.118C1603.5 695.332 1586.23 748.935 1507.5 725C1428.77 701.066 1317.5 721 1321.43 691.258Z" fill="#285B8A"/>
<path d="M1573.36 509.944C1573.84 510.568 1574.29 511.217 1574.81 511.813C1575.61 512.738 1576.46 513.628 1577.29 514.531C1578.09 515.406 1579.04 515.989 1580.16 516.434C1581.28 516.877 1582.33 517.554 1583.3 518.278C1583.98 518.787 1583.82 519.143 1583.15 519.692C1582.79 519.987 1582.46 520.412 1582.3 520.846C1582.07 521.518 1581.6 521.797 1580.99 521.892C1580.37 521.987 1579.74 522.003 1579.11 522.05C1578.46 522.098 1578.22 522.363 1578.42 523.051C1578.8 524.362 1579.07 525.708 1579.47 527.012C1579.58 527.355 1579.94 527.716 1580.28 527.875C1584.07 529.674 1587.97 531.164 1592.15 531.789C1592.18 531.792 1592.21 531.789 1592.24 531.798C1592.79 531.974 1593.65 531.694 1593.74 532.583C1593.82 533.404 1593.28 533.95 1592.6 534.364C1592.16 534.625 1591.58 534.862 1591.4 535.26C1591.04 536.031 1591.11 536.882 1591.59 537.662C1592.13 538.545 1592.45 539.492 1592.25 540.676C1591.78 540.675 1591.31 540.688 1590.84 540.669C1590.21 540.641 1589.83 540.899 1589.7 541.541C1589.6 542.103 1589.41 542.558 1588.65 542.455C1588.5 542.435 1588.18 542.867 1588.11 543.137C1587.97 543.611 1587.96 544.122 1587.88 544.754C1587.25 544.53 1586.71 544.339 1586.02 544.097C1585.92 544.719 1585.83 545.284 1585.73 545.911C1585.43 545.937 1585.12 545.964 1584.89 545.985C1584.3 546.971 1583.74 547.897 1583.09 548.963C1584.06 549.318 1584.91 549.629 1585.88 549.988C1585.97 549.444 1586.04 549.042 1586.1 548.64C1586.16 548.213 1586.3 547.975 1586.81 548.21C1589.71 549.551 1592.8 550.189 1595.94 550.674C1596.9 550.822 1597.68 550.588 1598.48 550.145C1600.21 549.195 1601.97 548.289 1603.71 547.364C1604.25 547.075 1604.64 546.723 1604.39 546.018C1604.14 545.326 1603.66 545.237 1603.03 545.407C1602.78 545.473 1602.5 545.445 1602.17 545.464C1602.33 544.917 1602.46 544.449 1602.63 543.821C1601.53 543.965 1600.57 544.089 1599.61 544.214C1599.59 544.178 1599.58 544.142 1599.57 544.108C1600.19 543.779 1600.81 543.451 1601.64 543.01C1600.85 542.669 1600.32 542.439 1599.54 542.097C1600.12 541.912 1600.48 541.822 1600.82 541.688C1602.99 540.837 1605.16 539.993 1607.31 539.104C1607.79 538.902 1608.26 538.581 1608.65 538.217C1609.14 537.756 1610.01 536.96 1609.89 536.72C1609.41 535.751 1608.86 534.649 1607.52 534.52C1607.3 534.497 1607.07 534.436 1606.73 534.167C1607.88 533.331 1609.03 532.492 1610.32 531.563C1609.22 531.392 1608.27 531.246 1607.1 531.063C1607.46 530.823 1607.62 530.68 1607.82 530.589C1611.27 528.968 1613.11 525.988 1614.59 522.681C1614.97 521.822 1615.36 520.897 1616 520.233C1617.08 519.088 1617.78 517.801 1618.23 516.314C1618.65 514.946 1619.16 513.605 1619.66 512.262C1619.79 511.91 1620.01 511.593 1620.19 511.262C1620.29 511.314 1620.33 511.321 1620.34 511.339C1621.07 514.33 1623.34 516.666 1623.84 519.801C1624.14 521.694 1624.75 523.606 1625.61 525.323C1626.41 526.949 1627.64 528.39 1628.81 529.799C1629.49 530.611 1630.26 530.376 1631.08 529.241C1629.85 529.203 1628.94 528.768 1628.73 527.227C1629.84 527.155 1630.99 526.955 1632.12 527.036C1633.57 527.141 1635.01 527.429 1636.45 527.721C1637.33 527.901 1637.77 527.617 1638.03 526.769C1638.82 524.195 1638.93 524.325 1636.31 524.31C1636.02 524.309 1635.72 524.261 1635.38 524.231C1635.35 522.048 1637.12 521.138 1638.21 519.76C1637.97 519.628 1637.64 519.445 1637.25 519.234C1637.98 518.719 1638.62 518.824 1639.31 519.219C1640.77 520.046 1642.25 520.824 1643.73 521.604C1644.03 521.761 1644.37 521.843 1644.69 521.959C1644.76 521.889 1644.83 521.821 1644.91 521.751C1644.28 520.703 1643.64 519.656 1642.98 518.55C1643.28 518.397 1643.58 518.248 1644.09 517.995C1643.33 517.483 1642.73 517.022 1642.07 516.644C1641.59 516.365 1641.36 516.043 1641.31 515.459C1641.22 514.244 1641.03 513.035 1640.87 511.742C1642.44 512.572 1643.98 513.387 1645.53 514.201C1645.59 514.113 1645.65 514.026 1645.71 513.94C1645.36 513.095 1644.63 512.583 1643.96 511.978C1643.23 511.324 1642.46 510.63 1642.63 509.453C1642.66 509.252 1642.46 508.945 1642.28 508.797C1641.15 507.881 1640.39 506.741 1640.02 505.184C1640.49 505.512 1640.84 505.757 1641.19 506.002C1643.22 507.43 1645.21 508.905 1647.28 510.264C1648.37 510.973 1649 510.86 1649.87 510.025C1648.55 509.259 1647.28 508.525 1645.96 507.765C1646.25 507.328 1646.61 506.807 1647.05 506.158C1646.6 506.038 1646.3 505.96 1645.94 505.866C1645.98 505.737 1646 505.59 1646.08 505.488C1648.19 502.634 1648.73 499.285 1649.16 495.886C1649.43 493.726 1649.81 491.58 1650.17 489.43C1650.23 489.034 1650.43 488.657 1650.53 488.362C1652.23 490.379 1653.89 492.4 1655.61 494.355C1656.88 495.788 1658.27 497.106 1659.54 498.537C1659.82 498.854 1659.8 499.428 1659.94 499.879C1660.03 500.206 1660.1 500.56 1660.27 500.844C1660.47 501.166 1660.77 501.426 1661.06 501.742C1660.85 501.972 1660.68 502.159 1660.5 502.358C1660.56 502.448 1660.6 502.561 1660.66 502.579C1661.35 502.774 1662.03 502.988 1662.73 503.128C1663.43 503.268 1663.99 503.392 1664.21 504.265C1664.35 504.799 1664.93 505.221 1665.32 505.701C1664.63 506.132 1664.49 506.697 1664.89 507.396C1664.59 507.356 1664.34 507.305 1664.1 507.293C1663.87 507.282 1663.65 507.312 1663.12 507.341C1663.83 508.181 1664.39 508.842 1665 509.57C1664.59 509.592 1664.27 509.609 1663.65 509.64C1664.37 510.141 1664.89 510.5 1665.21 510.72C1666.3 509.075 1667.28 507.596 1668.37 505.96C1669.38 508.047 1670.4 510.03 1671.3 512.065C1671.65 512.845 1670.51 514.35 1669.64 514.352C1668.74 514.355 1668.45 514.711 1668.65 515.558C1668.93 516.797 1669.18 518.042 1669.5 519.551C1670.05 518.879 1670.39 518.457 1670.86 517.867C1671.08 518.656 1671.3 519.265 1671.41 519.894C1671.52 520.528 1671.86 520.746 1672.46 520.698C1673.02 520.653 1673.59 520.637 1674.5 520.589C1673.81 521.607 1673.26 522.42 1672.65 523.332C1673.1 523.601 1673.67 523.942 1674.33 524.341C1673.63 525.207 1672.96 526.033 1672.3 526.856C1672.36 526.919 1672.42 526.984 1672.48 527.047C1672.63 526.983 1672.81 526.955 1672.91 526.849C1673.57 526.173 1674.2 526.43 1674.53 527.08C1675.21 528.459 1675.76 529.904 1676.32 531.34C1676.43 531.621 1676.33 531.983 1676.33 532.417C1675.55 532.209 1675.34 532.696 1675.32 533.281C1675.29 534.944 1675.3 536.606 1675.3 538.261C1677.64 538.414 1679.84 538.557 1682.17 538.709C1682.36 538.019 1682.57 537.233 1682.82 536.304C1681.93 536.224 1681.16 536.154 1680.07 536.055C1680.59 535.261 1680.96 534.652 1681.37 534.074C1681.75 533.553 1682.41 533.183 1682.06 532.11C1683.85 532.968 1685.44 533.734 1687.03 534.499C1687.1 534.441 1687.17 534.382 1687.25 534.325C1686.85 533.599 1686.46 532.872 1686.03 532.081C1686.25 531.962 1686.47 531.849 1686.92 531.61C1684.98 530.773 1684.43 529.292 1684.57 527.321C1685.64 527.872 1686.67 528.4 1687.7 528.929L1687.83 528.762C1686.51 526.821 1685.18 524.88 1683.86 522.939C1683.95 522.86 1684.04 522.782 1684.13 522.703C1684.52 522.986 1684.92 523.28 1685.32 523.549C1686.61 524.407 1687.9 525.28 1689.22 526.097C1689.66 526.373 1690.2 526.553 1690.81 525.879C1689.92 525.241 1689.07 524.635 1688.18 523.997C1688.61 523.483 1689.02 522.991 1688.05 522.695C1689.79 520.635 1690 518.131 1690.39 515.695C1690.62 514.281 1690.78 512.854 1690.98 511.437C1691.04 511.067 1691.16 510.708 1691.25 510.344C1691.37 510.274 1691.49 510.205 1691.6 510.135C1691.72 510.374 1691.8 510.651 1691.97 510.849C1693.56 512.678 1695.08 514.573 1696.79 516.28C1697.86 517.356 1698.19 518.729 1698.83 519.975C1698.97 520.236 1699.25 520.599 1699.47 520.611C1700.81 520.676 1701.36 521.679 1702.05 522.62C1701.66 523.102 1701.27 523.592 1700.8 524.194C1700.87 524.289 1701.06 524.502 1701.21 524.741C1701.31 524.899 1701.42 525.108 1701.4 525.277C1701.29 526.075 1701.28 526.073 1702.08 526.332C1702.78 525.324 1703.47 524.335 1704.36 523.06C1705.1 524.665 1705.81 526.024 1706.33 527.455C1706.57 528.111 1706.07 528.689 1705.35 528.796C1704.61 528.905 1704.46 529.33 1704.58 529.928C1704.74 530.771 1704.97 531.601 1705.17 532.436C1705.31 532.471 1705.45 532.507 1705.6 532.542C1705.74 532.285 1705.89 532.029 1706.11 531.635C1706.53 532.796 1706.58 534.225 1708.47 533.545L1708.49 533.874C1708.14 534.372 1707.8 534.87 1707.41 535.43C1707.73 535.67 1708.07 535.933 1708.46 536.223C1708.08 536.795 1707.72 537.35 1707.16 538.208C1708.79 537.587 1708.99 538.648 1709.37 539.47C1709.61 539.984 1709.86 540.504 1710.01 541.046C1710.08 541.325 1710.06 541.737 1709.9 541.958C1708.68 543.632 1709.21 545.427 1709.55 547.179C1709.62 547.531 1710.21 547.803 1710.59 548.069C1711.29 548.548 1711.27 548.794 1710.58 549.217C1710.39 549.33 1710.2 549.773 1710.27 549.897C1710.47 550.217 1710.83 550.678 1711.11 550.668C1712.99 550.607 1714.94 550.687 1716.73 550.216C1717.93 549.901 1718.93 548.782 1719.97 547.952C1720.11 547.843 1720.04 547.195 1719.85 547.02C1719.16 546.375 1718.39 545.824 1717.54 545.151C1718.27 544.543 1719.17 543.799 1720.22 542.923C1719.31 542.818 1718.56 542.729 1717.8 542.643C1717.78 542.58 1717.76 542.519 1717.74 542.456C1718.28 542.143 1718.82 541.818 1719.37 541.524C1720.34 541.003 1721.33 540.507 1722.31 539.985C1723.63 539.282 1724.38 538.179 1724.81 536.753C1725.12 535.709 1725.59 534.7 1726.08 533.719C1726.54 532.789 1726.48 531.881 1726.23 530.934C1726.12 530.492 1726.02 530.047 1726 529.565C1727.01 530.453 1727.86 531.409 1728.25 532.719C1728.48 533.515 1728.77 534.304 1729.12 535.055C1729.47 535.801 1730.04 536.286 1730.97 536.19C1731.23 536.162 1731.59 536.285 1731.79 536.464C1733.65 538.128 1735.49 539.821 1737.34 541.505C1737.32 541.617 1737.3 541.728 1737.27 541.839C1736.64 542.042 1736.03 542.289 1735.38 542.433C1734.89 542.541 1734.37 542.536 1733.87 542.545C1733.15 542.557 1732.82 542.757 1733.07 543.569C1733.6 545.278 1734.06 547.008 1734.55 548.731C1734.62 548.983 1734.67 549.241 1734.77 549.69C1733.33 549.041 1732.08 548.244 1730.38 548.408C1730.64 548.793 1730.82 549.039 1730.97 549.298C1731.38 549.953 1731.85 550.577 1732.14 551.278C1732.45 552.015 1733.04 552.152 1733.69 552.32C1734.84 552.622 1735.99 552.938 1737.13 553.291C1737.48 553.402 1737.79 553.654 1738.26 553.92C1737.95 554.069 1737.79 554.196 1737.62 554.221C1737.09 554.297 1736.6 554.282 1736.36 554.973C1736.29 555.204 1735.64 555.256 1735.24 555.364C1733.91 555.734 1732.57 556.053 1731.26 556.478C1730.84 556.613 1730.16 556.767 1730.38 557.491C1730.59 558.167 1731.04 558.68 1731.83 558.547C1733.22 558.318 1734.6 558.073 1735.97 557.761C1737.22 557.476 1738.45 557.089 1739.69 556.766C1740.02 556.68 1740.37 556.662 1740.71 556.613L1740.84 556.832C1740.55 557.091 1740.24 557.329 1739.97 557.612C1739.68 557.925 1739.46 558.314 1739.16 558.604C1738.87 558.871 1738.5 559.045 1738.17 559.267C1737.73 559.564 1737.08 559.775 1736.9 560.188C1736.59 560.93 1736.97 561.611 1737.64 562.127C1738.44 562.75 1739.22 563.404 1739.96 564.094C1740.7 564.779 1740.58 564.995 1739.7 565.357C1738.78 565.731 1737.94 566.272 1737.06 566.742L1737.09 567.121C1737.96 567.54 1738.83 567.982 1739.72 568.373C1740.59 568.753 1741.48 569.08 1742.53 569.498C1741.48 570.243 1740.44 570.226 1739.44 570.415C1739.06 570.487 1738.39 570.674 1738.38 570.848C1738.33 571.515 1738.39 572.244 1739.29 572.457C1739.6 572.53 1739.87 572.771 1740.17 572.885C1740.94 573.171 1741.69 573.525 1742.48 573.677C1744.29 574.024 1745.7 575.04 1747.14 576.077C1746.76 576.47 1746.92 577.082 1747.6 577.913C1747.18 578.192 1746.76 578.472 1746.33 578.753C1746.67 579.185 1747.01 579.618 1747.47 580.191L1743.37 580.178C1743.13 580.583 1742.82 581.079 1742.52 581.576C1742.3 582.573 1742.74 583.168 1743.65 583.645C1745.51 584.622 1747.11 584.101 1748.6 582.872C1749.21 582.381 1749.78 581.851 1750.39 581.375C1750.68 581.152 1751.03 581.017 1751.52 580.756C1751.38 582.43 1749.73 582.614 1749.14 583.719C1749.33 583.846 1749.49 583.952 1749.7 584.093C1749.57 584.234 1749.47 584.385 1749.33 584.479C1748.6 584.978 1748.6 585.513 1749.12 586.197C1749.99 587.332 1750.8 588.512 1751.7 589.755C1751.49 589.825 1751.34 589.885 1751.19 589.926C1749.82 590.284 1749.56 590.671 1749.98 592.023C1750.73 594.479 1752.06 596.449 1754.5 597.619C1757.78 599.195 1760.99 600.921 1764.23 602.589C1764.67 602.819 1765.1 603.086 1765.47 603.46C1764.39 603.125 1763.3 602.788 1762.21 602.452C1762.17 602.52 1762.13 602.588 1762.09 602.656C1762.37 602.971 1762.65 603.286 1762.94 603.601C1762.91 603.661 1762.87 603.72 1762.84 603.779C1762.13 603.484 1761.42 603.189 1760.71 602.895C1760.65 602.948 1760.58 603.002 1760.52 603.055C1761.21 604.02 1761.91 604.984 1762.6 605.948C1762.5 606.054 1762.41 606.16 1762.32 606.265C1761.47 605.756 1760.63 605.248 1759.78 604.739C1759.71 604.823 1759.64 604.907 1759.57 604.991C1760.68 606.048 1761.8 607.106 1762.9 608.145C1762.27 609.482 1760.15 610.107 1761.17 612.209C1761.59 611.848 1761.92 611.57 1762.28 611.261C1763.17 612.052 1762.49 614.024 1764.65 613.665C1764.27 614.285 1764.06 614.621 1763.85 614.964C1763.38 615.748 1763.54 616.097 1764.46 616.217C1764.78 616.259 1765.12 616.228 1765.44 616.252C1765.76 616.276 1766.08 616.329 1766.22 616.346C1766.05 617.123 1765.7 617.845 1765.79 618.504C1765.89 619.192 1766.42 619.818 1766.82 620.595C1766.33 620.734 1765.76 620.953 1765.17 621.046C1764.46 621.159 1764.39 621.469 1764.73 622.014C1765.03 622.482 1765.31 622.953 1765.66 623.525C1763.86 623.927 1762.92 622.287 1761.27 622.104C1761.44 622.939 1761.59 623.645 1761.76 624.444C1761.04 624.833 1760.23 625.179 1759.53 625.68C1759.08 626 1758.85 625.852 1758.52 625.599C1758.03 625.217 1757.55 624.807 1757 624.514C1756.76 624.388 1756.39 624.528 1756.08 624.549C1756.17 624.799 1756.29 625.043 1756.36 625.3C1756.43 625.566 1756.45 625.844 1756.5 626.117C1756.25 626.147 1756 626.225 1755.76 626.192C1755.47 626.152 1755.18 625.927 1754.91 625.951C1754.61 625.977 1754.17 626.132 1754.08 626.349C1753.82 626.956 1753.47 626.997 1752.94 626.792C1752.25 626.528 1751.55 626.294 1750.78 626.023C1750.7 626.432 1750.63 626.767 1750.53 627.28C1749.03 626.06 1747.5 626.777 1745.89 626.97C1746.39 626.406 1746.95 625.88 1747.38 625.265C1747.64 624.889 1747.97 624.129 1747.81 623.972C1747.39 623.531 1746.75 623.262 1746.16 623.046C1746.01 622.996 1745.64 623.377 1745.48 623.631C1745.27 623.975 1745.17 624.386 1745.01 624.797C1744.18 624.125 1743.39 623.485 1742.6 622.845C1742.51 622.91 1742.41 622.976 1742.32 623.04C1742.42 623.699 1742.51 624.36 1742.63 625.014C1742.76 625.714 1742.67 626.218 1741.86 626.476C1741.63 626.553 1741.41 627.044 1741.39 627.358C1741.34 628.122 1741.07 628.676 1740.31 628.977C1739.45 628.332 1738.6 627.687 1737.67 626.986C1737.15 627.393 1736.52 627.881 1735.78 628.457C1735.31 627.583 1734.88 626.792 1734.33 625.796C1734.04 626.61 1733.88 627.24 1733.58 627.801C1733.44 628.082 1733.05 628.239 1732.78 628.452C1732.62 628.126 1732.33 627.8 1732.34 627.475C1732.34 626.039 1732.13 625.879 1730.81 626.501C1729.54 627.097 1729.56 627.099 1730.06 628.415C1730.14 628.616 1730.05 629.039 1729.89 629.139C1729.56 629.352 1729.13 629.532 1728.75 629.513C1728.41 629.497 1728.08 629.198 1727.62 628.958C1727.44 630.008 1727.28 630.926 1727.1 631.949C1726.68 631.761 1726.39 631.638 1726.11 631.499C1725.05 630.977 1724.86 631.089 1724.75 632.31C1724.74 632.451 1724.71 632.591 1724.67 632.841C1724.42 632.653 1724.23 632.534 1724.07 632.383C1722.81 631.202 1722.65 631.214 1721.9 632.369C1721.11 632.417 1720.46 632.458 1719.68 632.506C1719.52 632.288 1719.25 631.914 1718.9 631.446C1718.29 632.195 1717.73 632.871 1717.05 633.695C1716.85 633.239 1716.74 632.946 1716.6 632.671C1716.23 631.953 1715.91 631.275 1714.87 631.224C1714.42 631.201 1714 630.593 1713.49 630.193C1713.21 630.42 1712.88 630.695 1712.53 630.983C1711.4 629.976 1710.23 630.468 1709.14 630.969C1708.24 631.377 1707.43 631.96 1706.6 632.487C1706.04 632.839 1705.59 632.78 1705.05 632.385C1704.56 632.025 1703.96 631.786 1703.38 631.576C1702.92 631.41 1702.41 631.352 1702.25 632.041C1702.22 632.156 1702.07 632.313 1701.96 632.329C1700.31 632.567 1698.65 632.793 1697 632.998C1696.8 633.022 1696.6 632.911 1696.25 632.827C1696.48 632.253 1696.69 631.735 1696.92 631.168C1696.72 631.105 1696.57 631.006 1696.45 631.029C1694.79 631.336 1693.13 631.668 1691.46 631.974C1691.21 632.022 1690.82 632.087 1690.69 631.954C1690.2 631.476 1689.74 631.627 1689.2 631.814C1688.57 632.033 1687.91 632.177 1687.27 632.352C1687.22 632.275 1687.17 632.196 1687.12 632.118C1687.31 631.878 1687.45 631.586 1687.69 631.406C1688.98 630.399 1690.28 629.403 1691.6 628.44C1692.03 628.125 1692.53 627.902 1693.01 627.665C1694.35 627.007 1694.88 625.973 1694.5 624.404C1694.03 624.462 1693.54 624.566 1693.05 624.563C1692.77 624.562 1692.5 624.36 1692.22 624.281C1691.89 624.188 1691.47 623.973 1691.25 624.096C1691.02 624.228 1690.82 624.741 1690.9 625.011C1691.06 625.6 1691.4 626.141 1691.72 626.828C1689.89 628.111 1688.03 629.412 1686.17 630.708C1684.94 631.562 1683.65 632.332 1682.5 633.285C1681.6 634.037 1680.82 634.962 1680.1 635.897C1679.38 636.841 1679.36 636.891 1678.32 636.414C1677.86 636.206 1677.1 635.859 1676.91 636.036C1676.34 636.559 1675.93 637.286 1675.6 638C1675.52 638.163 1675.95 638.735 1676.26 638.869C1677.16 639.263 1678.11 639.53 1679.05 639.854C1679.4 639.975 1679.74 640.114 1680.09 640.245C1680.08 640.352 1680.07 640.46 1680.06 640.568C1679.15 640.565 1678.23 640.53 1677.32 640.567C1675.34 640.645 1675.1 640.883 1674.89 642.835C1674.83 643.454 1674.97 644.205 1673.98 644.292C1673.93 644.297 1673.81 644.823 1673.89 645.047C1674.06 645.518 1674.33 645.948 1674.68 646.619C1674.02 646.364 1673.54 646.195 1673.07 645.996C1672.2 645.626 1672.12 645.672 1672.03 646.584C1672 646.892 1671.91 647.195 1671.8 647.768C1671.15 646.944 1670.65 646.314 1670.15 645.686C1670.06 645.694 1669.98 645.703 1669.89 645.712C1669.75 646.591 1669.6 647.47 1669.44 648.435C1668.84 647.642 1668.31 646.858 1667.69 646.148C1667.4 645.814 1666.94 645.622 1666.56 645.366C1666.45 645.719 1666.35 646.076 1666.23 646.426C1666.2 646.528 1666.11 646.614 1665.97 646.827C1665.58 645.792 1665.24 644.859 1664.84 643.804C1664.41 644.304 1664.06 644.703 1663.82 644.988C1662.48 644.102 1661.21 643.188 1659.87 642.387C1658.96 641.84 1658.8 641.964 1658.57 642.986C1658.15 644.931 1656.29 645.991 1654 645.381C1652.82 645.065 1651.74 644.371 1650.51 643.796C1649.18 645.806 1647.77 647.952 1646.35 650.097C1646.23 650.071 1646.11 650.047 1645.98 650.022C1645.68 648.533 1645.38 647.044 1645.07 645.555C1644.96 645.565 1644.86 645.576 1644.75 645.586C1644.02 646.51 1644.33 647.631 1644.14 648.783C1643.52 647.817 1642.9 646.849 1642.17 645.716C1641.49 646.662 1640.92 647.448 1640.3 648.321C1639.56 646.275 1638.85 644.293 1638.07 642.099C1636.85 643.364 1636.21 645.14 1633.99 644.616C1634.36 643.858 1634.67 643.142 1635.04 642.452C1635.89 640.859 1635.82 640.706 1634.03 640.776C1632.59 640.833 1631.17 640.972 1629.55 641.089C1629.98 640.423 1630.32 639.853 1630.71 639.307C1631.05 638.814 1630.97 638.512 1630.4 638.295C1629.34 637.891 1628.29 637.463 1627.23 637.038C1626.56 636.764 1626.15 636.295 1625.91 635.576C1625.71 635.01 1625.3 634.484 1624.88 634.036C1624.01 633.095 1623.06 632.221 1622.16 631.308C1621.87 631.022 1621.63 630.696 1621.28 630.293C1623.53 629.761 1625.59 630.57 1627.72 630.561C1627.59 629.55 1626.86 629.565 1626.29 629.517C1625.55 629.455 1624.98 629.321 1625.07 628.222C1624.4 628.599 1623.86 628.903 1623.21 629.265C1622.72 628.253 1622.27 627.307 1621.71 626.149C1621.36 627.042 1621.16 627.727 1620.82 628.34C1620.65 628.659 1620.24 628.852 1619.94 629.101C1619.77 628.763 1619.48 628.437 1619.45 628.087C1619.27 626.268 1619.27 626.25 1617.54 626.93C1616.29 627.422 1616.24 627.527 1616.73 628.735C1616.91 629.168 1616.96 629.511 1616.52 629.828C1616.07 630.15 1615.68 630.538 1615.09 630.114C1614.84 629.934 1614.56 629.791 1614.29 629.631C1614.22 629.697 1614.16 629.761 1614.09 629.828C1614.5 630.342 1614.94 630.834 1615.3 631.379C1615.61 631.859 1615.84 632.4 1616.1 632.916C1615.55 633.099 1615.01 633.399 1614.44 633.44C1613.59 633.504 1612.72 633.365 1611.86 633.359C1611.37 633.357 1610.87 633.449 1610.17 633.519C1609.81 633.261 1609.26 632.8 1608.65 632.455C1607.67 631.908 1607.46 632.756 1607.24 633.449C1606.15 632.524 1606.05 632.522 1604.97 633.424C1604.7 632.893 1604.44 632.383 1604.09 631.692C1603.25 632.591 1602.51 633.389 1601.8 634.161C1601.59 634.024 1601.5 633.995 1601.5 633.961C1601.4 632.382 1600.31 631.794 1598.98 631.476C1598.23 631.296 1597.47 631.137 1596.7 631.074C1595.96 631.014 1595.33 631.15 1595.03 632.05C1594.73 632.956 1593.88 633.004 1593.07 632.823C1591.79 632.541 1590.56 632.108 1589.19 632.479C1588.56 632.652 1588.27 632.915 1588.16 633.501C1588.07 633.941 1587.96 634.377 1587.84 634.805C1587.53 635.862 1587.13 636.02 1586.26 635.332C1585.56 634.78 1584.93 634.13 1584.29 633.504C1583.86 633.088 1583.47 632.636 1582.99 632.121C1582.55 632.856 1582.15 633.542 1581.73 634.212C1580.14 636.735 1579.15 636.839 1577.1 634.713C1576.81 634.412 1576.54 634.096 1576.24 633.806C1575.59 633.184 1575.38 633.241 1575.11 634.116C1574.95 634.629 1574.86 635.164 1574.7 635.673C1574.55 636.125 1574.39 636.582 1574.16 636.991C1573.56 638.032 1573.02 638.113 1572.08 637.36C1571.72 637.07 1571.35 636.783 1570.87 636.401C1570.34 637.521 1569.88 638.498 1569.33 639.669C1568.83 639.08 1568.46 638.639 1568.09 638.193C1567.45 637.428 1567.2 637.409 1566.5 638.073C1565.77 638.764 1565.52 638.724 1565.18 637.723C1564.8 636.632 1564.51 635.513 1564.09 634.106C1563.26 635.103 1562.57 635.936 1561.88 636.768C1561.76 636.707 1561.64 636.645 1561.52 636.584C1561.19 635.002 1560.86 633.419 1560.49 631.68C1560.04 631.973 1559.7 632.148 1559.42 632.384C1558.59 633.069 1557.79 633.799 1556.95 634.464C1556.67 634.69 1556.27 634.776 1555.93 634.926C1555.83 634.57 1555.67 634.22 1555.64 633.859C1555.59 633.356 1555.66 632.839 1555.61 632.337C1555.57 631.968 1555.42 631.613 1555.31 631.251C1554.96 631.376 1554.57 631.438 1554.27 631.638C1553.38 632.238 1552.53 632.905 1551.65 633.518C1551.37 633.709 1551.03 633.812 1550.47 634.075C1550.75 632.9 1550.97 631.979 1551.23 630.918C1549.88 631.549 1549.19 633.04 1547.66 632.969C1547.61 632.841 1547.57 632.788 1547.57 632.732C1547.53 632.267 1547.51 631.804 1547.48 631.339C1547.04 631.454 1546.6 631.637 1546.15 631.659C1545.92 631.671 1545.53 631.455 1545.44 631.246C1545.24 630.732 1545.17 630.163 1544.98 629.356C1544.33 630.812 1543.44 630.278 1542.58 629.916C1541.99 629.667 1541.39 629.412 1540.67 629.104C1540.61 629.664 1540.56 630.084 1540.49 630.691C1539.87 630.434 1539.35 630.159 1538.8 630.009C1538.32 629.876 1537.78 629.781 1537.29 629.842C1535.87 630.014 1534.46 630.291 1533.05 630.486C1532.71 630.534 1532.34 630.427 1531.84 630.375C1532.8 628.769 1534.41 628.073 1535.69 627.03C1535.64 626.927 1535.6 626.827 1535.55 626.724C1535 626.909 1534.42 627.046 1533.9 627.292C1533.47 627.495 1533.22 627.444 1532.92 627.079C1532.48 626.55 1531.99 626.06 1531.5 625.586C1531.28 625.377 1530.98 625.253 1530.72 625.09C1530.64 625.13 1530.56 625.169 1530.49 625.208C1530.58 625.955 1530.68 626.702 1530.77 627.449C1530.81 627.803 1530.89 628.164 1530.86 628.516C1530.79 629.275 1530.25 629.577 1529.37 629.387C1529.26 630.024 1529.24 630.69 1529.03 631.293C1528.61 632.555 1527.98 632.675 1527.08 631.75C1526.98 631.645 1526.83 631.501 1526.72 631.512C1525.95 631.59 1525.6 631.083 1525.27 630.523C1525.03 630.103 1524.7 630.048 1524.3 630.346C1523.69 630.811 1523.06 631.262 1522.3 631.816C1521.79 630.743 1521.32 629.747 1520.73 628.494C1520.46 629.173 1520.31 629.603 1520.11 630.016C1519.9 630.471 1519.72 630.962 1519.4 631.335C1519.21 631.553 1518.76 631.697 1518.48 631.637C1518.31 631.599 1518.15 631.123 1518.13 630.832C1518.08 630.167 1518.12 629.498 1518.12 628.608C1516.92 629.108 1515.89 629.538 1514.78 630.003C1515.16 630.731 1515.47 631.305 1515.81 631.947C1515.29 632.352 1514.76 632.769 1514.25 633.164C1513.65 632.807 1513.11 632.479 1512.53 632.132C1512.24 633.354 1511.98 634.434 1511.69 635.637C1511.19 635.426 1510.74 635.232 1510.28 635.046C1509.15 634.583 1508.98 634.688 1508.93 635.878C1508.92 636.164 1508.89 636.449 1508.86 636.734L1508.58 636.945C1508.28 636.558 1508.02 636.132 1507.67 635.792C1506.54 634.672 1505.9 634.846 1505.43 636.365C1505.38 636.526 1505.32 636.684 1505.26 636.861C1504.2 635.548 1503.67 635.521 1502.85 636.768C1502.72 636.435 1502.6 636.133 1502.48 635.833C1502.12 634.956 1501.79 634.892 1501.15 635.614C1500.81 635.993 1500.51 636.407 1500.22 636.823C1500.01 637.113 1499.85 637.428 1499.66 637.733C1499.56 637.659 1499.45 637.585 1499.34 637.513C1499.04 636.819 1498.74 636.123 1498.44 635.428C1498.2 634.854 1497.85 634.527 1497.14 634.589C1496.84 634.615 1496.37 634.375 1496.22 634.116C1495.77 633.335 1495.26 633.319 1494.61 633.795C1494.35 633.979 1494.07 634.127 1493.72 634.343C1493.44 633.165 1492.64 633.211 1491.86 633.417C1491.03 633.635 1490.22 633.943 1489.43 634.291C1488.81 634.567 1488.21 634.924 1487.64 635.317C1486.51 636.111 1485.5 636.451 1484.38 635.2C1484 634.778 1483.2 634.713 1482.57 634.56C1482.34 634.508 1481.92 634.605 1481.84 634.766C1481.36 635.628 1480.52 635.633 1479.74 635.727C1478.34 635.899 1476.94 636.072 1475.54 636.131C1474.13 636.191 1473.96 635.848 1474.65 634.656C1474.79 634.412 1474.9 634.151 1475.1 633.749C1474.66 633.714 1474.38 633.634 1474.11 633.678C1472.54 633.932 1470.98 634.205 1469.43 634.495C1469.08 634.56 1468.76 634.774 1468.41 634.824C1468.12 634.866 1467.67 634.881 1467.53 634.711C1467.11 634.177 1466.66 634.238 1466.1 634.393C1465.01 634.691 1463.91 634.921 1462.77 635.072C1464.48 633.336 1466.07 631.531 1468.33 630.517C1469.36 630.052 1470.36 629.493 1471.33 628.907C1472.42 628.244 1472.81 627.161 1472.39 625.972C1472.31 625.758 1471.87 625.537 1471.61 625.553C1471.08 625.582 1470.55 625.767 1469.96 625.79C1470.71 624.453 1472.42 624.012 1472.97 622.563C1471.66 621.742 1470.42 621.788 1469.13 622.411C1468.36 622.784 1467.51 623.041 1466.68 623.251C1466.22 623.366 1465.7 623.269 1464.99 623.267C1465.7 622.684 1466.22 622.258 1466.8 621.781C1466.54 621.617 1466.38 621.521 1465.93 621.245C1466.51 620.888 1466.96 620.604 1467.42 620.32C1467.37 620.226 1467.33 620.133 1467.28 620.039C1466.7 619.946 1466.11 619.853 1465.38 619.735C1465.66 619.469 1465.82 619.252 1466.04 619.131C1467.35 618.392 1468.68 617.669 1470.01 616.951C1470.61 616.624 1471.26 616.37 1471.82 615.978C1472.04 615.817 1472.07 615.381 1472.19 615.069C1472.11 615.015 1472.02 614.961 1471.93 614.909C1472.15 614.818 1472.36 614.729 1472.57 614.636C1474.16 613.959 1475.81 613.408 1477.31 612.57C1479.12 611.554 1480.93 610.546 1482.99 610.236C1485.11 609.92 1485.82 608.408 1486.36 606.593C1485.82 606.953 1485.28 607.312 1484.5 607.828C1484.65 607.277 1484.73 606.962 1484.82 606.646C1484.94 606.275 1485.11 605.913 1485.16 605.534C1485.2 605.206 1485.1 604.861 1485.07 604.523C1484.72 604.628 1484.31 604.654 1484.04 604.854C1483.53 605.211 1483.11 605.672 1482.65 606.088C1481.41 604.785 1480.82 604.824 1479.74 606.232C1479.1 607.054 1478.48 607.881 1477.73 608.854C1477.24 608.251 1476.86 607.787 1476.35 607.157C1475.66 608.663 1475.02 610.057 1474.39 611.452L1474.15 611.399C1473.96 610.817 1473.78 610.233 1473.58 609.568C1471.74 610.254 1470.61 611.751 1469.19 612.893C1468.53 612.315 1468.73 611.799 1469.08 611.267C1469.54 610.59 1470 609.907 1470.45 609.228C1470.39 609.14 1470.34 609.052 1470.28 608.964C1469.75 609.052 1469.22 609.14 1468.63 609.237C1468.06 608.165 1469.05 607.831 1469.82 607.099C1468.87 606.994 1468.14 606.913 1467.1 606.796C1468 606.031 1468.74 605.403 1469.57 604.705C1469.03 604.627 1468.57 604.557 1467.91 604.462C1468.24 604.296 1468.41 604.17 1468.61 604.11C1470.56 603.518 1472.25 602.488 1473.83 601.214C1475.4 599.947 1477.06 598.9 1479.21 598.795C1479.8 598.766 1480.36 598.181 1481.01 597.815C1480.73 597.452 1480.57 597.25 1480.35 596.957C1483.2 596.009 1486.23 595.788 1488.82 594.29C1488.84 594.186 1488.85 594.084 1488.87 593.98C1487.73 593.443 1486.59 592.906 1485.37 592.334C1486.03 592 1486.63 591.697 1487.23 591.392C1488.41 590.79 1488.67 590.055 1488.12 588.833C1487.65 587.794 1487.67 587.839 1488.69 587.366C1490.81 586.389 1492.9 585.363 1494.99 584.346C1495.28 584.209 1495.53 584.005 1495.79 583.83C1495.79 583.746 1495.78 583.661 1495.78 583.577C1493.34 583.214 1490.91 582.851 1488.47 582.488C1488.47 582.384 1488.48 582.282 1488.48 582.178C1490.5 581.514 1492.8 581.519 1494.48 579.853C1494.23 579.567 1494.04 579.351 1493.75 579.009C1494.43 578.809 1495.03 578.676 1495.59 578.446C1495.94 578.305 1496.51 577.944 1496.48 577.802C1496.38 577.366 1496.12 576.828 1495.76 576.621C1495.1 576.249 1494.32 576.09 1493.39 575.77C1496.24 573.989 1498.85 572.22 1500.68 569.605C1500.62 569.515 1500.56 569.425 1500.5 569.335C1499.98 569.54 1499.46 569.746 1498.68 570.054C1499.17 569.288 1499.52 568.741 1499.99 568.01C1499.18 567.929 1498.56 567.866 1497.87 567.795C1498.94 567.231 1499.96 566.691 1500.99 566.152C1500.57 565.21 1499.99 564.985 1499.23 565.032C1497.92 565.108 1496.61 565.165 1495.33 565.23C1495.33 563.12 1496.93 562.292 1498.34 561.326C1498.3 561.223 1498.26 561.121 1498.22 561.018C1496.84 560.854 1495.45 560.692 1493.92 560.511C1495.29 557.683 1497.89 556.142 1499.79 553.862C1498.74 553.107 1497.53 553.164 1496.44 552.877C1495.11 552.527 1494.31 553.558 1493.07 554.217C1493.23 553.397 1493.33 552.812 1493.49 551.96C1491.86 552.763 1490.35 553.501 1488.85 554.24C1488.77 554.137 1488.69 554.035 1488.61 553.932C1489.53 552.921 1490.45 551.909 1491.38 550.876C1491.25 550.775 1491.18 550.68 1491.12 550.682C1490.2 550.704 1489.4 550.696 1489.61 549.341C1489.67 548.961 1489.16 548.493 1488.86 547.978C1489.67 548.042 1490.45 548.147 1491.23 548.149C1491.82 548.151 1492.49 548.178 1492.98 547.921C1495.2 546.761 1497.37 545.511 1499.55 544.274C1499.95 544.051 1500.44 543.853 1500.16 543.183C1499.91 542.586 1499.61 542.219 1498.89 542.385C1498.55 542.463 1498.19 542.424 1497.69 542.446C1497.85 541.826 1497.98 541.307 1498.15 540.62C1496.86 540.853 1495.71 541.061 1494.55 541.271C1494.53 541.219 1494.51 541.167 1494.49 541.115C1495.2 540.744 1495.9 540.373 1496.61 540.001L1496.56 539.72C1496.02 539.483 1495.47 539.246 1494.76 538.938C1495.3 538.741 1495.67 538.586 1496.06 538.465C1499.04 537.528 1501.86 536.244 1504.45 534.477C1506.08 533.362 1506.14 532.947 1504.72 531.611C1504.1 531.035 1503.26 530.705 1502.39 530.184C1503.46 529.338 1504.6 528.435 1505.75 527.532C1505.72 527.437 1505.7 527.343 1505.68 527.248C1504.74 527.157 1503.8 527.068 1502.86 526.978C1502.84 526.92 1502.81 526.862 1502.79 526.805C1503.1 526.616 1503.4 526.405 1503.72 526.242C1505.32 525.434 1506.93 524.637 1508.54 523.843C1510.1 523.07 1511.05 521.84 1511.6 520.178C1512.05 518.804 1512.7 517.487 1513.33 516.178C1513.81 515.174 1513.85 514.176 1513.58 513.131C1513.43 512.561 1513.3 511.986 1513.26 511.367C1514.46 512.322 1515.5 513.374 1515.93 514.89C1516.19 515.779 1516.4 516.683 1516.71 517.553C1517.14 518.777 1517.94 519.546 1519.36 519.571C1519.79 519.58 1520.29 519.849 1520.61 520.155C1522.75 522.201 1524.84 524.288 1526.95 526.362C1526.92 526.479 1526.9 526.596 1526.87 526.712C1525.78 526.903 1524.69 527.106 1523.59 527.275C1523.24 527.329 1522.87 527.285 1522.51 527.295C1521.49 527.322 1521.37 527.512 1521.64 528.488C1522.22 530.678 1522.77 532.873 1523.33 535.068C1523.41 535.35 1523.42 535.648 1523.5 536.133C1521.65 535.221 1519.96 534.313 1517.87 534.439C1518.3 534.875 1518.78 535.271 1519.14 535.757C1519.53 536.293 1520.01 536.884 1520.1 537.503C1520.26 538.545 1520.88 538.845 1521.74 539.106C1523.65 539.683 1525.53 540.34 1527.42 540.978C1527.6 541.039 1527.76 541.18 1528.09 541.377C1527.4 541.477 1526.88 541.534 1526.37 541.632C1525.84 541.73 1525.18 541.653 1525.23 542.552C1525.24 542.698 1524.71 542.969 1524.4 543.015C1523.81 543.103 1523.18 542.963 1522.61 543.108C1521.15 543.482 1519.72 543.937 1518.3 544.423C1518.09 544.493 1517.86 544.93 1517.89 545.16C1517.98 545.763 1518.07 546.517 1518.9 546.529C1519.91 546.543 1520.95 546.53 1521.93 546.337C1524.31 545.872 1526.66 545.289 1529.02 544.774C1529.53 544.664 1530.05 544.641 1530.57 544.578C1530.62 544.682 1530.67 544.788 1530.72 544.892C1529.96 545.457 1529.2 546.024 1528.39 546.626C1528.54 546.858 1528.69 547.09 1528.91 547.452C1528.11 547.658 1527.37 547.815 1526.65 548.043C1526.01 548.244 1525.16 548.379 1525.8 549.399C1525.82 549.422 1525.84 549.464 1525.83 549.482C1525.12 550.662 1526.27 550.914 1526.83 551.429C1527.65 552.176 1528.53 552.852 1529.33 553.616C1529.6 553.873 1529.92 554.379 1529.83 554.632C1529.73 554.92 1529.21 555.165 1528.84 555.235C1527.63 555.465 1526.7 556.083 1525.79 557.075C1527.65 558.859 1530.29 558.966 1532.34 560.448C1531.08 561.051 1529.8 561.261 1528.48 561.323C1527.99 561.347 1527.17 560.953 1527.14 561.673C1527.12 562.312 1527.53 563.097 1528 563.589C1528.51 564.125 1529.29 564.42 1529.98 564.78C1530.39 564.996 1530.84 565.265 1531.29 565.283C1532.91 565.351 1534.29 566.019 1535.61 566.863C1536.41 567.374 1537.21 567.891 1538.14 568.496C1537.82 568.601 1537.55 568.645 1537.33 568.777C1537.18 568.866 1537.11 569.079 1537 569.237C1537.16 569.327 1537.32 569.491 1537.49 569.499C1538.61 569.544 1542.05 567.91 1542.87 566.875C1541.87 566.703 1540.96 566.546 1539.84 566.354C1540.24 566.027 1540.49 565.765 1540.79 565.574C1541.65 565.027 1542.54 564.531 1543.39 563.975C1544.47 563.27 1545.42 562.461 1546.02 561.244C1546.47 560.35 1547.21 559.605 1547.82 558.791C1548.66 557.659 1548.59 557.479 1547.23 557.261C1546.61 557.162 1545.97 557.121 1545.37 556.95C1544.99 556.843 1544.67 556.544 1544.32 556.333L1544.38 556.046C1543.92 556.238 1543.47 556.467 1543 556.614C1542.07 556.904 1541.13 557.244 1540.17 557.383C1539.31 557.508 1539.01 557.085 1538.98 556.227C1538.94 555.177 1539.23 554.445 1540.32 554.019C1541.35 553.622 1542.31 553.044 1543.23 552.429C1543.61 552.168 1543.93 551.636 1544.02 551.18C1544.06 550.972 1543.46 550.622 1543.12 550.382C1542.86 550.2 1542.55 550.091 1542.23 549.931C1542.33 549.726 1542.39 549.592 1542.46 549.47C1543.92 547.039 1543.93 547.037 1543.51 544.321C1543.48 544.072 1543.17 543.825 1542.94 543.659C1542.75 543.531 1542.48 543.539 1542.25 543.474C1542.03 543.41 1541.81 543.329 1541.53 543.235C1542.3 541.07 1544.56 539.871 1545.09 537.499C1542.92 537.493 1540.9 538.547 1538.74 537.824C1539.01 537.441 1539.24 537.113 1539.58 536.632C1538.86 536.504 1538.27 536.4 1537.42 536.246C1537.94 535.95 1538.25 535.757 1538.57 535.589C1539.66 535.029 1540.78 534.521 1541.83 533.901C1542.29 533.631 1542.61 533.119 1543.02 532.758C1543.3 532.512 1543.62 532.232 1543.96 532.15C1546.05 531.657 1548.16 531.224 1550.26 530.755C1550.76 530.643 1551.24 530.46 1551.74 530.311C1551.73 530.199 1551.72 530.088 1551.72 529.979C1551.04 529.824 1550.36 529.662 1549.68 529.52C1549.3 529.442 1548.91 529.406 1548.53 529.333C1547.26 529.092 1547.28 528.979 1547.15 527.721C1547.05 526.812 1546.92 525.989 1547.49 525.183C1547.57 525.074 1547.33 524.637 1547.14 524.464C1546.35 523.753 1545.51 523.086 1544.65 522.372C1544.9 522.063 1545.13 521.767 1545.33 521.517C1544.58 520.848 1543.84 520.196 1543.01 519.467C1543.5 519.014 1543.8 518.737 1544.1 518.457C1545.48 517.176 1546.88 515.919 1548.22 514.6C1548.68 514.147 1549.05 513.577 1549.36 513.004C1550.09 511.64 1549.92 510.645 1548.85 509.502C1548.59 509.221 1548.3 508.933 1548.13 508.597C1547.76 507.865 1548.31 506.118 1549.08 505.697C1549.78 505.315 1550.55 505.07 1551.27 504.72C1552.39 504.172 1553.52 503.628 1554.59 502.996C1555.01 502.752 1555.33 502.302 1555.6 501.885C1556.23 500.93 1556.16 500.493 1555.36 499.654C1555.79 499.017 1556.5 498.484 1556.14 497.499C1556.06 497.292 1556.63 496.879 1556.85 496.53C1557.15 496.071 1557.8 495.678 1557.22 494.995C1557.17 494.941 1557.25 494.774 1557.29 494.663C1557.64 493.527 1558 492.39 1558.36 491.257C1558.66 490.353 1559.05 489.477 1558.66 488.483C1558.57 488.249 1558.68 487.876 1558.81 487.623C1560.47 484.338 1560.69 480.756 1561.03 477.186C1561.17 475.729 1561.6 474.298 1561.9 472.856L1562.26 472.837C1562.45 473.247 1562.64 473.655 1562.82 474.068C1564.08 477.029 1565.33 480 1566.62 482.946C1566.95 483.678 1567.44 484.334 1567.86 485.023C1568.42 485.946 1569.1 486.546 1570.33 486.417C1570.76 486.369 1571.37 486.729 1571.71 487.089C1572.58 488.028 1573.34 489.068 1574.14 490.069C1575.66 491.953 1577.12 493.885 1578.71 495.703C1579.88 497.041 1580.63 498.341 1580.46 500.272C1580.35 501.48 1580.92 502.831 1581.46 503.993C1582.29 505.788 1582.13 506.581 1580.34 507.416C1579.75 507.694 1579.28 507.993 1579.18 508.743C1579.08 509.518 1578.44 509.821 1577.75 509.848C1576.88 509.879 1576.01 509.808 1575.15 509.77C1574.62 509.746 1574.08 509.705 1573.55 509.671C1573.49 509.755 1573.44 509.841 1573.38 509.926L1573.36 509.944ZM1547.2 570.423C1547.13 570.317 1547.07 570.21 1547 570.106C1546.48 570.322 1545.92 570.492 1545.42 570.76C1544.22 571.399 1544.23 571.417 1543.38 570.463C1541.82 571.275 1540.27 572.087 1538.71 572.904C1538.64 572.945 1538.55 573.01 1538.52 573.085C1538.23 573.741 1537.64 573.773 1537.08 573.732C1535.64 573.627 1534.2 573.472 1532.72 573.333L1532.72 574.55C1531.47 574.84 1531.36 575.066 1531.95 576.188C1532.12 576.498 1532.34 576.807 1532.6 577.03C1534.16 578.34 1536.16 578.542 1537.93 577.526C1538.66 577.114 1539.3 576.57 1539.98 576.077C1540.65 575.583 1541.31 575.061 1541.99 574.587C1542.24 574.416 1542.56 574.345 1542.96 574.179C1543 576.47 1540.54 576.333 1539.83 577.767C1540.11 577.947 1540.37 578.113 1540.72 578.344C1540.38 578.586 1540.15 578.761 1539.91 578.922C1539.12 579.442 1539.05 579.757 1539.82 580.216C1540.45 580.595 1541.22 580.931 1541.94 580.955C1543.7 581.014 1545.47 580.938 1547.23 580.813C1550.12 580.606 1552.17 578.905 1554.01 576.872C1554.04 576.843 1554.01 576.761 1554 576.556C1553.25 576.423 1552.47 576.268 1551.69 576.15C1551.05 576.055 1550.75 575.736 1550.76 575.072C1550.77 574.546 1550.69 574.018 1550.64 573.397C1549.92 573.68 1549.32 573.914 1548.67 574.174C1548.84 573.614 1548.97 573.214 1549.13 572.69L1545.73 572.68C1546.27 571.859 1546.73 571.143 1547.19 570.426L1547.2 570.423ZM1624.62 532.047C1625.03 533.461 1625.41 534.824 1625.85 536.17C1625.91 536.352 1626.26 536.532 1626.49 536.551C1628.75 536.726 1631.01 536.94 1633.27 536.99C1634.49 537.017 1636.11 535.721 1636.38 534.632C1634.39 534.931 1632.47 535.219 1630.39 535.531C1630.88 533.696 1629.53 533.634 1628.3 533.424C1628.73 532.951 1629.03 532.624 1629.33 532.294L1629.23 532.059L1624.62 532.045L1624.62 532.047ZM1628.07 543.614C1627.59 543.076 1627.2 542.746 1626.94 542.338C1626.68 541.915 1626.54 541.412 1626.34 540.948C1625.68 539.467 1623.05 538.055 1621.27 538.301C1621.52 538.645 1621.73 538.954 1621.96 539.247C1622.35 539.737 1622.93 540.161 1623.1 540.712C1623.39 541.695 1624.06 542.218 1624.89 542.558C1625.86 542.954 1626.88 543.226 1628.07 543.614ZM1622.58 547.88C1622.58 547.88 1622.58 547.882 1622.58 547.884C1622.34 547.863 1622.11 547.845 1621.87 547.824C1620.92 547.739 1620.69 548.066 1621.03 548.945C1621.38 549.839 1622.14 549.803 1622.89 549.827C1623.68 549.851 1624.18 549.402 1624.46 548.746C1624.53 548.597 1624.21 548.126 1623.99 548.05C1623.55 547.901 1623.05 547.928 1622.58 547.882L1622.58 547.88Z" fill="#154068"/>
<path d="M1824.86 584C1824.53 583.969 1824.21 583.912 1823.88 583.912C1813.59 583.896 1803.3 583.889 1793.01 583.874C1786.71 583.866 1780.41 583.843 1774.12 583.836C1768.65 583.829 1763.19 583.835 1757.72 583.833C1757.44 583.833 1757.16 583.833 1756.71 583.833C1756.71 583.005 1756.71 582.251 1756.71 581.496C1756.67 574.651 1756.63 567.806 1756.59 560.962C1756.59 560.701 1756.55 560.434 1756.58 560.178C1756.78 558.927 1756.07 557.997 1755.53 556.988C1755.25 556.476 1755.17 555.861 1755 555.287C1758.75 553.636 1762.34 552.078 1765.91 550.474C1769.68 548.783 1773.42 547.037 1777.18 545.343C1777.78 545.075 1778.05 544.717 1778.05 544.066C1778.05 541.381 1778.09 538.696 1778.06 536.01C1778.06 535.698 1777.81 535.3 1777.55 535.093C1776.9 534.578 1776.79 534.177 1777.45 533.701C1778.07 533.256 1778.15 532.737 1778.14 532.063C1778.1 529.378 1778.08 526.691 1778.11 524.006C1778.13 522.598 1777.87 521.389 1776.28 520.811C1776.47 520.506 1776.6 520.266 1776.76 520.055C1780.24 515.543 1783.72 511.027 1787.23 506.531C1787.67 505.973 1787.9 505.424 1787.84 504.715C1787.78 504.172 1787.83 503.622 1787.8 503.077C1787.79 502.873 1787.76 502.557 1787.63 502.489C1786.91 502.106 1786.74 501.376 1786.38 500.749C1786.24 500.494 1785.95 500.321 1785.74 500.096C1785.61 499.947 1785.39 499.762 1785.4 499.611C1785.47 498.832 1785.01 498.501 1784.39 498.259C1784.29 498.218 1784.2 498.131 1784.01 498.007C1784.19 497.8 1784.34 497.6 1784.52 497.435C1787.78 494.415 1791.04 491.395 1794.32 488.394C1794.53 488.196 1794.89 488.076 1795.19 488.056C1796.07 488 1796.95 488.04 1797.82 487.985C1798.04 487.972 1798.29 487.772 1798.41 487.585C1798.46 487.505 1798.21 487.247 1798.13 487.056C1798.04 486.853 1797.9 486.618 1797.94 486.428C1798.24 484.895 1798.43 483.313 1798.95 481.856C1799.64 479.946 1800.39 479.607 1802.08 479.669C1802.58 479.687 1803.08 479.586 1803.57 479.64C1804.37 479.729 1804.73 479.332 1804.96 478.646C1805.22 477.885 1805.52 477.128 1805.87 476.406C1807.4 473.265 1809.92 471.524 1813.4 471.193C1814.2 471.118 1815.01 471.016 1815.81 470.985C1817.85 470.905 1819.59 471.646 1821 473.087C1821.7 473.804 1822.48 474.081 1823.43 473.884C1823.64 473.84 1823.91 473.676 1824 473.492C1824.72 471.942 1825.41 470.38 1826.08 468.81C1826.19 468.559 1826.2 468.257 1826.21 467.976C1826.27 466.456 1826.31 464.936 1826.37 463.417C1826.41 462.369 1826.88 461.525 1827.75 460.967C1829.12 460.079 1829.67 458.835 1829.65 457.231C1829.62 455.665 1829.71 454.095 1829.71 452.527C1829.72 451.548 1830.03 450.835 1831.04 450.509C1831.79 450.265 1831.95 449.598 1831.98 448.903C1832.03 447.573 1832.1 446.243 1832.1 444.912C1832.12 437.615 1832.12 430.318 1832.15 423.021C1832.15 422.571 1831.99 422.353 1831.62 422.136C1831.37 421.985 1831.09 421.701 1831.03 421.43C1830.67 419.847 1830.41 418.242 1830.05 416.663C1829.85 415.814 1829.57 414.97 1829.22 414.174C1826.97 409.146 1827.73 404.567 1831.34 400.49C1833.36 398.216 1835.44 395.989 1837.66 393.915C1841.63 390.207 1843.79 385.724 1844.07 380.302C1844.25 376.576 1844.49 372.855 1844.72 369.131C1844.76 368.424 1844.58 367.924 1843.96 367.451C1842.65 366.461 1842.95 364.331 1844.46 363.696C1844.98 363.477 1845.09 363.206 1845.09 362.693C1845.07 358.652 1845.07 354.611 1845.09 350.571C1845.09 349.881 1845.07 349.25 1844.42 348.824C1844.3 348.746 1844.25 348.574 1844.06 348.28C1844.4 348.473 1844.58 348.57 1844.95 348.776C1845.01 347.729 1845.06 346.813 1845.12 345.858C1844.52 345.767 1844.02 345.69 1843.47 345.606C1843.56 345.5 1843.57 345.45 1843.6 345.448C1845.07 345.306 1845.26 345.041 1845.02 343.47C1844.92 342.779 1845 341.728 1845.28 341C1845.27 341.735 1845.84 342.373 1845.55 343.16C1845.46 343.399 1845.46 343.674 1845.44 343.934C1845.38 345.216 1845.53 345.365 1846.8 345.405C1846.91 345.408 1847.01 345.428 1847.14 345.589C1846.89 345.652 1846.63 345.731 1846.37 345.771C1846.09 345.814 1845.81 345.821 1845.43 345.851C1845.6 347.431 1844.97 349.095 1846.3 350.557C1846.1 350.529 1846 350.521 1845.9 350.497C1845.81 350.476 1845.73 350.436 1845.63 350.396C1845.59 350.48 1845.54 350.54 1845.54 350.601C1845.51 354.736 1845.47 358.872 1845.46 363.007C1845.46 363.211 1845.69 363.527 1845.89 363.6C1847.73 364.285 1847.92 366.696 1846.36 367.648C1846.06 367.831 1845.84 368.407 1845.86 368.788C1845.93 370.018 1846.11 371.242 1846.26 372.468C1846.6 375.44 1846.84 378.43 1847.32 381.379C1848.04 385.767 1850.15 389.522 1853.11 392.785C1855.63 395.566 1858.26 398.242 1860.83 400.984C1862.3 402.557 1863.51 404.296 1864.29 406.329C1865.2 408.696 1865.35 411.091 1864.34 413.411C1863.43 415.505 1862.85 417.633 1862.64 419.903C1862.54 420.94 1862.08 421.941 1861.83 422.968C1861.72 423.379 1861.67 423.813 1861.67 424.236C1861.66 432.056 1861.59 439.875 1861.69 447.693C1861.71 449.131 1862.3 450.589 1863.66 451.544C1864.75 452.306 1865.4 453.616 1865.12 454.763C1864.71 456.445 1865.12 458.057 1864.88 459.764C1865.97 459.824 1866.98 459.878 1868.07 459.937V460.717C1868.07 463.402 1867.91 466.104 1868.14 468.769C1868.28 470.378 1869 471.948 1869.55 473.502C1869.63 473.727 1870.24 473.861 1870.6 473.871C1872.36 473.917 1874.12 473.916 1875.88 473.914C1877.59 473.913 1879.3 473.847 1881.01 473.899C1881.74 473.921 1882.18 473.642 1882.34 473.014C1882.71 471.667 1883.05 470.31 1883.3 468.939C1883.46 468.033 1883.47 467.092 1883.47 466.168C1883.47 465.897 1883.31 465.526 1883.1 465.369C1881.73 464.357 1881.6 463.08 1882.91 462.01C1883.52 461.506 1883.67 460.985 1883.66 460.252C1883.61 455.95 1883.61 451.648 1883.59 447.346C1883.59 447.088 1883.59 446.828 1883.59 446.597C1882.99 446.25 1882.17 446.608 1881.68 445.745C1882.35 445.651 1882.92 445.569 1883.54 445.482C1883.63 444.521 1883.72 443.545 1883.82 442.569C1883.9 442.567 1883.98 442.564 1884.06 442.563C1884.17 443.519 1884.27 444.475 1884.37 445.495C1884.72 445.54 1885.09 445.558 1885.45 445.647C1885.62 445.689 1885.76 445.865 1885.91 445.98C1885.78 446.11 1885.66 446.311 1885.5 446.357C1885.16 446.453 1884.79 446.467 1884.37 446.524C1884.36 446.734 1884.33 446.959 1884.33 447.183C1884.29 451.675 1884.27 456.167 1884.22 460.659C1884.21 461.174 1884.36 461.462 1884.8 461.736C1886.3 462.672 1886.4 463.826 1885.21 465.132C1884.91 465.469 1884.66 465.989 1884.64 466.433C1884.56 468.846 1884.95 471.21 1885.55 473.545C1885.98 475.24 1887.29 476.274 1888.43 477.444C1888.54 477.567 1888.82 477.568 1889.02 477.571C1890.12 477.587 1891.21 477.571 1892.3 477.604C1892.49 477.61 1892.8 477.744 1892.85 477.889C1893.52 479.841 1894.15 481.802 1894.78 483.767C1894.96 484.348 1894.86 484.887 1894.44 485.363C1894.31 485.518 1894.2 485.729 1894.17 485.928C1894.02 486.746 1893.54 487.324 1892.85 487.699C1892.35 487.976 1892.2 488.34 1892.24 488.854C1892.28 489.347 1892.3 489.842 1892.34 490.353C1892.46 490.38 1892.55 490.426 1892.64 490.417C1894.41 490.248 1895.89 490.918 1897.34 491.87C1899.6 493.352 1901.95 494.714 1904.25 496.129C1904.5 496.278 1904.74 496.435 1904.96 496.607C1905.78 497.232 1905.79 497.352 1905.34 498.302C1905.23 498.531 1905.18 498.8 1905.16 499.056C1905.02 500.28 1904.59 501.346 1903.6 502.146C1903.07 502.583 1903.11 503.958 1903.67 504.518C1906.28 507.15 1908.9 509.773 1911.5 512.418C1912.24 513.18 1912.96 513.982 1913.62 514.817C1914.25 515.599 1914.51 516.475 1913.87 517.404C1913.79 517.512 1913.7 517.614 1913.59 517.686C1913.5 517.75 1913.37 517.766 1913.26 517.809C1911.3 518.58 1911.23 518.645 1911.26 520.698C1911.27 521.947 1911.06 523.103 1910.33 524.141C1910.22 524.308 1910.12 524.532 1910.12 524.731C1910.11 527.009 1910.11 529.288 1910.11 531.657C1910.84 531.72 1911.46 531.774 1912.08 531.828C1912.21 532.667 1911.61 533.198 1910.28 533.42C1910.25 533.459 1910.2 533.497 1910.2 533.536C1910.19 536.268 1910.16 539.001 1910.19 541.732C1910.2 542.067 1910.47 542.498 1910.75 542.714C1912.27 543.888 1913.84 545.005 1915.38 546.152C1915.66 546.359 1915.91 546.617 1916.17 546.854C1915.29 548.053 1915.66 549.366 1915.54 550.591C1916.46 550.837 1917.32 551.079 1918.2 551.286C1918.57 551.376 1918.67 551.577 1918.67 551.943C1918.65 553.154 1918.64 554.367 1918.68 555.578C1918.68 555.818 1918.82 556.183 1919 556.267C1919.85 556.668 1920.07 557.336 1919.99 558.195C1919.95 558.543 1919.98 558.899 1919.98 559.262C1921.5 559.262 1922.96 559.271 1924.43 559.255C1924.78 559.251 1924.95 559.061 1924.94 558.657C1924.89 554 1924.86 549.341 1924.81 544.683C1924.8 544.266 1924.71 543.821 1924.54 543.441C1924.24 542.758 1924.42 542.286 1925.04 541.953C1926.04 541.414 1927.05 540.899 1928.06 540.371C1928.84 539.967 1929.9 539.743 1930.31 539.104C1930.7 538.491 1930.43 537.447 1930.42 536.594C1930.42 532.648 1930.42 528.703 1930.37 524.758C1930.36 524.1 1930.1 523.447 1929.97 522.789C1929.94 522.642 1929.96 522.475 1930 522.329C1930.12 521.871 1930.42 521.406 1930.39 520.967C1930.19 518.577 1930.85 516.396 1931.71 514.205C1932.98 510.961 1934.14 507.671 1935.28 504.374C1935.58 503.493 1935.64 502.517 1935.71 501.578C1935.74 501.193 1935.49 500.786 1935.37 500.391C1935.32 500.239 1935.21 500.087 1935.22 499.94C1935.26 499.111 1936.52 497.737 1937.32 497.486C1937.63 497.391 1937.99 497.102 1938.1 496.817C1940.92 489.262 1943.7 481.689 1946.51 474.131C1947.69 470.972 1947.39 467.74 1947.01 464.525C1946.91 463.772 1946.18 463.099 1945.74 462.387C1945.43 461.881 1945.1 461.385 1944.81 460.867C1944.17 459.71 1944.27 458.565 1945.03 457.518C1945.58 456.773 1946.18 456.064 1946.83 455.406C1948.17 454.047 1949.42 452.628 1950.35 450.947C1951.16 449.493 1951.39 447.897 1951.45 446.279C1951.47 445.841 1951.22 445.368 1951.01 444.952C1950.68 444.285 1950.63 443.727 1951.22 443.151C1951.46 442.917 1951.63 442.482 1951.63 442.136C1951.65 438.906 1951.63 435.674 1951.63 432.442C1951.63 431.961 1951.76 431.468 1951.69 431.001C1951.61 430.483 1951.37 429.991 1951.18 429.463C1951.82 429.135 1951.94 428.394 1951.3 427.608C1951.47 427.328 1951.63 427.044 1951.8 426.755C1952.13 427.266 1952.16 427.758 1951.96 428.341C1951.81 428.784 1951.84 429.315 1952.37 429.447C1952.23 429.835 1952.04 430.159 1952.01 430.497C1951.94 431.325 1951.93 432.158 1951.93 432.99C1951.92 436.032 1951.93 439.074 1951.92 442.116C1951.91 442.57 1952.01 442.913 1952.35 443.245C1952.98 443.856 1952.94 444.234 1952.49 445.007C1952.27 445.377 1952.12 445.848 1952.13 446.272C1952.14 448.911 1952.94 451.261 1954.8 453.2C1955.82 454.262 1956.85 455.325 1957.8 456.444C1959.3 458.186 1959.25 459.735 1957.75 461.482C1957.13 462.2 1956.48 462.899 1955.95 463.676C1955.64 464.127 1955.38 464.712 1955.36 465.246C1955.3 467.422 1955.19 469.615 1955.37 471.777C1955.5 473.265 1956.07 474.719 1956.49 476.176C1958.38 482.838 1960.3 489.496 1962.2 496.156C1962.44 496.978 1962.75 497.489 1963.79 497.657C1964.55 497.781 1965.21 498.629 1966.05 499.255C1965.59 499.452 1965.39 499.542 1965.05 499.692C1965.05 501.633 1964.9 503.64 1965.09 505.615C1965.24 507.056 1965.81 508.457 1966.23 509.866C1967.01 512.48 1967.85 515.078 1968.6 517.699C1968.84 518.534 1968.87 519.426 1969.04 520.285C1969.15 520.824 1969.37 521.343 1969.45 521.884C1969.49 522.132 1969.41 522.522 1969.23 522.657C1968.69 523.08 1968.63 523.598 1968.63 524.223C1968.68 529.214 1968.72 534.204 1968.73 539.195C1968.73 539.833 1968.92 540.185 1969.55 540.398C1970.47 540.709 1971.36 541.114 1972.25 541.501C1973.29 541.95 1973.5 542.548 1972.81 543.43C1971.9 544.593 1972.41 545.893 1972.32 547.133C1972.31 547.278 1972.51 547.446 1972.63 547.592C1976.18 551.905 1979.72 556.222 1983.29 560.517C1983.53 560.812 1983.95 561.046 1984.33 561.139C1985.5 561.428 1986.7 561.62 1987.88 561.884C1988.27 561.971 1988.63 562.163 1989 562.307V562.45C1988.53 562.49 1988.06 562.567 1987.59 562.561C1986.62 562.548 1985.65 562.493 1984.68 562.45C1984.14 562.427 1983.82 562.6 1983.82 563.211C1983.82 563.945 1983.73 564.68 1983.73 565.415C1983.68 571.161 1983.65 576.907 1983.61 582.653C1983.6 583.027 1983.61 583.399 1983.61 583.866C1982.58 583.866 1981.63 583.866 1980.69 583.866C1972.74 583.866 1964.78 583.863 1956.83 583.872C1956.19 583.872 1955.56 583.946 1954.92 583.986H1824.86V584Z" fill="#154068"/>
<rect x="1759" y="574" width="240" height="64" rx="5" fill="#154068"/>
<path d="M119.49 298.066L115.91 295.394C123.629 286.05 131.507 276.512 139.67 266.627C152.658 250.9 166.369 234.297 181.316 216.212L182.758 214.467L180.849 213.251C160.708 200.423 142.468 188.796 124.721 177.483C112.631 169.776 100.77 162.215 88.6931 154.52C102.425 137.939 111.867 126.527 123.597 112.346C144.299 130.095 166.126 148.819 189.545 168.908C193.405 172.219 197.308 175.567 201.257 178.954L202.909 180.371L204.182 178.606C217.88 159.605 230.177 142.566 241.876 126.358C250.384 114.569 258.575 103.22 266.757 91.8746C273.261 96.5119 279.206 100.756 285.065 104.939C292.435 110.2 299.667 115.363 307.702 121.088C303.53 126.146 299.375 131.184 295.228 136.212C277.932 157.183 260.79 177.969 243.259 199.239L241.901 200.887L243.634 202.134C271.343 222.084 296.326 240.123 319.631 256.95C321.638 258.4 323.634 259.841 325.617 261.273C293.397 304.304 263.365 344.469 234.109 383.602C198.01 356.683 159.544 327.967 119.49 298.066ZM217.04 245.535L215.445 244.45L214.303 246.005C208.885 253.386 203.283 261.045 197.796 268.545C193.565 274.329 189.403 280.018 185.448 285.413L184.344 286.919L185.77 288.124C194.677 295.647 203.687 303.286 212.144 310.456C215.579 313.368 218.923 316.203 222.132 318.922L223.667 320.223L224.959 318.679C230.174 312.444 235.119 306.524 239.983 300.699C246.525 292.867 252.923 285.207 259.64 277.188L261.061 275.491L259.229 274.248C250.022 268.005 241.296 262.058 232.461 256.038C227.393 252.585 222.29 249.107 217.04 245.535Z" stroke="#DADADA" stroke-width="4"/>
<path d="M354.35 49.6565C349.515 56.0298 344.418 62.7475 339.301 69.4666C335.57 66.562 331.516 63.4074 327.27 60.103C320.631 54.9359 313.522 49.4026 306.435 43.8863C314.865 32.162 323.418 20.2702 332.886 7.13066C343.552 16.7168 354.356 26.4365 364.82 35.8681C361.552 40.1647 358.027 44.811 354.35 49.6565Z" stroke="#DADADA" stroke-width="4"/>
<path d="M367.877 354.957C361.316 349.731 354.14 344.016 346.749 338.122C349.343 334.737 351.965 331.314 354.614 327.856C361.044 319.461 367.633 310.859 374.377 302.084C381.465 308.057 388.709 314.164 395.892 320.219C399.627 323.368 403.346 326.503 407.018 329.597L405.625 331.405C397.723 341.657 389.025 352.942 380.012 364.626C376.316 361.679 372.232 358.426 367.877 354.957Z" stroke="#DADADA" stroke-width="4"/>
<path d="M338.95 172.277C343.304 165.963 347.774 159.481 352.427 152.749C360.584 159.372 368.25 165.584 375.602 171.54C379.735 174.889 383.769 178.158 387.735 181.374C379.014 193.263 370.108 205.443 360.724 218.277L360.223 218.962C358.261 217.411 356.249 215.822 354.195 214.199C345.233 207.119 335.481 199.415 325.612 191.6C329.982 185.281 334.403 178.87 338.95 172.277Z" stroke="#DADADA" stroke-width="4"/>
<path d="M86.3269 224.342C88.059 225.949 89.8157 227.579 91.5914 229.227C88.2926 233.422 84.5517 238.179 80.4577 243.384C76.1331 248.883 71.4144 254.883 66.4063 261.251C62.3917 257.955 58.312 254.607 54.1821 251.218C47.1703 245.465 40.0137 239.592 32.7851 233.654C37.8208 227.766 43.1903 221.474 49.0407 214.619C52.7853 210.231 56.7269 205.612 60.9042 200.72C67.9775 207.317 76.7762 215.481 86.3269 224.342Z" stroke="#DADADA" stroke-width="4"/>
<path d="M159.048 65.6393C167.673 54.2087 176.492 42.516 185.782 30.1865C191.986 34.9063 198.396 39.7815 204.805 44.6568C209.593 48.2984 214.38 51.9399 219.083 55.5167C218.308 56.5802 217.536 57.6403 216.766 58.6978C208.615 69.889 200.668 80.8009 192.025 92.6184C187.857 89.2066 183.622 85.7445 179.356 82.257C172.618 76.7484 165.802 71.1765 159.048 65.6393Z" stroke="#DADADA" stroke-width="4"/>
<path d="M71.8804 78.3779C64.0735 89.1061 55.5442 100.87 46.3168 113.599C37.9983 107.048 29.9678 100.738 22.1512 94.596C18.5747 91.7858 15.0429 89.0107 11.5488 86.2638C15.9601 80.3705 20.4199 74.4236 24.9036 68.4447C29.1214 62.8203 33.3605 57.1675 37.6005 51.5046C45.5524 57.7324 53.6689 64.0972 61.8947 70.5478C65.2067 73.145 68.5365 75.7562 71.8804 78.3779Z" stroke="#DADADA" stroke-width="4"/>
<path d="M61.5197 371.201C67.8189 363.759 74.7989 355.511 81.0886 348.108C87.2504 351.968 93.4882 355.884 99.87 359.891C105.731 363.57 111.713 367.326 117.869 371.184C115.656 374.056 113.5 376.854 111.378 379.607C103.898 389.313 96.84 398.471 89.2096 408.4C79.1123 399.354 68.9565 390.261 58.2933 380.713C57.3821 379.898 56.4673 379.078 55.5485 378.256C57.4316 376.032 59.4385 373.661 61.5197 371.201Z" stroke="#DADADA" stroke-width="4"/>
<path d="M193.357 528.851C173.484 512.577 153.63 496.32 133.649 479.955C138.467 473.586 143.078 467.497 147.744 461.336C153.508 453.724 159.356 446.002 165.776 437.509C182.851 452.127 199.605 466.446 216.725 481.077C227.681 490.441 238.787 499.932 250.222 509.712L251.873 511.124L253.144 509.362C269.121 487.212 284.152 466.396 299.987 444.468C306.377 435.619 312.897 426.59 319.664 417.218C326.931 423.569 334.022 429.767 341.001 435.868C362.761 454.89 383.442 472.967 405.028 491.793L406.651 493.209L407.943 491.485C430.118 461.893 450.26 434.991 471.023 407.258L474.268 402.924C486.088 412.373 496.985 421.082 507.902 429.806L514.097 434.757C469.347 493.331 425.399 550.88 381.72 608.084L380.55 609.616L382.037 610.842C432.302 652.251 482.761 693.784 534.454 736.332L550.944 749.905C542.05 759.725 533.222 769.454 523.97 779.652C522.138 781.672 520.289 783.71 518.419 785.77C502.826 772.294 486.242 757.976 468.715 742.843C458.741 734.231 448.461 725.355 437.885 716.221L436.238 714.799L434.959 716.56C410.435 750.331 389.456 779.224 366.68 810.651C351.064 797.135 336.542 784.557 322.234 772.163C308.357 760.143 294.681 748.297 280.401 735.938L278.749 734.508L277.47 736.279C263.548 755.568 250.4 773.761 237.365 791.796C228.828 803.608 220.339 815.353 211.714 827.294C205.918 822.252 200.553 817.582 195.486 813.171C187.58 806.29 180.398 800.039 173.429 793.985C197.154 763.386 221.145 732.446 245.136 701.506C265.381 675.398 285.626 649.289 305.709 623.387L306.902 621.848L305.396 620.614C267.352 589.444 230.321 559.12 193.357 528.851ZM350.25 652.888L348.655 651.559L347.386 653.202C335.085 669.13 324.343 683.013 314.419 695.801L313.252 697.304L314.695 698.544C319.847 702.975 325.105 707.489 330.362 712.004C338.038 718.595 345.712 725.185 353.057 731.511L354.564 732.808L355.87 731.31C361.676 724.648 367.416 718.072 373.114 711.544C379.392 704.351 385.62 697.216 391.831 690.087L393.178 688.541L391.599 687.233C376.295 674.551 363.225 663.702 350.25 652.888ZM295.76 536.072L294.579 537.603L296.068 538.835C310.327 550.639 324.191 562.124 336.117 572.016L337.597 573.243L338.881 571.814C350.063 559.378 361.757 546.337 371.621 535.327L372.924 533.872L371.5 532.534C356.932 518.856 344.03 506.758 330.826 494.377L329.223 492.874L327.877 494.611C323.846 499.815 319.967 504.818 316.251 509.611C308.732 519.309 301.877 528.151 295.76 536.072Z" stroke="#DADADA" stroke-width="4"/>
<path d="M468.672 597.082C475.31 588.889 485.097 576.752 495.005 564.462C499.721 568.148 504.617 571.967 509.71 575.939C516.752 581.432 524.168 587.216 531.998 593.343C528.877 596.836 525.738 600.352 522.582 603.887C515.507 611.813 508.347 619.833 501.119 627.901C496.337 623.367 491.114 618.402 485.694 613.25C480.139 607.97 474.377 602.493 468.672 597.082Z" stroke="#DADADA" stroke-width="4"/>
<path d="M151.418 633.866C158.056 625.673 167.843 613.536 177.751 601.246C182.467 604.932 187.363 608.751 192.456 612.723C199.498 618.216 206.914 624 214.744 630.127C211.623 633.62 208.484 637.137 205.328 640.671C198.253 648.597 191.094 656.617 183.865 664.685C179.084 660.151 173.86 655.186 168.44 650.034C162.885 644.754 157.123 639.277 151.418 633.866Z" stroke="#DADADA" stroke-width="4"/>
<path d="M4 711.658C1092.67 691.665 1620.72 692.568 2137 711.658V1721C1299.41 1715.87 832.852 1715.64 4 1721L4 711.658Z" fill="url(#paint0_linear_359_106)"/>
<defs>
<filter id="filter0_f_359_106" x="-26" y="116" width="2225" height="1584" filterUnits="userSpaceOnUse" color-interpolation-filters="sRGB">
<feFlood flood-opacity="0" result="BackgroundImageFix"/>
<feBlend mode="normal" in="SourceGraphic" in2="BackgroundImageFix" result="shape"/>
<feGaussianBlur stdDeviation="100" result="effect1_foregroundBlur_359_106"/>
</filter>
<linearGradient id="paint0_linear_359_106" x1="1070.5" y1="697" x2="1070.5" y2="1736.59" gradientUnits="userSpaceOnUse">
<stop stop-color="#BBEBFF"/>
<stop offset="0.619792" stop-color="#BBEBFF"/>
<stop offset="1" stop-color="#BBEBFF" stop-opacity="0"/>
</linearGradient>
</defs>
</svg>
