<svg width="48" height="48" viewBox="0 0 48 48" fill="none" xmlns="http://www.w3.org/2000/svg">
<path d="M23.9861 48C10.7446 48.0028 -0.00235826 37.2572 3.88169e-07 24.0186C0.00283077 10.7305 10.7503 -0.013669 24.0262 1.30529e-05C37.2837 0.0136951 48.0005 10.7527 48 24.0229C48 37.2718 37.2573 47.9972 23.9856 48H23.9861ZM23.9884 47.1324C36.7686 47.1324 47.0966 36.8081 47.1325 24.055C47.1683 11.3514 36.861 0.868588 24.0087 0.868116C11.2196 0.867645 0.882136 11.2056 0.87506 24.0054C0.867985 36.7854 11.2093 47.1328 23.9884 47.1328V47.1324Z" fill="#00405E"/>
<path d="M24.0038 7.92627C32.7502 7.92485 39.8455 15.0249 39.8346 23.7677C39.8238 32.5427 32.7558 39.5946 23.9722 39.5951C15.2456 39.5951 8.16073 32.4983 8.16309 23.7592C8.16545 15.0126 15.2541 7.92769 24.0043 7.92627H24.0038ZM38.7138 26.3739C39.5242 22.4231 38.6124 16.3582 33.4497 12.1625C28.2914 7.97015 21.1196 7.64885 15.6471 11.343C10.2977 14.9537 8.35461 21.0441 9.23769 26.0946C9.30326 26.0659 9.36553 26.038 9.4278 26.0121C10.0109 25.7667 10.5901 25.5261 11.2364 25.8238C11.3525 25.8771 11.5171 25.8531 11.6534 25.83C11.8615 25.795 12.0685 25.7422 12.269 25.6752C12.7445 25.5167 13.22 25.403 13.7215 25.5516C13.78 25.5691 13.8465 25.5634 13.9092 25.5596C14.7329 25.5096 15.5565 25.4662 16.3792 25.4053C17.4524 25.3261 18.5251 25.244 19.5964 25.1421C20.5337 25.0529 21.4697 24.942 22.4046 24.8279C23.3934 24.7071 24.3769 24.5325 25.368 24.4504C26.9729 24.3174 28.5843 24.2683 30.1882 24.1258C30.8312 24.0687 31.3425 24.206 31.8237 24.6269C32.5152 25.2317 33.1153 25.8819 33.2752 26.8571C33.4011 26.7679 33.5129 26.6849 33.6285 26.6079C33.8946 26.4315 34.1446 26.2173 34.4328 26.0904C35.248 25.7328 36.082 25.704 36.8339 26.2249C37.184 26.4674 37.509 26.5013 37.8934 26.4419C38.1538 26.4018 38.4199 26.3966 38.7138 26.3735V26.3739ZM30.8901 33.7877L30.8845 33.9156C31.0165 33.9901 31.1425 34.0826 31.2826 34.1359C31.8095 34.3374 32.3426 34.5233 32.8709 34.7219C33.0134 34.7752 33.1469 34.8521 33.2851 34.9186C33.1304 35.2173 31.3609 35.8801 31.0156 35.7759C31.1656 35.4598 31.3142 35.1465 31.4633 34.8332L31.4227 34.7794C30.358 35.2036 29.3395 35.774 28.163 35.8622C28.7055 35.1871 29.4589 34.6974 29.7528 33.8264C27.655 35.246 25.3676 36.0712 22.7759 36.2033C23.0405 35.7518 23.2736 35.3541 23.5066 34.9568C23.4873 34.9342 23.4684 34.912 23.449 34.8894C22.9561 35.0762 22.4655 35.2687 21.9702 35.4475C21.4734 35.6268 20.9687 35.7773 20.4394 35.8084C20.4253 35.7886 20.4111 35.7693 20.3969 35.7495C20.7423 35.3201 21.088 34.8913 21.4333 34.4619C21.4131 34.436 21.3932 34.4105 21.373 34.3846C21.2012 34.444 21.0258 34.494 20.8592 34.5648C19.6365 35.0866 18.3874 35.5244 17.0821 35.7919C16.8533 35.8386 16.6137 35.8768 16.4071 35.9769C16.0509 36.1491 15.9627 36.1401 15.7438 35.757C15.8221 35.723 15.8976 35.6881 15.974 35.6575C16.6066 35.405 17.2614 35.196 17.8675 34.8908C18.8143 34.4147 19.6648 33.7924 20.3191 32.9399C20.4361 32.7875 20.5168 32.6078 20.6144 32.4408C20.5946 32.4252 20.5743 32.4091 20.5545 32.3936C20.3602 32.5082 20.1653 32.621 19.9719 32.737C19.3247 33.1253 18.6732 33.5047 17.9213 33.6594C17.7991 33.6844 17.6727 33.691 17.5486 33.7066C17.5397 33.6835 17.5312 33.6608 17.5222 33.6377C17.9373 33.1489 18.5633 32.8399 18.7992 32.1869C17.4788 32.847 16.1816 33.5523 14.6456 33.7207C14.7244 33.4344 14.7871 33.2074 14.8499 32.98C14.8334 32.9649 14.8168 32.9498 14.8003 32.9347C14.4871 33.0852 14.1777 33.2452 13.8592 33.3839C13.5403 33.5231 13.2125 33.641 12.8516 33.783C16.4901 37.5913 20.8937 39.2294 26.1157 38.5807C27.9093 38.358 29.5971 37.7735 31.1831 36.9011C32.7695 36.0288 34.1479 34.904 35.3612 33.5028C35.1565 33.5141 35.0121 33.5221 34.8682 33.5301C34.8602 33.5065 34.8517 33.483 34.8437 33.4594C35.0909 33.1725 35.3381 32.8857 35.5853 32.5988C35.5787 32.5799 35.572 32.5611 35.565 32.5427C35.4442 32.5705 35.3168 32.5823 35.2036 32.6285C34.0875 33.0862 32.9346 33.4094 31.7449 33.6061C31.4571 33.6537 31.1736 33.7264 30.8882 33.7877H30.8901ZM31.0878 29.6326C31.0637 29.6171 31.0401 29.601 31.0161 29.5855C30.9665 29.6043 30.9146 29.6194 30.8675 29.643C30.566 29.793 30.2778 29.9836 29.9613 30.0879C29.4429 30.2587 28.9046 30.3705 28.3772 30.5149C28.2947 30.5375 28.1918 30.5852 28.1583 30.6512C28.1371 30.6928 28.2131 30.8065 28.2711 30.8607C28.3909 30.973 28.5258 31.0702 28.6584 31.1679C30.7 32.6658 32.9054 33.1692 35.3362 32.2516C35.6216 32.144 35.8862 32.0902 36.1759 32.2148C36.2292 32.2379 36.3457 32.2204 36.3726 32.1803C36.6037 31.8383 36.8212 31.4873 37.0424 31.1386C35.3173 31.6264 33.5875 31.8142 31.7614 31.7331C31.9784 31.3665 32.16 31.0598 32.3412 30.7531C32.3223 30.7371 32.3034 30.7206 32.2846 30.7045C32.1987 30.7343 32.1138 30.7692 32.0265 30.7932C31.4614 30.948 30.8972 31.1065 30.3288 31.2471C30.2462 31.2674 30.142 31.198 30.0476 31.1697C30.0783 31.082 30.0887 30.9777 30.1438 30.9098C30.4009 30.5927 30.6769 30.2908 30.9321 29.9719C31.0076 29.8775 31.0368 29.7463 31.0873 29.6317L31.0878 29.6326ZM22.5693 33.499C22.724 33.6306 22.8231 33.7519 22.9509 33.8184C24.0613 34.3945 25.252 34.6129 26.495 34.6488C27.0125 34.6639 27.4488 34.5313 27.8371 34.2161C28.0862 34.0137 28.3343 33.8028 28.5461 33.5632C28.7376 33.3466 28.8796 33.0857 29.0433 32.8441C29.0202 32.8182 28.9971 32.7927 28.974 32.7668C28.2923 32.9687 27.6974 33.4221 26.9167 33.5504C27.2252 32.9701 27.7819 32.6399 27.9711 31.9803C26.9215 32.5356 25.9912 33.2079 24.86 33.4707C24.902 33.3508 24.9624 33.2555 25.0369 33.1725C25.4558 32.704 25.8822 32.2421 26.2955 31.7684C26.4068 31.6411 26.4804 31.4802 26.571 31.3349C26.545 31.3075 26.5195 31.2806 26.4936 31.2532C25.302 32.1515 24.0208 32.8894 22.5693 33.4985V33.499ZM11.9511 32.6526C12.1228 32.5582 12.2794 32.495 12.4091 32.3964C12.795 32.1029 13.17 32.1025 13.638 32.2539C15.4542 32.8413 17.0755 32.4889 18.4355 31.1089C18.5063 31.0372 18.5525 30.9419 18.61 30.8574C17.4609 31.1268 16.4056 31.634 15.2225 31.725C15.2791 31.6222 15.3504 31.5396 15.4367 31.4792C15.8353 31.1999 16.2419 30.9324 16.6373 30.6484C16.7717 30.5517 16.8807 30.4201 17.0014 30.304C16.9835 30.2837 16.9661 30.2639 16.9481 30.2436C16.8594 30.2696 16.7698 30.2913 16.6825 30.3215C15.8749 30.5993 15.0721 30.8914 14.2597 31.1542C13.6054 31.366 12.9436 31.5552 12.2785 31.7302C12.0049 31.8024 11.7143 31.8104 11.3959 31.852C11.5926 32.136 11.7662 32.386 11.9511 32.6526ZM9.96651 29.0132C10.1212 29.3727 10.2736 29.7402 10.4415 30.1007C10.4675 30.1568 10.5599 30.1983 10.6293 30.2158C11.5114 30.437 12.4049 30.5682 13.3106 30.421C13.7172 30.3549 14.1126 30.2144 14.5097 30.0959C14.631 30.0596 14.731 29.9742 14.6164 29.8331C14.4116 29.5812 14.1677 29.3944 13.821 29.3967C13.5068 29.3991 13.1927 29.4024 12.8785 29.3967C12.7983 29.3953 12.7191 29.3618 12.6393 29.3434C12.6742 29.2613 12.6959 29.1698 12.7464 29.0995C12.9026 28.8829 13.0714 28.6763 13.2309 28.4616C13.2649 28.4159 13.2776 28.3541 13.3266 28.2361C12.5841 28.6376 11.9751 29.1571 11.1496 29.1821C11.3841 28.7886 11.7964 28.5338 11.9497 28.0993C11.9341 28.0828 11.9181 28.0667 11.9025 28.0502C11.2675 28.3659 10.6326 28.6815 9.96651 29.0127V29.0132ZM33.0662 29.7548C33.2106 29.8563 33.3125 29.9591 33.4356 30.0096C34.6767 30.5177 35.956 30.6975 37.2825 30.4309C37.3439 30.4186 37.425 30.3804 37.45 30.3304C37.5981 30.0327 37.7326 29.7279 37.8821 29.4029C37.6227 29.4283 37.4052 29.4491 37.1439 29.4746C37.2462 29.2472 37.3198 29.083 37.4212 28.8575C36.7009 29.0887 36.0471 29.2986 35.3933 29.5081C35.3739 29.4831 35.3546 29.4581 35.3352 29.4335C35.572 28.9863 36.1235 28.7792 36.3377 28.2465C36.2051 28.2838 36.1202 28.2965 36.0443 28.33C35.1697 28.7155 34.2946 29.1014 33.4238 29.4953C33.3068 29.5482 33.211 29.6477 33.0662 29.7544V29.7548ZM18.86 29.3236C18.8516 29.3463 18.8431 29.3689 18.8346 29.3915C18.9454 29.4689 19.0464 29.5765 19.1695 29.618C19.5747 29.7553 19.9804 29.9176 20.3993 29.9808C21.0951 30.086 21.7928 30.0478 22.4395 29.7152C22.5631 29.6515 22.6697 29.5557 22.7844 29.4746C22.7754 29.4533 22.766 29.4316 22.757 29.4104L18.86 29.3241V29.3236ZM23.9335 29.743C23.9104 29.7076 23.8878 29.6723 23.8646 29.6373C22.8599 30.1842 21.8353 30.6951 20.8347 31.3339C21.439 31.6609 22.0277 31.6198 22.4603 31.2504C22.7292 31.0211 23 30.7914 23.2462 30.5389C23.4906 30.2884 23.7052 30.0096 23.933 29.743H23.9335ZM22.9929 31.7132C24.0911 32.0529 25.8228 30.7692 25.8086 29.961C25.4577 30.0488 23.1 31.516 22.9929 31.7132ZM17.0896 27.1982C17.0863 26.8132 16.8816 26.5858 16.6288 26.4173C15.8216 25.8795 14.9579 25.7738 14.0541 26.1531C13.8776 26.2272 13.7191 26.3447 13.5526 26.4424C13.5606 26.4645 13.5686 26.4867 13.5767 26.5084C14.8168 26.3206 16.0056 26.4004 17.0896 27.1986V27.1982ZM30.6977 28.9816C30.684 28.9372 30.6703 28.8929 30.6561 28.8485C29.3103 29.0283 27.964 29.208 26.6181 29.3878C26.8535 29.6586 27.1285 29.736 27.4267 29.6982C27.7531 29.6572 28.0753 29.5869 28.3999 29.5312C28.956 29.4354 29.515 29.3552 30.0665 29.2396C30.2854 29.1939 30.4877 29.0698 30.6977 28.9816ZM28.1135 28.0781C27.8442 27.6549 27.4144 27.4954 26.9375 27.4133C26.1115 27.2718 25.0841 27.8011 24.7732 28.2418C25.8709 28.0936 26.9663 27.7318 28.1135 28.0776V28.0781ZM22.1631 26.4471C22.1593 26.4291 22.1551 26.4112 22.1513 26.3933C20.6871 26.5202 19.2233 26.6476 17.759 26.7745C18.0647 26.8811 18.3836 27.0179 18.6959 27.0047C19.3365 26.9778 19.9776 26.891 20.6116 26.7891C21.1333 26.7051 21.6461 26.5631 22.1626 26.4471H22.1631ZM30.8076 24.6646C29.9986 25.7016 29.1891 26.7391 28.3772 27.7789C28.9942 27.6874 30.6057 25.6134 30.8076 24.6646ZM21.1267 27.611C22.3551 27.9059 23.4693 27.5053 24.601 27.302C23.4613 27.4034 22.3216 27.5048 21.1267 27.611ZM13.2314 32.6785C12.9153 32.8474 12.6384 32.9956 12.3421 33.1536C12.4705 33.3037 12.5874 33.441 12.7153 33.5905C12.9054 33.2971 13.1913 33.0956 13.2314 32.6785ZM31.9954 26.8571C31.9676 26.8297 31.9392 26.8028 31.9114 26.7759L30.616 27.653C30.6231 27.6718 30.6307 27.6912 30.6377 27.7101C30.8156 27.6704 31.0274 27.6789 31.1637 27.5813C31.4614 27.3685 31.7204 27.1019 31.9954 26.8575V26.8571Z" fill="#00405E"/>
<path d="M38.5771 37.4C38.3587 37.1938 38.161 37.0075 37.9766 36.8338C43.0326 30.9661 44.3166 24.369 41.9117 17.0043C42.1386 16.9161 42.3924 16.8174 42.6745 16.7075C43.9114 20.0285 44.2643 23.432 43.7048 26.9219C43.0632 30.9255 41.3353 34.4041 38.5766 37.4H38.5771Z" fill="#00405E"/>
<path d="M6.0922 17.0016C3.68779 24.3767 4.97184 30.9625 10.0236 36.8316C9.8434 37.0024 9.64622 37.1897 9.42639 37.3983C7.06161 34.8482 5.44499 31.9099 4.62559 28.5469C3.651 24.5451 3.89299 20.6071 5.32139 16.7124C5.60255 16.8176 5.86153 16.9148 6.09267 17.0016H6.0922Z" fill="#00405E"/>
<path d="M32.9609 44.1088C32.6505 44.2721 32.3614 44.4235 32.0505 44.5868C31.2575 43.0605 30.4721 41.5484 29.6768 40.0184C29.9815 39.8575 30.2707 39.7046 30.5707 39.5466C30.6103 39.5994 30.6462 39.6461 30.6867 39.6999C30.7155 39.6721 30.7452 39.648 30.7702 39.6197C31.4443 38.8554 32.3038 38.436 33.2996 38.2958C34.0497 38.1902 34.6068 38.5166 34.9564 39.2229C35.2635 39.8429 35.1554 40.4203 34.6271 40.9601C34.5728 41.0153 34.5011 41.053 34.3993 41.1266C35.1083 41.5305 35.7574 41.9004 36.4508 42.2957C36.1159 42.4708 35.8187 42.634 35.513 42.7784C35.4635 42.8015 35.3668 42.7538 35.305 42.717C34.8012 42.4137 34.2992 42.1075 33.8002 41.7966C33.6902 41.7282 33.61 41.7168 33.4846 41.7885C33.0501 42.0372 32.6029 42.2632 32.134 42.5113C32.4095 43.0435 32.6807 43.5677 32.9614 44.1093L32.9609 44.1088ZM32.0755 42.384C32.6232 42.0641 33.1553 41.7791 33.6591 41.4512C34.0459 41.1993 34.2983 40.8317 34.2365 40.3411C34.162 39.749 33.9105 39.2342 33.3935 38.9111C33.1996 38.7898 32.9345 38.7261 32.7039 38.7304C32.1114 38.7417 31.6099 39.0007 31.2283 39.4527C31.0967 39.6084 31.0231 39.816 30.9382 40.0066C30.9136 40.0618 30.9193 40.1509 30.9476 40.2061C31.3113 40.9176 31.6816 41.6258 32.0755 42.3835V42.384Z" fill="#00405E"/>
<path d="M17.486 40.9313C17.161 40.8822 16.8628 40.8374 16.5614 40.7916C16.8152 39.8433 16.5954 39.2984 15.7373 38.82C15.4476 38.6582 15.1259 38.5261 14.8028 38.4591C14.3867 38.3727 14.0754 38.5761 13.8829 38.9582C13.7692 39.1847 13.7815 39.413 13.9395 39.5999C14.1155 39.8079 14.3127 40.0047 14.5268 40.1721C15.0089 40.5496 15.5142 40.8968 15.9963 41.2747C16.3269 41.5342 16.6072 41.8494 16.7341 42.2617C17.0445 43.2695 16.0986 44.281 15.0273 44.0446C13.8768 43.7913 12.8593 43.2563 12.0668 42.3613C11.6672 41.9102 11.4931 41.3766 11.6139 40.7661C11.6455 40.6076 11.7073 40.535 11.8832 40.5765C12.18 40.6468 12.4809 40.7001 12.7843 40.7614C12.696 41.0105 12.597 41.2393 12.5347 41.4776C12.3814 42.064 12.529 42.5722 13.0008 42.9595C13.4574 43.3341 13.974 43.595 14.5731 43.6479C15.0448 43.6894 15.3693 43.4719 15.5693 43.0501C15.751 42.6675 15.6382 42.3249 15.3679 42.0574C15.0514 41.7446 14.6858 41.4819 14.341 41.1978C13.9603 40.8836 13.5518 40.5972 13.205 40.249C12.7569 39.799 12.7031 39.2937 12.9687 38.7818C13.2135 38.3104 13.7324 38.0651 14.3254 38.1354C14.9976 38.2151 15.5977 38.4907 16.1416 38.8681C16.5241 39.1337 16.885 39.4461 17.2025 39.7867C17.4803 40.0849 17.6068 40.4708 17.486 40.9303V40.9313Z" fill="#00405E"/>
<path d="M18.5306 7.78531C18.3876 7.04129 18.248 6.31897 18.1093 5.59618C17.9409 4.71911 17.7753 3.84157 17.6017 2.96592C17.5682 2.79655 17.5833 2.70502 17.7862 2.68237C18.0409 2.65406 18.2919 2.58943 18.557 2.53753C18.5848 2.63142 18.6084 2.71162 18.6381 2.81306C18.7631 2.72106 18.8716 2.62245 18.9957 2.5531C19.7703 2.12046 20.5934 2.00676 21.4506 2.23417C21.8912 2.35117 22.2384 2.62859 22.4775 3.01546C22.9431 3.76939 23.1309 4.5955 23.0049 5.47304C22.9148 6.10336 22.5417 6.55911 22.0011 6.88182C21.4944 7.18424 20.9326 7.32767 20.3614 7.43901C19.7618 7.55555 19.1613 7.66547 18.5301 7.78437L18.5306 7.78531ZM19.5212 7.47864C20.0241 7.35551 20.5048 7.272 20.9614 7.11725C21.6072 6.89834 21.9879 6.42324 22.027 5.73347C22.0483 5.36123 22.0209 4.98049 21.9676 4.61107C21.8832 4.02605 21.7237 3.45848 21.3803 2.96309C21.0756 2.52385 20.6581 2.29173 20.1151 2.33749C19.5283 2.38656 19.0603 2.63472 18.8061 3.19285C18.7641 3.28485 18.7494 3.40563 18.7669 3.50565C18.8726 4.11569 18.99 4.72336 19.1061 5.3315C19.2396 6.03118 19.3764 6.73038 19.5212 7.47912V7.47864Z" fill="#00405E"/>
<path d="M27.6196 2.14627C28.2352 2.18731 28.89 2.30856 29.5009 2.63316C30.2849 3.04975 30.7099 3.68998 30.7373 4.57365C30.7571 5.21907 30.6165 5.83665 30.2991 6.40516C29.8868 7.14211 29.2296 7.48699 28.4107 7.5436C27.7508 7.58937 27.112 7.46717 26.5049 7.20863C25.3402 6.7123 24.8109 5.7772 25.0143 4.52742C25.0775 4.13771 25.1879 3.74093 25.3572 3.38567C25.7624 2.53502 26.5516 2.11324 27.6201 2.14579L27.6196 2.14627ZM29.7726 4.16696C29.7495 4.00184 29.7368 3.78056 29.6849 3.56873C29.5179 2.88793 29.0089 2.47699 28.2211 2.36707C27.4611 2.26091 26.88 2.52417 26.5214 3.19082C26.0884 3.99665 25.9058 4.86617 25.9841 5.78192C26.0544 6.60143 26.5087 7.10247 27.3319 7.28978C28.1258 7.47047 28.7692 7.20155 29.1768 6.50235C29.5863 5.79938 29.7146 5.02044 29.7726 4.16696Z" fill="#00405E"/>
<path d="M37.9531 8.0419C37.6097 8.01407 37.2842 7.98764 36.979 7.96311C37.0181 7.66635 37.0837 7.38988 37.0856 7.11341C37.0931 6.03724 35.5935 4.93843 34.4175 5.80559C33.5759 6.42647 32.9881 7.24645 32.7608 8.27638C32.4683 9.6026 33.9679 10.5575 34.9019 10.2428C35.1534 10.1584 35.3718 10.0456 35.5209 9.80783C35.7119 9.50305 35.927 9.21337 36.1355 8.91189C35.5907 8.42689 35.0303 8.50332 34.4382 8.79961C34.6269 8.52738 34.8152 8.25515 35.0213 7.95792C35.7029 8.43255 36.3756 8.90057 37.0724 9.38557C36.5785 10.0952 36.0921 10.7934 35.5949 11.5077C35.3105 11.31 35.0364 11.1199 34.7552 10.9246C34.8019 10.8425 34.8439 10.7694 34.8972 10.6764C34.1401 10.5783 33.5052 10.2428 32.9745 9.72055C32.2824 9.03928 31.855 8.23817 32.1169 7.24268C32.382 6.23445 32.9853 5.49185 34.0208 5.17716C34.5194 5.02571 35.0218 5.07903 35.5039 5.24651C36.4917 5.58998 37.2483 6.22596 37.7748 7.12851C37.9314 7.39649 38.014 7.68947 37.9531 8.04143V8.0419Z" fill="#00405E"/>
<path d="M19.3516 40.3315C19.6998 40.3863 20.029 40.4377 20.3687 40.491C20.1597 41.8366 19.9531 43.167 19.7347 44.5725C19.8479 44.4631 19.9121 44.4027 19.9743 44.3404C21.0569 43.2557 22.1386 42.1701 23.2241 41.0878C23.2854 41.0265 23.3779 40.9958 23.4557 40.951L23.5411 41.0614C23.3547 41.2256 23.1609 41.3813 22.984 41.5549C22.5415 41.9904 22.1113 42.4386 21.6659 42.8707C21.5471 42.9859 21.5433 43.0765 21.6089 43.218C22.0141 44.0932 22.4113 44.9721 22.8104 45.8506C22.8424 45.9218 22.8689 45.9954 22.909 46.095C22.5901 46.0464 22.2896 46.0115 21.9952 45.9483C21.9245 45.9332 21.8542 45.8322 21.8183 45.7548C21.5466 45.1722 21.2838 44.5853 21.0178 43.9998C20.9725 43.8997 20.9249 43.8011 20.8678 43.6785C20.481 44.0649 20.0937 44.431 19.7361 44.824C19.6493 44.9193 19.6583 45.1033 19.6271 45.2472C19.6045 45.3524 19.5884 45.4595 19.5672 45.577C19.2332 45.5241 18.9186 45.4746 18.5605 45.418C18.8242 43.7228 19.0861 42.0394 19.3516 40.3315Z" fill="#00405E"/>
<path d="M26.5233 45.7148C27.087 45.6091 27.6243 45.5355 28.1465 45.4029C28.6701 45.2694 29.122 45.009 29.3126 44.3674C29.373 44.7476 29.4216 45.0524 29.4744 45.3841C28.1635 45.5917 26.8573 45.7988 25.5265 46.0097C25.259 44.3155 24.9935 42.6311 24.7236 40.9209C26.0049 40.7185 27.2545 40.5213 28.5286 40.3198C28.5829 40.6487 28.6333 40.9549 28.6937 41.32C28.0885 40.5364 27.3064 40.6888 26.5398 40.7827C26.2855 40.8138 26.0336 40.8666 25.7657 40.9119C25.8676 41.5606 25.9657 42.1858 26.0695 42.8458C26.8191 42.6439 27.6691 42.7944 28.2309 42.039C28.2876 42.3891 28.3399 42.7165 28.3979 43.0765C27.7847 42.5868 27.1332 42.8373 26.4959 42.91C26.3662 42.9246 26.2379 42.9553 26.0917 42.9822C26.2351 43.8899 26.3752 44.7773 26.5233 45.7148Z" fill="#00405E"/>
<path d="M41.6554 11.0293C41.8375 11.3062 42.0102 11.5558 42.1649 11.8163C42.1918 11.8615 42.164 11.9653 42.1276 12.0191C41.262 13.2986 40.3912 14.5753 39.5218 15.852C39.385 16.0525 39.2477 16.2525 39.0878 16.4856C38.9034 16.2058 38.726 15.9468 38.5632 15.6784C38.5401 15.6402 38.5736 15.5477 38.6071 15.4977C38.9411 14.9952 39.2807 14.4965 39.6261 13.9865C39.2454 13.4095 38.8699 12.832 38.4807 12.2635C38.4434 12.2088 38.3175 12.1776 38.2429 12.1913C37.7344 12.2829 37.2292 12.3918 36.7216 12.49C36.6098 12.5117 36.4744 12.5735 36.3994 12.3739C36.8943 12.2739 37.3754 12.1743 37.8575 12.08C38.9949 11.8568 40.1327 11.6379 41.2691 11.41C41.3427 11.3954 41.4125 11.3294 41.4696 11.2727C41.5337 11.2091 41.5814 11.1288 41.6559 11.0293H41.6554ZM38.5864 12.1295C38.9788 12.7216 39.3444 13.2732 39.7242 13.8464C40.236 13.0925 40.729 12.3659 41.2493 11.5992C40.3384 11.7804 39.4812 11.9512 38.5864 12.1295Z" fill="#00405E"/>
<path d="M12.251 5.35222C12.4986 5.20314 12.7501 5.04556 13.0086 4.9026C13.0548 4.87713 13.1501 4.88703 13.1944 4.91959C14.6365 5.97782 16.0748 7.04125 17.5131 8.10421C17.5245 8.11223 17.5282 8.13063 17.5438 8.16035C17.2853 8.31887 17.0301 8.48542 16.7631 8.62979C16.7131 8.65668 16.6022 8.61563 16.5433 8.57317C16.1097 8.26226 15.6805 7.94568 15.255 7.62392C15.1488 7.54371 15.0686 7.52012 14.9441 7.59844C14.4261 7.92351 13.903 8.24008 13.377 8.55194C13.2591 8.62176 13.2199 8.68923 13.2454 8.83219C13.3421 9.38041 13.4237 9.931 13.502 10.4821C13.511 10.5439 13.4614 10.6137 13.4388 10.6802L13.3567 10.6623C13.2576 10.0381 13.1586 9.41391 13.06 8.78972C12.9015 7.78291 12.7529 6.77469 12.5741 5.77165C12.5486 5.62822 12.3779 5.51027 12.2514 5.35269L12.251 5.35222ZM13.1992 8.48023C13.8058 8.11128 14.3695 7.76829 14.9592 7.40925C14.2214 6.86716 13.5171 6.34913 12.7708 5.8009C12.9166 6.71382 13.0543 7.57485 13.1992 8.48023Z" fill="#00405E"/>
<path d="M6.24121 11.0787C6.4667 10.805 6.6752 10.5522 6.89597 10.2842C8.18238 11.3486 9.45558 12.4021 10.7505 13.4735C11.193 12.9074 11.7222 12.4252 11.9713 11.7416C12.0944 11.4038 12.1086 11.0678 11.9487 10.722C12.1926 10.9225 12.436 11.123 12.7044 11.3438C11.8741 12.3478 11.0514 13.3428 10.2085 14.3619C8.88526 13.2669 7.57102 12.1789 6.24121 11.0787Z" fill="#00405E"/>
<path d="M33.4666 26.5803C33.0789 25.3598 32.2109 24.6077 31.1585 24.0265C31.0877 23.9873 30.9943 23.9722 30.9122 23.9732C28.8385 24.0024 26.7638 24.0043 24.692 24.0812C23.715 24.1175 22.7437 24.3058 21.7691 24.4152C20.5058 24.5568 19.2421 24.6969 17.9769 24.8205C16.7815 24.9371 15.5838 25.0319 14.3865 25.1347C14.1445 25.1555 13.9016 25.1692 13.6162 25.189C13.653 24.9526 13.6723 24.7219 13.7266 24.4997C13.9337 23.6557 14.1479 22.8135 14.3719 21.9737C14.396 21.8841 14.4833 21.7826 14.5682 21.7416C16.072 21.0136 17.6637 20.5923 19.3312 20.5814C21.4913 20.5678 23.6527 20.6046 25.8114 20.6753C27.8837 20.7433 29.9471 20.9414 31.9911 21.3085C32.701 21.4359 33.4162 21.5316 34.1256 21.6609C34.7228 21.7699 35.237 22.0468 35.6286 22.5196C35.7324 22.6446 35.8295 22.789 35.8786 22.9409C35.9107 23.0404 35.8838 23.1924 35.8248 23.2815C35.5724 23.6637 35.296 24.0298 35.0318 24.4039C34.5398 25.1022 34.0506 25.8023 33.5591 26.5011C33.5421 26.5251 33.5138 26.5407 33.4671 26.5803H33.4666ZM31.3821 21.6576L31.3207 21.6302C31.1891 22.2856 31.0575 22.9414 30.9254 23.5967C30.9504 23.6019 30.9754 23.6066 31.0004 23.6118C31.3655 23.0088 31.4788 22.3544 31.3821 21.6571V21.6576Z" fill="#00405E"/>
<path d="M33.025 17.3897C33.3113 18.1413 33.6141 18.8726 33.8656 19.6209C34 20.0205 34.2118 20.2611 34.6081 20.4338C35.2199 20.7003 35.6596 21.1509 35.7709 21.8652C35.8067 22.0954 35.9596 22.3068 36.0587 22.5257C36.062 22.5248 36.045 22.5337 36.0421 22.5304C35.3935 21.7439 34.4727 21.4967 33.5424 21.2825C32.2084 20.9754 30.8498 20.8296 29.4874 20.7159C28.0784 20.598 26.6703 20.4673 25.2598 20.3663C23.0153 20.2054 20.7694 20.1394 18.5273 20.3946C17.506 20.5107 16.487 20.6593 15.5105 20.999C15.1902 21.1108 14.8879 21.274 14.5723 21.4156C14.7718 20.9046 15.0166 20.404 15.3803 19.9643C15.4662 19.8605 15.5322 19.728 15.5676 19.5982C15.7407 18.9547 15.9002 18.3074 16.0653 17.6615C16.1129 17.4747 16.3639 17.2661 16.5394 17.302C16.6026 17.3147 16.6767 17.4379 16.6866 17.5181C16.7257 17.8356 16.7413 18.1559 16.7691 18.515C17.0451 18.4178 17.296 18.3395 17.5376 18.2376C17.5937 18.214 17.6267 18.1154 17.6536 18.0446C18.198 16.624 18.7367 15.202 19.2877 13.7838C19.3259 13.6852 19.433 13.5772 19.5316 13.5437C20.0811 13.3592 20.6316 13.1709 21.1944 13.036C21.4996 12.9629 21.8308 12.9676 22.1483 12.9813C23.3729 13.0327 24.5965 13.1054 25.8207 13.162C26.6745 13.2016 27.4774 13.4757 28.2954 13.681C29.77 14.0508 31.2423 14.4288 32.7131 14.8137C32.8466 14.8487 32.9599 14.9591 33.0825 15.035C33.0891 15.0388 33.0929 15.0463 33.0981 15.0525C33.5607 15.5784 33.8278 16.1856 33.8995 16.8741C33.9061 16.9373 33.8373 17.0425 33.7759 17.0722C33.5372 17.1878 33.2877 17.2812 33.0254 17.3897H33.025ZM32.7782 19.6647C32.5136 18.674 32.2527 17.7252 32.0117 16.7717C31.9636 16.5806 31.8725 16.5084 31.6933 16.4693C30.2012 16.1447 28.7105 15.8116 27.2194 15.4823C26.9123 15.4143 26.6038 15.3516 26.2778 15.2822C26.5339 16.198 26.784 17.076 27.0222 17.9578C27.0618 18.105 27.1293 18.1758 27.2755 18.2135C28.7223 18.5872 30.1677 18.9665 31.6126 19.3458C31.9914 19.4454 32.3683 19.5525 32.7778 19.6643L32.7782 19.6647ZM22.5058 15.0218C22.5539 15.8149 22.6068 16.6368 22.6521 17.4591C22.6606 17.6181 22.7653 17.6242 22.8752 17.6374C23.7937 17.7474 24.7121 17.8578 25.6306 17.9663C25.9292 18.0017 26.2283 18.0319 26.549 18.0663C26.2754 17.0835 26.0141 16.1329 25.74 15.1865C25.7235 15.1289 25.6093 15.068 25.5367 15.0628C25.2004 15.0388 24.8626 15.026 24.5253 15.0232C23.8602 15.018 23.1946 15.0218 22.5058 15.0218ZM22.1129 14.8628C21.543 14.9595 21.0015 15.0492 20.4618 15.1473C20.3967 15.1591 20.3085 15.2044 20.2849 15.2582C19.9382 16.056 19.5976 16.8566 19.2636 17.6601C19.2061 17.7988 19.1858 17.9535 19.1542 18.0795C20.2076 17.9205 21.2421 17.7643 22.3115 17.6025C22.2487 16.7339 22.1818 15.813 22.1129 14.8633V14.8628ZM30.9956 20.3319C27.0057 19.0047 22.9493 18.2456 18.7263 18.9415C22.8653 18.9764 26.9726 19.2826 30.9956 20.3319ZM32.941 15.854C32.9537 15.8319 32.9665 15.8102 32.9792 15.788C32.8212 15.6233 32.6895 15.4087 32.498 15.3068C32.2697 15.1855 31.9895 15.1633 31.7329 15.0935C29.4247 14.4646 27.0764 14.0669 24.6942 13.864C24.3536 13.8348 24.2847 13.8763 24.1795 14.1858C27.1514 14.4627 30.079 14.9822 32.9405 15.8536L32.941 15.854ZM22.2681 13.3087C21.91 13.3087 21.5831 13.3082 21.2562 13.3097C21.2274 13.3097 21.1855 13.3167 21.1713 13.3365C20.976 13.6092 20.785 13.8848 20.5882 14.166C20.9057 14.166 21.1803 14.1693 21.4548 14.1631C21.5114 14.1617 21.5855 14.1395 21.6194 14.0994C21.836 13.8456 22.0435 13.5842 22.2681 13.3082V13.3087ZM33.7802 19.9634C33.4929 19.1533 33.2146 18.3692 32.9358 17.5832C32.7212 17.6832 32.6712 17.803 32.7377 18.0102C32.883 18.4645 33.0254 18.9226 33.1169 19.3897C33.1896 19.7619 33.4085 19.9068 33.7807 19.9634H33.7802ZM19.4325 14.8029C18.8711 15.8484 18.4353 16.943 18.1324 18.0885C18.7867 17.0802 19.1674 15.964 19.4325 14.8029ZM31.9211 20.5088C32.9782 20.7546 34.0354 21.0004 35.0921 21.2457C34.1066 20.6838 33.058 20.4017 31.9211 20.5088ZM16.0125 18.7768C16.1535 18.7287 16.2587 18.6853 16.3672 18.6579C16.5092 18.6225 16.5479 18.5442 16.5309 18.4008C16.5078 18.2069 16.5177 18.0092 16.4983 17.8144C16.4927 17.7587 16.4365 17.7077 16.4031 17.6544C16.3483 17.6912 16.2568 17.7186 16.2441 17.7667C16.1596 18.0899 16.0922 18.4173 16.012 18.7763L16.0125 18.7768ZM16.5644 18.9311C15.9092 19.0679 15.9054 19.0712 15.8813 19.5407C16.0601 19.2982 16.4955 19.3496 16.5644 18.9311ZM16.787 18.883L16.8446 18.9849C17.0319 18.8952 17.2191 18.8056 17.4069 18.716C17.3956 18.6943 17.3847 18.6721 17.3734 18.6504C17.1838 18.74 16.9451 18.7292 16.787 18.883Z" fill="#00405E"/>
<path d="M25.8467 13.251L26.3316 12.3022H26.5637L26.3651 13.3213L25.9811 13.3798L25.8467 13.251Z" fill="#00405E"/>
<path d="M27.3383 13.4635L27.1392 12.4162L26.9166 12.3511L26.8213 13.3851L27.1737 13.5494L27.3383 13.4635Z" fill="#00405E"/>
<path d="M26.3318 12.3022H26.1719L26.2469 12.0725C26.2469 12.0725 26.6186 12.0098 26.6351 12.0098C26.6516 12.0098 26.9483 12.0348 26.9483 12.0348L27.3375 12.256V12.4649L27.1385 12.4163L26.9158 12.3512L26.5639 12.3022H26.3318Z" fill="#00405E"/>
</svg>
