<svg width="1920" height="1153" viewBox="0 0 1920 1153" fill="none" xmlns="http://www.w3.org/2000/svg">
<mask id="mask0_354_18" style="mask-type:alpha" maskUnits="userSpaceOnUse" x="0" y="0" width="1920" height="1153">
<rect width="1920" height="1153" fill="#D9D9D9"/>
</mask>
<g mask="url(#mask0_354_18)">
<g filter="url(#filter0_f_354_18)">
<ellipse cx="920.5" cy="1217" rx="912.5" ry="296" fill="#FFF3DB"/>
</g>
<path d="M107.143 1082.11C110.848 1054.05 23.142 1001.74 126.708 1001.74C236.589 1001.74 319.708 958.242 435.543 1012.25C499.44 1042.04 602.543 1049.25 634.043 1098.25C682.607 1173.79 371.943 1139.78 293.216 1115.85C214.489 1091.91 103.216 1111.85 107.143 1082.11Z" fill="#154068"/>
<path d="M150.202 983C150.008 982.982 149.814 982.948 149.62 982.948C143.552 982.939 137.483 982.935 131.415 982.926C127.701 982.921 123.987 982.908 120.273 982.903C117.051 982.899 113.828 982.903 110.606 982.902C110.441 982.902 110.276 982.902 110.008 982.902C110.008 982.415 110.011 981.971 110.008 981.526C109.985 977.498 109.961 973.47 109.937 969.443C109.937 969.289 109.911 969.132 109.934 968.982C110.048 968.245 109.632 967.698 109.312 967.104C109.15 966.803 109.101 966.441 109 966.103C111.211 965.132 113.329 964.215 115.434 963.271C117.655 962.276 119.861 961.248 122.081 960.251C122.434 960.094 122.596 959.883 122.596 959.5C122.594 957.92 122.617 956.339 122.601 954.759C122.599 954.575 122.45 954.341 122.298 954.219C121.917 953.916 121.848 953.68 122.239 953.4C122.605 953.138 122.652 952.833 122.647 952.436C122.625 950.856 122.614 949.275 122.63 947.695C122.638 946.866 122.487 946.155 121.548 945.815C121.662 945.635 121.736 945.494 121.832 945.37C123.887 942.715 125.939 940.057 128.008 937.411C128.264 937.083 128.405 936.76 128.364 936.342C128.334 936.023 128.359 935.699 128.342 935.378C128.336 935.258 128.317 935.073 128.243 935.032C127.82 934.807 127.717 934.378 127.508 934.009C127.423 933.859 127.253 933.757 127.131 933.624C127.051 933.537 126.921 933.428 126.929 933.339C126.971 932.88 126.699 932.686 126.334 932.544C126.271 932.519 126.218 932.468 126.109 932.395C126.217 932.273 126.304 932.156 126.41 932.058C128.332 930.282 130.254 928.504 132.187 926.738C132.315 926.621 132.525 926.551 132.702 926.539C133.218 926.506 133.738 926.53 134.256 926.497C134.38 926.49 134.529 926.372 134.601 926.262C134.632 926.215 134.485 926.063 134.436 925.95C134.385 925.831 134.3 925.693 134.322 925.581C134.501 924.679 134.61 923.748 134.921 922.891C135.328 921.766 135.769 921.567 136.765 921.603C137.058 921.614 137.357 921.555 137.646 921.587C138.116 921.639 138.325 921.405 138.465 921.001C138.62 920.554 138.791 920.108 138.999 919.683C139.902 917.835 141.387 916.811 143.441 916.616C143.914 916.571 144.388 916.512 144.864 916.493C146.066 916.446 147.092 916.882 147.923 917.73C148.337 918.152 148.795 918.315 149.356 918.199C149.48 918.173 149.641 918.077 149.69 917.968C150.115 917.057 150.522 916.137 150.919 915.213C150.983 915.066 150.988 914.888 150.995 914.722C151.03 913.828 151.055 912.934 151.089 912.039C151.113 911.423 151.392 910.926 151.902 910.598C152.714 910.075 153.039 909.343 153.024 908.399C153.008 907.478 153.06 906.554 153.062 905.631C153.064 905.055 153.247 904.635 153.842 904.444C154.288 904.3 154.381 903.907 154.398 903.498C154.43 902.716 154.468 901.933 154.471 901.15C154.484 896.856 154.484 892.561 154.499 888.267C154.5 888.003 154.403 887.874 154.188 887.747C154.038 887.658 153.874 887.491 153.837 887.331C153.628 886.4 153.475 885.455 153.26 884.526C153.144 884.026 152.979 883.53 152.769 883.061C151.446 880.102 151.894 877.408 154.022 875.009C155.211 873.67 156.442 872.36 157.75 871.14C160.092 868.957 161.366 866.319 161.527 863.128C161.637 860.936 161.779 858.746 161.911 856.554C161.937 856.139 161.832 855.844 161.463 855.566C160.689 854.983 160.868 853.73 161.759 853.356C162.065 853.227 162.131 853.068 162.13 852.766C162.118 850.388 162.118 848.01 162.129 845.633C162.131 845.226 162.121 844.855 161.736 844.604C161.667 844.559 161.635 844.457 161.521 844.284C161.726 844.397 161.828 844.455 162.048 844.576C162.084 843.96 162.115 843.421 162.148 842.859C161.796 842.805 161.502 842.76 161.176 842.71C161.225 842.648 161.236 842.619 161.25 842.617C162.116 842.534 162.23 842.378 162.09 841.453C162.028 841.047 162.077 840.428 162.244 840C162.235 840.432 162.573 840.808 162.402 841.271C162.35 841.412 162.346 841.574 162.338 841.726C162.304 842.481 162.388 842.569 163.139 842.592C163.202 842.594 163.265 842.606 163.341 842.7C163.19 842.737 163.04 842.784 162.887 842.808C162.723 842.833 162.554 842.837 162.328 842.855C162.428 843.784 162.062 844.764 162.841 845.624C162.724 845.607 162.664 845.603 162.607 845.589C162.555 845.576 162.506 845.553 162.446 845.529C162.426 845.579 162.398 845.614 162.398 845.65C162.375 848.084 162.352 850.517 162.347 852.95C162.347 853.07 162.486 853.257 162.603 853.3C163.689 853.703 163.797 855.122 162.88 855.682C162.704 855.789 162.574 856.129 162.586 856.353C162.623 857.077 162.734 857.797 162.818 858.518C163.022 860.267 163.164 862.026 163.448 863.762C163.87 866.344 165.113 868.554 166.858 870.475C168.345 872.111 169.9 873.685 171.411 875.299C172.278 876.225 172.995 877.248 173.455 878.445C173.992 879.838 174.078 881.247 173.483 882.612C172.946 883.845 172.603 885.097 172.479 886.433C172.422 887.043 172.152 887.632 172 888.236C171.94 888.478 171.909 888.733 171.909 888.983C171.899 893.584 171.861 898.186 171.921 902.786C171.932 903.633 172.278 904.491 173.083 905.053C173.726 905.501 174.11 906.272 173.945 906.947C173.703 907.937 173.941 908.886 173.799 909.89C174.446 909.925 175.04 909.957 175.685 909.992V910.451C175.685 912.031 175.586 913.621 175.722 915.189C175.804 916.136 176.23 917.06 176.557 917.974C176.604 918.107 176.961 918.186 177.177 918.192C178.214 918.219 179.251 918.218 180.288 918.217C181.297 918.216 182.307 918.178 183.315 918.208C183.745 918.221 184.002 918.057 184.101 917.687C184.315 916.895 184.518 916.096 184.663 915.289C184.758 914.756 184.762 914.203 184.766 913.658C184.767 913.499 184.67 913.281 184.544 913.188C183.739 912.593 183.659 911.841 184.432 911.212C184.797 910.915 184.882 910.609 184.877 910.177C184.85 907.645 184.846 905.114 184.835 902.582C184.835 902.43 184.835 902.277 184.835 902.141C184.481 901.937 184 902.148 183.711 901.64C184.106 901.585 184.44 901.537 184.803 901.486C184.858 900.92 184.914 900.345 184.97 899.771C185.018 899.77 185.067 899.768 185.115 899.768C185.175 900.33 185.234 900.893 185.297 901.493C185.501 901.519 185.722 901.53 185.933 901.582C186.034 901.607 186.115 901.711 186.205 901.779C186.125 901.855 186.055 901.973 185.96 902C185.759 902.057 185.546 902.065 185.294 902.099C185.286 902.222 185.273 902.355 185.271 902.486C185.25 905.13 185.236 907.773 185.204 910.416C185.201 910.72 185.292 910.889 185.551 911.05C186.435 911.601 186.492 912.28 185.793 913.049C185.613 913.247 185.464 913.553 185.456 913.815C185.409 915.234 185.636 916.626 185.988 918C186.244 918.997 187.019 919.606 187.687 920.294C187.757 920.367 187.92 920.367 188.039 920.369C188.684 920.378 189.328 920.369 189.973 920.388C190.086 920.392 190.269 920.471 190.298 920.556C190.69 921.705 191.065 922.859 191.434 924.015C191.543 924.357 191.479 924.674 191.234 924.955C191.155 925.045 191.093 925.17 191.073 925.287C190.988 925.768 190.701 926.108 190.298 926.329C190.001 926.492 189.915 926.706 189.937 927.008C189.958 927.299 189.974 927.59 189.994 927.891C190.065 927.907 190.118 927.934 190.17 927.929C191.215 927.829 192.087 928.223 192.945 928.784C194.28 929.656 195.66 930.457 197.021 931.29C197.164 931.377 197.306 931.47 197.439 931.571C197.921 931.939 197.929 932.01 197.662 932.569C197.597 932.703 197.571 932.862 197.554 933.012C197.472 933.733 197.219 934.36 196.638 934.831C196.321 935.088 196.349 935.897 196.675 936.226C198.215 937.776 199.761 939.319 201.293 940.876C201.734 941.324 202.153 941.796 202.546 942.287C202.914 942.747 203.069 943.263 202.692 943.81C202.648 943.873 202.592 943.933 202.528 943.976C202.471 944.014 202.397 944.023 202.332 944.048C201.177 944.502 201.134 944.54 201.151 945.748C201.161 946.483 201.036 947.163 200.608 947.775C200.539 947.873 200.483 948.005 200.482 948.121C200.474 949.462 200.476 950.803 200.476 952.197C200.904 952.234 201.273 952.266 201.639 952.298C201.713 952.792 201.358 953.104 200.576 953.235C200.56 953.258 200.531 953.28 200.531 953.303C200.523 954.911 200.505 956.519 200.525 958.126C200.528 958.323 200.688 958.577 200.853 958.704C201.751 959.395 202.675 960.052 203.586 960.727C203.75 960.849 203.893 961.001 204.047 961.141C203.531 961.846 203.746 962.618 203.675 963.34C204.222 963.484 204.73 963.627 205.243 963.749C205.466 963.802 205.526 963.92 205.523 964.135C205.513 964.848 205.508 965.562 205.528 966.274C205.532 966.415 205.612 966.63 205.719 966.68C206.221 966.916 206.347 967.309 206.299 967.814C206.28 968.019 206.296 968.228 206.296 968.442C207.193 968.442 208.056 968.448 208.918 968.438C209.125 968.436 209.226 968.324 209.224 968.086C209.193 965.346 209.177 962.604 209.144 959.863C209.14 959.617 209.086 959.355 208.986 959.132C208.807 958.73 208.914 958.452 209.278 958.256C209.868 957.939 210.467 957.636 211.062 957.325C211.519 957.087 212.144 956.956 212.385 956.579C212.616 956.219 212.457 955.605 212.455 955.102C212.45 952.781 212.452 950.459 212.422 948.137C212.417 947.75 212.262 947.366 212.187 946.979C212.17 946.892 212.179 946.794 212.203 946.708C212.277 946.439 212.454 946.165 212.433 945.906C212.315 944.5 212.704 943.217 213.212 941.927C213.965 940.018 214.649 938.082 215.316 936.142C215.494 935.624 215.531 935.049 215.572 934.497C215.589 934.27 215.446 934.031 215.372 933.798C215.345 933.708 215.277 933.619 215.282 933.533C215.307 933.045 216.048 932.236 216.523 932.089C216.703 932.032 216.92 931.863 216.983 931.695C218.646 927.249 220.283 922.792 221.943 918.345C222.637 916.486 222.462 914.584 222.234 912.692C222.18 912.249 221.745 911.852 221.486 911.433C221.302 911.136 221.11 910.844 220.941 910.539C220.561 909.858 220.619 909.185 221.07 908.568C221.392 908.13 221.748 907.713 222.13 907.326C222.921 906.525 223.659 905.691 224.207 904.702C224.682 903.846 224.82 902.906 224.856 901.954C224.866 901.696 224.719 901.418 224.596 901.173C224.399 900.781 224.371 900.453 224.721 900.114C224.864 899.976 224.959 899.72 224.96 899.517C224.974 897.615 224.96 895.714 224.96 893.812C224.96 893.529 225.039 893.238 224.997 892.964C224.949 892.659 224.806 892.369 224.699 892.058C225.075 891.865 225.141 891.43 224.769 890.967C224.865 890.802 224.964 890.635 225.064 890.465C225.257 890.765 225.276 891.055 225.158 891.398C225.069 891.659 225.085 891.971 225.396 892.049C225.315 892.278 225.202 892.468 225.185 892.667C225.145 893.154 225.138 893.645 225.136 894.134C225.131 895.924 225.139 897.715 225.13 899.505C225.128 899.772 225.188 899.973 225.389 900.169C225.759 900.528 225.735 900.751 225.468 901.206C225.341 901.423 225.252 901.701 225.253 901.95C225.263 903.503 225.734 904.886 226.833 906.027C227.434 906.652 228.038 907.278 228.602 907.936C229.482 908.961 229.453 909.873 228.568 910.901C228.204 911.323 227.821 911.735 227.507 912.192C227.325 912.458 227.173 912.802 227.163 913.116C227.123 914.396 227.059 915.687 227.169 916.959C227.246 917.835 227.581 918.691 227.826 919.548C228.945 923.468 230.074 927.386 231.197 931.306C231.336 931.79 231.518 932.09 232.13 932.189C232.584 932.262 232.968 932.761 233.464 933.13C233.197 933.246 233.076 933.299 232.873 933.387C232.873 934.529 232.786 935.71 232.902 936.872C232.987 937.72 233.327 938.545 233.574 939.374C234.033 940.912 234.525 942.441 234.968 943.983C235.11 944.475 235.131 944.999 235.23 945.505C235.292 945.822 235.421 946.128 235.47 946.446C235.493 946.592 235.445 946.822 235.342 946.901C235.025 947.15 234.985 947.455 234.989 947.822C235.018 950.76 235.038 953.696 235.045 956.633C235.046 957.009 235.16 957.216 235.53 957.341C236.072 957.524 236.596 957.763 237.123 957.99C237.735 958.255 237.86 958.606 237.452 959.125C236.916 959.81 237.213 960.575 237.162 961.304C237.156 961.39 237.275 961.489 237.346 961.575C239.437 964.113 241.526 966.653 243.631 969.181C243.775 969.354 244.02 969.492 244.243 969.547C244.936 969.717 245.642 969.83 246.339 969.985C246.567 970.036 246.78 970.15 247 970.234V970.318C246.723 970.342 246.447 970.387 246.171 970.384C245.598 970.376 245.024 970.344 244.451 970.318C244.136 970.305 243.947 970.406 243.946 970.766C243.945 971.198 243.894 971.631 243.891 972.063C243.864 975.445 243.843 978.826 243.82 982.207C243.818 982.427 243.82 982.647 243.82 982.921C243.212 982.921 242.655 982.921 242.099 982.921C237.409 982.921 232.717 982.919 228.027 982.924C227.652 982.924 227.276 982.968 226.9 982.992H150.202V983Z" fill="#154068"/>
<rect x="112" y="977" width="141" height="38" rx="5" fill="#154068"/>
<path d="M1326.05 1126.38C1329.75 1098.32 1413.05 1037.39 1496.55 1037.39C1606.43 1037.39 1572.27 1029.14 1676.55 1004.89C1805.55 974.887 1953.11 1049.45 1984.61 1098.45C2033.17 1173.99 1722.51 1139.98 1643.78 1116.05C1565.05 1092.11 1322.12 1156.12 1326.05 1126.38Z" fill="#154068"/>
<path d="M0 1105.41C979.954 1081.66 1455.28 1082.74 1920 1105.41V2304C1166.05 2297.91 746.084 2297.64 0 2304L0 1105.41Z" fill="url(#paint0_linear_354_18)"/>
<path d="M-178.292 1109.48C-174.587 1081.42 -190.099 1100.84 -159.292 1037.98C-122.292 962.486 48.2003 950.422 144.208 990.483C352.708 1077.48 397.208 1075.48 397.208 1094.48C397.208 1141.98 133.208 1123.48 -1.79219 1123.48C-84.077 1123.48 -182.219 1139.23 -178.292 1109.48Z" fill="#285B8A"/>
<path d="M1789.19 947.116C1789.54 947.569 1789.86 948.039 1790.24 948.471C1790.82 949.142 1791.43 949.786 1792.03 950.441C1792.61 951.075 1793.3 951.498 1794.12 951.82C1794.93 952.142 1795.69 952.632 1796.39 953.157C1796.88 953.526 1796.77 953.784 1796.28 954.182C1796.02 954.396 1795.78 954.704 1795.67 955.018C1795.5 955.505 1795.16 955.707 1794.71 955.776C1794.26 955.845 1793.81 955.857 1793.36 955.891C1792.88 955.925 1792.71 956.118 1792.86 956.616C1793.13 957.567 1793.33 958.542 1793.62 959.488C1793.69 959.736 1793.96 959.997 1794.2 960.113C1796.95 961.417 1799.77 962.496 1802.81 962.949C1802.83 962.952 1802.85 962.95 1802.87 962.956C1803.27 963.084 1803.89 962.881 1803.96 963.526C1804.02 964.12 1803.62 964.516 1803.13 964.816C1802.81 965.005 1802.39 965.177 1802.26 965.465C1802 966.024 1802.05 966.641 1802.4 967.207C1802.79 967.847 1803.02 968.533 1802.88 969.391C1802.54 969.39 1802.2 969.4 1801.86 969.386C1801.4 969.366 1801.12 969.553 1801.03 970.018C1800.95 970.425 1800.82 970.755 1800.27 970.681C1800.16 970.666 1799.93 970.979 1799.87 971.175C1799.78 971.518 1799.77 971.889 1799.71 972.347C1799.25 972.184 1798.86 972.046 1798.36 971.87C1798.29 972.322 1798.23 972.731 1798.15 973.185C1797.94 973.204 1797.71 973.224 1797.54 973.239C1797.11 973.954 1796.71 974.625 1796.24 975.398C1796.94 975.655 1797.56 975.881 1798.26 976.14C1798.33 975.746 1798.37 975.455 1798.42 975.164C1798.47 974.854 1798.57 974.681 1798.93 974.852C1801.04 975.824 1803.28 976.286 1805.55 976.638C1806.25 976.745 1806.81 976.575 1807.4 976.254C1808.65 975.566 1809.92 974.909 1811.18 974.239C1811.58 974.029 1811.86 973.774 1811.68 973.263C1811.5 972.762 1811.15 972.697 1810.69 972.82C1810.51 972.868 1810.31 972.848 1810.07 972.862C1810.18 972.465 1810.27 972.126 1810.4 971.671C1809.6 971.775 1808.91 971.865 1808.21 971.955C1808.2 971.929 1808.19 971.903 1808.18 971.879C1808.63 971.641 1809.08 971.403 1809.68 971.083C1809.11 970.835 1808.73 970.669 1808.17 970.421C1808.59 970.287 1808.84 970.222 1809.09 970.125C1810.66 969.508 1812.23 968.896 1813.79 968.251C1814.14 968.106 1814.48 967.872 1814.76 967.609C1815.12 967.275 1815.75 966.697 1815.66 966.524C1815.31 965.822 1814.92 965.023 1813.95 964.929C1813.78 964.913 1813.62 964.868 1813.37 964.673C1814.21 964.067 1815.04 963.459 1815.97 962.786C1815.18 962.662 1814.49 962.556 1813.64 962.423C1813.9 962.25 1814.02 962.146 1814.16 962.08C1816.66 960.905 1818 958.746 1819.07 956.348C1819.35 955.726 1819.63 955.055 1820.09 954.574C1820.88 953.744 1821.38 952.811 1821.71 951.734C1822.01 950.742 1822.38 949.77 1822.74 948.796C1822.84 948.542 1823 948.312 1823.13 948.071C1823.2 948.109 1823.23 948.115 1823.23 948.128C1823.77 950.296 1825.41 951.988 1825.77 954.261C1825.99 955.633 1826.44 957.019 1827.05 958.263C1827.64 959.441 1828.53 960.486 1829.38 961.508C1829.87 962.096 1830.43 961.926 1831.02 961.103C1830.13 961.075 1829.47 960.76 1829.32 959.643C1830.12 959.591 1830.96 959.446 1831.77 959.505C1832.83 959.581 1833.87 959.79 1834.91 960.001C1835.55 960.132 1835.87 959.926 1836.06 959.311C1836.63 957.446 1836.71 957.54 1834.81 957.529C1834.6 957.528 1834.39 957.494 1834.14 957.472C1834.12 955.89 1835.4 955.23 1836.19 954.231C1836.02 954.135 1835.77 954.003 1835.49 953.85C1836.03 953.477 1836.49 953.552 1836.99 953.839C1838.04 954.438 1839.12 955.002 1840.19 955.568C1840.41 955.681 1840.65 955.741 1840.88 955.825C1840.94 955.774 1840.99 955.725 1841.04 955.674C1840.59 954.914 1840.13 954.156 1839.64 953.354C1839.87 953.243 1840.08 953.135 1840.45 952.952C1839.9 952.581 1839.47 952.246 1838.99 951.973C1838.64 951.77 1838.47 951.537 1838.44 951.114C1838.38 950.233 1838.23 949.357 1838.12 948.419C1839.26 949.021 1840.37 949.612 1841.49 950.202C1841.54 950.138 1841.58 950.075 1841.63 950.012C1841.37 949.4 1840.84 949.029 1840.35 948.59C1839.83 948.116 1839.27 947.614 1839.39 946.761C1839.41 946.615 1839.27 946.392 1839.14 946.285C1838.32 945.621 1837.77 944.795 1837.51 943.666C1837.84 943.904 1838.1 944.081 1838.35 944.259C1839.82 945.294 1841.27 946.363 1842.77 947.349C1843.55 947.862 1844.01 947.78 1844.64 947.175C1843.68 946.62 1842.76 946.088 1841.81 945.537C1842.02 945.22 1842.28 944.842 1842.6 944.372C1842.27 944.286 1842.05 944.229 1841.79 944.161C1841.82 944.067 1841.84 943.96 1841.89 943.886C1843.43 941.818 1843.81 939.39 1844.13 936.927C1844.32 935.361 1844.6 933.806 1844.86 932.248C1844.9 931.961 1845.04 931.688 1845.12 931.473C1846.35 932.936 1847.55 934.4 1848.8 935.817C1849.72 936.856 1850.73 937.811 1851.65 938.849C1851.85 939.078 1851.84 939.494 1851.94 939.821C1852.01 940.058 1852.06 940.315 1852.18 940.521C1852.32 940.754 1852.54 940.942 1852.75 941.172C1852.6 941.338 1852.47 941.474 1852.34 941.618C1852.39 941.683 1852.42 941.765 1852.46 941.778C1852.96 941.919 1853.46 942.074 1853.96 942.176C1854.47 942.278 1854.88 942.368 1855.04 943C1855.14 943.387 1855.56 943.693 1855.84 944.041C1855.34 944.354 1855.24 944.763 1855.53 945.27C1855.31 945.24 1855.13 945.203 1854.95 945.195C1854.79 945.187 1854.63 945.208 1854.25 945.229C1854.76 945.839 1855.17 946.317 1855.61 946.846C1855.31 946.862 1855.08 946.874 1854.63 946.896C1855.15 947.259 1855.53 947.519 1855.76 947.679C1856.55 946.487 1857.26 945.414 1858.05 944.229C1858.78 945.742 1859.52 947.179 1860.17 948.654C1860.42 949.219 1859.6 950.31 1858.97 950.312C1858.32 950.314 1858.11 950.572 1858.25 951.185C1858.45 952.083 1858.64 952.986 1858.87 954.079C1859.26 953.593 1859.51 953.286 1859.86 952.859C1860.01 953.431 1860.17 953.873 1860.25 954.328C1860.33 954.788 1860.58 954.946 1861.01 954.911C1861.42 954.878 1861.83 954.867 1862.49 954.832C1862 955.57 1861.6 956.159 1861.15 956.82C1861.48 957.015 1861.89 957.262 1862.37 957.551C1861.86 958.179 1861.38 958.778 1860.9 959.375C1860.94 959.42 1860.99 959.467 1861.03 959.513C1861.14 959.466 1861.27 959.446 1861.34 959.369C1861.82 958.879 1862.28 959.065 1862.51 959.537C1863.01 960.536 1863.41 961.584 1863.81 962.625C1863.89 962.828 1863.82 963.09 1863.82 963.405C1863.26 963.254 1863.1 963.607 1863.09 964.031C1863.06 965.236 1863.07 966.441 1863.07 967.641C1864.77 967.751 1866.36 967.855 1868.05 967.966C1868.19 967.465 1868.34 966.896 1868.52 966.222C1867.88 966.164 1867.32 966.113 1866.53 966.042C1866.9 965.467 1867.17 965.025 1867.47 964.606C1867.74 964.228 1868.23 963.96 1867.97 963.183C1869.27 963.805 1870.42 964.36 1871.57 964.914C1871.63 964.872 1871.68 964.829 1871.73 964.788C1871.45 964.261 1871.16 963.735 1870.85 963.162C1871.01 963.075 1871.17 962.993 1871.49 962.82C1870.09 962.213 1869.69 961.14 1869.79 959.712C1870.57 960.111 1871.32 960.493 1872.06 960.877L1872.16 960.756C1871.2 959.349 1870.23 957.942 1869.27 956.535C1869.34 956.478 1869.41 956.421 1869.47 956.364C1869.76 956.569 1870.04 956.782 1870.34 956.977C1871.27 957.599 1872.2 958.232 1873.16 958.824C1873.48 959.024 1873.88 959.154 1874.32 958.666C1873.67 958.204 1873.06 957.765 1872.41 957.302C1872.72 956.93 1873.02 956.573 1872.31 956.359C1873.57 954.865 1873.73 953.05 1874.01 951.284C1874.18 950.26 1874.29 949.226 1874.44 948.198C1874.48 947.93 1874.57 947.67 1874.63 947.406C1874.72 947.356 1874.8 947.305 1874.89 947.255C1874.98 947.428 1875.03 947.629 1875.16 947.772C1876.31 949.098 1877.41 950.471 1878.65 951.708C1879.43 952.489 1879.66 953.484 1880.13 954.387C1880.23 954.576 1880.43 954.839 1880.59 954.848C1881.56 954.895 1881.96 955.622 1882.46 956.304C1882.18 956.653 1881.9 957.009 1881.55 957.445C1881.61 957.514 1881.75 957.668 1881.85 957.841C1881.93 957.956 1882 958.107 1881.99 958.229C1881.91 958.808 1881.9 958.807 1882.48 958.995C1882.99 958.264 1883.49 957.547 1884.14 956.623C1884.67 957.786 1885.19 958.771 1885.57 959.808C1885.74 960.284 1885.38 960.703 1884.85 960.781C1884.32 960.86 1884.21 961.168 1884.29 961.601C1884.41 962.212 1884.58 962.813 1884.72 963.419C1884.83 963.444 1884.93 963.47 1885.03 963.495C1885.14 963.31 1885.24 963.124 1885.4 962.838C1885.71 963.68 1885.74 964.715 1887.11 964.223L1887.13 964.461C1886.88 964.822 1886.63 965.183 1886.35 965.589C1886.58 965.763 1886.83 965.953 1887.11 966.164C1886.83 966.578 1886.57 966.981 1886.16 967.602C1887.34 967.152 1887.49 967.921 1887.77 968.517C1887.94 968.89 1888.12 969.266 1888.23 969.659C1888.28 969.861 1888.27 970.16 1888.15 970.32C1887.27 971.534 1887.65 972.835 1887.9 974.104C1887.95 974.359 1888.38 974.557 1888.66 974.749C1889.16 975.097 1889.15 975.275 1888.64 975.582C1888.51 975.664 1888.37 975.984 1888.42 976.074C1888.57 976.306 1888.83 976.64 1889.03 976.633C1890.39 976.589 1891.8 976.647 1893.1 976.306C1893.97 976.077 1894.7 975.266 1895.45 974.665C1895.55 974.586 1895.5 974.116 1895.36 973.989C1894.87 973.522 1894.3 973.122 1893.69 972.635C1894.22 972.194 1894.87 971.655 1895.63 971.02C1894.97 970.944 1894.43 970.879 1893.87 970.817C1893.86 970.771 1893.85 970.727 1893.83 970.681C1894.23 970.455 1894.61 970.219 1895.02 970.006C1895.72 969.628 1896.44 969.268 1897.15 968.891C1898.1 968.381 1898.65 967.581 1898.96 966.548C1899.18 965.791 1899.52 965.06 1899.88 964.349C1900.21 963.675 1900.17 963.016 1899.99 962.33C1899.9 962.01 1899.83 961.687 1899.82 961.338C1900.55 961.982 1901.17 962.675 1901.45 963.624C1901.62 964.201 1901.83 964.773 1902.08 965.317C1902.34 965.858 1902.75 966.209 1903.42 966.14C1903.61 966.12 1903.87 966.209 1904.01 966.338C1905.37 967.544 1906.7 968.772 1908.04 969.992C1908.03 970.073 1908.01 970.154 1907.99 970.234C1907.54 970.381 1907.09 970.561 1906.62 970.665C1906.27 970.743 1905.89 970.739 1905.52 970.746C1905.01 970.755 1904.76 970.899 1904.95 971.488C1905.33 972.727 1905.67 973.981 1906.02 975.23C1906.07 975.412 1906.1 975.599 1906.18 975.925C1905.13 975.454 1904.23 974.877 1902.99 974.995C1903.18 975.274 1903.31 975.453 1903.43 975.641C1903.72 976.115 1904.06 976.568 1904.27 977.076C1904.5 977.61 1904.93 977.709 1905.39 977.831C1906.23 978.05 1907.06 978.279 1907.89 978.535C1908.14 978.615 1908.37 978.798 1908.71 978.99C1908.48 979.099 1908.37 979.191 1908.24 979.209C1907.86 979.263 1907.5 979.253 1907.33 979.754C1907.28 979.921 1906.81 979.959 1906.52 980.037C1905.56 980.305 1904.58 980.536 1903.63 980.844C1903.33 980.942 1902.83 981.054 1903 981.579C1903.15 982.068 1903.47 982.44 1904.05 982.344C1905.05 982.178 1906.06 982.001 1907.05 981.775C1907.95 981.568 1908.84 981.287 1909.75 981.053C1909.98 980.991 1910.24 980.978 1910.48 980.942L1910.58 981.101C1910.36 981.289 1910.14 981.461 1909.95 981.666C1909.74 981.894 1909.58 982.175 1909.36 982.385C1909.15 982.579 1908.88 982.705 1908.65 982.866C1908.33 983.081 1907.85 983.234 1907.72 983.533C1907.5 984.071 1907.77 984.565 1908.25 984.939C1908.84 985.391 1909.4 985.865 1909.94 986.365C1910.48 986.861 1910.39 987.018 1909.75 987.28C1909.08 987.551 1908.47 987.944 1907.84 988.284L1907.86 988.558C1908.49 988.862 1909.12 989.183 1909.77 989.466C1910.39 989.741 1911.04 989.979 1911.8 990.282C1911.04 990.822 1910.28 990.809 1909.56 990.946C1909.29 990.999 1908.8 991.134 1908.8 991.26C1908.76 991.744 1908.8 992.272 1909.45 992.426C1909.68 992.479 1909.87 992.654 1910.09 992.737C1910.65 992.944 1911.19 993.201 1911.77 993.31C1913.08 993.562 1914.1 994.299 1915.14 995.05C1914.87 995.335 1914.98 995.778 1915.48 996.381C1915.17 996.583 1914.87 996.786 1914.56 996.989C1914.8 997.302 1915.05 997.617 1915.38 998.032L1912.41 998.022C1912.23 998.316 1912.01 998.676 1911.79 999.035C1911.64 999.758 1911.95 1000.19 1912.61 1000.54C1913.96 1001.24 1915.12 1000.87 1916.2 999.975C1916.64 999.619 1917.05 999.235 1917.5 998.89C1917.71 998.728 1917.96 998.63 1918.32 998.441C1918.22 999.655 1917.02 999.788 1916.59 1000.59C1916.73 1000.68 1916.84 1000.76 1917 1000.86C1916.9 1000.96 1916.83 1001.07 1916.73 1001.14C1916.2 1001.5 1916.2 1001.89 1916.58 1002.38C1917.21 1003.21 1917.8 1004.06 1918.45 1004.96C1918.3 1005.01 1918.19 1005.06 1918.08 1005.09C1917.08 1005.35 1916.9 1005.63 1917.2 1006.61C1917.75 1008.39 1918.71 1009.82 1920.48 1010.66C1922.85 1011.81 1925.18 1013.06 1927.53 1014.27C1927.85 1014.43 1928.16 1014.63 1928.43 1014.9C1927.64 1014.65 1926.85 1014.41 1926.06 1014.17C1926.04 1014.22 1926.01 1014.27 1925.98 1014.32C1926.18 1014.54 1926.39 1014.77 1926.59 1015C1926.57 1015.04 1926.55 1015.09 1926.53 1015.13C1926.01 1014.91 1925.5 1014.7 1924.98 1014.49C1924.93 1014.53 1924.89 1014.57 1924.84 1014.6C1925.34 1015.3 1925.85 1016 1926.35 1016.7C1926.28 1016.78 1926.21 1016.85 1926.15 1016.93C1925.53 1016.56 1924.92 1016.19 1924.3 1015.82C1924.25 1015.89 1924.2 1015.95 1924.15 1016.01C1924.96 1016.77 1925.77 1017.54 1926.56 1018.29C1926.11 1019.26 1924.57 1019.72 1925.31 1021.24C1925.62 1020.98 1925.86 1020.78 1926.12 1020.55C1926.76 1021.12 1926.27 1022.55 1927.84 1022.29C1927.56 1022.74 1927.41 1022.99 1927.25 1023.24C1926.91 1023.8 1927.03 1024.06 1927.7 1024.14C1927.93 1024.17 1928.17 1024.15 1928.41 1024.17C1928.64 1024.19 1928.87 1024.23 1928.97 1024.24C1928.85 1024.8 1928.6 1025.32 1928.66 1025.8C1928.73 1026.3 1929.12 1026.75 1929.41 1027.32C1929.05 1027.42 1928.64 1027.58 1928.21 1027.64C1927.7 1027.73 1927.65 1027.95 1927.9 1028.35C1928.11 1028.68 1928.31 1029.03 1928.57 1029.44C1927.26 1029.73 1926.58 1028.54 1925.38 1028.41C1925.51 1029.02 1925.62 1029.53 1925.74 1030.11C1925.22 1030.39 1924.63 1030.64 1924.12 1031C1923.8 1031.23 1923.63 1031.13 1923.4 1030.94C1923.04 1030.67 1922.69 1030.37 1922.29 1030.16C1922.12 1030.07 1921.85 1030.17 1921.62 1030.18C1921.69 1030.36 1921.77 1030.54 1921.82 1030.73C1921.88 1030.92 1921.89 1031.12 1921.93 1031.32C1921.75 1031.34 1921.57 1031.4 1921.39 1031.37C1921.18 1031.34 1920.97 1031.18 1920.78 1031.2C1920.56 1031.22 1920.24 1031.33 1920.17 1031.49C1919.99 1031.93 1919.73 1031.96 1919.35 1031.81C1918.85 1031.62 1918.34 1031.45 1917.78 1031.25C1917.72 1031.55 1917.67 1031.79 1917.6 1032.16C1916.52 1031.28 1915.41 1031.8 1914.23 1031.94C1914.6 1031.53 1915 1031.15 1915.31 1030.7C1915.51 1030.43 1915.74 1029.88 1915.63 1029.77C1915.33 1029.45 1914.86 1029.25 1914.43 1029.09C1914.33 1029.06 1914.05 1029.33 1913.94 1029.52C1913.79 1029.77 1913.71 1030.06 1913.6 1030.36C1913 1029.88 1912.42 1029.41 1911.85 1028.95C1911.78 1028.99 1911.72 1029.04 1911.65 1029.09C1911.72 1029.57 1911.78 1030.05 1911.87 1030.52C1911.97 1031.03 1911.9 1031.39 1911.32 1031.58C1911.15 1031.64 1910.99 1031.99 1910.97 1032.22C1910.94 1032.77 1910.74 1033.17 1910.19 1033.39C1909.57 1032.92 1908.95 1032.46 1908.28 1031.95C1907.9 1032.24 1907.45 1032.6 1906.91 1033.02C1906.57 1032.38 1906.25 1031.81 1905.86 1031.09C1905.65 1031.68 1905.53 1032.13 1905.32 1032.54C1905.21 1032.74 1904.93 1032.86 1904.73 1033.01C1904.62 1032.78 1904.41 1032.54 1904.41 1032.3C1904.42 1031.26 1904.26 1031.15 1903.31 1031.6C1902.39 1032.03 1902.4 1032.03 1902.77 1032.98C1902.82 1033.13 1902.75 1033.44 1902.64 1033.51C1902.4 1033.66 1902.09 1033.79 1901.81 1033.78C1901.57 1033.77 1901.33 1033.55 1901 1033.38C1900.86 1034.14 1900.75 1034.81 1900.62 1035.55C1900.32 1035.41 1900.1 1035.32 1899.9 1035.22C1899.13 1034.84 1898.99 1034.92 1898.92 1035.81C1898.91 1035.91 1898.89 1036.01 1898.86 1036.19C1898.68 1036.06 1898.54 1035.97 1898.42 1035.86C1897.51 1035 1897.39 1035.01 1896.85 1035.85C1896.28 1035.89 1895.81 1035.92 1895.24 1035.95C1895.13 1035.79 1894.93 1035.52 1894.68 1035.18C1894.23 1035.72 1893.83 1036.22 1893.33 1036.81C1893.19 1036.48 1893.11 1036.27 1893.01 1036.07C1892.74 1035.55 1892.51 1035.06 1891.76 1035.02C1891.43 1035 1891.12 1034.56 1890.75 1034.27C1890.55 1034.44 1890.31 1034.64 1890.06 1034.85C1889.24 1034.12 1888.39 1034.47 1887.6 1034.84C1886.95 1035.13 1886.36 1035.55 1885.76 1035.94C1885.36 1036.19 1885.03 1036.15 1884.64 1035.86C1884.28 1035.6 1883.85 1035.43 1883.42 1035.28C1883.09 1035.16 1882.73 1035.11 1882.61 1035.61C1882.59 1035.7 1882.48 1035.81 1882.4 1035.82C1881.2 1035.99 1880 1036.16 1878.8 1036.31C1878.66 1036.32 1878.51 1036.24 1878.26 1036.18C1878.43 1035.77 1878.58 1035.39 1878.74 1034.98C1878.6 1034.93 1878.49 1034.86 1878.4 1034.88C1877.2 1035.1 1875.99 1035.34 1874.79 1035.56C1874.6 1035.6 1874.33 1035.65 1874.23 1035.55C1873.87 1035.2 1873.54 1035.31 1873.15 1035.45C1872.69 1035.61 1872.22 1035.71 1871.75 1035.84C1871.71 1035.78 1871.68 1035.73 1871.64 1035.67C1871.78 1035.5 1871.88 1035.28 1872.05 1035.15C1872.99 1034.42 1873.93 1033.7 1874.89 1033C1875.2 1032.77 1875.56 1032.61 1875.91 1032.44C1876.88 1031.96 1877.26 1031.21 1876.99 1030.08C1876.65 1030.12 1876.29 1030.2 1875.94 1030.19C1875.74 1030.19 1875.54 1030.05 1875.34 1029.99C1875.1 1029.92 1874.79 1029.77 1874.63 1029.85C1874.47 1029.95 1874.32 1030.32 1874.38 1030.52C1874.49 1030.94 1874.74 1031.34 1874.98 1031.83C1873.65 1032.76 1872.3 1033.71 1870.95 1034.65C1870.06 1035.27 1869.12 1035.82 1868.29 1036.52C1867.64 1037.06 1867.08 1037.73 1866.55 1038.41C1866.03 1039.09 1866.02 1039.13 1865.26 1038.78C1864.93 1038.63 1864.38 1038.38 1864.24 1038.51C1863.83 1038.89 1863.53 1039.41 1863.29 1039.93C1863.23 1040.05 1863.54 1040.47 1863.77 1040.56C1864.42 1040.85 1865.11 1041.04 1865.79 1041.28C1866.04 1041.36 1866.29 1041.46 1866.55 1041.56C1866.54 1041.64 1866.53 1041.72 1866.52 1041.79C1865.86 1041.79 1865.2 1041.77 1864.53 1041.79C1863.1 1041.85 1862.93 1042.02 1862.78 1043.44C1862.73 1043.89 1862.83 1044.43 1862.12 1044.49C1862.08 1044.5 1861.99 1044.88 1862.05 1045.04C1862.17 1045.38 1862.37 1045.69 1862.63 1046.18C1862.15 1045.99 1861.8 1045.87 1861.46 1045.73C1860.83 1045.46 1860.77 1045.49 1860.7 1046.15C1860.68 1046.38 1860.62 1046.6 1860.53 1047.01C1860.06 1046.41 1859.7 1045.96 1859.34 1045.5C1859.28 1045.51 1859.22 1045.52 1859.15 1045.52C1859.05 1046.16 1858.94 1046.8 1858.82 1047.5C1858.39 1046.92 1858.01 1046.35 1857.56 1045.84C1857.35 1045.6 1857.02 1045.46 1856.74 1045.27C1856.66 1045.53 1856.59 1045.79 1856.5 1046.04C1856.47 1046.11 1856.41 1046.18 1856.31 1046.33C1856.03 1045.58 1855.78 1044.9 1855.49 1044.14C1855.18 1044.5 1854.93 1044.79 1854.75 1045C1853.78 1044.36 1852.86 1043.69 1851.89 1043.11C1851.23 1042.72 1851.11 1042.81 1850.95 1043.55C1850.64 1044.96 1849.29 1045.72 1847.64 1045.28C1846.78 1045.05 1846 1044.55 1845.1 1044.13C1844.14 1045.59 1843.12 1047.15 1842.09 1048.7C1842 1048.68 1841.91 1048.66 1841.82 1048.65C1841.6 1047.57 1841.38 1046.49 1841.17 1045.41C1841.09 1045.42 1841.01 1045.42 1840.93 1045.43C1840.4 1046.1 1840.62 1046.91 1840.49 1047.75C1840.04 1047.05 1839.59 1046.35 1839.06 1045.53C1838.57 1046.21 1838.16 1046.78 1837.7 1047.41C1837.17 1045.93 1836.66 1044.49 1836.09 1042.9C1835.2 1043.82 1834.74 1045.11 1833.13 1044.73C1833.4 1044.18 1833.63 1043.66 1833.89 1043.16C1834.51 1042 1834.46 1041.89 1833.16 1041.94C1832.12 1041.99 1831.09 1042.09 1829.91 1042.17C1830.22 1041.69 1830.47 1041.28 1830.75 1040.88C1831 1040.52 1830.94 1040.3 1830.53 1040.15C1829.76 1039.85 1829 1039.54 1828.23 1039.23C1827.74 1039.04 1827.45 1038.7 1827.27 1038.18C1827.13 1037.77 1826.83 1037.38 1826.53 1037.06C1825.9 1036.38 1825.21 1035.74 1824.55 1035.08C1824.35 1034.87 1824.17 1034.64 1823.92 1034.35C1825.55 1033.96 1827.04 1034.55 1828.59 1034.54C1828.49 1033.81 1827.97 1033.82 1827.55 1033.78C1827.01 1033.74 1826.6 1033.64 1826.66 1032.85C1826.18 1033.12 1825.79 1033.34 1825.32 1033.6C1824.96 1032.87 1824.63 1032.18 1824.23 1031.34C1823.98 1031.99 1823.83 1032.49 1823.59 1032.93C1823.46 1033.16 1823.17 1033.3 1822.95 1033.48C1822.83 1033.24 1822.61 1033 1822.59 1032.75C1822.46 1031.43 1822.46 1031.42 1821.21 1031.91C1820.31 1032.27 1820.26 1032.34 1820.62 1033.22C1820.75 1033.53 1820.79 1033.78 1820.47 1034.01C1820.15 1034.24 1819.86 1034.52 1819.43 1034.22C1819.25 1034.09 1819.05 1033.98 1818.85 1033.87C1818.8 1033.91 1818.76 1033.96 1818.71 1034.01C1819 1034.38 1819.32 1034.74 1819.58 1035.13C1819.81 1035.48 1819.97 1035.87 1820.17 1036.25C1819.77 1036.38 1819.37 1036.6 1818.96 1036.63C1818.34 1036.67 1817.72 1036.57 1817.09 1036.57C1816.73 1036.57 1816.38 1036.63 1815.87 1036.68C1815.6 1036.5 1815.21 1036.16 1814.76 1035.91C1814.06 1035.52 1813.9 1036.13 1813.74 1036.63C1812.95 1035.96 1812.88 1035.96 1812.1 1036.62C1811.9 1036.23 1811.71 1035.86 1811.46 1035.36C1810.85 1036.01 1810.32 1036.59 1809.8 1037.15C1809.65 1037.05 1809.58 1037.03 1809.58 1037C1809.51 1035.86 1808.72 1035.43 1807.76 1035.2C1807.21 1035.07 1806.66 1034.96 1806.1 1034.91C1805.57 1034.87 1805.11 1034.97 1804.89 1035.62C1804.67 1036.28 1804.06 1036.31 1803.47 1036.18C1802.54 1035.98 1801.65 1035.66 1800.66 1035.93C1800.2 1036.06 1799.99 1036.25 1799.91 1036.67C1799.85 1036.99 1799.77 1037.31 1799.68 1037.62C1799.46 1038.38 1799.17 1038.5 1798.53 1038C1798.03 1037.6 1797.57 1037.13 1797.11 1036.67C1796.8 1036.37 1796.51 1036.04 1796.16 1035.67C1795.84 1036.2 1795.56 1036.7 1795.25 1037.19C1794.1 1039.02 1793.39 1039.09 1791.9 1037.55C1791.69 1037.33 1791.49 1037.1 1791.27 1036.89C1790.81 1036.44 1790.65 1036.48 1790.45 1037.12C1790.34 1037.49 1790.28 1037.88 1790.16 1038.25C1790.05 1038.57 1789.94 1038.9 1789.77 1039.2C1789.33 1039.96 1788.94 1040.01 1788.26 1039.47C1787.99 1039.26 1787.73 1039.05 1787.38 1038.77C1787 1039.59 1786.66 1040.29 1786.27 1041.14C1785.91 1040.72 1785.63 1040.4 1785.37 1040.07C1784.91 1039.52 1784.72 1039.5 1784.21 1039.99C1783.68 1040.49 1783.51 1040.46 1783.25 1039.73C1782.98 1038.94 1782.77 1038.13 1782.47 1037.11C1781.87 1037.83 1781.37 1038.44 1780.86 1039.04C1780.78 1039 1780.69 1038.95 1780.61 1038.91C1780.36 1037.76 1780.12 1036.61 1779.86 1035.35C1779.53 1035.56 1779.29 1035.69 1779.08 1035.86C1778.48 1036.36 1777.9 1036.89 1777.29 1037.37C1777.09 1037.53 1776.8 1037.6 1776.55 1037.7C1776.48 1037.45 1776.37 1037.19 1776.34 1036.93C1776.3 1036.57 1776.36 1036.19 1776.32 1035.83C1776.3 1035.56 1776.18 1035.3 1776.11 1035.04C1775.85 1035.13 1775.57 1035.18 1775.35 1035.32C1774.7 1035.76 1774.09 1036.24 1773.45 1036.68C1773.25 1036.82 1773 1036.9 1772.59 1037.09C1772.8 1036.24 1772.96 1035.57 1773.15 1034.8C1772.17 1035.26 1771.67 1036.34 1770.56 1036.29C1770.52 1036.19 1770.49 1036.15 1770.49 1036.11C1770.47 1035.78 1770.45 1035.44 1770.43 1035.1C1770.11 1035.19 1769.79 1035.32 1769.47 1035.34C1769.29 1035.35 1769.01 1035.19 1768.95 1035.04C1768.8 1034.66 1768.75 1034.25 1768.61 1033.67C1768.14 1034.72 1767.5 1034.34 1766.88 1034.07C1766.45 1033.89 1766.02 1033.71 1765.5 1033.48C1765.45 1033.89 1765.41 1034.19 1765.36 1034.63C1764.91 1034.45 1764.54 1034.25 1764.14 1034.14C1763.79 1034.04 1763.4 1033.98 1763.04 1034.02C1762.01 1034.14 1760.99 1034.35 1759.97 1034.49C1759.72 1034.52 1759.46 1034.44 1759.09 1034.41C1759.79 1033.24 1760.95 1032.74 1761.88 1031.98C1761.85 1031.91 1761.82 1031.83 1761.78 1031.76C1761.38 1031.89 1760.97 1031.99 1760.59 1032.17C1760.27 1032.32 1760.09 1032.28 1759.87 1032.02C1759.56 1031.63 1759.2 1031.28 1758.84 1030.93C1758.68 1030.78 1758.47 1030.69 1758.28 1030.58C1758.22 1030.6 1758.17 1030.63 1758.11 1030.66C1758.18 1031.2 1758.25 1031.74 1758.31 1032.29C1758.34 1032.54 1758.4 1032.8 1758.38 1033.06C1758.33 1033.61 1757.94 1033.83 1757.3 1033.69C1757.22 1034.15 1757.2 1034.63 1757.06 1035.07C1756.75 1035.99 1756.29 1036.07 1755.64 1035.4C1755.57 1035.33 1755.46 1035.22 1755.38 1035.23C1754.82 1035.29 1754.57 1034.92 1754.33 1034.51C1754.15 1034.21 1753.92 1034.17 1753.63 1034.38C1753.18 1034.72 1752.73 1035.05 1752.18 1035.45C1751.81 1034.67 1751.47 1033.95 1751.04 1033.04C1750.84 1033.53 1750.73 1033.85 1750.59 1034.15C1750.44 1034.48 1750.31 1034.83 1750.07 1035.1C1749.94 1035.26 1749.61 1035.36 1749.41 1035.32C1749.28 1035.29 1749.17 1034.95 1749.15 1034.74C1749.12 1034.26 1749.14 1033.77 1749.15 1033.12C1748.28 1033.49 1747.53 1033.8 1746.72 1034.14C1747.01 1034.66 1747.23 1035.08 1747.47 1035.54C1747.1 1035.84 1746.71 1036.14 1746.34 1036.43C1745.91 1036.17 1745.51 1035.93 1745.1 1035.68C1744.89 1036.56 1744.7 1037.35 1744.49 1038.22C1744.12 1038.07 1743.8 1037.93 1743.47 1037.79C1742.65 1037.46 1742.52 1037.53 1742.49 1038.39C1742.48 1038.6 1742.45 1038.81 1742.44 1039.01L1742.23 1039.17C1742.02 1038.89 1741.83 1038.58 1741.57 1038.33C1740.75 1037.52 1740.29 1037.65 1739.95 1038.75C1739.91 1038.86 1739.87 1038.98 1739.83 1039.11C1739.06 1038.15 1738.67 1038.14 1738.08 1039.04C1737.98 1038.8 1737.9 1038.58 1737.81 1038.36C1737.55 1037.73 1737.31 1037.68 1736.85 1038.2C1736.6 1038.48 1736.39 1038.78 1736.17 1039.08C1736.02 1039.29 1735.9 1039.52 1735.77 1039.74C1735.69 1039.69 1735.61 1039.63 1735.53 1039.58C1735.32 1039.08 1735.1 1038.57 1734.89 1038.07C1734.71 1037.65 1734.46 1037.41 1733.94 1037.46C1733.72 1037.48 1733.38 1037.3 1733.27 1037.12C1732.95 1036.55 1732.58 1036.54 1732.1 1036.88C1731.92 1037.02 1731.72 1037.13 1731.46 1037.28C1731.26 1036.43 1730.68 1036.46 1730.12 1036.61C1729.51 1036.77 1728.92 1036.99 1728.35 1037.24C1727.9 1037.44 1727.47 1037.7 1727.06 1037.99C1726.24 1038.56 1725.5 1038.81 1724.69 1037.9C1724.42 1037.6 1723.83 1037.55 1723.38 1037.44C1723.22 1037.4 1722.91 1037.47 1722.85 1037.59C1722.51 1038.21 1721.9 1038.22 1721.33 1038.29C1720.32 1038.41 1719.3 1038.54 1718.29 1038.58C1717.26 1038.62 1717.14 1038.37 1717.64 1037.51C1717.74 1037.33 1717.82 1037.14 1717.97 1036.85C1717.65 1036.83 1717.44 1036.77 1717.25 1036.8C1716.11 1036.98 1714.98 1037.18 1713.85 1037.39C1713.6 1037.44 1713.37 1037.59 1713.12 1037.63C1712.91 1037.66 1712.58 1037.67 1712.48 1037.55C1712.17 1037.16 1711.85 1037.21 1711.44 1037.32C1710.66 1037.53 1709.86 1037.7 1709.03 1037.81C1710.27 1036.55 1711.42 1035.24 1713.06 1034.51C1713.81 1034.17 1714.53 1033.77 1715.23 1033.34C1716.03 1032.86 1716.31 1032.08 1716 1031.21C1715.95 1031.06 1715.63 1030.9 1715.44 1030.91C1715.05 1030.93 1714.67 1031.07 1714.24 1031.08C1714.79 1030.11 1716.02 1029.79 1716.42 1028.74C1715.47 1028.15 1714.58 1028.18 1713.64 1028.63C1713.08 1028.9 1712.47 1029.09 1711.86 1029.24C1711.53 1029.33 1711.15 1029.26 1710.64 1029.25C1711.15 1028.83 1711.53 1028.52 1711.95 1028.18C1711.76 1028.06 1711.65 1027.99 1711.32 1027.79C1711.74 1027.53 1712.07 1027.32 1712.4 1027.12C1712.36 1027.05 1712.33 1026.98 1712.3 1026.91C1711.88 1026.85 1711.45 1026.78 1710.92 1026.69C1711.13 1026.5 1711.24 1026.34 1711.4 1026.26C1712.35 1025.72 1713.31 1025.2 1714.28 1024.68C1714.71 1024.44 1715.18 1024.25 1715.59 1023.97C1715.75 1023.85 1715.77 1023.54 1715.86 1023.31C1715.8 1023.27 1715.73 1023.23 1715.67 1023.2C1715.83 1023.13 1715.98 1023.07 1716.13 1023C1717.28 1022.51 1718.48 1022.11 1719.57 1021.5C1720.88 1020.76 1722.19 1020.03 1723.69 1019.81C1725.22 1019.58 1725.74 1018.48 1726.13 1017.17C1725.74 1017.43 1725.34 1017.69 1724.78 1018.06C1724.89 1017.66 1724.95 1017.44 1725.01 1017.21C1725.1 1016.94 1725.22 1016.68 1725.25 1016.4C1725.28 1016.16 1725.22 1015.91 1725.19 1015.67C1724.94 1015.74 1724.65 1015.76 1724.44 1015.91C1724.08 1016.17 1723.77 1016.5 1723.44 1016.8C1722.54 1015.86 1722.12 1015.89 1721.33 1016.91C1720.87 1017.5 1720.41 1018.1 1719.88 1018.81C1719.52 1018.37 1719.24 1018.03 1718.87 1017.58C1718.37 1018.67 1717.91 1019.68 1717.45 1020.69L1717.27 1020.65C1717.14 1020.23 1717.01 1019.81 1716.86 1019.32C1715.53 1019.82 1714.71 1020.91 1713.68 1021.73C1713.21 1021.32 1713.35 1020.94 1713.61 1020.56C1713.94 1020.07 1714.27 1019.57 1714.6 1019.08C1714.55 1019.01 1714.51 1018.95 1714.47 1018.89C1714.09 1018.95 1713.71 1019.01 1713.28 1019.08C1712.86 1018.31 1713.58 1018.07 1714.14 1017.54C1713.45 1017.46 1712.92 1017.4 1712.17 1017.32C1712.82 1016.76 1713.36 1016.31 1713.95 1015.8C1713.57 1015.74 1713.23 1015.69 1712.76 1015.62C1712.99 1015.5 1713.12 1015.41 1713.26 1015.37C1714.67 1014.94 1715.9 1014.19 1717.04 1013.27C1718.18 1012.35 1719.39 1011.59 1720.94 1011.52C1721.37 1011.5 1721.78 1011.07 1722.25 1010.81C1722.05 1010.54 1721.93 1010.4 1721.77 1010.18C1723.83 1009.5 1726.03 1009.34 1727.91 1008.25C1727.92 1008.18 1727.94 1008.1 1727.95 1008.03C1727.12 1007.64 1726.3 1007.25 1725.41 1006.83C1725.89 1006.59 1726.33 1006.37 1726.76 1006.15C1727.62 1005.71 1727.8 1005.18 1727.4 1004.3C1727.06 1003.54 1727.08 1003.57 1727.82 1003.23C1729.35 1002.52 1730.87 1001.78 1732.39 1001.04C1732.59 1000.94 1732.77 1000.8 1732.96 1000.67C1732.96 1000.61 1732.96 1000.55 1732.95 1000.49C1731.19 1000.22 1729.42 999.96 1727.66 999.697C1727.66 999.621 1727.66 999.547 1727.66 999.472C1729.13 998.991 1730.8 998.995 1732.01 997.787C1731.83 997.58 1731.7 997.423 1731.48 997.175C1731.97 997.03 1732.41 996.934 1732.82 996.767C1733.07 996.665 1733.49 996.403 1733.46 996.301C1733.39 995.984 1733.2 995.595 1732.94 995.444C1732.46 995.175 1731.9 995.06 1731.22 994.827C1733.29 993.537 1735.18 992.254 1736.5 990.359C1736.46 990.294 1736.42 990.228 1736.38 990.163C1736 990.312 1735.62 990.461 1735.05 990.685C1735.41 990.129 1735.67 989.733 1736.01 989.203C1735.42 989.144 1734.97 989.098 1734.47 989.047C1735.25 988.639 1735.99 988.247 1736.73 987.856C1736.43 987.173 1736 987.011 1735.45 987.044C1734.51 987.1 1733.56 987.141 1732.63 987.188C1732.63 985.659 1733.79 985.059 1734.81 984.358C1734.78 984.284 1734.76 984.21 1734.73 984.135C1733.72 984.016 1732.72 983.899 1731.61 983.768C1732.6 981.718 1734.48 980.601 1735.86 978.949C1735.1 978.401 1734.23 978.443 1733.44 978.235C1732.47 977.981 1731.89 978.728 1730.99 979.206C1731.1 978.611 1731.18 978.187 1731.3 977.57C1730.11 978.152 1729.02 978.687 1727.93 979.222C1727.87 979.148 1727.82 979.074 1727.76 978.999C1728.42 978.266 1729.09 977.533 1729.77 976.784C1729.67 976.711 1729.62 976.642 1729.58 976.643C1728.91 976.659 1728.33 976.654 1728.48 975.672C1728.53 975.396 1728.16 975.057 1727.94 974.684C1728.53 974.73 1729.09 974.806 1729.66 974.808C1730.09 974.809 1730.57 974.829 1730.92 974.642C1732.53 973.802 1734.11 972.896 1735.69 971.999C1735.98 971.837 1736.33 971.694 1736.13 971.208C1735.95 970.775 1735.73 970.509 1735.21 970.63C1734.97 970.687 1734.7 970.658 1734.34 970.674C1734.46 970.224 1734.55 969.849 1734.67 969.351C1733.74 969.52 1732.9 969.67 1732.07 969.823C1732.05 969.785 1732.04 969.747 1732.02 969.709C1732.53 969.44 1733.04 969.171 1733.56 968.902L1733.52 968.698C1733.13 968.526 1732.73 968.355 1732.21 968.132C1732.6 967.989 1732.88 967.876 1733.16 967.789C1735.32 967.11 1737.36 966.179 1739.24 964.898C1740.42 964.09 1740.46 963.789 1739.43 962.821C1738.99 962.403 1738.38 962.164 1737.74 961.786C1738.52 961.173 1739.35 960.519 1740.18 959.864C1740.16 959.795 1740.15 959.728 1740.13 959.659C1739.45 959.593 1738.77 959.528 1738.09 959.462C1738.07 959.421 1738.05 959.379 1738.04 959.337C1738.26 959.2 1738.48 959.047 1738.71 958.93C1739.87 958.344 1741.04 957.766 1742.2 957.19C1743.33 956.63 1744.02 955.739 1744.42 954.534C1744.75 953.538 1745.22 952.583 1745.68 951.635C1746.03 950.907 1746.05 950.184 1745.85 949.426C1745.75 949.013 1745.65 948.597 1745.62 948.148C1746.5 948.84 1747.25 949.602 1747.56 950.701C1747.75 951.346 1747.9 952.001 1748.12 952.631C1748.44 953.518 1749.02 954.076 1750.05 954.094C1750.36 954.101 1750.72 954.296 1750.95 954.517C1752.5 956 1754.02 957.513 1755.55 959.016C1755.53 959.101 1755.51 959.186 1755.49 959.27C1754.7 959.408 1753.91 959.555 1753.11 959.678C1752.86 959.717 1752.59 959.685 1752.33 959.692C1751.59 959.712 1751.51 959.85 1751.7 960.557C1752.12 962.144 1752.52 963.735 1752.93 965.327C1752.98 965.531 1752.99 965.747 1753.04 966.099C1751.71 965.437 1750.48 964.779 1748.97 964.871C1749.28 965.187 1749.63 965.474 1749.89 965.826C1750.17 966.215 1750.52 966.642 1750.59 967.091C1750.7 967.846 1751.15 968.064 1751.77 968.253C1753.16 968.671 1754.52 969.148 1755.89 969.61C1756.02 969.654 1756.14 969.756 1756.37 969.899C1755.87 969.971 1755.5 970.013 1755.13 970.084C1754.75 970.155 1754.27 970.099 1754.3 970.751C1754.31 970.857 1753.92 971.053 1753.7 971.086C1753.27 971.15 1752.81 971.048 1752.4 971.154C1751.35 971.425 1750.31 971.755 1749.27 972.107C1749.13 972.157 1748.96 972.474 1748.98 972.641C1749.05 973.078 1749.11 973.625 1749.71 973.633C1750.45 973.643 1751.2 973.634 1751.91 973.494C1753.63 973.158 1755.34 972.735 1757.05 972.361C1757.42 972.282 1757.8 972.265 1758.17 972.219C1758.21 972.295 1758.25 972.372 1758.28 972.447C1757.73 972.857 1757.18 973.267 1756.59 973.704C1756.7 973.872 1756.81 974.04 1756.97 974.302C1756.39 974.451 1755.85 974.566 1755.33 974.731C1754.87 974.876 1754.25 974.974 1754.72 975.714C1754.73 975.731 1754.74 975.761 1754.73 975.774C1754.22 976.629 1755.05 976.811 1755.46 977.185C1756.05 977.727 1756.69 978.217 1757.27 978.77C1757.47 978.957 1757.7 979.323 1757.63 979.506C1757.56 979.715 1757.19 979.893 1756.92 979.944C1756.04 980.11 1755.37 980.558 1754.71 981.277C1756.05 982.571 1757.97 982.648 1759.45 983.722C1758.54 984.159 1757.61 984.311 1756.65 984.356C1756.3 984.373 1755.7 984.088 1755.69 984.61C1755.67 985.073 1755.97 985.642 1756.31 985.999C1756.68 986.387 1757.25 986.601 1757.74 986.862C1758.04 987.019 1758.37 987.214 1758.69 987.226C1759.87 987.275 1760.87 987.76 1761.83 988.372C1762.41 988.742 1762.98 989.117 1763.66 989.555C1763.43 989.631 1763.23 989.663 1763.07 989.759C1762.96 989.823 1762.91 989.978 1762.83 990.092C1762.95 990.158 1763.07 990.277 1763.19 990.282C1764 990.315 1766.49 989.13 1767.08 988.38C1766.36 988.256 1765.7 988.142 1764.89 988.003C1765.18 987.765 1765.36 987.576 1765.58 987.437C1766.2 987.041 1766.85 986.682 1767.46 986.279C1768.25 985.767 1768.93 985.181 1769.37 984.299C1769.7 983.651 1770.23 983.111 1770.67 982.521C1771.29 981.7 1771.23 981.57 1770.24 981.412C1769.79 981.34 1769.33 981.31 1768.9 981.187C1768.63 981.109 1768.39 980.892 1768.14 980.739L1768.18 980.531C1767.85 980.671 1767.52 980.836 1767.18 980.943C1766.5 981.153 1765.83 981.4 1765.13 981.5C1764.5 981.591 1764.29 981.284 1764.26 980.662C1764.24 979.901 1764.45 979.371 1765.24 979.063C1765.98 978.775 1766.68 978.355 1767.34 977.91C1767.63 977.721 1767.86 977.335 1767.92 977.005C1767.95 976.854 1767.51 976.6 1767.27 976.426C1767.08 976.294 1766.86 976.215 1766.62 976.099C1766.7 975.951 1766.74 975.853 1766.79 975.765C1767.85 974.003 1767.86 974.001 1767.55 972.033C1767.53 971.852 1767.31 971.673 1767.13 971.553C1767 971.46 1766.8 971.466 1766.64 971.419C1766.48 971.373 1766.32 971.314 1766.12 971.246C1766.67 969.677 1768.31 968.808 1768.7 967.089C1767.12 967.084 1765.66 967.848 1764.09 967.324C1764.29 967.046 1764.46 966.809 1764.7 966.46C1764.18 966.367 1763.75 966.292 1763.13 966.18C1763.51 965.965 1763.74 965.826 1763.97 965.704C1764.76 965.298 1765.57 964.93 1766.34 964.481C1766.67 964.285 1766.9 963.914 1767.2 963.652C1767.4 963.474 1767.63 963.271 1767.88 963.211C1769.39 962.854 1770.92 962.54 1772.44 962.2C1772.8 962.119 1773.16 961.986 1773.51 961.878C1773.51 961.798 1773.5 961.717 1773.5 961.638C1773.01 961.525 1772.52 961.408 1772.03 961.305C1771.75 961.248 1771.47 961.223 1771.19 961.17C1770.27 960.995 1770.28 960.913 1770.19 960.001C1770.12 959.342 1770.02 958.746 1770.44 958.162C1770.49 958.083 1770.32 957.766 1770.18 957.641C1769.61 957.125 1769 956.642 1768.38 956.125C1768.56 955.9 1768.73 955.686 1768.87 955.504C1768.32 955.02 1767.79 954.547 1767.19 954.018C1767.54 953.69 1767.76 953.489 1767.98 953.287C1768.98 952.358 1769.99 951.447 1770.96 950.491C1771.3 950.163 1771.57 949.75 1771.79 949.334C1772.32 948.346 1772.19 947.625 1771.42 946.796C1771.23 946.592 1771.03 946.384 1770.9 946.14C1770.63 945.609 1771.03 944.343 1771.59 944.038C1772.1 943.761 1772.65 943.583 1773.17 943.33C1773.99 942.933 1774.8 942.539 1775.58 942.081C1775.88 941.903 1776.12 941.577 1776.32 941.275C1776.77 940.583 1776.72 940.266 1776.14 939.658C1776.45 939.196 1776.96 938.81 1776.7 938.096C1776.65 937.946 1777.06 937.647 1777.22 937.394C1777.43 937.061 1777.91 936.777 1777.49 936.281C1777.45 936.242 1777.51 936.121 1777.54 936.04C1777.79 935.217 1778.05 934.393 1778.32 933.572C1778.53 932.917 1778.81 932.281 1778.53 931.561C1778.46 931.392 1778.54 931.121 1778.64 930.938C1779.85 928.557 1780 925.96 1780.25 923.373C1780.35 922.317 1780.66 921.28 1780.88 920.234L1781.14 920.221C1781.28 920.518 1781.42 920.814 1781.55 921.113C1782.46 923.259 1783.36 925.413 1784.3 927.548C1784.54 928.078 1784.89 928.554 1785.2 929.054C1785.6 929.722 1786.1 930.157 1786.99 930.063C1787.31 930.029 1787.75 930.29 1787.99 930.551C1788.62 931.232 1789.17 931.985 1789.75 932.711C1790.85 934.076 1791.91 935.477 1793.06 936.795C1793.91 937.764 1794.45 938.706 1794.33 940.106C1794.25 940.981 1794.67 941.961 1795.06 942.803C1795.66 944.104 1795.54 944.679 1794.25 945.284C1793.81 945.486 1793.48 945.702 1793.41 946.246C1793.33 946.807 1792.87 947.027 1792.36 947.046C1791.74 947.069 1791.11 947.018 1790.48 946.99C1790.1 946.973 1789.71 946.943 1789.32 946.919C1789.28 946.98 1789.24 947.042 1789.2 947.103L1789.19 947.116ZM1770.22 990.952C1770.18 990.875 1770.13 990.798 1770.08 990.722C1769.7 990.879 1769.3 991.002 1768.94 991.196C1768.07 991.659 1768.07 991.672 1767.46 990.981C1766.33 991.569 1765.2 992.158 1764.07 992.75C1764.02 992.78 1763.96 992.827 1763.93 992.881C1763.73 993.357 1763.3 993.38 1762.89 993.351C1761.85 993.274 1760.8 993.162 1759.73 993.061L1759.73 993.943C1758.83 994.154 1758.75 994.318 1759.17 995.131C1759.29 995.355 1759.45 995.579 1759.64 995.741C1760.78 996.69 1762.22 996.837 1763.51 996.1C1764.03 995.801 1764.5 995.407 1764.99 995.05C1765.48 994.692 1765.95 994.314 1766.45 993.97C1766.63 993.846 1766.86 993.795 1767.15 993.675C1767.18 995.335 1765.4 995.236 1764.88 996.275C1765.09 996.406 1765.27 996.526 1765.53 996.693C1765.28 996.868 1765.12 996.995 1764.94 997.112C1764.37 997.489 1764.32 997.718 1764.87 998.05C1765.33 998.324 1765.89 998.568 1766.41 998.585C1767.69 998.628 1768.97 998.574 1770.25 998.483C1772.34 998.333 1773.83 997.1 1775.16 995.626C1775.18 995.605 1775.16 995.546 1775.15 995.397C1774.61 995.301 1774.05 995.188 1773.48 995.103C1773.02 995.034 1772.8 994.803 1772.8 994.322C1772.81 993.941 1772.75 993.558 1772.72 993.108C1772.2 993.313 1771.76 993.482 1771.29 993.67C1771.41 993.265 1771.5 992.975 1771.62 992.595L1769.16 992.588C1769.55 991.993 1769.88 991.474 1770.22 990.954L1770.22 990.952ZM1826.34 963.136C1826.64 964.161 1826.91 965.15 1827.23 966.125C1827.27 966.257 1827.53 966.388 1827.69 966.401C1829.33 966.528 1830.97 966.683 1832.61 966.719C1833.49 966.739 1834.67 965.799 1834.87 965.01C1833.42 965.227 1832.03 965.436 1830.52 965.662C1830.87 964.332 1829.9 964.287 1829.01 964.135C1829.32 963.792 1829.54 963.555 1829.75 963.316L1829.68 963.145L1826.34 963.135L1826.34 963.136ZM1828.84 971.521C1828.49 971.131 1828.21 970.892 1828.02 970.596C1827.83 970.289 1827.73 969.925 1827.58 969.589C1827.11 968.515 1825.2 967.492 1823.91 967.67C1824.09 967.919 1824.25 968.143 1824.41 968.356C1824.69 968.71 1825.11 969.018 1825.24 969.417C1825.45 970.13 1825.93 970.509 1826.54 970.755C1827.24 971.042 1827.98 971.24 1828.84 971.521ZM1824.86 974.613C1824.86 974.613 1824.86 974.614 1824.86 974.615C1824.69 974.601 1824.52 974.587 1824.35 974.572C1823.66 974.51 1823.49 974.748 1823.74 975.385C1823.99 976.032 1824.54 976.007 1825.09 976.024C1825.66 976.041 1826.02 975.716 1826.23 975.24C1826.27 975.132 1826.04 974.791 1825.88 974.736C1825.56 974.628 1825.2 974.648 1824.86 974.614L1824.86 974.613Z" fill="#154068"/>
<path d="M1579.16 996.288C1578.9 996.627 1578.65 996.979 1578.37 997.302C1577.94 997.804 1577.48 998.286 1577.03 998.776C1576.6 999.251 1576.08 999.567 1575.47 999.808C1574.86 1000.05 1574.29 1000.42 1573.77 1000.81C1573.4 1001.08 1573.48 1001.28 1573.85 1001.58C1574.05 1001.74 1574.23 1001.97 1574.31 1002.2C1574.44 1002.57 1574.69 1002.72 1575.02 1002.77C1575.36 1002.82 1575.7 1002.83 1576.04 1002.85C1576.39 1002.88 1576.52 1003.02 1576.41 1003.4C1576.21 1004.11 1576.06 1004.84 1575.84 1005.54C1575.79 1005.73 1575.59 1005.93 1575.41 1006.01C1573.35 1006.99 1571.24 1007.8 1568.97 1008.13C1568.95 1008.14 1568.94 1008.13 1568.92 1008.14C1568.62 1008.24 1568.15 1008.08 1568.11 1008.57C1568.06 1009.01 1568.36 1009.31 1568.73 1009.53C1568.96 1009.67 1569.28 1009.8 1569.38 1010.02C1569.57 1010.44 1569.53 1010.9 1569.27 1011.32C1568.98 1011.8 1568.81 1012.31 1568.91 1012.95C1569.17 1012.95 1569.42 1012.96 1569.68 1012.95C1570.02 1012.94 1570.23 1013.08 1570.3 1013.42C1570.35 1013.73 1570.45 1013.98 1570.87 1013.92C1570.95 1013.91 1571.12 1014.14 1571.16 1014.29C1571.24 1014.55 1571.24 1014.82 1571.28 1015.17C1571.63 1015.04 1571.92 1014.94 1572.29 1014.81C1572.35 1015.15 1572.4 1015.45 1572.45 1015.79C1572.61 1015.81 1572.78 1015.82 1572.91 1015.83C1573.23 1016.37 1573.53 1016.87 1573.88 1017.45C1573.36 1017.64 1572.9 1017.81 1572.37 1018C1572.32 1017.71 1572.28 1017.49 1572.25 1017.27C1572.22 1017.04 1572.14 1016.91 1571.87 1017.04C1570.29 1017.77 1568.62 1018.11 1566.91 1018.38C1566.39 1018.46 1565.97 1018.33 1565.53 1018.09C1564.6 1017.57 1563.65 1017.08 1562.7 1016.58C1562.41 1016.42 1562.19 1016.23 1562.33 1015.85C1562.47 1015.48 1562.73 1015.43 1563.07 1015.52C1563.21 1015.56 1563.35 1015.54 1563.53 1015.55C1563.45 1015.25 1563.38 1015 1563.29 1014.66C1563.88 1014.74 1564.4 1014.81 1564.92 1014.87C1564.93 1014.85 1564.94 1014.83 1564.95 1014.82C1564.61 1014.64 1564.27 1014.46 1563.82 1014.22C1564.25 1014.04 1564.54 1013.91 1564.96 1013.73C1564.64 1013.63 1564.45 1013.58 1564.27 1013.5C1563.09 1013.04 1561.92 1012.58 1560.75 1012.1C1560.49 1011.99 1560.23 1011.82 1560.02 1011.62C1559.76 1011.37 1559.28 1010.94 1559.35 1010.81C1559.61 1010.28 1559.91 1009.69 1560.63 1009.62C1560.76 1009.6 1560.88 1009.57 1561.06 1009.42C1560.44 1008.97 1559.81 1008.52 1559.12 1008.01C1559.71 1007.92 1560.23 1007.84 1560.86 1007.74C1560.67 1007.61 1560.58 1007.53 1560.47 1007.48C1558.6 1006.61 1557.6 1004.99 1556.8 1003.2C1556.59 1002.73 1556.38 1002.23 1556.04 1001.87C1555.45 1001.25 1555.07 1000.55 1554.83 999.743C1554.6 999.001 1554.32 998.274 1554.05 997.545C1553.98 997.355 1553.86 997.183 1553.76 997.003C1553.71 997.031 1553.69 997.035 1553.68 997.045C1553.28 998.667 1552.05 999.934 1551.78 1001.63C1551.62 1002.66 1551.29 1003.7 1550.83 1004.63C1550.39 1005.51 1549.72 1006.29 1549.09 1007.06C1548.72 1007.5 1548.3 1007.37 1547.86 1006.75C1548.53 1006.73 1549.02 1006.5 1549.13 1005.66C1548.53 1005.62 1547.91 1005.51 1547.3 1005.56C1546.51 1005.61 1545.72 1005.77 1544.95 1005.93C1544.47 1006.03 1544.23 1005.87 1544.09 1005.41C1543.66 1004.02 1543.6 1004.09 1545.02 1004.08C1545.18 1004.08 1545.34 1004.05 1545.53 1004.04C1545.54 1002.85 1544.58 1002.36 1543.99 1001.61C1544.12 1001.54 1544.3 1001.44 1544.51 1001.33C1544.11 1001.05 1543.77 1001.1 1543.39 1001.32C1542.6 1001.77 1541.8 1002.19 1541 1002.61C1540.83 1002.7 1540.65 1002.74 1540.48 1002.8C1540.44 1002.77 1540.4 1002.73 1540.36 1002.69C1540.7 1002.12 1541.04 1001.56 1541.41 1000.96C1541.24 1000.87 1541.08 1000.79 1540.8 1000.65C1541.21 1000.38 1541.54 1000.13 1541.89 999.922C1542.16 999.77 1542.28 999.596 1542.31 999.279C1542.36 998.62 1542.46 997.965 1542.55 997.263C1541.7 997.714 1540.86 998.156 1540.02 998.597C1539.99 998.55 1539.96 998.502 1539.92 998.455C1540.11 997.997 1540.51 997.719 1540.88 997.391C1541.27 997.037 1541.69 996.661 1541.59 996.022C1541.58 995.913 1541.69 995.746 1541.79 995.666C1542.4 995.17 1542.81 994.551 1543.01 993.707C1542.75 993.885 1542.56 994.018 1542.37 994.151C1541.28 994.925 1540.19 995.725 1539.07 996.462C1538.48 996.847 1538.14 996.785 1537.67 996.332C1538.39 995.917 1539.07 995.519 1539.79 995.107C1539.63 994.87 1539.44 994.587 1539.2 994.236C1539.44 994.171 1539.6 994.128 1539.8 994.077C1539.77 994.007 1539.77 993.927 1539.73 993.872C1538.58 992.325 1538.29 990.508 1538.05 988.665C1537.9 987.493 1537.7 986.33 1537.51 985.164C1537.47 984.949 1537.37 984.745 1537.31 984.584C1536.39 985.678 1535.49 986.774 1534.55 987.835C1533.87 988.612 1533.11 989.326 1532.42 990.102C1532.27 990.274 1532.28 990.586 1532.21 990.83C1532.16 991.008 1532.12 991.2 1532.03 991.354C1531.92 991.528 1531.76 991.669 1531.6 991.841C1531.71 991.965 1531.81 992.067 1531.91 992.175C1531.87 992.223 1531.85 992.285 1531.82 992.295C1531.44 992.4 1531.07 992.516 1530.69 992.592C1530.32 992.668 1530.01 992.735 1529.89 993.209C1529.82 993.498 1529.5 993.727 1529.29 993.988C1529.66 994.221 1529.74 994.528 1529.52 994.907C1529.69 994.885 1529.82 994.857 1529.95 994.851C1530.07 994.845 1530.2 994.861 1530.48 994.877C1530.1 995.332 1529.79 995.691 1529.46 996.086C1529.69 996.098 1529.86 996.107 1530.2 996.124C1529.8 996.395 1529.52 996.59 1529.35 996.709C1528.76 995.817 1528.22 995.015 1527.63 994.128C1527.09 995.26 1526.53 996.335 1526.05 997.439C1525.86 997.862 1526.48 998.678 1526.95 998.679C1527.43 998.681 1527.59 998.874 1527.49 999.333C1527.33 1000 1527.2 1000.68 1527.02 1001.5C1526.73 1001.13 1526.54 1000.9 1526.28 1000.59C1526.17 1001.01 1526.05 1001.34 1525.99 1001.68C1525.93 1002.03 1525.74 1002.15 1525.42 1002.12C1525.11 1002.1 1524.8 1002.09 1524.31 1002.06C1524.68 1002.61 1524.98 1003.05 1525.31 1003.55C1525.07 1003.69 1524.76 1003.88 1524.4 1004.1C1524.78 1004.57 1525.14 1005.01 1525.51 1005.46C1525.47 1005.49 1525.44 1005.53 1525.41 1005.56C1525.33 1005.53 1525.23 1005.51 1525.17 1005.46C1524.82 1005.09 1524.47 1005.23 1524.3 1005.58C1523.93 1006.33 1523.63 1007.11 1523.32 1007.89C1523.27 1008.04 1523.32 1008.24 1523.32 1008.48C1523.74 1008.36 1523.86 1008.63 1523.86 1008.94C1523.88 1009.85 1523.88 1010.75 1523.88 1011.64C1522.61 1011.73 1521.42 1011.81 1520.15 1011.89C1520.05 1011.51 1519.93 1011.09 1519.8 1010.58C1520.28 1010.54 1520.7 1010.5 1521.29 1010.45C1521.01 1010.02 1520.81 1009.69 1520.58 1009.37C1520.38 1009.09 1520.02 1008.89 1520.21 1008.31C1519.24 1008.77 1518.38 1009.19 1517.52 1009.6C1517.48 1009.57 1517.44 1009.54 1517.4 1009.51C1517.61 1009.12 1517.83 1008.72 1518.06 1008.29C1517.94 1008.23 1517.82 1008.17 1517.58 1008.04C1518.62 1007.58 1518.93 1006.78 1518.85 1005.71C1518.27 1006.01 1517.71 1006.3 1517.15 1006.58L1517.08 1006.49C1517.8 1005.44 1518.52 1004.39 1519.24 1003.34C1519.19 1003.29 1519.14 1003.25 1519.09 1003.21C1518.87 1003.36 1518.66 1003.52 1518.44 1003.67C1517.74 1004.13 1517.05 1004.61 1516.33 1005.05C1516.09 1005.2 1515.79 1005.3 1515.46 1004.93C1515.95 1004.58 1516.41 1004.26 1516.89 1003.91C1516.66 1003.63 1516.43 1003.36 1516.96 1003.2C1516.02 1002.09 1515.91 1000.73 1515.69 999.407C1515.57 998.64 1515.48 997.867 1515.37 997.098C1515.34 996.897 1515.28 996.703 1515.23 996.505C1515.16 996.468 1515.1 996.43 1515.04 996.392C1514.97 996.522 1514.93 996.672 1514.84 996.779C1513.98 997.771 1513.15 998.799 1512.22 999.724C1511.64 1000.31 1511.47 1001.05 1511.11 1001.73C1511.04 1001.87 1510.89 1002.07 1510.77 1002.07C1510.04 1002.11 1509.74 1002.65 1509.37 1003.16C1509.58 1003.42 1509.79 1003.69 1510.05 1004.02C1510.01 1004.07 1509.91 1004.18 1509.82 1004.31C1509.77 1004.4 1509.71 1004.51 1509.73 1004.6C1509.78 1005.04 1509.79 1005.04 1509.36 1005.18C1508.97 1004.63 1508.6 1004.09 1508.12 1003.4C1507.72 1004.27 1507.33 1005.01 1507.05 1005.78C1506.92 1006.14 1507.19 1006.45 1507.58 1006.51C1507.98 1006.57 1508.07 1006.8 1508 1007.13C1507.91 1007.58 1507.79 1008.03 1507.68 1008.49C1507.6 1008.5 1507.52 1008.52 1507.45 1008.54C1507.37 1008.4 1507.29 1008.27 1507.17 1008.05C1506.94 1008.68 1506.91 1009.46 1505.89 1009.09L1505.88 1009.27C1506.07 1009.54 1506.25 1009.81 1506.46 1010.11C1506.29 1010.24 1506.1 1010.38 1505.9 1010.54C1506.1 1010.85 1506.3 1011.15 1506.6 1011.62C1505.72 1011.28 1505.6 1011.85 1505.4 1012.3C1505.27 1012.58 1505.14 1012.86 1505.06 1013.16C1505.01 1013.31 1505.03 1013.53 1505.12 1013.65C1505.78 1014.56 1505.49 1015.53 1505.3 1016.48C1505.27 1016.67 1504.94 1016.82 1504.74 1016.96C1504.36 1017.22 1504.37 1017.36 1504.75 1017.59C1504.85 1017.65 1504.95 1017.89 1504.91 1017.95C1504.8 1018.13 1504.61 1018.38 1504.46 1018.37C1503.44 1018.34 1502.38 1018.38 1501.41 1018.13C1500.76 1017.96 1500.21 1017.35 1499.65 1016.9C1499.58 1016.84 1499.62 1016.49 1499.72 1016.39C1500.09 1016.05 1500.51 1015.75 1500.97 1015.38C1500.57 1015.05 1500.09 1014.65 1499.52 1014.17C1500.01 1014.12 1500.42 1014.07 1500.83 1014.02C1500.84 1013.99 1500.85 1013.95 1500.86 1013.92C1500.57 1013.75 1500.28 1013.57 1499.98 1013.41C1499.45 1013.13 1498.91 1012.86 1498.38 1012.58C1497.67 1012.2 1497.26 1011.6 1497.03 1010.83C1496.86 1010.26 1496.61 1009.71 1496.34 1009.18C1496.09 1008.68 1496.12 1008.18 1496.26 1007.67C1496.32 1007.43 1496.37 1007.19 1496.38 1006.93C1495.84 1007.41 1495.37 1007.93 1495.16 1008.64C1495.04 1009.07 1494.88 1009.5 1494.69 1009.91C1494.5 1010.31 1494.19 1010.57 1493.69 1010.52C1493.54 1010.51 1493.35 1010.57 1493.24 1010.67C1492.23 1011.57 1491.23 1012.49 1490.23 1013.4C1490.24 1013.46 1490.26 1013.52 1490.27 1013.59C1490.61 1013.7 1490.94 1013.83 1491.29 1013.91C1491.56 1013.97 1491.84 1013.96 1492.12 1013.97C1492.5 1013.97 1492.68 1014.08 1492.55 1014.52C1492.26 1015.45 1492.01 1016.39 1491.75 1017.32C1491.71 1017.46 1491.68 1017.6 1491.63 1017.84C1492.41 1017.49 1493.08 1017.06 1494.01 1017.15C1493.87 1017.36 1493.77 1017.49 1493.68 1017.63C1493.47 1017.99 1493.21 1018.32 1493.05 1018.7C1492.88 1019.1 1492.56 1019.18 1492.21 1019.27C1491.59 1019.43 1490.96 1019.6 1490.35 1019.8C1490.16 1019.86 1489.99 1019.99 1489.73 1020.14C1489.9 1020.22 1489.99 1020.29 1490.08 1020.3C1490.37 1020.34 1490.64 1020.33 1490.76 1020.71C1490.8 1020.83 1491.16 1020.86 1491.37 1020.92C1492.09 1021.12 1492.82 1021.29 1493.53 1021.52C1493.76 1021.6 1494.13 1021.68 1494.01 1022.07C1493.89 1022.44 1493.65 1022.72 1493.22 1022.65C1492.47 1022.52 1491.72 1022.39 1490.98 1022.22C1490.3 1022.07 1489.63 1021.86 1488.96 1021.68C1488.78 1021.63 1488.59 1021.62 1488.4 1021.6L1488.34 1021.72C1488.49 1021.86 1488.66 1021.99 1488.81 1022.14C1488.96 1022.31 1489.08 1022.52 1489.25 1022.68C1489.4 1022.82 1489.6 1022.92 1489.78 1023.04C1490.02 1023.2 1490.38 1023.31 1490.47 1023.54C1490.64 1023.94 1490.43 1024.31 1490.07 1024.59C1489.64 1024.93 1489.21 1025.28 1488.81 1025.65C1488.41 1026.03 1488.47 1026.14 1488.95 1026.34C1489.45 1026.54 1489.91 1026.84 1490.39 1027.09L1490.37 1027.3C1489.89 1027.52 1489.42 1027.76 1488.94 1027.97C1488.47 1028.18 1487.99 1028.36 1487.42 1028.58C1487.98 1028.99 1488.55 1028.98 1489.09 1029.08C1489.3 1029.12 1489.66 1029.22 1489.67 1029.32C1489.69 1029.68 1489.66 1030.07 1489.17 1030.19C1489.01 1030.23 1488.86 1030.36 1488.7 1030.42C1488.28 1030.58 1487.87 1030.77 1487.44 1030.85C1486.47 1031.04 1485.7 1031.59 1484.92 1032.15C1485.12 1032.37 1485.04 1032.7 1484.67 1033.15C1484.9 1033.3 1485.13 1033.45 1485.36 1033.6C1485.17 1033.84 1484.99 1034.07 1484.74 1034.38L1486.96 1034.38C1487.1 1034.6 1487.26 1034.87 1487.42 1035.13C1487.54 1035.68 1487.31 1036 1486.81 1036.26C1485.8 1036.79 1484.94 1036.5 1484.12 1035.84C1483.8 1035.57 1483.49 1035.28 1483.15 1035.03C1483 1034.9 1482.81 1034.83 1482.54 1034.69C1482.62 1035.6 1483.51 1035.7 1483.84 1036.3C1483.73 1036.37 1483.64 1036.42 1483.53 1036.5C1483.6 1036.58 1483.65 1036.66 1483.73 1036.71C1484.13 1036.98 1484.13 1037.27 1483.84 1037.64C1483.37 1038.26 1482.93 1038.9 1482.45 1039.57C1482.56 1039.61 1482.64 1039.64 1482.72 1039.66C1483.47 1039.86 1483.61 1040.07 1483.38 1040.8C1482.97 1042.13 1482.25 1043.2 1480.93 1043.84C1479.15 1044.69 1477.41 1045.63 1475.65 1046.53C1475.41 1046.65 1475.18 1046.8 1474.97 1047C1475.57 1046.82 1476.16 1046.64 1476.75 1046.46C1476.77 1046.49 1476.79 1046.53 1476.81 1046.57C1476.66 1046.74 1476.5 1046.91 1476.35 1047.08C1476.37 1047.11 1476.38 1047.14 1476.4 1047.18C1476.79 1047.02 1477.17 1046.86 1477.56 1046.7C1477.59 1046.72 1477.63 1046.75 1477.66 1046.78C1477.29 1047.31 1476.91 1047.83 1476.54 1048.35C1476.59 1048.41 1476.63 1048.47 1476.68 1048.52C1477.14 1048.25 1477.6 1047.97 1478.06 1047.7C1478.1 1047.74 1478.14 1047.79 1478.18 1047.83C1477.57 1048.41 1476.97 1048.98 1476.37 1049.54C1476.71 1050.27 1477.86 1050.61 1477.31 1051.75C1477.08 1051.55 1476.9 1051.4 1476.71 1051.23C1476.22 1051.66 1476.59 1052.73 1475.42 1052.54C1475.63 1052.87 1475.74 1053.06 1475.86 1053.24C1476.11 1053.67 1476.02 1053.86 1475.53 1053.92C1475.35 1053.94 1475.17 1053.93 1474.99 1053.94C1474.82 1053.95 1474.65 1053.98 1474.57 1053.99C1474.66 1054.41 1474.85 1054.8 1474.8 1055.16C1474.75 1055.53 1474.46 1055.87 1474.25 1056.29C1474.51 1056.37 1474.82 1056.49 1475.14 1056.54C1475.52 1056.6 1475.56 1056.77 1475.38 1057.06C1475.22 1057.32 1475.06 1057.57 1474.87 1057.88C1475.85 1058.1 1476.36 1057.21 1477.26 1057.11C1477.16 1057.57 1477.08 1057.95 1476.99 1058.38C1477.38 1058.59 1477.82 1058.78 1478.2 1059.05C1478.44 1059.23 1478.57 1059.15 1478.74 1059.01C1479.01 1058.8 1479.27 1058.58 1479.57 1058.42C1479.7 1058.35 1479.9 1058.43 1480.07 1058.44C1480.02 1058.57 1479.96 1058.71 1479.92 1058.85C1479.88 1058.99 1479.87 1059.14 1479.84 1059.29C1479.98 1059.31 1480.11 1059.35 1480.24 1059.33C1480.4 1059.31 1480.56 1059.19 1480.7 1059.2C1480.87 1059.21 1481.11 1059.3 1481.16 1059.42C1481.29 1059.74 1481.48 1059.77 1481.77 1059.66C1482.15 1059.51 1482.53 1059.39 1482.95 1059.24C1482.99 1059.46 1483.02 1059.64 1483.08 1059.92C1483.89 1059.26 1484.72 1059.65 1485.6 1059.75C1485.33 1059.45 1485.02 1059.16 1484.79 1058.83C1484.65 1058.62 1484.47 1058.21 1484.55 1058.13C1484.78 1057.89 1485.13 1057.74 1485.45 1057.62C1485.53 1057.6 1485.73 1057.8 1485.82 1057.94C1485.93 1058.13 1485.99 1058.35 1486.08 1058.57C1486.52 1058.21 1486.95 1057.86 1487.38 1057.52C1487.43 1057.55 1487.48 1057.59 1487.53 1057.62C1487.48 1057.98 1487.43 1058.34 1487.36 1058.69C1487.29 1059.07 1487.34 1059.34 1487.78 1059.48C1487.91 1059.53 1488.03 1059.79 1488.04 1059.96C1488.06 1060.38 1488.21 1060.68 1488.62 1060.84C1489.09 1060.49 1489.55 1060.14 1490.05 1059.76C1490.34 1059.98 1490.68 1060.25 1491.08 1060.56C1491.33 1060.08 1491.57 1059.66 1491.86 1059.12C1492.02 1059.56 1492.11 1059.9 1492.27 1060.2C1492.35 1060.36 1492.56 1060.44 1492.71 1060.56C1492.79 1060.38 1492.95 1060.2 1492.95 1060.03C1492.94 1059.25 1493.06 1059.16 1493.78 1059.5C1494.46 1059.82 1494.45 1059.82 1494.18 1060.54C1494.14 1060.64 1494.19 1060.87 1494.27 1060.93C1494.45 1061.04 1494.69 1061.14 1494.89 1061.13C1495.08 1061.12 1495.25 1060.96 1495.5 1060.83C1495.6 1061.4 1495.69 1061.9 1495.78 1062.45C1496.01 1062.35 1496.17 1062.28 1496.32 1062.21C1496.9 1061.92 1497 1061.99 1497.06 1062.65C1497.06 1062.72 1497.08 1062.8 1497.1 1062.94C1497.24 1062.83 1497.34 1062.77 1497.43 1062.69C1498.11 1062.05 1498.2 1062.05 1498.61 1062.68C1499.03 1062.71 1499.38 1062.73 1499.81 1062.75C1499.89 1062.64 1500.04 1062.43 1500.23 1062.18C1500.56 1062.59 1500.87 1062.95 1501.23 1063.4C1501.34 1063.15 1501.4 1062.99 1501.48 1062.84C1501.68 1062.45 1501.85 1062.09 1502.42 1062.06C1502.66 1062.05 1502.89 1061.72 1503.17 1061.5C1503.32 1061.62 1503.5 1061.77 1503.68 1061.93C1504.3 1061.38 1504.93 1061.65 1505.53 1061.92C1506.01 1062.14 1506.45 1062.46 1506.9 1062.74C1507.21 1062.93 1507.45 1062.9 1507.74 1062.69C1508.01 1062.49 1508.34 1062.36 1508.65 1062.25C1508.9 1062.16 1509.17 1062.13 1509.26 1062.5C1509.28 1062.56 1509.36 1062.65 1509.42 1062.66C1510.31 1062.79 1511.21 1062.91 1512.11 1063.02C1512.21 1063.03 1512.33 1062.97 1512.51 1062.93C1512.39 1062.62 1512.28 1062.34 1512.15 1062.03C1512.26 1061.99 1512.34 1061.94 1512.41 1061.95C1513.31 1062.12 1514.21 1062.3 1515.11 1062.47C1515.25 1062.49 1515.46 1062.53 1515.53 1062.45C1515.8 1062.2 1516.05 1062.28 1516.34 1062.38C1516.68 1062.5 1517.04 1062.58 1517.39 1062.67C1517.41 1062.63 1517.44 1062.59 1517.47 1062.54C1517.37 1062.41 1517.29 1062.26 1517.16 1062.16C1516.46 1061.61 1515.76 1061.07 1515.04 1060.55C1514.8 1060.38 1514.53 1060.26 1514.27 1060.13C1513.55 1059.77 1513.26 1059.21 1513.46 1058.36C1513.72 1058.39 1513.99 1058.45 1514.25 1058.45C1514.4 1058.45 1514.55 1058.34 1514.7 1058.29C1514.88 1058.24 1515.11 1058.13 1515.23 1058.19C1515.35 1058.27 1515.46 1058.54 1515.42 1058.69C1515.33 1059.01 1515.15 1059.3 1514.97 1059.68C1515.97 1060.37 1516.97 1061.08 1517.98 1061.78C1518.65 1062.24 1519.35 1062.66 1519.97 1063.18C1520.46 1063.58 1520.88 1064.09 1521.27 1064.59C1521.67 1065.1 1521.68 1065.13 1522.24 1064.87C1522.49 1064.76 1522.9 1064.57 1523 1064.67C1523.31 1064.95 1523.54 1065.35 1523.72 1065.73C1523.76 1065.82 1523.52 1066.13 1523.36 1066.2C1522.87 1066.42 1522.35 1066.56 1521.85 1066.74C1521.66 1066.8 1521.47 1066.88 1521.28 1066.95C1521.28 1067.01 1521.29 1067.07 1521.29 1067.13C1521.79 1067.12 1522.29 1067.11 1522.78 1067.13C1523.86 1067.17 1523.98 1067.3 1524.1 1068.36C1524.13 1068.69 1524.06 1069.1 1524.59 1069.15C1524.62 1069.15 1524.68 1069.43 1524.64 1069.56C1524.55 1069.81 1524.4 1070.04 1524.21 1070.41C1524.57 1070.27 1524.83 1070.18 1525.08 1070.07C1525.56 1069.87 1525.6 1069.89 1525.65 1070.39C1525.67 1070.56 1525.72 1070.72 1525.78 1071.03C1526.13 1070.58 1526.4 1070.24 1526.67 1069.9C1526.72 1069.91 1526.76 1069.91 1526.81 1069.92C1526.89 1070.39 1526.97 1070.87 1527.06 1071.39C1527.38 1070.96 1527.67 1070.54 1528 1070.15C1528.16 1069.97 1528.41 1069.87 1528.61 1069.73C1528.67 1069.92 1528.73 1070.11 1528.8 1070.3C1528.81 1070.36 1528.86 1070.4 1528.93 1070.52C1529.15 1069.96 1529.34 1069.45 1529.55 1068.88C1529.78 1069.15 1529.97 1069.37 1530.1 1069.52C1530.83 1069.04 1531.52 1068.55 1532.24 1068.11C1532.74 1067.82 1532.83 1067.88 1532.95 1068.44C1533.18 1069.49 1534.19 1070.07 1535.43 1069.74C1536.07 1069.56 1536.65 1069.19 1537.32 1068.88C1538.04 1069.97 1538.81 1071.13 1539.57 1072.29C1539.64 1072.28 1539.71 1072.27 1539.78 1072.25C1539.94 1071.45 1540.1 1070.64 1540.27 1069.83C1540.33 1069.84 1540.39 1069.84 1540.45 1069.85C1540.84 1070.35 1540.67 1070.96 1540.77 1071.58C1541.11 1071.06 1541.45 1070.53 1541.84 1069.92C1542.21 1070.43 1542.52 1070.86 1542.86 1071.33C1543.26 1070.22 1543.64 1069.15 1544.07 1067.96C1544.73 1068.64 1545.08 1069.61 1546.28 1069.32C1546.08 1068.91 1545.91 1068.52 1545.71 1068.15C1545.25 1067.28 1545.29 1067.2 1546.26 1067.24C1547.04 1067.27 1547.81 1067.35 1548.69 1067.41C1548.46 1067.05 1548.27 1066.74 1548.06 1066.44C1547.87 1066.17 1547.92 1066.01 1548.23 1065.89C1548.8 1065.67 1549.37 1065.44 1549.94 1065.21C1550.31 1065.06 1550.53 1064.81 1550.66 1064.42C1550.77 1064.11 1550.99 1063.83 1551.22 1063.58C1551.69 1063.07 1552.21 1062.6 1552.7 1062.1C1552.85 1061.95 1552.98 1061.77 1553.17 1061.55C1551.95 1061.27 1550.84 1061.7 1549.68 1061.7C1549.75 1061.15 1550.14 1061.16 1550.46 1061.13C1550.86 1061.1 1551.17 1061.03 1551.12 1060.43C1551.48 1060.64 1551.78 1060.8 1552.13 1061C1552.39 1060.45 1552.64 1059.93 1552.94 1059.31C1553.13 1059.79 1553.24 1060.16 1553.42 1060.5C1553.51 1060.67 1553.73 1060.77 1553.9 1060.91C1553.99 1060.72 1554.15 1060.55 1554.17 1060.36C1554.26 1059.37 1554.26 1059.36 1555.2 1059.73C1555.88 1060 1555.91 1060.05 1555.64 1060.71C1555.54 1060.94 1555.52 1061.13 1555.75 1061.3C1556 1061.48 1556.21 1061.69 1556.53 1061.46C1556.67 1061.36 1556.82 1061.28 1556.96 1061.19C1557 1061.23 1557.03 1061.27 1557.07 1061.3C1556.85 1061.58 1556.61 1061.85 1556.42 1062.14C1556.24 1062.4 1556.12 1062.7 1555.98 1062.98C1556.28 1063.08 1556.57 1063.24 1556.88 1063.26C1557.34 1063.3 1557.81 1063.22 1558.28 1063.22C1558.55 1063.22 1558.82 1063.27 1559.2 1063.3C1559.39 1063.16 1559.69 1062.91 1560.02 1062.73C1560.55 1062.43 1560.67 1062.89 1560.79 1063.27C1561.38 1062.76 1561.43 1062.76 1562.02 1063.25C1562.16 1062.96 1562.3 1062.69 1562.5 1062.31C1562.95 1062.8 1563.35 1063.23 1563.74 1063.65C1563.85 1063.58 1563.9 1063.56 1563.9 1063.54C1563.95 1062.69 1564.54 1062.37 1565.26 1062.2C1565.67 1062.1 1566.09 1062.01 1566.5 1061.98C1566.9 1061.94 1567.25 1062.02 1567.41 1062.51C1567.57 1063 1568.03 1063.02 1568.47 1062.93C1569.16 1062.77 1569.83 1062.54 1570.57 1062.74C1570.92 1062.83 1571.07 1062.98 1571.13 1063.29C1571.18 1063.53 1571.24 1063.77 1571.31 1064C1571.48 1064.57 1571.69 1064.66 1572.17 1064.29C1572.55 1063.99 1572.89 1063.64 1573.23 1063.3C1573.46 1063.07 1573.68 1062.82 1573.94 1062.55C1574.18 1062.94 1574.39 1063.32 1574.62 1063.68C1575.48 1065.05 1576.02 1065.1 1577.13 1063.95C1577.29 1063.79 1577.44 1063.62 1577.6 1063.46C1577.95 1063.12 1578.07 1063.15 1578.21 1063.63C1578.29 1063.91 1578.34 1064.2 1578.43 1064.47C1578.51 1064.72 1578.6 1064.96 1578.72 1065.19C1579.05 1065.75 1579.34 1065.79 1579.85 1065.39C1580.05 1065.23 1580.25 1065.07 1580.51 1064.87C1580.8 1065.47 1581.05 1066 1581.34 1066.64C1581.61 1066.32 1581.82 1066.08 1582.02 1065.84C1582.36 1065.42 1582.5 1065.41 1582.88 1065.77C1583.28 1066.15 1583.41 1066.13 1583.6 1065.58C1583.8 1064.99 1583.96 1064.38 1584.19 1063.62C1584.64 1064.16 1585.01 1064.61 1585.39 1065.07C1585.45 1065.03 1585.51 1065 1585.58 1064.97C1585.76 1064.11 1585.94 1063.25 1586.14 1062.31C1586.38 1062.47 1586.57 1062.56 1586.72 1062.69C1587.17 1063.06 1587.6 1063.46 1588.06 1063.82C1588.21 1063.94 1588.43 1063.99 1588.61 1064.07C1588.67 1063.87 1588.75 1063.68 1588.77 1063.49C1588.8 1063.22 1588.76 1062.93 1588.78 1062.66C1588.8 1062.46 1588.89 1062.27 1588.95 1062.07C1589.14 1062.14 1589.35 1062.17 1589.51 1062.28C1590 1062.61 1590.46 1062.97 1590.93 1063.3C1591.08 1063.41 1591.27 1063.46 1591.57 1063.6C1591.42 1062.97 1591.3 1062.47 1591.16 1061.89C1591.89 1062.24 1592.26 1063.04 1593.1 1063.01C1593.13 1062.94 1593.15 1062.91 1593.15 1062.88C1593.16 1062.62 1593.18 1062.37 1593.19 1062.12C1593.43 1062.18 1593.67 1062.28 1593.91 1062.3C1594.04 1062.3 1594.25 1062.18 1594.3 1062.07C1594.41 1061.79 1594.45 1061.48 1594.55 1061.05C1594.9 1061.84 1595.38 1061.55 1595.85 1061.35C1596.17 1061.21 1596.49 1061.08 1596.88 1060.91C1596.92 1061.21 1596.95 1061.44 1596.99 1061.77C1597.32 1061.63 1597.6 1061.48 1597.9 1061.4C1598.16 1061.33 1598.45 1061.28 1598.72 1061.31C1599.49 1061.4 1600.25 1061.55 1601.02 1061.66C1601.21 1061.68 1601.4 1061.63 1601.67 1061.6C1601.16 1060.73 1600.28 1060.35 1599.59 1059.78C1599.61 1059.73 1599.64 1059.67 1599.66 1059.62C1599.96 1059.72 1600.27 1059.79 1600.56 1059.93C1600.79 1060.04 1600.93 1060.01 1601.09 1059.81C1601.33 1059.52 1601.59 1059.26 1601.86 1059C1601.98 1058.89 1602.14 1058.82 1602.28 1058.73C1602.33 1058.75 1602.37 1058.78 1602.41 1058.8C1602.36 1059.2 1602.31 1059.61 1602.26 1060.01C1602.24 1060.2 1602.19 1060.4 1602.21 1060.59C1602.25 1061 1602.54 1061.17 1603.02 1061.06C1603.08 1061.41 1603.09 1061.77 1603.2 1062.1C1603.43 1062.78 1603.77 1062.85 1604.25 1062.34C1604.31 1062.29 1604.39 1062.21 1604.45 1062.21C1604.87 1062.26 1605.06 1061.98 1605.24 1061.68C1605.37 1061.45 1605.55 1061.42 1605.76 1061.58C1606.1 1061.84 1606.44 1062.08 1606.85 1062.38C1607.12 1061.8 1607.38 1061.26 1607.7 1060.58C1607.85 1060.95 1607.93 1061.18 1608.03 1061.4C1608.15 1061.65 1608.25 1061.92 1608.42 1062.12C1608.52 1062.24 1608.77 1062.32 1608.92 1062.28C1609.01 1062.26 1609.1 1062 1609.11 1061.85C1609.14 1061.49 1609.12 1061.12 1609.12 1060.64C1609.77 1060.91 1610.33 1061.14 1610.93 1061.4C1610.72 1061.79 1610.55 1062.1 1610.37 1062.45C1610.65 1062.67 1610.94 1062.9 1611.22 1063.11C1611.54 1062.92 1611.83 1062.74 1612.15 1062.55C1612.3 1063.21 1612.45 1063.8 1612.6 1064.45C1612.88 1064.34 1613.12 1064.23 1613.37 1064.13C1613.98 1063.88 1614.07 1063.94 1614.1 1064.58C1614.11 1064.74 1614.12 1064.89 1614.14 1065.05L1614.29 1065.16C1614.45 1064.95 1614.59 1064.72 1614.78 1064.54C1615.4 1063.93 1615.74 1064.02 1616 1064.85C1616.02 1064.93 1616.06 1065.02 1616.09 1065.12C1616.66 1064.4 1616.95 1064.39 1617.4 1065.07C1617.47 1064.89 1617.53 1064.72 1617.6 1064.56C1617.79 1064.08 1617.97 1064.05 1618.32 1064.44C1618.5 1064.65 1618.66 1064.87 1618.82 1065.1C1618.94 1065.25 1619.03 1065.42 1619.13 1065.59C1619.18 1065.55 1619.24 1065.51 1619.3 1065.47C1619.46 1065.09 1619.63 1064.72 1619.79 1064.34C1619.92 1064.03 1620.11 1063.85 1620.49 1063.88C1620.66 1063.9 1620.91 1063.77 1620.99 1063.63C1621.24 1063.2 1621.51 1063.2 1621.87 1063.45C1622.01 1063.55 1622.16 1063.63 1622.35 1063.75C1622.5 1063.11 1622.93 1063.14 1623.36 1063.25C1623.81 1063.37 1624.25 1063.53 1624.67 1063.72C1625.01 1063.87 1625.34 1064.07 1625.64 1064.28C1626.26 1064.71 1626.81 1064.89 1627.41 1064.21C1627.62 1063.99 1628.06 1063.95 1628.4 1063.87C1628.52 1063.84 1628.74 1063.89 1628.79 1063.98C1629.05 1064.45 1629.51 1064.45 1629.93 1064.5C1630.69 1064.59 1631.45 1064.69 1632.21 1064.72C1632.97 1064.75 1633.07 1064.57 1632.69 1063.92C1632.61 1063.79 1632.55 1063.65 1632.45 1063.43C1632.68 1063.41 1632.84 1063.37 1632.98 1063.39C1633.83 1063.53 1634.68 1063.68 1635.52 1063.83C1635.71 1063.87 1635.88 1063.98 1636.07 1064.01C1636.23 1064.03 1636.48 1064.04 1636.55 1063.95C1636.78 1063.66 1637.02 1063.69 1637.33 1063.78C1637.92 1063.94 1638.51 1064.06 1639.13 1064.15C1638.21 1063.2 1637.34 1062.23 1636.12 1061.68C1635.56 1061.42 1635.02 1061.12 1634.49 1060.8C1633.9 1060.44 1633.69 1059.86 1633.92 1059.21C1633.96 1059.09 1634.2 1058.98 1634.34 1058.98C1634.63 1059 1634.92 1059.1 1635.23 1059.11C1634.82 1058.39 1633.9 1058.15 1633.6 1057.36C1634.31 1056.92 1634.98 1056.94 1635.68 1057.28C1636.1 1057.48 1636.56 1057.62 1637.01 1057.73C1637.26 1057.8 1637.54 1057.75 1637.93 1057.74C1637.54 1057.43 1637.26 1057.2 1636.95 1056.94C1637.09 1056.85 1637.17 1056.8 1637.42 1056.65C1637.11 1056.45 1636.86 1056.3 1636.61 1056.15C1636.64 1056.09 1636.66 1056.04 1636.68 1055.99C1637 1055.94 1637.32 1055.89 1637.72 1055.83C1637.56 1055.68 1637.48 1055.57 1637.36 1055.5C1636.65 1055.1 1635.93 1054.71 1635.21 1054.32C1634.88 1054.14 1634.53 1054 1634.23 1053.79C1634.1 1053.7 1634.09 1053.47 1634.02 1053.3C1634.07 1053.27 1634.12 1053.24 1634.16 1053.21C1634.05 1053.16 1633.93 1053.11 1633.82 1053.06C1632.96 1052.7 1632.06 1052.4 1631.25 1051.94C1630.27 1051.39 1629.28 1050.85 1628.16 1050.68C1627.02 1050.51 1626.63 1049.69 1626.34 1048.7C1626.63 1048.9 1626.93 1049.09 1627.35 1049.37C1627.27 1049.07 1627.22 1048.9 1627.17 1048.73C1627.11 1048.53 1627.02 1048.33 1626.99 1048.13C1626.97 1047.95 1627.02 1047.76 1627.04 1047.58C1627.23 1047.64 1627.45 1047.65 1627.6 1047.76C1627.87 1047.95 1628.1 1048.2 1628.35 1048.43C1629.02 1047.72 1629.34 1047.74 1629.93 1048.51C1630.27 1048.95 1630.61 1049.4 1631.02 1049.93C1631.28 1049.6 1631.49 1049.35 1631.77 1049.01C1632.14 1049.82 1632.49 1050.58 1632.83 1051.34L1632.96 1051.31C1633.06 1050.99 1633.16 1050.68 1633.27 1050.31C1634.27 1050.69 1634.88 1051.5 1635.65 1052.12C1636.01 1051.8 1635.9 1051.52 1635.71 1051.24C1635.46 1050.87 1635.21 1050.5 1634.97 1050.13C1635 1050.08 1635.03 1050.03 1635.06 1049.99C1635.35 1050.03 1635.63 1050.08 1635.95 1050.14C1636.27 1049.55 1635.73 1049.37 1635.31 1048.98C1635.82 1048.92 1636.22 1048.87 1636.78 1048.81C1636.29 1048.4 1635.89 1048.06 1635.45 1047.68C1635.74 1047.64 1635.99 1047.6 1636.34 1047.55C1636.17 1047.46 1636.07 1047.39 1635.97 1047.35C1634.91 1047.03 1633.99 1046.48 1633.14 1045.78C1632.29 1045.1 1631.38 1044.53 1630.22 1044.47C1629.9 1044.46 1629.59 1044.14 1629.24 1043.94C1629.39 1043.74 1629.48 1043.63 1629.6 1043.48C1628.06 1042.96 1626.41 1042.84 1625 1042.03C1625 1041.97 1624.99 1041.92 1624.98 1041.86C1625.6 1041.57 1626.21 1041.28 1626.87 1040.97C1626.52 1040.79 1626.19 1040.62 1625.87 1040.46C1625.23 1040.13 1625.09 1039.73 1625.39 1039.07C1625.64 1038.51 1625.63 1038.53 1625.08 1038.27C1623.93 1037.74 1622.79 1037.19 1621.66 1036.64C1621.5 1036.56 1621.37 1036.45 1621.22 1036.36C1621.23 1036.31 1621.23 1036.27 1621.23 1036.22C1622.55 1036.02 1623.87 1035.83 1625.19 1035.63C1625.19 1035.57 1625.19 1035.52 1625.19 1035.46C1624.1 1035.1 1622.85 1035.1 1621.94 1034.2C1622.07 1034.05 1622.17 1033.93 1622.33 1033.74C1621.97 1033.63 1621.64 1033.56 1621.33 1033.44C1621.15 1033.36 1620.83 1033.17 1620.85 1033.09C1620.91 1032.85 1621.05 1032.56 1621.24 1032.45C1621.6 1032.25 1622.02 1032.16 1622.53 1031.99C1620.98 1031.02 1619.57 1030.06 1618.58 1028.64C1618.61 1028.59 1618.64 1028.54 1618.67 1028.5C1618.95 1028.61 1619.24 1028.72 1619.66 1028.89C1619.39 1028.47 1619.2 1028.17 1618.95 1027.78C1619.39 1027.73 1619.73 1027.7 1620.1 1027.66C1619.52 1027.36 1618.96 1027.06 1618.41 1026.77C1618.63 1026.26 1618.95 1026.14 1619.36 1026.16C1620.07 1026.2 1620.78 1026.24 1621.48 1026.27C1621.48 1025.13 1620.61 1024.68 1619.84 1024.15C1619.86 1024.1 1619.88 1024.04 1619.91 1023.99C1620.66 1023.9 1621.41 1023.81 1622.24 1023.71C1621.5 1022.18 1620.09 1021.34 1619.06 1020.11C1619.63 1019.7 1620.28 1019.73 1620.87 1019.57C1621.59 1019.38 1622.03 1019.94 1622.7 1020.3C1622.62 1019.85 1622.56 1019.54 1622.47 1019.07C1623.36 1019.51 1624.18 1019.91 1624.99 1020.31C1625.03 1020.25 1625.08 1020.2 1625.12 1020.14C1624.62 1019.59 1624.12 1019.05 1623.62 1018.49C1623.69 1018.43 1623.72 1018.38 1623.76 1018.38C1624.26 1018.39 1624.69 1018.39 1624.58 1017.65C1624.54 1017.45 1624.82 1017.19 1624.98 1016.91C1624.54 1016.95 1624.12 1017.01 1623.7 1017.01C1623.38 1017.01 1623.02 1017.02 1622.75 1016.88C1621.55 1016.25 1620.37 1015.58 1619.18 1014.91C1618.97 1014.78 1618.7 1014.68 1618.86 1014.31C1618.99 1013.99 1619.15 1013.79 1619.54 1013.88C1619.73 1013.92 1619.92 1013.9 1620.19 1013.91C1620.11 1013.58 1620.04 1013.3 1619.95 1012.92C1620.65 1013.05 1621.27 1013.16 1621.9 1013.28C1621.91 1013.25 1621.92 1013.22 1621.93 1013.19C1621.55 1012.99 1621.17 1012.79 1620.78 1012.59L1620.81 1012.44C1621.1 1012.31 1621.4 1012.18 1621.79 1012.01C1621.49 1011.91 1621.29 1011.82 1621.08 1011.76C1619.46 1011.25 1617.93 1010.55 1616.53 1009.59C1615.65 1008.99 1615.61 1008.76 1616.38 1008.04C1616.72 1007.73 1617.17 1007.55 1617.65 1007.26C1617.07 1006.81 1616.45 1006.32 1615.83 1005.83C1615.84 1005.77 1615.85 1005.72 1615.86 1005.67C1616.37 1005.62 1616.88 1005.58 1617.39 1005.53C1617.4 1005.49 1617.42 1005.46 1617.43 1005.43C1617.26 1005.33 1617.1 1005.22 1616.92 1005.13C1616.06 1004.69 1615.18 1004.26 1614.31 1003.83C1613.47 1003.41 1612.95 1002.74 1612.65 1001.84C1612.41 1001.09 1612.05 1000.38 1611.71 999.669C1611.45 999.125 1611.43 998.584 1611.58 998.017C1611.66 997.708 1611.73 997.396 1611.75 997.06C1611.1 997.578 1610.54 998.148 1610.3 998.971C1610.16 999.453 1610.05 999.943 1609.88 1000.41C1609.65 1001.08 1609.21 1001.5 1608.44 1001.51C1608.21 1001.51 1607.94 1001.66 1607.76 1001.83C1606.61 1002.94 1605.47 1004.07 1604.33 1005.19C1604.34 1005.26 1604.35 1005.32 1604.37 1005.38C1604.96 1005.49 1605.56 1005.6 1606.15 1005.69C1606.34 1005.72 1606.54 1005.69 1606.74 1005.7C1607.29 1005.71 1607.35 1005.82 1607.21 1006.34C1606.89 1007.53 1606.59 1008.72 1606.29 1009.91C1606.25 1010.07 1606.24 1010.23 1606.2 1010.49C1607.2 1010 1608.12 1009.5 1609.25 1009.57C1609.02 1009.81 1608.76 1010.02 1608.56 1010.29C1608.35 1010.58 1608.09 1010.9 1608.04 1011.23C1607.95 1011.8 1607.62 1011.96 1607.15 1012.1C1606.12 1012.42 1605.1 1012.77 1604.07 1013.12C1603.97 1013.15 1603.89 1013.23 1603.71 1013.33C1604.08 1013.39 1604.36 1013.42 1604.64 1013.47C1604.93 1013.53 1605.29 1013.48 1605.26 1013.97C1605.25 1014.05 1605.54 1014.2 1605.71 1014.22C1606.03 1014.27 1606.37 1014.19 1606.68 1014.27C1607.47 1014.48 1608.25 1014.72 1609.02 1014.99C1609.13 1015.02 1609.26 1015.26 1609.24 1015.39C1609.19 1015.71 1609.14 1016.12 1608.69 1016.13C1608.14 1016.14 1607.58 1016.13 1607.05 1016.02C1605.76 1015.77 1604.49 1015.46 1603.2 1015.18C1602.93 1015.12 1602.64 1015.1 1602.36 1015.07C1602.34 1015.13 1602.31 1015.18 1602.28 1015.24C1602.69 1015.55 1603.1 1015.85 1603.54 1016.18C1603.47 1016.31 1603.39 1016.43 1603.26 1016.63C1603.7 1016.74 1604.1 1016.83 1604.49 1016.95C1604.84 1017.06 1605.3 1017.13 1604.95 1017.69C1604.94 1017.7 1604.93 1017.72 1604.94 1017.73C1605.32 1018.37 1604.7 1018.51 1604.39 1018.79C1603.95 1019.19 1603.47 1019.56 1603.04 1019.97C1602.89 1020.11 1602.72 1020.39 1602.77 1020.52C1602.82 1020.68 1603.1 1020.81 1603.3 1020.85C1603.96 1020.97 1604.46 1021.31 1604.96 1021.85C1603.95 1022.82 1602.52 1022.87 1601.41 1023.68C1602.09 1024 1602.78 1024.12 1603.5 1024.15C1603.77 1024.16 1604.21 1023.95 1604.22 1024.34C1604.24 1024.69 1604.01 1025.11 1603.76 1025.38C1603.48 1025.67 1603.06 1025.83 1602.69 1026.03C1602.46 1026.14 1602.22 1026.29 1601.97 1026.3C1601.09 1026.34 1600.35 1026.7 1599.63 1027.16C1599.19 1027.43 1598.76 1027.71 1598.26 1028.04C1598.43 1028.1 1598.58 1028.12 1598.7 1028.19C1598.78 1028.24 1598.82 1028.36 1598.88 1028.44C1598.79 1028.49 1598.7 1028.58 1598.61 1028.59C1598.01 1028.61 1596.14 1027.72 1595.7 1027.16C1596.24 1027.07 1596.73 1026.98 1597.33 1026.88C1597.12 1026.7 1596.98 1026.56 1596.82 1026.46C1596.36 1026.16 1595.87 1025.89 1595.41 1025.59C1594.83 1025.21 1594.31 1024.77 1593.98 1024.11C1593.74 1023.62 1593.34 1023.22 1593.01 1022.78C1592.55 1022.16 1592.59 1022.07 1593.33 1021.95C1593.67 1021.9 1594.01 1021.87 1594.34 1021.78C1594.54 1021.72 1594.72 1021.56 1594.91 1021.45L1594.88 1021.29C1595.13 1021.39 1595.37 1021.52 1595.62 1021.6C1596.13 1021.76 1596.64 1021.94 1597.16 1022.01C1597.63 1022.08 1597.79 1021.85 1597.81 1021.39C1597.83 1020.82 1597.67 1020.42 1597.08 1020.19C1596.52 1019.98 1596 1019.66 1595.5 1019.33C1595.29 1019.19 1595.12 1018.9 1595.07 1018.65C1595.05 1018.54 1595.38 1018.35 1595.56 1018.22C1595.7 1018.12 1595.87 1018.06 1596.04 1017.97C1595.99 1017.86 1595.95 1017.79 1595.92 1017.72C1595.12 1016.4 1595.12 1016.4 1595.34 1014.93C1595.37 1014.8 1595.53 1014.66 1595.66 1014.57C1595.76 1014.5 1595.91 1014.51 1596.03 1014.47C1596.15 1014.44 1596.27 1014.39 1596.42 1014.34C1596 1013.17 1594.78 1012.52 1594.49 1011.23C1595.67 1011.23 1596.76 1011.8 1597.93 1011.41C1597.79 1011.2 1597.66 1011.02 1597.48 1010.76C1597.87 1010.69 1598.19 1010.64 1598.65 1010.55C1598.37 1010.39 1598.2 1010.29 1598.03 1010.2C1597.43 1009.89 1596.83 1009.62 1596.26 1009.28C1596.01 1009.13 1595.84 1008.86 1595.61 1008.66C1595.46 1008.53 1595.29 1008.38 1595.1 1008.33C1593.97 1008.06 1592.82 1007.83 1591.69 1007.57C1591.42 1007.51 1591.15 1007.41 1590.89 1007.33C1590.89 1007.27 1590.89 1007.21 1590.9 1007.15C1591.26 1007.07 1591.63 1006.98 1592 1006.9C1592.2 1006.86 1592.42 1006.84 1592.62 1006.8C1593.31 1006.67 1593.3 1006.61 1593.37 1005.93C1593.43 1005.44 1593.5 1004.99 1593.19 1004.55C1593.14 1004.49 1593.27 1004.26 1593.38 1004.16C1593.81 1003.78 1594.26 1003.42 1594.73 1003.03C1594.59 1002.86 1594.47 1002.7 1594.36 1002.56C1594.77 1002.2 1595.17 1001.85 1595.62 1001.45C1595.35 1001.21 1595.19 1001.06 1595.03 1000.91C1594.28 1000.21 1593.52 999.529 1592.79 998.813C1592.54 998.568 1592.34 998.259 1592.17 997.948C1591.78 997.208 1591.87 996.669 1592.45 996.049C1592.59 995.896 1592.75 995.74 1592.84 995.558C1593.04 995.161 1592.74 994.214 1592.32 993.985C1591.95 993.778 1591.53 993.645 1591.14 993.456C1590.53 993.159 1589.92 992.863 1589.34 992.521C1589.11 992.388 1588.94 992.144 1588.79 991.918C1588.45 991.4 1588.49 991.163 1588.92 990.708C1588.69 990.363 1588.3 990.074 1588.5 989.54C1588.54 989.427 1588.23 989.204 1588.11 989.014C1587.95 988.765 1587.6 988.552 1587.91 988.181C1587.94 988.152 1587.9 988.062 1587.88 988.001C1587.68 987.386 1587.49 986.769 1587.29 986.155C1587.13 985.664 1586.92 985.189 1587.13 984.65C1587.18 984.523 1587.12 984.321 1587.05 984.184C1586.15 982.402 1586.03 980.46 1585.85 978.524C1585.77 977.734 1585.54 976.958 1585.37 976.175L1585.18 976.165C1585.08 976.388 1584.97 976.609 1584.88 976.833C1584.19 978.438 1583.52 980.05 1582.81 981.647C1582.64 982.044 1582.37 982.4 1582.14 982.774C1581.84 983.274 1581.47 983.6 1580.8 983.53C1580.57 983.504 1580.24 983.699 1580.06 983.894C1579.58 984.404 1579.17 984.968 1578.74 985.51C1577.91 986.532 1577.12 987.58 1576.26 988.566C1575.62 989.291 1575.22 989.996 1575.31 991.043C1575.37 991.698 1575.06 992.431 1574.77 993.061C1574.32 994.035 1574.4 994.465 1575.37 994.918C1575.7 995.068 1575.95 995.23 1576 995.637C1576.06 996.057 1576.4 996.222 1576.78 996.236C1577.25 996.253 1577.72 996.215 1578.19 996.194C1578.48 996.181 1578.77 996.159 1579.06 996.141C1579.09 996.186 1579.12 996.233 1579.15 996.279L1579.16 996.288ZM1593.35 1029.09C1593.38 1029.03 1593.42 1028.97 1593.45 1028.91C1593.74 1029.03 1594.04 1029.12 1594.31 1029.27C1594.96 1029.62 1594.95 1029.63 1595.42 1029.11C1596.26 1029.55 1597.11 1029.99 1597.95 1030.43C1597.99 1030.45 1598.04 1030.49 1598.05 1030.53C1598.21 1030.89 1598.53 1030.9 1598.84 1030.88C1599.62 1030.82 1600.39 1030.74 1601.2 1030.66L1601.2 1031.32C1601.87 1031.48 1601.93 1031.6 1601.61 1032.21C1601.53 1032.38 1601.41 1032.55 1601.26 1032.67C1600.42 1033.38 1599.33 1033.49 1598.37 1032.94C1597.98 1032.71 1597.63 1032.42 1597.26 1032.15C1596.9 1031.88 1596.54 1031.6 1596.17 1031.34C1596.04 1031.25 1595.86 1031.21 1595.65 1031.12C1595.62 1032.37 1596.96 1032.29 1597.34 1033.07C1597.19 1033.17 1597.05 1033.26 1596.86 1033.38C1597.04 1033.51 1597.17 1033.61 1597.3 1033.7C1597.73 1033.98 1597.77 1034.15 1597.35 1034.4C1597 1034.6 1596.59 1034.78 1596.2 1034.8C1595.24 1034.83 1594.28 1034.79 1593.33 1034.72C1591.76 1034.61 1590.65 1033.69 1589.65 1032.58C1589.64 1032.57 1589.65 1032.52 1589.66 1032.41C1590.06 1032.34 1590.49 1032.26 1590.91 1032.19C1591.26 1032.14 1591.42 1031.97 1591.42 1031.61C1591.41 1031.32 1591.45 1031.04 1591.48 1030.7C1591.87 1030.85 1592.19 1030.98 1592.55 1031.12C1592.46 1030.82 1592.39 1030.6 1592.3 1030.32L1594.14 1030.31C1593.85 1029.87 1593.6 1029.48 1593.35 1029.09L1593.35 1029.09ZM1551.36 1008.27C1551.14 1009.04 1550.93 1009.78 1550.7 1010.51C1550.66 1010.61 1550.47 1010.71 1550.35 1010.72C1549.12 1010.81 1547.9 1010.93 1546.67 1010.96C1546.01 1010.97 1545.13 1010.27 1544.98 1009.68C1546.06 1009.84 1547.11 1010 1548.23 1010.16C1547.97 1009.17 1548.7 1009.14 1549.36 1009.02C1549.13 1008.77 1548.97 1008.59 1548.81 1008.41L1548.86 1008.28L1551.36 1008.27L1551.36 1008.27ZM1549.49 1014.55C1549.75 1014.26 1549.96 1014.08 1550.1 1013.86C1550.24 1013.63 1550.32 1013.35 1550.43 1013.1C1550.79 1012.3 1552.21 1011.53 1553.18 1011.67C1553.04 1011.85 1552.93 1012.02 1552.8 1012.18C1552.59 1012.45 1552.28 1012.67 1552.19 1012.97C1552.03 1013.51 1551.67 1013.79 1551.21 1013.97C1550.69 1014.19 1550.13 1014.34 1549.49 1014.55ZM1552.47 1016.86C1552.47 1016.86 1552.47 1016.86 1552.47 1016.86C1552.6 1016.85 1552.72 1016.84 1552.85 1016.83C1553.37 1016.78 1553.49 1016.96 1553.31 1017.44C1553.12 1017.92 1552.71 1017.9 1552.3 1017.92C1551.87 1017.93 1551.6 1017.69 1551.45 1017.33C1551.41 1017.25 1551.58 1016.99 1551.7 1016.95C1551.94 1016.87 1552.21 1016.89 1552.47 1016.86L1552.47 1016.86Z" fill="#154068"/>
<path d="M1659.9 1100.24C1663.61 1072.18 1716.94 1036.41 1786 1024.98C1867.58 1011.48 1954.5 932.241 2049 975.737C2105.67 1001.82 2143.9 991.236 2196.4 1093.24C2237.5 1173.09 1923.73 1157.92 1845 1133.98C1766.27 1110.05 1655.98 1129.98 1659.9 1100.24Z" fill="#285B8A"/>
</g>
<defs>
<filter id="filter0_f_354_18" x="-192" y="721" width="2225" height="992" filterUnits="userSpaceOnUse" color-interpolation-filters="sRGB">
<feFlood flood-opacity="0" result="BackgroundImageFix"/>
<feBlend mode="normal" in="SourceGraphic" in2="BackgroundImageFix" result="shape"/>
<feGaussianBlur stdDeviation="100" result="effect1_foregroundBlur_354_18"/>
</filter>
<linearGradient id="paint0_linear_354_18" x1="960" y1="1088" x2="960" y2="2322.51" gradientUnits="userSpaceOnUse">
<stop stop-color="#BBEBFF"/>
<stop offset="0.619792" stop-color="#BBEBFF"/>
<stop offset="1" stop-color="#BBEBFF" stop-opacity="0"/>
</linearGradient>
</defs>
</svg>
