<svg width="1920" height="1080" viewBox="0 0 1920 1080" fill="none" xmlns="http://www.w3.org/2000/svg">
<mask id="mask0_351_244" style="mask-type:alpha" maskUnits="userSpaceOnUse" x="0" y="0" width="1920" height="1080">
<rect width="1920" height="1080" fill="#D9D9D9"/>
</mask>
<g mask="url(#mask0_351_244)">
<path d="M690.205 688.157C690.723 688.829 691.211 689.528 691.766 690.169C692.629 691.165 693.54 692.122 694.43 693.094C695.292 694.036 696.319 694.663 697.527 695.142C698.727 695.619 699.858 696.346 700.899 697.126C701.63 697.673 701.465 698.057 700.741 698.648C700.351 698.965 699.994 699.422 699.83 699.889C699.576 700.613 699.072 700.912 698.411 701.015C697.745 701.117 697.066 701.134 696.394 701.184C695.694 701.236 695.439 701.521 695.654 702.262C696.063 703.673 696.353 705.121 696.784 706.524C696.897 706.894 697.287 707.281 697.65 707.452C701.73 709.389 705.925 710.992 710.424 711.664C710.455 711.668 710.49 711.664 710.521 711.674C711.114 711.863 712.042 711.563 712.136 712.519C712.224 713.402 711.64 713.99 710.903 714.436C710.438 714.716 709.814 714.971 709.616 715.399C709.234 716.229 709.305 717.145 709.819 717.985C710.398 718.935 710.743 719.954 710.536 721.228C710.025 721.226 709.52 721.24 709.017 721.22C708.335 721.19 707.924 721.467 707.792 722.158C707.676 722.763 707.479 723.253 706.661 723.142C706.493 723.12 706.155 723.585 706.073 723.876C705.926 724.386 705.918 724.936 705.833 725.616C705.149 725.374 704.567 725.17 703.831 724.908C703.723 725.578 703.626 726.187 703.518 726.86C703.194 726.888 702.856 726.918 702.614 726.941C701.972 728.001 701.369 728.998 700.675 730.145C701.715 730.527 702.631 730.862 703.68 731.248C703.775 730.663 703.846 730.23 703.913 729.798C703.984 729.338 704.13 729.082 704.676 729.335C707.798 730.777 711.124 731.464 714.502 731.986C715.534 732.146 716.373 731.893 717.241 731.417C719.101 730.395 720.986 729.419 722.86 728.425C723.445 728.114 723.868 727.734 723.596 726.976C723.329 726.232 722.813 726.136 722.128 726.319C721.86 726.389 721.567 726.36 721.211 726.38C721.375 725.791 721.514 725.287 721.702 724.612C720.515 724.767 719.484 724.901 718.45 725.035C718.435 724.996 718.421 724.957 718.406 724.92C719.073 724.567 719.739 724.214 720.632 723.739C719.79 723.372 719.22 723.125 718.382 722.757C719.005 722.558 719.389 722.461 719.755 722.317C722.085 721.401 724.421 720.492 726.733 719.536C727.258 719.319 727.76 718.973 728.176 718.582C728.703 718.085 729.644 717.228 729.515 716.971C728.993 715.928 728.41 714.742 726.967 714.603C726.722 714.579 726.48 714.512 726.109 714.224C727.35 713.323 728.593 712.421 729.974 711.421C728.792 711.238 727.771 711.08 726.507 710.883C726.894 710.625 727.075 710.471 727.282 710.373C730.994 708.629 732.977 705.423 734.569 701.864C734.982 700.94 735.404 699.944 736.084 699.23C737.252 697.997 738.001 696.613 738.488 695.013C738.935 693.54 739.489 692.097 740.022 690.652C740.162 690.274 740.403 689.933 740.598 689.576C740.706 689.632 740.75 689.64 740.754 689.659C741.549 692.878 743.987 695.391 744.524 698.765C744.848 700.802 745.509 702.859 746.424 704.707C747.29 706.456 748.61 708.007 749.876 709.524C750.605 710.397 751.438 710.145 752.314 708.923C750.991 708.882 750.009 708.413 749.792 706.755C750.982 706.678 752.217 706.463 753.43 706.55C754.994 706.663 756.549 706.973 758.09 707.287C759.045 707.481 759.518 707.175 759.797 706.263C760.641 703.493 760.763 703.633 757.942 703.616C757.627 703.615 757.314 703.564 756.94 703.532C756.913 701.183 758.818 700.204 759.991 698.72C759.73 698.578 759.371 698.382 758.952 698.155C759.744 697.601 760.429 697.713 761.176 698.138C762.741 699.028 764.336 699.865 765.929 700.705C766.25 700.874 766.613 700.962 766.957 701.087C767.037 701.011 767.115 700.938 767.194 700.863C766.515 699.735 765.835 698.609 765.117 697.418C765.447 697.253 765.766 697.094 766.311 696.821C765.502 696.27 764.852 695.774 764.147 695.368C763.621 695.067 763.375 694.72 763.328 694.092C763.232 692.784 763.023 691.484 762.849 690.092C764.539 690.986 766.2 691.863 767.859 692.739C767.927 692.644 767.994 692.55 768.061 692.457C767.681 691.548 766.892 690.997 766.17 690.346C765.393 689.643 764.561 688.896 764.743 687.63C764.775 687.413 764.561 687.082 764.364 686.923C763.147 685.938 762.332 684.711 761.941 683.035C762.444 683.388 762.821 683.652 763.195 683.916C765.377 685.453 767.525 687.039 769.753 688.503C770.917 689.265 771.596 689.144 772.537 688.245C771.11 687.421 769.743 686.631 768.326 685.813C768.644 685.343 769.023 684.782 769.498 684.084C769.014 683.955 768.692 683.871 768.305 683.77C768.354 683.631 768.37 683.472 768.451 683.362C770.73 680.292 771.308 676.688 771.772 673.031C772.065 670.706 772.469 668.397 772.853 666.084C772.924 665.657 773.133 665.252 773.244 664.934C775.079 667.105 776.856 669.28 778.712 671.383C780.075 672.925 781.576 674.343 782.941 675.883C783.242 676.224 783.224 676.842 783.366 677.328C783.469 677.679 783.542 678.06 783.728 678.366C783.94 678.712 784.266 678.992 784.573 679.332C784.349 679.579 784.163 679.781 783.969 679.995C784.038 680.092 784.077 680.214 784.144 680.233C784.885 680.442 785.621 680.672 786.373 680.823C787.121 680.974 787.728 681.108 787.967 682.047C788.114 682.621 788.74 683.075 789.16 683.592C788.418 684.056 788.265 684.664 788.7 685.416C788.373 685.373 788.11 685.318 787.843 685.306C787.601 685.293 787.359 685.325 786.796 685.356C787.56 686.261 788.159 686.972 788.818 687.756C788.371 687.78 788.027 687.798 787.361 687.831C788.137 688.37 788.695 688.756 789.037 688.993C790.215 687.223 791.272 685.631 792.442 683.871C793.532 686.117 794.628 688.251 795.596 690.441C795.967 691.28 794.74 692.899 793.803 692.902C792.842 692.905 792.533 693.288 792.739 694.198C793.041 695.532 793.313 696.872 793.66 698.495C794.245 697.773 794.612 697.318 795.123 696.684C795.358 697.533 795.596 698.188 795.714 698.865C795.833 699.547 796.193 699.782 796.843 699.73C797.448 699.681 798.058 699.664 799.039 699.613C798.3 700.708 797.708 701.583 797.047 702.564C797.53 702.853 798.142 703.22 798.858 703.65C798.103 704.582 797.384 705.47 796.668 706.357C796.733 706.425 796.801 706.494 796.866 706.562C797.023 706.493 797.219 706.463 797.329 706.349C798.034 705.621 798.72 705.898 799.068 706.598C799.802 708.082 800.393 709.637 800.996 711.182C801.113 711.484 801.011 711.873 801.01 712.341C800.173 712.116 799.937 712.641 799.923 713.27C799.887 715.059 799.901 716.848 799.895 718.629C802.415 718.793 804.781 718.947 807.293 719.111C807.493 718.368 807.722 717.523 807.99 716.523C807.039 716.437 806.203 716.361 805.029 716.255C805.587 715.401 805.988 714.746 806.432 714.123C806.835 713.562 807.552 713.165 807.174 712.01C809.096 712.934 810.808 713.758 812.517 714.58C812.597 714.519 812.674 714.455 812.754 714.394C812.329 713.612 811.905 712.83 811.442 711.979C811.684 711.85 811.915 711.729 812.399 711.472C810.32 710.571 809.72 708.978 809.875 706.857C811.03 707.45 812.137 708.017 813.242 708.587L813.385 708.407C811.958 706.319 810.531 704.23 809.106 702.142C809.203 702.057 809.302 701.972 809.399 701.887C809.826 702.192 810.246 702.508 810.683 702.797C812.075 703.721 813.455 704.66 814.874 705.54C815.353 705.837 815.937 706.03 816.593 705.305C815.632 704.619 814.72 703.967 813.759 703.28C814.225 702.727 814.666 702.197 813.614 701.879C815.486 699.662 815.715 696.968 816.141 694.346C816.387 692.824 816.555 691.289 816.776 689.764C816.833 689.366 816.966 688.98 817.064 688.588C817.19 688.514 817.316 688.439 817.442 688.364C817.573 688.621 817.657 688.919 817.84 689.132C819.546 691.1 821.18 693.139 823.02 694.975C824.179 696.134 824.525 697.611 825.223 698.952C825.369 699.232 825.666 699.623 825.912 699.636C827.349 699.706 827.945 700.786 828.679 701.798C828.267 702.316 827.85 702.844 827.335 703.492C827.414 703.594 827.622 703.823 827.782 704.08C827.888 704.251 828.003 704.475 827.98 704.657C827.869 705.516 827.853 705.514 828.711 705.793C829.469 704.708 830.213 703.644 831.173 702.271C831.965 703.999 832.732 705.461 833.292 707.001C833.55 707.707 833.01 708.329 832.232 708.444C831.442 708.562 831.272 709.019 831.402 709.662C831.583 710.569 831.826 711.462 832.042 712.361C832.194 712.398 832.347 712.437 832.502 712.474C832.657 712.199 832.811 711.923 833.048 711.499C833.505 712.748 833.556 714.286 835.588 713.554L835.612 713.908C835.241 714.444 834.87 714.979 834.454 715.583C834.794 715.841 835.166 716.124 835.579 716.436C835.175 717.051 834.782 717.649 834.178 718.572C835.932 717.903 836.155 719.046 836.565 719.93C836.82 720.483 837.085 721.042 837.244 721.626C837.326 721.925 837.3 722.37 837.127 722.607C835.816 724.409 836.384 726.34 836.752 728.225C836.826 728.604 837.466 728.897 837.879 729.182C838.626 729.699 838.61 729.963 837.859 730.419C837.66 730.54 837.449 731.016 837.532 731.15C837.748 731.494 838.133 731.99 838.435 731.979C840.459 731.914 842.55 732 844.476 731.494C845.77 731.154 846.851 729.95 847.968 729.057C848.113 728.94 848.04 728.242 847.839 728.054C847.101 727.36 846.265 726.767 845.35 726.043C846.137 725.389 847.101 724.588 848.234 723.645C847.261 723.532 846.445 723.437 845.627 723.344C845.606 723.276 845.585 723.21 845.564 723.143C846.149 722.806 846.727 722.457 847.322 722.14C848.37 721.579 849.434 721.045 850.484 720.484C851.9 719.728 852.717 718.54 853.174 717.006C853.51 715.883 854.011 714.797 854.536 713.742C855.035 712.741 854.976 711.763 854.706 710.744C854.58 710.269 854.475 709.79 854.457 709.272C855.54 710.227 856.459 711.256 856.875 712.665C857.127 713.522 857.436 714.371 857.815 715.179C858.192 715.982 858.799 716.504 859.802 716.401C860.086 716.371 860.467 716.503 860.681 716.695C862.689 718.486 864.673 720.308 866.663 722.12C866.638 722.24 866.61 722.359 866.585 722.479C865.909 722.697 865.245 722.964 864.554 723.118C864.025 723.234 863.466 723.229 862.92 723.239C862.152 723.252 861.794 723.467 862.066 724.341C862.637 726.18 863.132 728.041 863.654 729.895C863.731 730.166 863.78 730.444 863.891 730.928C862.344 730.229 861.002 729.371 859.167 729.547C859.447 729.962 859.639 730.227 859.809 730.505C860.242 731.21 860.75 731.882 861.067 732.636C861.401 733.429 862.034 733.576 862.729 733.758C863.97 734.082 865.208 734.422 866.431 734.803C866.812 734.922 867.146 735.193 867.648 735.479C867.318 735.64 867.146 735.776 866.958 735.803C866.391 735.884 865.859 735.869 865.607 736.612C865.523 736.861 864.826 736.917 864.402 737.033C862.972 737.431 861.525 737.774 860.114 738.231C859.664 738.377 858.929 738.542 859.172 739.322C859.4 740.049 859.874 740.6 860.734 740.458C862.224 740.212 863.713 739.948 865.184 739.612C866.531 739.306 867.852 738.888 869.19 738.541C869.544 738.449 869.919 738.429 870.285 738.376L870.422 738.612C870.109 738.892 869.774 739.147 869.489 739.452C869.176 739.789 868.945 740.207 868.613 740.519C868.306 740.806 867.909 740.994 867.556 741.233C867.081 741.552 866.375 741.779 866.189 742.223C865.854 743.022 866.264 743.755 866.976 744.31C867.839 744.981 868.682 745.685 869.483 746.427C870.276 747.163 870.149 747.397 869.194 747.786C868.208 748.189 867.299 748.771 866.355 749.276L866.387 749.684C867.33 750.135 868.263 750.611 869.221 751.031C870.154 751.44 871.112 751.792 872.245 752.242C871.118 753.044 869.991 753.025 868.922 753.228C868.508 753.306 867.793 753.507 867.781 753.694C867.729 754.413 867.786 755.197 868.759 755.426C869.091 755.504 869.379 755.764 869.707 755.887C870.528 756.195 871.34 756.576 872.192 756.739C874.133 757.112 875.654 758.206 877.201 759.321C876.799 759.744 876.967 760.402 877.703 761.297C877.248 761.597 876.792 761.899 876.335 762.201C876.701 762.665 877.067 763.132 877.555 763.748L873.15 763.734C872.883 764.17 872.558 764.704 872.232 765.238C871.998 766.311 872.465 766.952 873.446 767.465C875.454 768.516 877.168 767.956 878.78 766.634C879.426 766.104 880.041 765.534 880.702 765.023C881.01 764.782 881.392 764.637 881.913 764.356C881.766 766.158 879.988 766.355 879.352 767.545C879.556 767.681 879.73 767.795 879.958 767.947C879.816 768.099 879.711 768.261 879.562 768.363C878.775 768.899 878.773 769.475 879.336 770.211C880.272 771.433 881.145 772.702 882.108 774.04C881.887 774.115 881.728 774.18 881.562 774.224C880.082 774.609 879.806 775.026 880.255 776.48C881.071 779.123 882.494 781.242 885.121 782.502C888.652 784.198 892.107 786.055 895.592 787.85C896.069 788.097 896.524 788.384 896.933 788.788C895.762 788.427 894.591 788.064 893.418 787.703C893.377 787.776 893.334 787.849 893.293 787.923C893.596 788.261 893.899 788.6 894.203 788.939C894.17 789.003 894.135 789.067 894.102 789.13C893.337 788.813 892.574 788.496 891.809 788.179C891.741 788.236 891.671 788.294 891.603 788.352C892.347 789.39 893.092 790.427 893.836 791.465C893.737 791.579 893.639 791.692 893.54 791.806C892.627 791.258 891.716 790.711 890.802 790.163C890.727 790.254 890.651 790.344 890.575 790.435C891.777 791.573 892.979 792.71 894.159 793.828C893.489 795.267 891.202 795.94 892.3 798.202C892.758 797.813 893.107 797.515 893.499 797.182C894.456 798.032 893.722 800.155 896.05 799.768C895.638 800.435 895.409 800.798 895.185 801.166C894.674 802.01 894.85 802.386 895.839 802.514C896.189 802.56 896.547 802.526 896.901 802.552C897.243 802.579 897.581 802.636 897.736 802.653C897.55 803.489 897.176 804.267 897.276 804.976C897.382 805.716 897.947 806.39 898.38 807.226C897.851 807.375 897.241 807.61 896.61 807.711C895.844 807.832 895.769 808.166 896.137 808.753C896.45 809.256 896.758 809.763 897.138 810.378C895.192 810.811 894.184 809.046 892.405 808.849C892.593 809.748 892.754 810.508 892.935 811.368C892.16 811.786 891.288 812.159 890.536 812.697C890.055 813.041 889.806 812.882 889.454 812.611C888.922 812.2 888.401 811.758 887.814 811.443C887.561 811.307 887.154 811.458 886.819 811.48C886.923 811.749 887.048 812.012 887.122 812.289C887.199 812.575 887.227 812.874 887.274 813.168C887.009 813.2 886.738 813.284 886.481 813.249C886.168 813.205 885.859 812.963 885.565 812.989C885.246 813.017 884.767 813.184 884.668 813.417C884.395 814.071 884.018 814.114 883.448 813.894C882.704 813.61 881.948 813.358 881.115 813.066C881.031 813.506 880.96 813.867 880.854 814.419C879.242 813.107 877.596 813.878 875.854 814.085C876.395 813.478 876.995 812.912 877.457 812.251C877.741 811.846 878.094 811.028 877.93 810.86C877.475 810.385 876.789 810.095 876.145 809.864C875.991 809.809 875.585 810.219 875.416 810.493C875.189 810.863 875.079 811.305 874.907 811.747C874.016 811.024 873.167 810.335 872.32 809.647C872.217 809.716 872.116 809.787 872.013 809.857C872.125 810.566 872.218 811.277 872.351 811.98C872.492 812.734 872.392 813.277 871.526 813.554C871.27 813.636 871.035 814.165 871.012 814.503C870.959 815.326 870.669 815.922 869.854 816.246C868.933 815.551 868.011 814.857 867.011 814.102C866.449 814.541 865.778 815.066 864.983 815.686C864.471 814.746 864.007 813.894 863.424 812.822C863.108 813.698 862.932 814.376 862.617 814.979C862.459 815.282 862.047 815.451 861.75 815.68C861.583 815.33 861.272 814.979 861.273 814.629C861.28 813.084 861.048 812.912 859.628 813.581C858.266 814.222 858.282 814.224 858.829 815.64C858.911 815.857 858.811 816.312 858.645 816.42C858.286 816.648 857.823 816.842 857.413 816.822C857.045 816.805 856.692 816.483 856.2 816.225C856.003 817.354 855.832 818.343 855.641 819.443C855.192 819.241 854.877 819.109 854.574 818.959C853.433 818.397 853.227 818.518 853.115 819.831C853.103 819.984 853.069 820.135 853.026 820.403C852.76 820.201 852.551 820.073 852.378 819.91C851.027 818.639 850.847 818.652 850.045 819.895C849.193 819.947 848.498 819.991 847.657 820.043C847.485 819.808 847.189 819.406 846.819 818.902C846.157 819.708 845.557 820.436 844.826 821.322C844.611 820.831 844.494 820.516 844.342 820.22C843.946 819.448 843.602 818.718 842.484 818.663C841.995 818.638 841.538 817.984 840.99 817.553C840.697 817.798 840.339 818.094 839.966 818.404C838.741 817.32 837.486 817.85 836.308 818.389C835.349 818.828 834.477 819.455 833.579 820.022C832.98 820.401 832.493 820.338 831.912 819.913C831.381 819.525 830.738 819.268 830.113 819.042C829.617 818.863 829.075 818.801 828.897 819.542C828.868 819.666 828.708 819.835 828.59 819.852C826.81 820.108 825.029 820.351 823.245 820.572C823.04 820.598 822.816 820.478 822.447 820.388C822.694 819.771 822.918 819.213 823.162 818.603C822.948 818.535 822.791 818.428 822.66 818.453C820.867 818.784 819.08 819.141 817.29 819.47C817.015 819.521 816.605 819.592 816.458 819.448C815.932 818.935 815.434 819.097 814.859 819.298C814.179 819.534 813.472 819.688 812.777 819.877C812.725 819.794 812.671 819.709 812.619 819.626C812.819 819.367 812.977 819.053 813.227 818.859C814.616 817.775 816.014 816.704 817.437 815.667C817.9 815.328 818.439 815.089 818.958 814.833C820.394 814.125 820.966 813.012 820.559 811.325C820.054 811.387 819.526 811.499 818.999 811.496C818.702 811.495 818.408 811.277 818.105 811.192C817.753 811.092 817.295 810.861 817.061 810.993C816.813 811.135 816.602 811.687 816.682 811.977C816.854 812.611 817.22 813.194 817.57 813.933C815.595 815.314 813.598 816.714 811.597 818.108C810.277 819.027 808.883 819.856 807.651 820.881C806.682 821.69 805.841 822.686 805.068 823.692C804.287 824.707 804.268 824.761 803.145 824.248C802.656 824.024 801.839 823.651 801.632 823.841C801.021 824.404 800.575 825.186 800.217 825.954C800.135 826.13 800.599 826.745 800.93 826.889C801.898 827.313 802.926 827.601 803.929 827.949C804.308 828.08 804.681 828.23 805.056 828.37C805.045 828.486 805.034 828.602 805.023 828.718C804.039 828.715 803.052 828.677 802.069 828.716C799.937 828.801 799.689 829.057 799.462 831.158C799.39 831.824 799.541 832.632 798.484 832.725C798.42 832.731 798.296 833.296 798.383 833.538C798.561 834.045 798.86 834.507 799.235 835.229C798.524 834.954 798.006 834.773 797.503 834.559C796.564 834.16 796.475 834.21 796.377 835.191C796.343 835.523 796.252 835.849 796.13 836.465C795.428 835.578 794.893 834.901 794.357 834.225C794.266 834.234 794.175 834.244 794.082 834.253C793.924 835.199 793.765 836.145 793.591 837.184C792.948 836.33 792.376 835.486 791.713 834.723C791.398 834.363 790.908 834.156 790.498 833.881C790.379 834.261 790.268 834.645 790.139 835.021C790.102 835.131 790.013 835.224 789.863 835.453C789.445 834.339 789.069 833.335 788.641 832.2C788.177 832.738 787.806 833.167 787.542 833.474C786.109 832.521 784.739 831.537 783.296 830.675C782.311 830.087 782.143 830.22 781.901 831.32C781.44 833.412 779.442 834.554 776.98 833.897C775.71 833.557 774.549 832.81 773.22 832.191C771.796 834.354 770.274 836.664 768.752 838.971C768.619 838.944 768.485 838.918 768.35 838.891C768.024 837.288 767.7 835.686 767.374 834.084C767.256 834.095 767.14 834.106 767.022 834.118C766.237 835.112 766.572 836.318 766.373 837.558C765.703 836.518 765.035 835.477 764.249 834.258C763.517 835.275 762.907 836.121 762.233 837.06C761.444 834.859 760.679 832.727 759.833 830.365C758.519 831.727 757.832 833.637 755.449 833.074C755.842 832.258 756.183 831.488 756.578 830.746C757.489 829.031 757.416 828.867 755.485 828.942C753.945 829.003 752.41 829.153 750.665 829.279C751.129 828.561 751.501 827.948 751.913 827.36C752.284 826.83 752.196 826.506 751.581 826.272C750.439 825.838 749.309 825.376 748.175 824.919C747.446 824.625 747.015 824.12 746.748 823.346C746.537 822.737 746.098 822.172 745.648 821.689C744.708 820.676 743.687 819.736 742.713 818.754C742.406 818.446 742.143 818.095 741.77 817.661C744.19 817.089 746.407 817.96 748.703 817.949C748.557 816.861 747.78 816.878 747.157 816.826C746.362 816.76 745.747 816.615 745.846 815.433C745.123 815.839 744.542 816.165 743.844 816.555C743.321 815.466 742.833 814.448 742.235 813.203C741.857 814.163 741.64 814.901 741.28 815.56C741.093 815.903 740.655 816.111 740.331 816.378C740.147 816.014 739.832 815.664 739.797 815.287C739.607 813.33 739.604 813.31 737.744 814.043C736.406 814.572 736.344 814.685 736.877 815.985C737.069 816.451 737.119 816.82 736.647 817.161C736.168 817.507 735.744 817.925 735.108 817.469C734.836 817.275 734.535 817.121 734.245 816.949C734.175 817.02 734.106 817.089 734.036 817.16C734.471 817.714 734.947 818.243 735.333 818.829C735.673 819.346 735.913 819.928 736.198 820.484C735.604 820.681 735.018 821.004 734.415 821.048C733.494 821.117 732.56 820.967 731.631 820.96C731.101 820.959 730.571 821.057 729.816 821.132C729.424 820.855 728.835 820.359 728.177 819.988C727.126 819.399 726.899 820.312 726.661 821.057C725.484 820.062 725.379 820.06 724.221 821.03C723.929 820.459 723.65 819.91 723.27 819.167C722.373 820.134 721.575 820.993 720.805 821.823C720.581 821.676 720.486 821.645 720.484 821.608C720.379 819.91 719.207 819.276 717.778 818.934C716.968 818.74 716.145 818.57 715.317 818.501C714.524 818.437 713.844 818.584 713.52 819.552C713.196 820.527 712.289 820.578 711.411 820.384C710.036 820.081 708.711 819.615 707.241 820.014C706.56 820.199 706.251 820.482 706.127 821.114C706.035 821.587 705.919 822.056 705.784 822.517C705.452 823.654 705.024 823.824 704.082 823.083C703.328 822.49 702.653 821.791 701.964 821.116C701.505 820.669 701.083 820.182 700.564 819.628C700.09 820.419 699.664 821.157 699.211 821.878C697.504 824.593 696.44 824.706 694.234 822.418C693.921 822.094 693.624 821.753 693.3 821.441C692.61 820.773 692.375 820.834 692.088 821.775C691.92 822.327 691.822 822.903 691.644 823.451C691.488 823.937 691.318 824.429 691.067 824.869C690.425 825.989 689.84 826.076 688.825 825.266C688.436 824.953 688.042 824.645 687.521 824.234C686.954 825.439 686.461 826.491 685.869 827.75C685.336 827.117 684.933 826.642 684.534 826.162C683.85 825.339 683.579 825.319 682.822 826.033C682.036 826.776 681.771 826.733 681.399 825.656C680.995 824.482 680.679 823.278 680.227 821.764C679.336 822.837 678.594 823.733 677.851 824.629C677.723 824.563 677.596 824.497 677.468 824.431C677.108 822.728 676.749 821.025 676.355 819.154C675.87 819.469 675.51 819.658 675.203 819.912C674.309 820.649 673.456 821.434 672.548 822.15C672.242 822.392 671.818 822.486 671.448 822.647C671.339 822.264 671.171 821.887 671.134 821.498C671.079 820.957 671.162 820.401 671.108 819.86C671.067 819.464 670.9 819.081 670.787 818.693C670.409 818.827 669.985 818.893 669.663 819.108C668.702 819.754 667.79 820.472 666.84 821.132C666.544 821.337 666.18 821.448 665.569 821.73C665.875 820.466 666.116 819.476 666.392 818.333C664.935 819.013 664.201 820.618 662.545 820.541C662.492 820.404 662.453 820.346 662.45 820.286C662.414 819.785 662.387 819.287 662.357 818.786C661.881 818.911 661.409 819.108 660.929 819.132C660.673 819.144 660.256 818.911 660.166 818.687C659.943 818.134 659.866 817.521 659.663 816.653C658.962 818.22 658.012 817.645 657.087 817.256C656.447 816.987 655.808 816.713 655.033 816.382C654.961 816.985 654.908 817.436 654.83 818.089C654.166 817.813 653.611 817.517 653.02 817.355C652.498 817.213 651.922 817.11 651.392 817.176C649.865 817.361 648.351 817.66 646.826 817.869C646.458 817.92 646.07 817.805 645.53 817.749C646.559 816.022 648.289 815.272 649.671 814.15C649.619 814.04 649.569 813.931 649.518 813.821C648.925 814.02 648.307 814.167 647.746 814.432C647.283 814.651 647.01 814.596 646.684 814.203C646.216 813.633 645.693 813.106 645.157 812.597C644.922 812.372 644.601 812.238 644.319 812.063C644.236 812.105 644.152 812.147 644.069 812.19C644.171 812.993 644.275 813.797 644.371 814.601C644.416 814.982 644.5 815.37 644.468 815.749C644.396 816.566 643.819 816.89 642.864 816.687C642.749 817.372 642.724 818.089 642.505 818.737C642.046 820.095 641.373 820.225 640.409 819.229C640.301 819.116 640.14 818.961 640.019 818.973C639.186 819.057 638.815 818.511 638.461 817.909C638.195 817.456 637.845 817.397 637.419 817.719C636.753 818.219 636.079 818.704 635.264 819.3C634.717 818.145 634.209 817.073 633.569 815.725C633.277 816.456 633.115 816.919 632.908 817.363C632.68 817.853 632.481 818.382 632.14 818.782C631.938 819.017 631.456 819.172 631.154 819.108C630.966 819.066 630.796 818.554 630.772 818.241C630.718 817.526 630.759 816.806 630.762 815.848C629.468 816.387 628.364 816.849 627.165 817.349C627.582 818.133 627.909 818.75 628.276 819.441C627.716 819.877 627.144 820.326 626.597 820.751C625.958 820.367 625.369 820.013 624.751 819.64C624.435 820.955 624.157 822.117 623.847 823.412C623.303 823.184 622.818 822.976 622.331 822.776C621.112 822.277 620.929 822.391 620.875 823.671C620.863 823.978 620.827 824.285 620.803 824.593L620.5 824.82C620.177 824.403 619.892 823.945 619.519 823.578C618.299 822.373 617.613 822.56 617.107 824.195C617.054 824.369 616.99 824.538 616.924 824.729C615.785 823.316 615.21 823.287 614.332 824.629C614.189 824.271 614.063 823.946 613.93 823.623C613.546 822.679 613.187 822.61 612.499 823.387C612.138 823.795 611.816 824.24 611.501 824.688C611.28 825 611.101 825.339 610.902 825.667C610.786 825.587 610.671 825.508 610.553 825.43C610.232 824.684 609.907 823.935 609.591 823.187C609.327 822.57 608.955 822.217 608.191 822.284C607.866 822.312 607.358 822.054 607.196 821.775C606.709 820.935 606.169 820.918 605.46 821.43C605.186 821.628 604.884 821.787 604.506 822.02C604.21 820.752 603.343 820.801 602.507 821.023C601.614 821.257 600.739 821.589 599.892 821.963C599.22 822.26 598.573 822.645 597.97 823.068C596.751 823.922 595.662 824.287 594.455 822.941C594.049 822.488 593.182 822.417 592.505 822.253C592.266 822.196 591.815 822.301 591.719 822.475C591.21 823.402 590.304 823.407 589.46 823.509C587.961 823.694 586.455 823.88 584.948 823.943C583.425 824.008 583.24 823.639 583.983 822.356C584.135 822.094 584.256 821.812 584.47 821.38C584 821.342 583.691 821.256 583.402 821.304C581.72 821.577 580.042 821.871 578.366 822.183C577.992 822.253 577.647 822.484 577.276 822.537C576.962 822.582 576.475 822.598 576.328 822.416C575.87 821.841 575.392 821.907 574.784 822.073C573.616 822.394 572.429 822.641 571.206 822.804C573.042 820.936 574.754 818.994 577.182 817.902C578.294 817.402 579.365 816.8 580.41 816.17C581.588 815.457 582.008 814.291 581.553 813.011C581.471 812.781 580.998 812.544 580.719 812.561C580.141 812.592 579.571 812.791 578.94 812.816C579.752 811.377 581.583 810.902 582.18 809.343C580.766 808.46 579.439 808.51 578.046 809.18C577.213 809.581 576.307 809.858 575.407 810.083C574.911 810.207 574.358 810.103 573.59 810.101C574.356 809.474 574.915 809.015 575.543 808.502C575.255 808.325 575.087 808.222 574.609 807.925C575.223 807.541 575.711 807.235 576.202 806.929C576.154 806.829 576.106 806.728 576.06 806.628C575.431 806.527 574.801 806.427 574.008 806.301C574.316 806.014 574.489 805.781 574.72 805.65C576.137 804.855 577.565 804.077 578.993 803.305C579.642 802.953 580.341 802.679 580.938 802.258C581.183 802.085 581.213 801.615 581.342 801.28C581.249 801.221 581.155 801.163 581.062 801.107C581.292 801.009 581.521 800.913 581.751 800.813C583.456 800.085 585.236 799.491 586.844 798.59C588.798 797.497 590.745 796.412 592.965 796.079C595.241 795.738 596.009 794.112 596.589 792.159C596.008 792.545 595.424 792.932 594.587 793.488C594.749 792.895 594.835 792.555 594.935 792.216C595.054 791.816 595.239 791.427 595.291 791.019C595.334 790.666 595.233 790.295 595.195 789.931C594.822 790.044 594.386 790.072 594.086 790.287C593.545 790.672 593.085 791.167 592.592 791.616C591.265 790.213 590.631 790.255 589.461 791.77C588.78 792.655 588.106 793.545 587.305 794.591C586.775 793.943 586.367 793.443 585.814 792.765C585.074 794.386 584.388 795.886 583.702 797.387L583.443 797.33C583.248 796.704 583.054 796.075 582.832 795.36C580.855 796.098 579.641 797.709 578.107 798.938C577.405 798.316 577.611 797.76 577.998 797.188C578.492 796.459 578.978 795.725 579.467 794.994C579.406 794.899 579.344 794.804 579.282 794.71C578.713 794.804 578.144 794.899 577.513 795.004C576.89 793.85 577.963 793.491 578.79 792.703C577.768 792.59 576.985 792.502 575.864 792.377C576.835 791.554 577.631 790.878 578.515 790.127C577.939 790.042 577.44 789.968 576.734 789.865C577.085 789.686 577.275 789.552 577.486 789.487C579.583 788.85 581.403 787.741 583.1 786.371C584.789 785.007 586.584 783.88 588.89 783.767C589.527 783.737 590.134 783.107 590.826 782.713C590.527 782.322 590.362 782.105 590.123 781.789C593.183 780.769 596.447 780.532 599.238 778.92C599.253 778.808 599.271 778.698 599.287 778.586C598.06 778.008 596.836 777.431 595.526 776.815C596.235 776.456 596.882 776.129 597.527 775.801C598.798 775.154 599.07 774.363 598.476 773.047C597.971 771.929 597.994 771.978 599.096 771.469C601.371 770.418 603.622 769.314 605.877 768.22C606.181 768.072 606.451 767.853 606.738 767.664C606.732 767.573 606.725 767.482 606.719 767.392C604.101 767.001 601.481 766.611 598.863 766.22C598.863 766.108 598.863 765.998 598.864 765.886C601.038 765.172 603.517 765.178 605.325 763.385C605.057 763.077 604.855 762.845 604.535 762.477C605.267 762.261 605.915 762.118 606.521 761.87C606.893 761.719 607.512 761.331 607.475 761.178C607.365 760.708 607.088 760.13 606.698 759.906C605.993 759.506 605.158 759.336 604.149 758.991C607.223 757.074 610.024 755.171 611.993 752.357C611.929 752.26 611.866 752.163 611.804 752.066C611.242 752.287 610.681 752.509 609.84 752.841C610.371 752.015 610.75 751.427 611.255 750.641C610.385 750.553 609.712 750.485 608.973 750.41C610.124 749.803 611.225 749.221 612.325 748.641C611.881 747.627 611.25 747.386 610.433 747.436C609.028 747.518 607.622 747.58 606.238 747.649C606.239 745.379 607.964 744.488 609.484 743.448C609.44 743.338 609.397 743.227 609.353 743.117C607.862 742.941 606.373 742.766 604.72 742.572C606.196 739.528 608.992 737.87 611.035 735.417C609.904 734.604 608.611 734.666 607.436 734.357C606.008 733.98 605.138 735.09 603.81 735.798C603.975 734.916 604.091 734.287 604.263 733.37C602.501 734.234 600.882 735.028 599.264 735.823C599.181 735.713 599.096 735.602 599.013 735.492C599.998 734.404 600.984 733.315 601.989 732.204C601.846 732.095 601.775 731.993 601.705 731.994C600.717 732.018 599.86 732.01 600.085 730.552C600.148 730.143 599.6 729.639 599.279 729.085C600.151 729.154 600.99 729.266 601.832 729.269C602.463 729.271 603.182 729.3 603.709 729.024C606.098 727.776 608.439 726.431 610.784 725.099C611.207 724.859 611.737 724.646 611.438 723.925C611.169 723.283 610.849 722.888 610.073 723.067C609.709 723.151 609.316 723.109 608.784 723.132C608.951 722.465 609.09 721.907 609.274 721.167C607.886 721.418 606.645 721.642 605.405 721.868C605.382 721.812 605.36 721.756 605.337 721.7C606.097 721.301 606.855 720.901 607.614 720.502L607.567 720.198C606.977 719.943 606.386 719.689 605.623 719.358C606.202 719.145 606.605 718.978 607.021 718.848C610.234 717.84 613.27 716.459 616.05 714.557C617.802 713.357 617.867 712.911 616.34 711.473C615.682 710.853 614.774 710.499 613.833 709.937C614.987 709.027 616.219 708.056 617.448 707.084C617.425 706.981 617.402 706.881 617.378 706.778C616.366 706.681 615.355 706.585 614.341 706.487C614.316 706.425 614.293 706.363 614.268 706.301C614.602 706.098 614.921 705.871 615.27 705.696C616.993 704.826 618.721 703.968 620.449 703.114C622.133 702.283 623.157 700.959 623.746 699.17C624.233 697.692 624.931 696.274 625.609 694.866C626.129 693.786 626.163 692.712 625.872 691.587C625.714 690.974 625.576 690.356 625.532 689.689C626.825 690.717 627.946 691.848 628.411 693.48C628.682 694.437 628.91 695.409 629.243 696.345C629.713 697.662 630.57 698.49 632.098 698.518C632.556 698.527 633.101 698.816 633.444 699.146C635.742 701.347 637.996 703.593 640.264 705.825C640.237 705.951 640.211 706.076 640.184 706.202C639.005 706.407 637.828 706.625 636.646 706.807C636.268 706.866 635.874 706.818 635.487 706.828C634.392 706.858 634.265 707.062 634.546 708.112C635.174 710.469 635.772 712.831 636.374 715.193C636.451 715.497 636.471 715.817 636.549 716.339C634.563 715.358 632.738 714.38 630.497 714.516C630.956 714.985 631.473 715.412 631.858 715.935C632.284 716.512 632.795 717.147 632.897 717.813C633.068 718.934 633.731 719.257 634.662 719.538C636.713 720.159 638.738 720.866 640.771 721.552C640.968 721.619 641.138 721.77 641.488 721.981C640.75 722.089 640.191 722.151 639.641 722.256C639.074 722.362 638.364 722.279 638.419 723.247C638.428 723.403 637.851 723.695 637.518 723.744C636.885 723.839 636.205 723.688 635.595 723.845C634.029 724.247 632.483 724.737 630.952 725.26C630.731 725.334 630.48 725.805 630.516 726.052C630.612 726.702 630.712 727.513 631.604 727.526C632.691 727.541 633.804 727.527 634.865 727.319C637.42 726.819 639.95 726.191 642.494 725.637C643.038 725.519 643.605 725.494 644.16 725.426C644.214 725.538 644.27 725.652 644.324 725.765C643.507 726.372 642.691 726.982 641.818 727.63C641.974 727.88 642.132 728.13 642.379 728.519C641.513 728.74 640.714 728.91 639.937 729.155C639.252 729.371 638.338 729.517 639.029 730.614C639.045 730.639 639.066 730.684 639.056 730.703C638.298 731.974 639.531 732.244 640.137 732.798C641.015 733.603 641.962 734.33 642.822 735.152C643.114 735.429 643.458 735.973 643.363 736.245C643.251 736.555 642.695 736.818 642.295 736.894C641 737.141 639.998 737.807 639.019 738.874C641.018 740.794 643.857 740.909 646.061 742.504C644.713 743.152 643.331 743.378 641.907 743.445C641.381 743.471 640.498 743.047 640.468 743.821C640.443 744.509 640.893 745.354 641.397 745.883C641.946 746.461 642.785 746.778 643.521 747.165C643.969 747.398 644.455 747.687 644.935 747.706C646.682 747.779 648.165 748.498 649.588 749.407C650.449 749.956 651.303 750.513 652.309 751.163C651.964 751.276 651.672 751.324 651.435 751.466C651.274 751.562 651.194 751.791 651.078 751.961C651.253 752.058 651.427 752.235 651.607 752.243C652.808 752.291 656.516 750.533 657.392 749.419C656.315 749.234 655.339 749.065 654.14 748.859C654.565 748.506 654.838 748.225 655.16 748.02C656.083 747.431 657.038 746.897 657.953 746.299C659.118 745.54 660.134 744.67 660.79 743.36C661.271 742.398 662.069 741.597 662.722 740.72C663.629 739.502 663.552 739.309 662.082 739.074C661.415 738.968 660.731 738.923 660.087 738.74C659.681 738.624 659.332 738.303 658.959 738.076L659.018 737.767C658.524 737.974 658.044 738.22 657.536 738.378C656.531 738.69 655.524 739.056 654.491 739.205C653.562 739.34 653.24 738.885 653.206 737.961C653.165 736.831 653.477 736.044 654.655 735.586C655.755 735.159 656.796 734.536 657.779 733.874C658.195 733.594 658.541 733.021 658.63 732.531C658.671 732.307 658.028 731.93 657.662 731.672C657.384 731.476 657.053 731.359 656.705 731.186C656.816 730.966 656.879 730.822 656.956 730.69C658.528 728.074 658.541 728.072 658.09 725.15C658.048 724.881 657.722 724.616 657.467 724.437C657.27 724.3 656.976 724.308 656.729 724.238C656.489 724.17 656.255 724.082 655.954 723.981C656.781 721.652 659.209 720.361 659.784 717.809C657.445 717.802 655.279 718.937 652.95 718.159C653.241 717.747 653.492 717.394 653.857 716.875C653.08 716.738 652.448 716.626 651.527 716.461C652.086 716.142 652.421 715.934 652.77 715.754C653.942 715.151 655.147 714.604 656.281 713.937C656.777 713.647 657.111 713.096 657.557 712.707C657.86 712.443 658.199 712.141 658.569 712.053C660.821 711.523 663.089 711.057 665.347 710.552C665.885 710.432 666.406 710.234 666.936 710.074C666.929 709.954 666.924 709.834 666.916 709.716C666.187 709.55 665.459 709.376 664.728 709.223C664.32 709.139 663.9 709.101 663.49 709.022C662.122 708.763 662.141 708.641 661.998 707.287C661.895 706.309 661.755 705.424 662.37 704.556C662.454 704.439 662.2 703.969 661.994 703.783C661.135 703.017 660.234 702.3 659.312 701.532C659.578 701.198 659.832 700.88 660.046 700.611C659.232 699.892 658.437 699.19 657.547 698.405C658.071 697.918 658.395 697.619 658.719 697.319C660.201 695.94 661.709 694.587 663.152 693.168C663.649 692.681 664.049 692.068 664.382 691.451C665.17 689.983 664.978 688.912 663.831 687.682C663.547 687.38 663.243 687.07 663.058 686.708C662.656 685.921 663.254 684.041 664.081 683.588C664.831 683.177 665.66 682.913 666.431 682.537C667.638 681.947 668.851 681.362 670.006 680.682C670.454 680.418 670.805 679.935 671.099 679.485C671.77 678.458 671.698 677.988 670.837 677.085C671.296 676.399 672.058 675.826 671.671 674.766C671.59 674.544 672.205 674.1 672.444 673.724C672.757 673.23 673.458 672.807 672.838 672.071C672.788 672.013 672.869 671.834 672.909 671.714C673.293 670.493 673.674 669.269 674.069 668.05C674.383 667.077 674.802 666.134 674.384 665.064C674.286 664.813 674.405 664.411 674.543 664.139C676.338 660.604 676.566 656.749 676.938 652.908C677.09 651.34 677.553 649.8 677.875 648.248L678.266 648.228C678.466 648.669 678.671 649.108 678.862 649.553C680.223 652.739 681.56 655.936 682.957 659.106C683.302 659.894 683.832 660.6 684.283 661.341C684.885 662.334 685.622 662.98 686.94 662.841C687.412 662.79 688.069 663.177 688.426 663.564C689.363 664.575 690.179 665.694 691.045 666.771C692.677 668.798 694.247 670.878 695.961 672.834C697.222 674.273 698.024 675.672 697.84 677.75C697.724 679.05 698.342 680.504 698.921 681.754C699.816 683.686 699.645 684.54 697.719 685.438C697.076 685.737 696.572 686.058 696.469 686.865C696.362 687.699 695.676 688.026 694.924 688.054C693.995 688.088 693.061 688.012 692.129 687.97C691.556 687.945 690.984 687.901 690.409 687.864C690.347 687.955 690.287 688.048 690.224 688.138L690.205 688.157ZM662.052 753.237C661.983 753.123 661.914 753.009 661.844 752.896C661.275 753.128 660.681 753.312 660.142 753.6C658.853 754.288 658.863 754.307 657.945 753.28C656.269 754.154 654.593 755.028 652.921 755.907C652.839 755.951 652.746 756.021 652.711 756.102C652.405 756.808 651.771 756.843 651.161 756.798C649.614 756.685 648.069 756.518 646.477 756.368L646.473 757.678C645.132 757.991 645.015 758.234 645.65 759.441C645.825 759.774 646.061 760.107 646.347 760.347C648.028 761.757 650.172 761.974 652.083 760.881C652.86 760.437 653.557 759.852 654.282 759.321C655.007 758.79 655.713 758.228 656.452 757.718C656.717 757.534 657.058 757.458 657.488 757.279C657.54 759.744 654.892 759.597 654.125 761.14C654.427 761.334 654.701 761.513 655.083 761.761C654.72 762.021 654.47 762.209 654.209 762.382C653.361 762.942 653.285 763.282 654.111 763.775C654.795 764.182 655.622 764.544 656.398 764.57C658.291 764.634 660.197 764.553 662.09 764.417C665.195 764.195 667.406 762.365 669.388 760.177C669.417 760.146 669.385 760.057 669.368 759.837C668.567 759.693 667.728 759.526 666.885 759.4C666.199 759.298 665.873 758.955 665.883 758.24C665.892 757.674 665.807 757.106 665.755 756.437C664.982 756.742 664.341 756.993 663.632 757.273C663.82 756.671 663.954 756.241 664.13 755.677L660.478 755.666C661.049 754.783 661.549 754.012 662.048 753.241L662.052 753.237ZM745.367 711.942C745.809 713.463 746.215 714.931 746.685 716.379C746.748 716.574 747.128 716.768 747.374 716.789C749.805 716.978 752.238 717.207 754.673 717.261C755.983 717.29 757.725 715.895 758.022 714.724C755.878 715.045 753.807 715.356 751.577 715.691C752.096 713.716 750.649 713.65 749.327 713.424C749.787 712.915 750.109 712.563 750.429 712.208L750.324 711.955L745.363 711.94L745.367 711.942ZM749.08 724.389C748.558 723.81 748.143 723.455 747.865 723.016C747.579 722.561 747.435 722.02 747.212 721.521C746.503 719.927 743.672 718.407 741.756 718.672C742.028 719.042 742.257 719.375 742.505 719.69C742.92 720.217 743.545 720.673 743.725 721.266C744.045 722.324 744.757 722.886 745.657 723.252C746.703 723.679 747.801 723.972 749.08 724.389ZM743.169 728.98C743.169 728.98 743.169 728.982 743.169 728.984C742.914 728.962 742.661 728.941 742.405 728.919C741.382 728.827 741.136 729.18 741.506 730.126C741.882 731.087 742.695 731.049 743.501 731.075C744.355 731.1 744.896 730.617 745.196 729.911C745.264 729.751 744.925 729.244 744.684 729.162C744.212 729.002 743.678 729.032 743.169 728.982L743.169 728.98Z" fill="#205383"/>
<path d="M961.239 768C960.884 767.966 960.53 767.905 960.175 767.905C949.094 767.888 938.012 767.88 926.932 767.865C920.15 767.855 913.368 767.831 906.586 767.823C900.703 767.815 894.817 767.822 888.933 767.82C888.631 767.82 888.33 767.82 887.841 767.82C887.841 766.928 887.846 766.114 887.841 765.3C887.799 757.92 887.755 750.54 887.712 743.16C887.71 742.879 887.664 742.591 887.706 742.316C887.913 740.967 887.154 739.964 886.57 738.876C886.274 738.324 886.184 737.661 886 737.042C890.038 735.262 893.904 733.582 897.749 731.853C901.804 730.03 905.833 728.147 909.887 726.321C910.531 726.032 910.828 725.645 910.828 724.944C910.824 722.048 910.866 719.153 910.837 716.258C910.834 715.921 910.562 715.492 910.284 715.269C909.587 714.713 909.461 714.281 910.176 713.769C910.844 713.289 910.929 712.729 910.92 712.003C910.881 709.107 910.86 706.21 910.889 703.315C910.904 701.797 910.628 700.493 908.914 699.87C909.122 699.541 909.257 699.283 909.432 699.055C913.185 694.191 916.933 689.321 920.71 684.474C921.178 683.872 921.435 683.28 921.361 682.515C921.306 681.931 921.35 681.337 921.32 680.749C921.309 680.529 921.275 680.189 921.14 680.115C920.367 679.703 920.178 678.915 919.797 678.24C919.642 677.965 919.331 677.779 919.108 677.535C918.962 677.375 918.726 677.175 918.74 677.012C918.817 676.172 918.32 675.815 917.653 675.555C917.538 675.511 917.441 675.417 917.243 675.283C917.44 675.06 917.598 674.845 917.792 674.666C921.303 671.411 924.812 668.154 928.342 664.919C928.576 664.705 928.958 664.576 929.281 664.554C930.225 664.494 931.174 664.537 932.119 664.477C932.347 664.463 932.619 664.248 932.749 664.046C932.806 663.96 932.537 663.682 932.448 663.476C932.354 663.257 932.199 663.003 932.241 662.799C932.568 661.146 932.766 659.44 933.333 657.87C934.077 655.81 934.882 655.445 936.701 655.511C937.236 655.531 937.782 655.422 938.31 655.48C939.168 655.576 939.55 655.148 939.806 654.408C940.088 653.588 940.402 652.771 940.781 651.993C942.43 648.607 945.141 646.73 948.892 646.373C949.757 646.291 950.622 646.182 951.49 646.148C953.686 646.062 955.559 646.861 957.077 648.414C957.833 649.188 958.669 649.487 959.693 649.274C959.92 649.227 960.214 649.05 960.304 648.851C961.079 647.181 961.823 645.496 962.548 643.804C962.665 643.533 962.674 643.207 962.686 642.904C962.751 641.265 962.795 639.627 962.858 637.988C962.903 636.859 963.411 635.948 964.343 635.347C965.825 634.39 966.419 633.049 966.391 631.319C966.363 629.63 966.457 627.938 966.462 626.247C966.465 625.192 966.8 624.423 967.886 624.072C968.699 623.809 968.87 623.089 968.9 622.339C968.959 620.906 969.029 619.472 969.034 618.036C969.057 610.169 969.057 602.301 969.085 594.434C969.086 593.949 968.909 593.714 968.518 593.48C968.244 593.317 967.943 593.011 967.877 592.718C967.494 591.012 967.216 589.282 966.823 587.579C966.611 586.663 966.309 585.754 965.927 584.896C963.51 579.474 964.329 574.537 968.215 570.142C970.385 567.69 972.633 565.288 975.022 563.053C979.299 559.054 981.625 554.221 981.919 548.375C982.12 544.358 982.378 540.346 982.621 536.33C982.667 535.569 982.475 535.029 981.802 534.519C980.388 533.452 980.716 531.155 982.343 530.47C982.901 530.235 983.022 529.943 983.02 529.389C982.999 525.032 982.999 520.675 983.019 516.32C983.022 515.575 983.004 514.895 982.301 514.435C982.174 514.352 982.115 514.166 981.908 513.849C982.281 514.057 982.469 514.161 982.87 514.384C982.936 513.255 982.993 512.268 983.053 511.238C982.41 511.14 981.873 511.057 981.278 510.966C981.367 510.852 981.387 510.798 981.413 510.795C982.994 510.643 983.202 510.357 982.947 508.663C982.835 507.918 982.924 506.785 983.228 506C983.211 506.792 983.829 507.48 983.517 508.329C983.422 508.586 983.414 508.883 983.4 509.163C983.337 510.546 983.491 510.706 984.863 510.749C984.978 510.752 985.092 510.774 985.232 510.948C984.955 511.015 984.682 511.101 984.402 511.145C984.102 511.191 983.795 511.198 983.382 511.231C983.564 512.934 982.896 514.728 984.319 516.304C984.104 516.274 983.995 516.266 983.89 516.24C983.796 516.217 983.707 516.174 983.597 516.131C983.56 516.221 983.509 516.286 983.509 516.352C983.468 520.811 983.425 525.269 983.415 529.727C983.415 529.947 983.67 530.289 983.884 530.367C985.866 531.106 986.065 533.706 984.39 534.732C984.068 534.929 983.83 535.55 983.852 535.961C983.919 537.287 984.122 538.607 984.276 539.929C984.649 543.133 984.907 546.356 985.427 549.536C986.198 554.267 988.468 558.316 991.653 561.834C994.369 564.833 997.208 567.717 999.968 570.674C1001.55 572.37 1002.86 574.245 1003.7 576.437C1004.68 578.989 1004.84 581.571 1003.75 584.072C1002.77 586.331 1002.15 588.625 1001.92 591.072C1001.81 592.191 1001.32 593.269 1001.04 594.377C1000.93 594.82 1000.88 595.288 1000.88 595.745C1000.86 604.175 1000.79 612.606 1000.9 621.035C1000.92 622.586 1001.55 624.158 1003.02 625.187C1004.2 626.009 1004.9 627.421 1004.59 628.658C1004.15 630.472 1004.59 632.21 1004.33 634.05C1005.51 634.115 1006.59 634.173 1007.77 634.236V635.078C1007.77 637.973 1007.59 640.885 1007.84 643.759C1007.99 645.494 1008.77 647.187 1009.36 648.862C1009.45 649.105 1010.1 649.25 1010.5 649.261C1012.39 649.31 1014.28 649.308 1016.18 649.307C1018.02 649.305 1019.86 649.234 1021.71 649.29C1022.49 649.314 1022.96 649.013 1023.14 648.336C1023.53 646.884 1023.9 645.421 1024.17 643.942C1024.34 642.965 1024.35 641.951 1024.36 640.955C1024.36 640.662 1024.18 640.262 1023.95 640.093C1022.48 639.002 1022.33 637.625 1023.75 636.472C1024.41 635.928 1024.57 635.367 1024.56 634.576C1024.51 629.938 1024.5 625.299 1024.48 620.661C1024.48 620.383 1024.48 620.103 1024.48 619.853C1023.84 619.48 1022.96 619.866 1022.43 618.935C1023.15 618.833 1023.76 618.746 1024.42 618.652C1024.52 617.615 1024.63 616.563 1024.73 615.51C1024.82 615.509 1024.9 615.506 1024.99 615.504C1025.1 616.535 1025.21 617.566 1025.33 618.666C1025.7 618.713 1026.1 618.733 1026.49 618.829C1026.67 618.875 1026.82 619.064 1026.98 619.189C1026.84 619.329 1026.71 619.546 1026.54 619.595C1026.17 619.698 1025.78 619.713 1025.32 619.775C1025.31 620.001 1025.28 620.244 1025.28 620.486C1025.24 625.329 1025.21 630.172 1025.16 635.015C1025.15 635.57 1025.31 635.881 1025.79 636.176C1027.4 637.185 1027.51 638.43 1026.23 639.838C1025.9 640.201 1025.63 640.762 1025.61 641.241C1025.53 643.842 1025.94 646.391 1026.59 648.908C1027.05 650.736 1028.47 651.851 1029.69 653.113C1029.82 653.245 1030.11 653.247 1030.33 653.25C1031.51 653.267 1032.69 653.25 1033.86 653.285C1034.07 653.291 1034.4 653.436 1034.46 653.593C1035.17 655.697 1035.86 657.811 1036.53 659.93C1036.73 660.556 1036.61 661.137 1036.17 661.651C1036.02 661.817 1035.91 662.045 1035.87 662.26C1035.72 663.142 1035.19 663.765 1034.46 664.17C1033.91 664.468 1033.76 664.86 1033.8 665.414C1033.84 665.946 1033.87 666.48 1033.9 667.031C1034.03 667.06 1034.13 667.109 1034.22 667.1C1036.13 666.917 1037.72 667.64 1039.29 668.666C1041.73 670.265 1044.25 671.732 1046.73 673.259C1047 673.419 1047.25 673.588 1047.5 673.774C1048.38 674.448 1048.39 674.577 1047.9 675.602C1047.79 675.848 1047.74 676.139 1047.71 676.414C1047.56 677.734 1047.1 678.883 1046.04 679.746C1045.46 680.217 1045.51 681.7 1046.1 682.303C1048.91 685.141 1051.74 687.969 1054.53 690.821C1055.34 691.643 1056.11 692.507 1056.82 693.407C1057.5 694.251 1057.78 695.195 1057.09 696.197C1057.01 696.314 1056.91 696.423 1056.79 696.501C1056.69 696.57 1056.55 696.587 1056.43 696.634C1054.32 697.464 1054.25 697.535 1054.28 699.749C1054.29 701.095 1054.07 702.341 1053.28 703.461C1053.16 703.641 1053.06 703.883 1053.05 704.096C1053.04 706.553 1053.04 709.01 1053.04 711.564C1053.82 711.632 1054.5 711.69 1055.17 711.749C1055.3 712.653 1054.65 713.226 1053.23 713.466C1053.2 713.507 1053.14 713.549 1053.14 713.59C1053.13 716.536 1053.1 719.482 1053.13 722.427C1053.14 722.788 1053.43 723.253 1053.73 723.485C1055.37 724.752 1057.06 725.956 1058.72 727.193C1059.02 727.416 1059.28 727.695 1059.56 727.95C1058.62 729.242 1059.01 730.658 1058.88 731.979C1059.88 732.244 1060.81 732.505 1061.75 732.728C1062.16 732.825 1062.27 733.042 1062.26 733.436C1062.24 734.742 1062.23 736.05 1062.27 737.356C1062.28 737.614 1062.42 738.008 1062.62 738.099C1063.53 738.531 1063.76 739.251 1063.68 740.177C1063.64 740.553 1063.67 740.936 1063.67 741.328C1065.31 741.328 1066.88 741.337 1068.46 741.32C1068.84 741.316 1069.02 741.111 1069.02 740.676C1068.96 735.654 1068.93 730.631 1068.87 725.608C1068.86 725.159 1068.77 724.679 1068.58 724.27C1068.26 723.533 1068.45 723.024 1069.12 722.665C1070.19 722.084 1071.29 721.529 1072.37 720.959C1073.21 720.524 1074.35 720.282 1074.79 719.593C1075.21 718.933 1074.92 717.807 1074.92 716.887C1074.91 712.633 1074.91 708.38 1074.86 704.126C1074.85 703.417 1074.57 702.712 1074.43 702.003C1074.4 701.844 1074.41 701.664 1074.46 701.507C1074.59 701.013 1074.92 700.512 1074.88 700.038C1074.66 697.461 1075.37 695.11 1076.3 692.747C1077.67 689.251 1078.92 685.703 1080.14 682.148C1080.47 681.198 1080.54 680.146 1080.61 679.134C1080.64 678.718 1080.38 678.28 1080.25 677.854C1080.19 677.689 1080.07 677.526 1080.08 677.368C1080.13 676.474 1081.48 674.992 1082.35 674.722C1082.67 674.619 1083.07 674.308 1083.19 674C1086.22 665.854 1089.21 657.69 1092.24 649.541C1093.51 646.134 1093.19 642.65 1092.78 639.184C1092.68 638.372 1091.88 637.645 1091.41 636.878C1091.07 636.333 1090.72 635.798 1090.41 635.239C1089.72 633.992 1089.83 632.758 1090.65 631.629C1091.24 630.825 1091.89 630.061 1092.59 629.352C1094.03 627.886 1095.38 626.356 1096.38 624.544C1097.25 622.976 1097.5 621.255 1097.56 619.51C1097.58 619.038 1097.31 618.529 1097.09 618.08C1096.73 617.361 1096.68 616.76 1097.32 616.138C1097.58 615.886 1097.75 615.417 1097.75 615.044C1097.78 611.561 1097.75 608.077 1097.75 604.592C1097.75 604.074 1097.9 603.541 1097.82 603.038C1097.73 602.48 1097.47 601.949 1097.28 601.38C1097.96 601.026 1098.08 600.228 1097.4 599.38C1097.58 599.078 1097.76 598.772 1097.94 598.46C1098.3 599.011 1098.33 599.541 1098.11 600.171C1097.95 600.648 1097.98 601.22 1098.55 601.363C1098.4 601.781 1098.19 602.131 1098.16 602.495C1098.09 603.388 1098.08 604.286 1098.07 605.183C1098.07 608.463 1098.08 611.743 1098.06 615.023C1098.06 615.512 1098.17 615.881 1098.54 616.24C1099.21 616.898 1099.17 617.306 1098.68 618.14C1098.45 618.538 1098.29 619.046 1098.29 619.503C1098.31 622.349 1099.17 624.883 1101.17 626.973C1102.27 628.118 1103.37 629.264 1104.4 630.47C1106.01 632.349 1105.96 634.019 1104.34 635.902C1103.68 636.676 1102.98 637.43 1102.4 638.268C1102.07 638.755 1101.79 639.385 1101.78 639.961C1101.7 642.307 1101.59 644.671 1101.79 647.002C1101.93 648.607 1102.54 650.174 1102.99 651.745C1105.03 658.928 1107.09 666.106 1109.14 673.288C1109.4 674.174 1109.73 674.725 1110.85 674.906C1111.67 675.04 1112.38 675.954 1113.28 676.629C1112.79 676.842 1112.57 676.939 1112.2 677.1C1112.2 679.192 1112.04 681.357 1112.26 683.486C1112.41 685.04 1113.03 686.551 1113.48 688.069C1114.32 690.888 1115.22 693.689 1116.03 696.515C1116.29 697.415 1116.33 698.377 1116.51 699.303C1116.62 699.884 1116.86 700.444 1116.94 701.027C1116.99 701.295 1116.9 701.715 1116.71 701.861C1116.13 702.317 1116.06 702.875 1116.07 703.549C1116.12 708.93 1116.16 714.31 1116.17 719.692C1116.17 720.379 1116.38 720.759 1117.06 720.989C1118.05 721.324 1119 721.761 1119.96 722.178C1121.08 722.662 1121.31 723.307 1120.57 724.258C1119.58 725.512 1120.13 726.913 1120.04 728.25C1120.02 728.407 1120.24 728.588 1120.37 728.745C1124.19 733.396 1128 738.05 1131.85 742.68C1132.11 742.999 1132.56 743.251 1132.97 743.351C1134.23 743.663 1135.52 743.87 1136.79 744.154C1137.21 744.248 1137.6 744.456 1138 744.611V744.765C1137.49 744.808 1136.99 744.891 1136.49 744.885C1135.44 744.871 1134.39 744.811 1133.35 744.765C1132.77 744.74 1132.43 744.927 1132.42 745.585C1132.42 746.377 1132.33 747.17 1132.32 747.962C1132.27 754.157 1132.23 760.352 1132.19 766.548C1132.19 766.951 1132.19 767.352 1132.19 767.855C1131.08 767.855 1130.07 767.855 1129.05 767.855C1120.49 767.855 1111.92 767.852 1103.35 767.862C1102.67 767.862 1101.98 767.942 1101.3 767.985H961.239V768Z" fill="#205383"/>
<rect x="865" y="757" width="273" height="69" rx="5" fill="#205383"/>
<path d="M659.761 903.011C637.193 882.812 757.311 784.397 862.454 784.397C974.009 784.397 1020.47 768.652 1155.23 817.867C1496.64 942.555 1125.64 944.115 1035.88 925.912C946.127 907.709 934.587 953.51 854.661 925.912C774.735 898.314 687.97 928.261 659.761 903.011Z" fill="#1B4A77"/>
<path d="M419.109 882.879C423.091 852.629 540.393 808.212 651.722 808.212C769.839 808.212 824.521 794.507 959.912 859.271C1139.41 945.132 912.394 921.311 817.357 904.291C722.321 887.272 703.756 945.062 619.128 919.258C534.5 893.453 414.887 914.945 419.109 882.879Z" fill="#1B4A77"/>
<path d="M-420 919.096C657.808 866.816 1262.19 867.12 2340 919.096V1080H-420V919.096Z" fill="#35638E"/>
</g>
</svg>
