<svg width="485" height="80" viewBox="0 0 485 80" fill="none" xmlns="http://www.w3.org/2000/svg">
<mask id="mask0_151_190" style="mask-type:alpha" maskUnits="userSpaceOnUse" x="0" y="0" width="485" height="80">
<rect width="485" height="80" fill="#D9D9D9"/>
</mask>
<g mask="url(#mask0_151_190)">
<path d="M774.571 79.4859V74.8267H-253.277C-253.796 76.0357 -254.149 76.932 -254.263 77.6076C-254.322 77.9551 -254.313 78.2219 -254.245 78.4317C-254.179 78.6347 -254.051 78.8039 -253.833 78.9492C-253.374 79.2548 -252.541 79.4404 -251.156 79.5406C-249.785 79.6397 -247.927 79.6532 -245.464 79.6532C-218.301 79.6532 -191.14 79.6518 -163.979 79.6503C-109.659 79.6475 -55.341 79.6446 -1.01709 79.6532C31.4769 79.6591 63.9706 79.6784 96.4642 79.6976C135.455 79.7207 174.447 79.7438 213.438 79.7438C255.154 79.7438 296.873 79.7228 338.592 79.7018C380.312 79.6807 422.031 79.6597 463.747 79.6597C500.602 79.6597 537.462 79.6828 574.321 79.7059C605.036 79.7252 635.752 79.7444 666.464 79.7503C694.372 79.7503 722.279 79.7113 750.186 79.6723C756.396 79.6637 762.605 79.655 768.815 79.6467H768.815C770.101 79.6467 771.384 79.5995 772.761 79.5489C773.345 79.5274 773.946 79.5053 774.571 79.4859Z" stroke="#EDEDED" stroke-width="0.5"/>
<path d="M768.748 5.06287H768.749C770.098 5.06287 771.452 5.01726 772.928 4.9675C773.458 4.94965 774.004 4.93126 774.571 4.91426V0.25H-253.714C-253.881 1.02317 -253.857 1.68634 -253.661 2.2491C-253.451 2.85311 -253.034 3.36513 -252.391 3.78313C-251.09 4.62832 -248.885 5.0737 -245.726 5.07586C-218.776 5.07586 -191.825 5.07441 -164.875 5.07297C-110.976 5.07008 -57.0795 5.0672 -3.18835 5.07586C26.9632 5.08397 57.1168 5.10337 87.2708 5.12277C129.485 5.14993 171.699 5.17708 213.91 5.1733C257.072 5.1733 300.229 5.14884 343.386 5.12439C383.462 5.10169 423.538 5.07898 463.617 5.07586C500.224 5.07586 536.835 5.10063 573.445 5.12541C604.423 5.14638 635.402 5.16734 666.377 5.1733C692.624 5.1733 718.871 5.13486 745.118 5.09643C752.995 5.0849 760.872 5.07337 768.748 5.06287Z" stroke="#EDEDED" stroke-width="0.5"/>
<path d="M201.477 24.7551L199.823 23.1744C196.806 26.1613 193.873 29.063 191.035 31.8706C188.235 34.6406 185.528 37.3191 182.924 39.8978C184.232 41.1943 185.572 42.5225 186.937 43.8755C190.938 47.8425 195.154 52.0222 199.413 56.2392C200.287 55.3826 201.146 54.5382 202.049 53.6508C202.888 52.8255 203.766 51.9628 204.729 51.0185C200.833 47.669 196.785 44.1868 192.589 40.5782L192.377 40.3956L192.582 40.2053C193.268 39.5708 193.904 38.9823 194.506 38.4244C196.298 36.7662 197.799 35.3775 199.442 33.8494L199.614 33.6894L199.785 33.8513C206.557 40.2906 213.265 46.6736 220.152 53.2266C221.343 54.3592 222.538 55.4969 223.74 56.6408C226.247 54.1518 228.665 51.7513 231.042 49.3913C232.411 48.0316 233.768 46.6854 235.119 45.3434L235.292 45.1719L235.468 45.34C241.044 50.6633 246.474 55.845 251.761 60.8913C254.211 63.2292 256.631 65.5381 259.02 67.8185C262.356 64.6558 265.635 61.5472 268.871 58.4795C275.681 52.0239 282.3 45.7492 288.853 39.5315C283.81 34.7637 278.64 29.8732 273.379 24.897C268.904 20.6644 264.363 16.3697 259.78 12.0357C252.124 19.335 244.278 26.8151 236.214 34.5015L236.035 34.6721L235.862 34.495C233.821 32.4007 231.856 30.3873 229.878 28.3603C228.032 26.4693 226.175 24.5663 224.233 22.5747L223.995 22.8544C222.008 25.1862 220.496 26.9602 218.715 29.0545C219.952 30.098 221.263 31.2037 222.629 32.3562C225.134 34.4686 227.825 36.7386 230.586 39.0718L230.809 39.2605L230.588 39.4518C230.176 39.8086 229.781 40.1507 229.4 40.4807C227.181 42.4025 225.436 43.9139 223.555 45.5398L223.383 45.6883L223.219 45.5314C216.09 38.7222 208.808 31.7625 201.477 24.7551ZM259.541 45.6311L259.712 45.4625L259.887 45.6257C261.166 46.8145 262.342 47.9107 263.479 48.9709C264.321 49.7553 265.142 50.5201 265.967 51.2882L266.162 51.4695L265.969 51.6526C265.046 52.5264 264.112 53.4133 263.193 54.2856L263.138 54.3378C262.238 55.192 261.354 56.0317 260.511 56.8305L260.349 56.9838L260.178 56.8407C258.705 55.6066 257.268 54.4003 255.849 53.209C255.198 52.6624 254.551 52.119 253.905 51.5776L253.695 51.4011L253.89 51.2082C254.787 50.3222 255.627 49.4946 256.426 48.7061C257.524 47.6241 258.546 46.6157 259.541 45.6311ZM272.826 34.3127L272.561 34.558C274.503 36.209 276.446 37.8541 278.388 39.4994L278.394 39.5041L278.603 39.681L278.408 39.873C277.741 40.5289 277.098 41.1617 276.474 41.776C275.104 43.1236 273.825 44.3821 272.591 45.6005L272.423 45.766L272.248 45.6086C270.969 44.4596 269.748 43.3645 268.553 42.2937C267.747 41.5709 266.953 40.8591 266.162 40.1493L265.957 39.966L266.159 39.7796C267.213 38.805 268.261 37.8401 269.3 36.8836C270.142 36.1083 270.978 35.3385 271.807 34.5735L271.5 34.3127H272.18H272.187H272.826ZM248.057 33.6729V34.1415C249 34.9649 249.905 35.7573 250.802 36.5427C251.971 37.5661 253.126 38.5777 254.334 39.6308L254.544 39.8139L254.339 40.0029C253.272 40.9885 252.258 41.9252 251.277 42.8306C250.266 43.7651 249.29 44.6663 248.329 45.5539L248.16 45.7099L247.99 45.5546C247.582 45.1805 247.176 44.8091 246.772 44.4392C245.12 42.9257 243.493 41.4361 241.8 39.8789L241.601 39.696L241.799 39.5119C243.802 37.6464 245.667 35.9053 247.636 34.0659L248.057 33.6729ZM260.242 34.2171H260.145L260.073 34.1513C258.589 32.7896 257.215 31.5241 255.953 30.3615C255.383 29.836 254.836 29.3315 254.311 28.8487L254.127 28.6797L254.296 28.4958C256.224 26.3944 258.041 24.4174 259.423 22.9181L259.591 22.7358L259.775 22.9024L259.869 22.9879C262.088 25.0002 263.997 26.7318 266.027 28.578L266.228 28.761L266.029 28.9461C264.921 29.9754 263.769 31.0438 262.569 32.1563C261.869 32.8056 261.152 33.47 260.419 34.1503L260.347 34.2171H260.249H260.242Z" stroke="#EDEDED" stroke-width="0.5"/>
<path d="M53.7841 56.1399C58.1762 60.6111 61.9307 64.4338 66.0135 68.5982C68.1924 66.373 70.2167 64.3041 72.211 62.2658C74.1317 60.3027 76.0246 58.3681 78.001 56.3496L78.1798 56.167L78.3585 56.3499C80.8443 58.8954 83.1916 61.2959 85.5186 63.6756C87.0582 65.25 88.5889 66.8154 90.145 68.4077C90.9651 67.566 91.7226 66.7879 92.4374 66.0538C93.5392 64.9223 94.5393 63.8951 95.5102 62.9C91.3108 58.8857 87.064 54.8266 82.8173 50.7675C79.2354 47.3438 75.6535 43.9202 72.1 40.5235L71.9121 40.3439L72.0989 40.1631C77.3932 35.0412 82.5468 30.058 87.6912 25.0838C90.4662 22.4005 93.2386 19.7198 96.0288 17.0214C95.1661 16.1768 94.3411 15.3701 93.5064 14.5538C92.4693 13.5395 91.417 12.5105 90.2585 11.3757C87.8763 13.7825 85.5392 16.1395 83.1508 18.5483C81.6326 20.0795 80.0936 21.6316 78.5092 23.2307L78.3302 23.4113L78.1527 23.2293C75.3 20.3065 72.6166 17.56 69.7897 14.6667C68.6337 13.4836 67.4537 12.2759 66.2284 11.0215C65.2072 12.0745 64.2114 13.1016 63.2314 14.1123C60.2231 17.2151 57.3642 20.1637 54.3792 23.2355L54.2035 23.4162L54.0242 23.2391C50.0851 19.3479 46.507 15.8101 42.8182 12.163L42.1957 11.5475C40.517 13.1329 38.9726 14.5911 37.4246 16.0527L36.5647 16.8646C44.5001 24.5589 52.2934 32.1186 60.039 39.6331L60.2237 39.8123L60.0393 39.9918C53.0523 46.7878 46.0377 53.6048 38.8518 60.5883L36.5158 62.8584C38.0695 64.1324 39.6106 65.394 41.2263 66.7167C41.5596 66.9896 41.8961 67.265 42.2365 67.5437C44.4071 65.3302 46.717 62.9769 49.1591 60.4888C50.54 59.082 51.9631 57.6321 53.4273 56.14L53.6057 55.9582L53.7841 56.1399ZM65.7761 45.5585L65.9492 45.3881L66.1245 45.5563C68.3006 47.6444 70.2003 49.4641 71.9549 51.1397L72.1386 51.3151L71.9603 51.496C71.2467 52.2201 70.5184 52.9581 69.7902 53.696C68.7272 54.773 67.6645 55.8499 66.6478 56.8832L66.4845 57.0491L66.3074 56.8981C65.2959 56.0362 64.2963 55.1856 63.3039 54.3411C62.2097 53.4099 61.1242 52.4862 60.0413 51.5631L59.833 51.3855L60.0286 51.1941C62.1564 49.1126 63.9732 47.3322 65.7761 45.5585ZM71.9761 27.8297L72.1623 28.0084L71.9777 28.1889C69.995 30.1264 68.0675 32.0116 66.4095 33.635L66.2488 33.7923L66.0754 33.6491C64.134 32.0452 62.1027 30.3627 60.3893 28.9422L60.1886 28.7758L60.3633 28.5823C62.3599 26.3696 64.1286 24.4123 65.9386 22.4092L66.1111 22.2184L66.2969 22.3962C67.0099 23.0783 67.6958 23.7339 68.353 24.3622C69.6822 25.6329 70.8942 26.7914 71.9761 27.8297Z" stroke="#EDEDED" stroke-width="0.5"/>
<path d="M180.511 18.4096C178.927 19.9859 177.278 21.6275 175.543 23.3556V23.8781L175.114 23.4397C171.988 20.2429 169.151 17.3373 166.274 14.3915C165.28 13.3735 164.282 12.3506 163.265 11.3093C159.184 15.4719 155.495 19.2382 151.478 23.3416L151.298 23.5251L151.12 23.3406C148.311 20.4392 145.697 17.7362 143.093 15.0446C141.854 13.7633 140.617 12.4846 139.363 11.1884C138.552 11.9805 137.804 12.7121 137.095 13.4047C135.793 14.6767 134.626 15.8172 133.454 16.9603C139.303 22.6135 145.126 28.238 150.899 33.8154C152.886 35.7344 154.867 37.6478 156.841 39.5549L157.027 39.7348L156.841 39.9146C149.09 47.3946 141.286 54.9197 133.427 62.4962C134.403 63.3809 135.35 64.2374 136.298 65.094L136.299 65.0951C137.255 65.9587 138.21 66.8224 139.195 67.7151C142.718 64.2288 146.459 60.5292 150.274 56.7598L150.451 56.5846L150.627 56.7614C152.698 58.8454 154.687 60.8459 156.676 62.8465C158.607 64.7892 160.538 66.7319 162.545 68.751C165.877 65.357 168.798 62.3837 171.684 59.4458C172.627 58.4866 173.565 57.5312 174.513 56.5661L174.692 56.3843L174.87 56.5663C177.677 59.4308 180.294 62.1036 182.911 64.7762C184.165 66.0575 185.42 67.3388 186.695 68.6411C187.137 68.2038 187.559 67.7871 187.963 67.3877C189.731 65.6395 191.162 64.2244 192.525 62.8825C189.48 59.9187 186.436 56.957 183.4 54.0031C178.673 49.4027 173.964 44.8212 169.301 40.2804L169.116 40.1004L169.302 39.9213C177.161 32.3448 184.966 24.8199 193.047 17.0208C192.055 16.1965 191.108 15.4079 190.169 14.6262C189.111 13.746 188.064 12.8744 186.977 11.9704C184.916 14.0244 182.781 16.15 180.511 18.4096ZM162.593 45.7361V45.2888L163.007 45.6465C164.553 46.9838 166.063 48.287 167.457 49.4896C167.993 49.9529 168.513 50.4012 169.01 50.8308L169.207 51.0008L169.03 51.1908C167.846 52.456 166.746 53.6314 165.705 54.7436C164.947 55.5533 164.221 56.3294 163.517 57.0823L163.343 57.2681L163.16 57.091C161.025 55.0225 159.132 53.1897 157.198 51.3175L157.013 51.138L157.198 50.9584C158.982 49.2293 160.853 47.4175 162.593 45.7361ZM157.267 28.7071L157.064 28.5247L157.263 28.3387C159.253 26.4796 161.229 24.6335 162.929 23.0493L163.101 22.8885L163.272 23.0513C164.163 23.9018 165.071 24.7662 165.956 25.6071C166.893 26.4983 167.802 27.3632 168.633 28.1573L168.808 28.3246L168.646 28.5049C167.818 29.4303 166.961 30.3896 166.114 31.3382C165.267 32.2869 164.429 33.225 163.638 34.1083L163.47 34.295L163.284 34.1273C161.073 32.1372 159.104 30.3632 157.267 28.7071Z" stroke="#EDEDED" stroke-width="0.5"/>
<path d="M11.4246 28.0399C9.67133 26.2276 7.9472 24.4455 6.18049 22.6181C4.5427 24.3317 3.23079 25.703 1.87712 27.1179C1.39602 27.6208 0.909653 28.1291 0.401505 28.6604C1.46507 29.566 2.54258 30.4838 3.63417 31.4137C6.53629 33.8858 9.53797 36.4428 12.642 39.0799L12.8581 39.2636L12.6488 39.455C9.60144 42.2408 6.87483 44.7309 4.33635 47.0492C3.02064 48.2508 1.75547 49.4062 0.522388 50.5328C3.96202 53.7846 7.28548 56.9245 10.5238 59.9839C13.0632 62.383 15.5503 64.7327 18 67.0481C23.3264 62.0076 29.0321 56.6077 35.2599 50.7131C31.4608 47.371 27.4999 43.8883 23.279 40.1783L23.0664 39.9915L23.278 39.8036C27.5892 35.976 31.5266 32.4772 35.3659 29.0648C34.1398 27.8892 33.0395 26.8384 31.9642 25.8116C31.2068 25.0883 30.4617 24.3769 29.694 23.6421C26.2146 27.1518 22.5318 30.867 18.4747 34.9624L18.2949 35.1439L18.1174 34.9602C15.7555 32.5165 13.5682 30.2557 11.4246 28.0399ZM17.7762 57.0622L17.6035 57.2109L17.4395 57.0526C17.081 56.7064 16.717 56.355 16.3502 56.0009C14.8652 54.5674 13.3334 53.0887 11.9261 51.7237L11.7486 51.5516L11.9187 51.3722C12.5985 50.6553 13.254 49.9636 13.8842 49.2987C15.1239 47.9906 16.2655 46.786 17.3007 45.6966L17.4681 45.5205L17.6489 45.6828C19.8737 47.6795 21.8289 49.4405 23.9637 51.3651L24.1747 51.5553L23.9592 51.7404C22.8204 52.7186 21.7037 53.6804 20.4819 54.7327C19.6432 55.4551 18.755 56.2201 17.7762 57.0622Z" stroke="#EDEDED" stroke-width="0.5"/>
<path d="M102.835 55.7123C104.338 54.2598 105.867 52.7818 107.517 51.1845C104.371 48.4149 101.026 45.4759 97.5313 42.4043C96.8776 41.8299 96.2187 41.2508 95.5548 40.6673L95.3434 40.4816L95.5527 40.2935C100.263 36.0624 104.191 32.5345 108.336 28.8123C107.076 27.6918 105.985 26.723 104.96 25.8132C104.122 25.0685 103.328 24.3633 102.522 23.647C99.1161 27.0861 95.6625 30.5705 92.2336 34.03C90.1702 36.1119 88.1157 38.1847 86.0861 40.2331C87.1514 41.2588 88.2458 42.3122 89.3626 43.3873C93.5404 47.409 98.0329 51.7335 102.497 56.0389L102.835 55.7123Z" stroke="#EDEDED" stroke-width="0.5"/>
<path d="M126.866 23.5301C125.189 25.1812 123.506 26.8378 121.487 28.8293C125.32 32.1073 129.32 35.5235 133.446 39.0408L133.663 39.2263L133.45 39.4172C133.09 39.7405 132.733 40.0604 132.379 40.3773C128.314 44.0207 124.687 47.2707 120.703 50.8339C121.834 51.6875 122.844 52.4504 123.77 53.1499C124.899 54.0031 125.904 54.762 126.851 55.4763C132.044 50.3764 137.701 44.8241 143.192 39.4346C141.109 37.405 138.926 35.2785 136.679 33.0897C133.502 29.9954 130.198 26.7765 126.866 23.5301Z" stroke="#EDEDED" stroke-width="0.5"/>
<path d="M234.325 59.4337C233.104 60.5877 231.887 61.7384 230.665 62.8887C231.5 63.686 232.345 64.4899 233.185 65.2885C234.046 66.1072 234.901 66.9203 235.733 67.7148C237.6 66.1051 239.478 64.4861 241.497 62.7443C239.552 60.962 237.789 59.347 236.079 57.7762C235.493 58.3297 234.909 58.8821 234.325 59.4337Z" stroke="#EDEDED" stroke-width="0.5"/>
<path d="M230.717 17.318C232.22 18.6739 234.021 20.2954 235.825 21.9198C237.457 20.2439 239.12 18.5337 240.976 16.6223C239.391 15.3303 237.518 13.8027 235.705 12.3224C234.947 13.0797 234.111 13.9176 233.22 14.8106C232.424 15.6085 231.584 16.4503 230.717 17.318Z" stroke="#EDEDED" stroke-width="0.5"/>
<path d="M46.5894 39.4771C45.4115 38.3984 43.6579 36.7848 41.8871 35.1552C41.213 35.7781 40.5122 36.4244 39.7826 37.0971C38.7896 38.0128 37.7434 38.9775 36.6388 39.9993C37.1903 40.4578 37.7451 40.9195 38.303 41.3836C39.5498 42.4211 40.8118 43.471 42.0854 44.5269C42.7518 43.7811 43.4821 42.9617 44.2406 42.1106C45.0071 41.2506 45.8024 40.3582 46.5894 39.4771Z" stroke="#EDEDED" stroke-width="0.5"/>
<path d="M211.738 21.7501C213.332 20.2093 215.02 18.5791 216.741 16.9183C215.79 16.0338 214.849 15.162 213.919 14.3007C213.122 13.5625 212.333 12.832 211.554 12.1078C209.875 13.7352 208.182 15.3761 206.406 17.0892C206.635 17.2894 206.866 17.4912 207.098 17.6944C208.576 18.9867 210.121 20.3385 211.738 21.7501Z" stroke="#EDEDED" stroke-width="0.5"/>
<path d="M13.103 16.8708C13.6271 17.3416 14.1771 17.835 14.7529 18.3516C15.845 19.3313 17.0298 20.3942 18.307 21.5445C19.0348 20.8706 19.8182 20.1469 20.6617 19.3677C21.4878 18.6045 22.3716 17.7881 23.3172 16.9132C21.9263 15.8511 20.598 14.8355 19.2733 13.8227C18.6753 13.3654 18.078 12.9087 17.476 12.4486C16.9582 12.973 16.3732 13.5639 15.7544 14.189C14.9055 15.0466 13.9929 15.9683 13.103 16.8708Z" stroke="#EDEDED" stroke-width="0.5"/>
<path d="M111.334 18.3216C112.474 19.4042 113.651 20.522 114.896 21.71C115.365 21.2799 115.843 20.8408 116.331 20.3928C117.537 19.2861 118.802 18.1252 120.127 16.9122C119.656 16.5032 119.192 16.1 118.73 15.6994C117.31 14.4658 115.917 13.2566 114.442 11.979C113.449 12.9715 112.401 14.0163 111.353 15.0611C110.789 15.6233 110.225 16.1854 109.669 16.7393C110.218 17.261 110.772 17.787 111.334 18.3216Z" stroke="#EDEDED" stroke-width="0.5"/>
<path d="M117.134 59.9877C116.335 59.2057 115.513 58.4003 114.665 57.5684C113.244 58.9518 111.888 60.2672 110.492 61.6222C110.086 62.0159 109.677 62.4129 109.262 62.8159C110.694 64.114 112.106 65.3893 113.471 66.6228C113.814 66.9319 114.153 67.2384 114.489 67.542C116.168 65.9567 117.889 64.3331 119.769 62.5693C118.92 61.736 118.043 60.877 117.134 59.9877Z" stroke="#EDEDED" stroke-width="0.5"/>
<path d="M213.301 65.9596C214.293 64.8621 215.351 63.6914 216.447 62.4776C214.972 61.0067 213.373 59.4133 211.839 57.8919C210.983 58.6835 210.15 59.4531 209.317 60.2225C208.351 61.1149 207.385 62.0072 206.382 62.9338C206.887 63.3712 207.403 63.8185 207.932 64.2769C209.146 65.3301 210.428 66.4418 211.796 67.6246C212.277 67.0927 212.78 66.5363 213.301 65.9596Z" stroke="#EDEDED" stroke-width="0.5"/>
<path d="M114.378 34.9517C112.806 36.4469 111.096 38.0731 109.386 39.6934C110.355 40.5666 111.3 41.421 112.231 42.2615C113.073 43.0222 113.902 43.7714 114.724 44.5126C115.613 43.5981 116.563 42.6188 117.537 41.6139C118.16 40.971 118.794 40.3177 119.428 39.6641C118.009 38.3383 116.248 36.6937 114.378 34.9517Z" stroke="#EDEDED" stroke-width="0.5"/>
<path d="M422.981 28.5985C427.161 24.6258 431.309 20.6838 435.476 16.7214C434.273 15.6727 433.173 14.716 432.077 13.7619C431.198 12.9973 430.322 12.2342 429.394 11.4267C428.894 11.9346 428.389 12.4468 427.88 12.9634C424.792 16.0981 421.544 19.3951 418.098 22.8979L417.92 23.0788L417.742 22.8981C415.687 20.8144 413.743 18.8465 411.804 16.8835C409.805 14.8608 407.812 12.8432 405.708 10.7092C403.386 13.1306 401.201 15.4076 399.045 17.6557C397.374 19.3974 395.72 21.1218 394.031 22.8825L393.856 23.0651L393.675 22.8879C391.476 20.7295 389.429 18.719 387.452 16.7787C385.522 14.8833 383.659 13.055 381.791 11.221C379.828 13.2164 378.088 14.9882 376.285 16.8261C383.799 24.0625 391.676 31.6372 399.555 39.2122L399.564 39.2217L399.752 39.4019L399.564 39.5821C391.663 47.1788 383.83 54.7046 375.998 62.2299C376.997 63.1433 377.994 64.058 378.97 64.9535C379.772 65.6898 380.561 66.4132 381.324 67.1121C389.215 59.8376 397.212 52.4682 405.032 45.2665L405.204 45.1083L405.373 45.2689L405.378 45.2738C405.379 45.2741 405.379 45.2745 405.379 45.2748C411.728 51.1773 418.043 57.0515 424.492 63.0503C426.179 64.6193 427.874 66.1967 429.582 67.7855C431.428 65.7996 433.091 64.009 434.566 62.408C429.379 57.3859 424.073 52.2545 418.708 47.0659C416.277 44.7144 413.833 42.3511 411.383 39.9808L411.196 39.7996L411.385 39.62C415.304 35.8944 419.156 32.2336 422.981 28.5985ZM399.127 28.105L398.907 27.9207L399.12 27.7283C399.977 26.9517 400.787 26.2192 401.547 25.5319C402.864 24.3416 404.03 23.2869 405.033 22.374L405.196 22.2251L405.364 22.3694C407.693 24.3726 409.613 26.0288 411.306 27.4886L411.502 27.6575L411.326 27.8475C410.644 28.5871 409.968 29.319 409.308 30.0339C408.152 31.2869 407.043 32.4881 406.027 33.5884L405.866 33.7635L405.683 33.6103C404.132 32.3091 402.736 31.1365 401.281 29.9146C400.584 29.3293 399.874 28.7326 399.127 28.105Z" stroke="#EDEDED" stroke-width="0.5"/>
<path d="M290.373 27.0111C294.533 30.9346 298.714 34.8771 302.889 38.816H303.411L302.971 39.245C297.364 44.7144 291.929 50.0155 286.487 55.322C284.037 57.7113 281.586 60.1016 279.118 62.5089C279.654 62.9403 280.196 63.3761 280.739 63.813C282.007 64.833 283.281 65.8585 284.511 66.8445L286.184 65.2864C293.311 58.649 300.727 51.7426 308.043 44.9251L308.213 44.7669L308.383 44.9245C313.296 49.4685 318.083 53.8961 322.83 58.2858C326.142 61.3482 329.433 64.3922 332.733 67.4445C333.119 67.0647 333.502 66.688 333.881 66.3144C335.299 64.918 336.674 63.5642 338.011 62.2535C330.373 54.8871 322.559 47.3533 314.582 39.665L314.393 39.4828L314.584 39.3029L316.806 37.2123C324.107 30.3416 331.331 23.5429 338.555 16.7396C336.514 14.8605 334.747 13.2362 333.108 11.7372C329.194 15.4322 325.252 19.1558 321.302 22.8873C317.412 26.5614 313.515 30.2432 309.628 33.9128L309.457 34.0742L309.286 33.9135C307.139 31.9026 305.02 29.9179 302.921 27.9513C296.797 22.2145 290.837 16.6317 284.827 11.0042C283.931 11.9019 283.098 12.736 282.291 13.5445C281.274 14.5635 280.298 15.5419 279.286 16.5554C282.953 20.0147 286.655 23.5053 290.373 27.0111Z" stroke="#EDEDED" stroke-width="0.5"/>
<path d="M345.947 55.7738C347.392 54.2875 348.895 52.7433 350.435 51.1604C352.472 49.0677 354.574 46.9075 356.696 44.7244L356.87 44.5455L357.049 44.719C359.315 46.9119 361.215 48.7514 363.315 50.7873L363.509 50.9747L363.308 51.1536C361.377 52.8701 359.455 54.5771 357.544 56.2744C355.523 58.0697 353.514 59.854 351.52 61.6272C352.263 62.3125 352.954 62.9512 353.611 63.5574C354.904 64.7518 356.06 65.82 357.202 66.8701C359.7 64.4432 362.219 61.9961 364.756 59.5308C371.775 52.7113 378.938 45.7524 386.199 38.6968C385.659 38.1936 385.024 37.6023 384.318 36.9449C383.38 36.0706 382.316 35.0797 381.184 34.0243C377.293 37.8275 373.518 41.5203 369.575 45.3784L369.388 45.5622L369.213 45.3655C368.746 44.8373 368.288 44.3197 367.836 43.809C366.444 42.2371 365.11 40.7294 363.728 39.1732L363.563 38.9871L363.748 38.821C367.117 35.8023 370.998 32.3171 374.517 29.1571C368.137 23.1119 362.356 17.6402 356.646 12.2364C356.3 12.5583 355.905 12.9254 355.472 13.3273C354.468 14.2607 353.261 15.3814 352.001 16.558C355.766 19.9639 359.654 23.481 363.903 27.3203L364.118 27.5146L363.894 27.6988C361.249 29.8786 359.134 31.6199 356.668 33.6492L356.494 33.7923L356.334 33.6343C352.88 30.2325 349.144 26.5517 345.503 22.9601C343.083 25.3347 340.707 27.6652 338.35 29.9778C334.913 33.3494 331.516 36.6829 328.073 40.059L328.305 40.2658C329.541 41.3684 331.212 42.8598 333.139 44.5732C334.93 42.7464 336.744 40.8973 338.558 39.0482L338.567 39.0394C340.435 37.1358 342.302 35.2322 344.144 33.3532L344.314 33.1794L344.493 33.345C345.698 34.4647 346.779 35.4677 347.818 36.4322C348.892 37.4294 349.922 38.3855 351 39.387L351.203 39.5749L350.996 39.7576C347.234 43.0776 343.305 46.5493 338.98 50.3718C341.02 51.9555 342.68 53.2421 344.591 54.7229C345.027 55.0611 345.477 55.4095 345.947 55.7738Z" stroke="#EDEDED" stroke-width="0.5"/>
<path d="M496.022 27.5878C494.269 25.7755 492.545 23.9933 490.778 22.1659C489.14 23.8796 487.828 25.2509 486.475 26.6658C485.994 27.1686 485.507 27.677 484.999 28.2082C486.063 29.1138 487.14 30.0317 488.232 30.9615C491.134 33.4337 494.136 35.9906 497.24 38.6278L497.456 38.8114L497.246 39.0028C494.199 41.7886 491.472 44.2787 488.934 46.597C487.618 47.7986 486.353 48.9541 485.12 50.0806C488.56 53.3325 491.883 56.4723 495.121 59.5317C497.661 61.9309 500.148 64.2805 502.598 66.5959C507.924 61.5554 513.63 56.1555 519.858 50.261C516.058 46.9188 512.098 43.4362 507.877 39.7261L507.664 39.5393L507.876 39.3514C512.187 35.5239 516.124 32.025 519.964 28.6126C518.737 27.437 517.637 26.3863 516.562 25.3595C515.804 24.6362 515.059 23.9248 514.292 23.1899C510.812 26.6996 507.129 30.4149 503.072 34.5102L502.893 34.6917L502.715 34.508C500.353 32.0643 498.166 29.8035 496.022 27.5878ZM502.374 56.6101L502.201 56.7587L502.037 56.6004C501.679 56.2542 501.315 55.9029 500.948 55.5487C499.463 54.1153 497.931 52.6366 496.524 51.2716L496.346 51.0995L496.516 50.9201C497.196 50.2032 497.852 49.5115 498.482 48.8465C499.722 47.5385 500.863 46.3339 501.898 45.2445L502.066 45.0684L502.247 45.2306C504.471 47.2274 506.427 48.9884 508.561 50.913L508.772 51.1032L508.557 51.2883C507.418 52.2664 506.301 53.2283 505.08 54.2806C504.241 55.003 503.353 55.768 502.374 56.6101Z" stroke="#EDEDED" stroke-width="0.5"/>
<path d="M453.968 44.161C458.083 48.6404 461.703 52.5805 465.5 56.7185C467.852 54.3191 469.496 52.6414 471.441 50.652C469.214 48.7829 466.949 46.8786 464.59 44.8949C462.73 43.3302 460.81 41.7162 458.804 40.0309L458.579 39.8419L458.802 39.6501C460.361 38.3065 461.831 37.0396 463.239 35.8262C466.236 33.2422 468.953 30.9006 471.651 28.5767C469.418 26.5772 467.632 24.9721 465.613 23.1575C463.772 24.9935 461.838 26.9219 459.834 28.9211C458.144 30.6076 456.403 32.3445 454.623 34.1186L454.445 34.2962L454.269 34.117C450.176 29.9624 446.505 26.2324 442.486 22.1475C441.911 22.8584 441.379 23.5177 440.869 24.1479C439.569 25.7575 438.422 27.1776 437.123 28.7827C438.936 30.3104 440.976 32.0324 443.175 33.8885C445.015 35.4425 446.968 37.0906 448.991 38.7974L449.514 39.2385H448.911C447.774 40.2352 446.681 41.1935 445.62 42.1232C442.301 45.0326 439.302 47.6617 436.287 50.3092C438.459 52.2692 440.236 53.8725 442.12 55.5661C443.04 54.6521 443.976 53.7223 444.933 52.7711C447.612 50.1078 450.461 47.2765 453.608 44.1527L453.792 43.9696L453.968 44.161Z" stroke="#EDEDED" stroke-width="0.5"/>
<path d="M481.159 64.3116C481.909 63.5689 482.691 62.795 483.521 61.9732C482.857 61.3544 482.172 60.7172 481.479 60.0711C480.491 59.151 479.483 58.213 478.489 57.2853C477.848 57.9321 477.213 58.5714 476.576 59.2131C475.43 60.3676 474.276 61.5296 473.065 62.7557C473.386 63.035 473.721 63.3265 474.067 63.6274C475.356 64.7483 476.796 65.9998 478.209 67.233C479.16 66.2896 480.129 65.33 481.159 64.3116Z" stroke="#EDEDED" stroke-width="0.5"/>
<path d="M480.569 41.7589C481.42 40.8703 482.271 39.9819 483.122 39.0895C481.586 37.6769 479.855 36.0847 478.158 34.5199C477.766 34.86 477.369 35.2043 476.966 35.5532C475.554 36.7776 474.076 38.0591 472.521 39.413C473.174 40.0122 473.808 40.5932 474.428 41.162C475.653 42.2859 476.827 43.3626 478.006 44.4396C478.861 43.5435 479.715 42.6515 480.569 41.7597L480.569 41.7589Z" stroke="#EDEDED" stroke-width="0.5"/>
<path d="M478.371 21.6756C479.841 20.2772 481.276 18.9084 482.832 17.4244C483.164 17.1072 483.502 16.7848 483.847 16.4557C483.241 15.9778 482.641 15.506 482.049 15.04C480.663 13.9487 479.318 12.8895 478.011 11.8588C477.333 12.4443 476.594 13.0817 475.807 13.7603C474.801 14.6286 473.716 15.5643 472.58 16.5449C474.499 18.2463 476.309 19.8499 478.371 21.6756Z" stroke="#EDEDED" stroke-width="0.5"/>
<path d="M429.726 34.6613C428.367 36.2048 426.754 38.0402 424.904 40.1463C425.683 40.8734 426.671 41.7972 427.781 42.8365C428.399 43.4141 429.054 44.0274 429.734 44.6625C430.365 43.9763 430.991 43.2963 431.622 42.6101C432.703 41.4369 433.799 40.2455 434.966 38.9744C434.524 38.6101 434.058 38.2268 433.574 37.8286C432.375 36.8432 431.066 35.7665 429.726 34.6613Z" stroke="#EDEDED" stroke-width="0.5"/>
<path d="M454.46 21.0888C455.634 19.7269 457.153 17.9662 458.901 15.9479C458.275 15.3817 457.598 14.7682 456.897 14.1318C456.036 13.3513 455.138 12.5363 454.247 11.7318C453.462 12.5487 452.667 13.375 451.873 14.2012L451.872 14.2017L451.87 14.2035C451.08 15.0252 450.29 15.8469 449.509 16.6593C450.791 17.8051 452.505 19.3383 454.46 21.0888Z" stroke="#EDEDED" stroke-width="0.5"/>
<path d="M459.303 62.2278C457.548 60.6138 455.812 59.0181 454.124 57.4672C452.153 59.1391 450.396 60.6305 448.454 62.2819C449.654 63.3342 450.782 64.3214 451.886 65.2881C452.601 65.9142 453.306 66.5316 454.014 67.1526C455.2 66.047 456.404 64.9256 457.662 63.7554C458.198 63.256 458.745 62.7476 459.303 62.2278Z" stroke="#EDEDED" stroke-width="0.5"/>
<path d="M305.676 18.233C306.69 19.2844 307.739 20.3713 308.799 21.4743C309.846 20.4308 310.877 19.402 311.932 18.3481C312.615 17.6673 313.307 16.976 314.021 16.2635C312.311 14.729 310.538 13.1415 308.664 11.4634C307.601 12.5351 306.528 13.6218 305.476 14.6863C304.925 15.2437 304.38 15.7949 303.846 16.3348C304.44 16.951 305.052 17.5853 305.676 18.233Z" stroke="#EDEDED" stroke-width="0.5"/>
<path d="M308.713 67.5077C309.468 66.7749 310.204 66.0609 310.933 65.354C311.964 64.3528 312.982 63.3656 314.018 62.3587C312.867 61.3272 311.722 60.3011 310.546 59.2485C309.901 58.6701 309.246 58.0837 308.576 57.484C307.42 58.6306 306.172 59.8693 304.887 61.1454C304.445 61.5847 303.998 62.0284 303.549 62.4743C304.757 63.6543 306.001 64.8663 307.299 66.1298C307.763 66.5822 308.234 67.0412 308.713 67.5077Z" stroke="#EDEDED" stroke-width="0.5"/>
<path d="M400.637 62.4264C402.192 63.8075 403.953 65.3724 405.836 67.0472C406.235 66.6561 406.641 66.2588 407.05 65.8582C408.198 64.7345 409.373 63.5845 410.506 62.4707C409.082 61.18 407.597 59.839 406.16 58.5419C405.929 58.3331 405.699 58.1256 405.47 57.9195C404.076 59.2226 402.382 60.8031 400.637 62.4264Z" stroke="#EDEDED" stroke-width="0.5"/>
</g>
</svg>
